<svg version="1.1" id="Layer_1" xmlns="http://www.w3.org/2000/svg" xmlns:xlink="http://www.w3.org/1999/xlink" x="0px" y="0px"
	 width="100%" viewBox="0 0 1024 576" enable-background="new 0 0 1024 576" xml:space="preserve">
<path fill="#000000" opacity="1.000000" stroke="none" 
	d="
M468.468628,577.000000 
	C458.838318,568.789978 458.101044,559.257690 462.039368,547.967529 
	C477.715485,503.027832 492.927887,457.926422 508.318481,412.887115 
	C509.183533,410.355591 509.802032,407.822327 509.797943,405.092682 
	C509.750092,373.105347 509.766632,341.117950 509.746124,309.130554 
	C509.745300,307.834320 509.545593,306.538177 509.372528,304.442383 
	C506.350311,306.069183 503.733673,307.358124 501.234375,308.844421 
	C492.216156,314.207550 483.288177,319.724030 474.228607,325.015686 
	C466.200409,329.704926 459.945496,328.903961 453.452209,322.440704 
	C435.386597,304.458649 417.354431,286.442871 399.354675,268.394928 
	C392.110474,261.131287 391.976257,252.197327 398.857086,245.437027 
	C405.229218,239.176514 414.450714,239.627640 421.530640,246.673096 
	C435.347168,260.422363 449.223572,274.115234 462.810150,288.089142 
	C466.157990,291.532440 468.608612,291.688385 472.560699,289.179016 
	C483.102234,282.485748 493.993439,276.345734 504.613098,269.771729 
	C508.593597,267.307617 512.755554,266.052368 517.351379,266.046631 
	C535.677490,266.023773 554.004456,265.910797 572.329346,266.059540 
	C585.680664,266.167877 591.300049,272.109711 591.300110,285.539062 
	C591.300232,324.190521 591.326355,362.841980 591.261536,401.493347 
	C591.254456,405.712128 591.856689,409.688232 593.234497,413.701416 
	C608.959106,459.501740 624.601074,505.330505 640.211243,551.169983 
	C643.576965,561.053528 641.085388,569.493958 633.212158,576.742554 
	C625.312439,577.000000 617.624817,577.000000 609.300293,576.710205 
	C605.041443,572.853027 602.491394,568.674072 600.846313,563.826355 
	C588.436218,527.256897 575.950562,490.713043 563.484436,454.162628 
	C559.423584,442.256256 555.350830,430.353943 550.942688,417.452271 
	C549.769531,420.618561 548.928223,422.738953 548.193237,424.895630 
	C534.554626,464.915436 521.065063,504.986877 507.211456,544.932068 
	C503.382660,555.971802 501.417450,567.950500 493.000000,577.000000 
	C484.979095,577.000000 476.958191,577.000000 468.468628,577.000000 
z"/>
<path fill="#000000" opacity="1.000000" stroke="none" 
	d="
M549.077942,185.702209 
	C570.472290,185.893936 586.405029,201.516693 586.260742,221.703659 
	C586.115417,242.024521 569.897339,257.580048 549.140564,257.307373 
	C531.090271,257.070221 515.071167,241.464188 514.671326,223.726776 
	C514.196106,202.645584 528.193359,186.966843 549.077942,185.702209 
z"/>
<path fill="#000000" opacity="1.000000" stroke="none" 
	d="
M535.333984,168.330841 
	C520.197815,183.117569 505.958527,198.309158 490.569122,212.336258 
	C484.154327,218.183197 477.312225,223.464615 470.147583,228.328751 
	C460.511169,234.870987 450.590607,241.031921 442.291290,249.331909 
	C440.176575,251.446808 438.548309,251.195831 436.389496,249.221512 
	C428.889404,242.362457 428.972382,242.551315 435.324951,234.692261 
	C440.656708,228.096039 445.854156,221.359283 450.649475,214.368134 
	C460.579895,199.890533 471.952393,186.706589 484.528595,174.478165 
	C495.985260,163.338272 507.145325,151.893784 518.478394,140.626038 
	C524.833496,134.307587 534.278870,133.687805 540.527649,139.073074 
	C546.756836,144.441452 547.516846,153.942551 542.067505,161.173416 
	C540.178284,163.680283 537.759216,165.787857 535.333984,168.330841 
z"/>
<path fill="#000000" opacity="1.000000" stroke="none" 
	d="
M536.825195,16.698002 
	C542.715576,16.928011 548.153992,17.328411 550.963745,22.982952 
	C553.724731,28.539446 552.179443,33.844990 546.005920,41.070473 
	C547.070679,41.828739 548.179260,42.506500 549.159546,43.335892 
	C553.115967,46.683247 554.823425,52.482742 553.196045,57.346062 
	C551.441772,62.588921 547.667603,65.693275 542.239380,66.170334 
	C537.456238,66.590691 532.613220,66.301064 527.798096,66.396454 
	C525.011475,66.451653 523.919922,65.005920 523.920105,62.410290 
	C523.921143,48.456978 523.925720,34.503658 523.907288,20.550367 
	C523.903748,17.847069 525.170837,16.620176 527.881775,16.690794 
	C530.703674,16.764301 533.529114,16.699699 536.825195,16.698002 
M545.781799,53.361256 
	C545.705322,52.537216 545.784241,51.660564 545.526123,50.898037 
	C544.246826,47.119370 539.417236,44.499702 534.996948,45.210575 
	C530.250122,45.973972 532.486633,49.834953 532.001770,52.406673 
	C531.700745,54.003574 531.983154,55.713696 532.031067,57.372200 
	C532.072754,58.818676 532.509888,59.794403 534.205627,60.158321 
	C539.339355,61.260059 543.674866,59.073475 545.781799,53.361256 
M537.600464,38.325836 
	C539.477844,37.562714 541.218628,36.545727 542.403320,34.883610 
	C544.308472,32.210766 545.704163,29.279654 543.688416,26.122231 
	C541.409180,22.552008 537.574646,22.752525 534.242493,23.511284 
	C530.582336,24.344730 532.390930,27.886044 532.018433,30.289267 
	C531.842407,31.424988 532.069275,32.617233 531.977600,33.773075 
	C531.693604,37.351898 533.019714,39.209232 537.600464,38.325836 
z"/>
<path fill="#000000" opacity="1.000000" stroke="none" 
	d="
M705.234375,25.051241 
	C706.500549,31.539125 704.230164,36.483002 699.657837,40.807354 
	C704.120239,44.074451 707.375732,47.631546 707.340759,53.231579 
	C707.296387,60.341129 702.657837,65.735550 695.574341,66.251152 
	C690.935059,66.588852 686.266479,66.536560 681.610413,66.626228 
	C679.029358,66.675941 677.648071,65.630066 677.662292,62.779392 
	C677.732910,48.638741 677.700806,34.497543 677.690979,20.356548 
	C677.689514,18.260067 678.302246,16.742348 680.746460,16.753237 
	C685.894653,16.776171 691.057739,16.288378 696.182007,17.158804 
	C700.627808,17.913994 703.925537,20.066141 705.234375,25.051241 
M685.366638,57.007919 
	C685.730835,60.923336 688.758606,59.925858 691.064392,59.971508 
	C694.655762,60.042606 697.579407,58.729740 699.109497,55.220814 
	C700.364502,52.342613 699.188354,49.971481 697.245361,47.984657 
	C694.418152,45.093655 690.682251,44.536331 687.054749,45.482620 
	C684.275024,46.207764 685.549805,49.128899 685.359802,51.133968 
	C685.203674,52.781940 685.334961,54.457142 685.366638,57.007919 
M695.789062,24.632940 
	C693.925903,23.285961 691.768311,23.272228 689.607056,23.257717 
	C687.544006,23.243862 685.146790,23.236052 685.458069,26.095093 
	C685.899841,30.152813 683.444763,34.706261 687.032227,38.157127 
	C687.782593,38.878895 689.959167,38.540462 691.314148,38.137779 
	C697.123413,36.411404 699.237366,30.845154 695.789062,24.632940 
z"/>
<path fill="#000000" opacity="1.000000" stroke="none" 
	d="
M712.751465,65.736542 
	C712.251343,61.007622 714.441162,57.140457 715.643005,53.041862 
	C718.819031,42.211174 722.288269,31.466518 725.467834,20.636839 
	C726.312378,17.760441 727.785034,16.608189 730.778870,16.625969 
	C733.655640,16.643053 734.800354,17.943369 735.590454,20.544718 
	C740.117493,35.451050 744.802002,50.309574 749.405273,65.095337 
	C744.268188,67.886711 741.386414,67.246857 740.402893,62.558933 
	C739.276184,57.188484 736.506470,55.338417 731.354431,56.139172 
	C730.056335,56.340916 728.683411,56.302155 727.373535,56.140991 
	C723.528076,55.667881 721.442749,57.294010 720.822144,61.107613 
	C720.094360,65.580391 717.597107,67.455238 712.751465,65.736542 
M729.490784,33.925312 
	C728.651489,36.420948 727.780945,38.906574 726.978577,41.414021 
	C724.304443,49.770565 724.971802,50.584835 733.658752,49.530403 
	C734.242798,49.459522 734.780518,49.007252 735.879395,48.467117 
	C734.236450,43.366924 732.656189,38.387608 731.013611,33.428932 
	C730.712830,32.520874 730.154907,32.540405 729.490784,33.925312 
z"/>
<path fill="#000000" opacity="1.000000" stroke="none" 
	d="
M577.847900,16.718010 
	C580.015686,16.738293 580.964233,17.623625 581.468628,19.281488 
	C586.055237,34.358749 590.685303,49.422817 595.281006,64.497337 
	C595.367004,64.779381 595.188477,65.142052 595.130798,65.466660 
	C589.275452,67.375847 588.056335,67.018761 586.517212,61.405212 
	C585.381714,57.263451 583.212769,55.619064 579.044189,56.112957 
	C577.241882,56.326492 575.373352,56.307274 573.568054,56.102375 
	C569.929810,55.689457 567.941101,57.212772 567.298279,60.773746 
	C567.093872,61.905670 566.603577,62.989285 566.211609,64.083351 
	C565.223267,66.841805 562.921631,66.586197 560.795959,66.201912 
	C557.977478,65.692383 558.820251,63.629425 559.349121,61.900650 
	C563.622009,47.932354 567.977844,33.989136 572.179749,19.999638 
	C573.035828,17.149637 574.830688,16.462626 577.847900,16.718010 
M571.514343,47.578594 
	C574.505981,52.060188 578.321350,48.871021 582.620789,49.535305 
	C580.567444,42.938934 578.826416,37.345818 576.709717,30.545757 
	C574.769775,36.802567 573.214966,41.817413 571.514343,47.578594 
z"/>
<path fill="#000000" opacity="1.000000" stroke="none" 
	d="
M640.012939,57.910721 
	C640.006775,45.772724 640.114075,34.119114 639.934448,22.469933 
	C639.870056,18.294077 641.077637,16.362087 645.609924,16.609900 
	C651.418213,16.927486 657.257385,16.663139 663.083008,16.692007 
	C665.128723,16.702145 667.163879,16.713596 667.256958,19.672606 
	C667.353699,22.747440 665.502258,23.221546 663.071533,23.213190 
	C659.409729,23.200602 655.746765,23.304970 652.086182,23.244366 
	C649.365601,23.199327 648.042908,24.374996 648.197876,27.124565 
	C648.207275,27.290188 648.195496,27.457521 648.186035,27.623627 
	C647.604187,37.804981 647.607666,37.656155 657.718445,37.902287 
	C660.387512,37.967262 664.995605,35.852119 665.093079,41.029022 
	C665.193848,46.379795 660.501404,44.096287 657.883240,44.225262 
	C647.385986,44.742359 648.214600,41.934483 648.116638,55.299328 
	C648.093689,58.437748 649.182739,59.891407 652.474426,59.754131 
	C656.295532,59.594780 660.129456,59.760876 663.957764,59.751858 
	C666.303345,59.746330 667.800903,60.622040 667.850891,63.196625 
	C667.905090,65.989258 666.105469,66.410255 663.880310,66.404816 
	C658.553833,66.391792 653.227234,66.427292 647.900696,66.428116 
	C640.069397,66.429337 640.069397,66.423744 640.012939,57.910721 
z"/>
<path fill="#000000" opacity="1.000000" stroke="none" 
	d="
M283.809692,49.445427 
	C291.043304,46.710541 297.931000,49.135063 304.868286,49.461094 
	C303.199097,41.838718 300.123535,39.770336 293.156128,41.252205 
	C289.417938,42.047268 285.632263,43.041256 281.834808,41.846092 
	C279.824951,41.213535 277.736115,40.343586 277.209747,37.073277 
	C283.744110,38.209896 290.043152,38.367062 295.965790,35.584827 
	C295.117584,29.103939 294.222321,28.421293 288.368652,29.223099 
	C284.543091,29.747105 280.767365,29.884893 277.702698,25.498724 
	C282.398773,25.328272 286.697906,26.203188 290.813782,23.850111 
	C290.649292,19.383310 288.805450,16.212421 283.724396,15.716025 
	C285.804871,11.530136 292.159088,11.139041 293.901215,14.875075 
	C294.849365,16.908318 294.050812,19.589762 296.179932,21.331806 
	C298.311584,21.551702 299.774384,19.873535 301.625916,19.264772 
	C303.206055,18.745247 304.696930,18.748602 305.611908,20.241043 
	C306.738495,22.078646 305.227020,22.974821 303.922577,23.715845 
	C302.058105,24.775013 300.117157,25.699606 298.268158,26.651146 
	C299.360596,33.392994 300.403076,33.938229 306.337830,31.214195 
	C307.372498,30.739283 308.526520,30.370007 309.650360,30.286032 
	C310.825806,30.198202 312.038574,30.633732 312.488190,31.894913 
	C312.991516,33.306881 311.951019,34.074100 310.913635,34.631313 
	C308.882507,35.722279 306.794342,36.706955 304.495056,37.852585 
	C305.393097,41.632732 308.119354,43.933105 310.228241,46.609566 
	C311.666748,48.435204 313.355103,50.109909 313.511017,52.627197 
	C313.746582,56.429699 311.700623,57.945248 308.375336,56.068298 
	C303.293762,53.200027 297.713287,52.494370 292.130585,51.621563 
	C290.078552,51.300747 288.152954,51.831585 286.229004,52.323299 
	C283.594818,52.996544 281.739349,54.574482 281.438416,57.412548 
	C281.117706,60.437088 283.152679,61.993118 285.543121,62.990719 
	C288.151184,64.079132 290.902130,64.761543 293.786407,64.701950 
	C296.281769,64.650406 298.778870,64.632500 301.274506,64.661369 
	C303.101166,64.682503 305.414459,64.529915 305.648560,66.902122 
	C305.937012,69.826088 303.150940,69.673454 301.374939,69.823021 
	C295.509094,70.316986 289.752106,69.490906 284.252441,67.359581 
	C280.459869,65.889801 277.768494,63.502304 277.580933,58.965778 
	C277.392090,54.398819 279.145508,51.261894 283.809692,49.445427 
z"/>
<path fill="#000000" opacity="1.000000" stroke="none" 
	d="
M617.149048,21.458408 
	C613.098694,22.017487 609.787842,23.179605 609.140076,27.407255 
	C608.533386,31.366449 611.276733,33.446957 614.181458,35.285965 
	C617.699463,37.513317 621.320435,39.589733 624.741943,41.955364 
	C629.851624,45.488201 632.403503,50.437859 631.023438,56.618336 
	C629.670837,62.675983 625.683411,66.272438 619.421631,67.556870 
	C614.706177,68.524117 610.174316,68.174965 605.576416,67.153717 
	C601.010681,66.139633 599.439514,63.645084 601.336304,59.262840 
	C603.199463,58.570889 604.658875,59.664845 606.218018,60.101063 
	C609.267395,60.954212 612.288818,61.993420 615.519958,61.612030 
	C619.055359,61.194740 622.033569,59.734196 623.183044,56.138603 
	C624.342529,52.511398 622.151184,50.031399 619.477112,48.160522 
	C616.344788,45.969021 612.952698,44.152599 609.722046,42.096817 
	C606.005371,39.731674 602.804565,36.939316 601.490295,32.451591 
	C599.487000,25.611172 602.851807,18.636187 609.607971,16.372620 
	C614.635010,14.688344 619.807007,15.190524 624.908997,16.145967 
	C627.458923,16.623495 628.523865,18.360130 628.072327,20.919914 
	C627.498901,24.170246 625.327881,22.926317 623.437195,22.540846 
	C621.481018,22.142023 619.509705,21.817533 617.149048,21.458408 
z"/>
<path fill="#000000" opacity="1.000000" stroke="none" 
	d="
M234.998688,26.991219 
	C238.435364,26.396141 241.854187,25.651550 245.312592,25.238283 
	C251.766205,24.467100 257.184631,28.146460 258.105377,33.721294 
	C258.967621,38.941906 254.979477,43.980537 248.851776,45.424980 
	C244.196625,46.522312 239.773987,46.270210 235.588394,43.535206 
	C236.797012,41.176395 238.686996,42.205669 240.180450,41.959442 
	C241.324097,41.770882 242.511047,41.854961 243.660706,41.691135 
	C249.527191,40.855118 253.413269,37.104988 252.707489,33.013046 
	C252.030075,29.085585 247.753250,27.706802 241.488174,29.325144 
	C236.596542,30.588707 232.264008,33.084255 227.840302,35.384418 
	C224.956711,36.883781 224.836014,38.906242 226.447723,41.554428 
	C229.730103,46.947712 233.387863,52.146015 235.779984,58.031376 
	C236.648605,60.168480 237.242996,62.443176 237.715500,64.706657 
	C238.074432,66.426086 237.705673,68.257957 235.745178,68.755669 
	C233.628632,69.292984 232.812347,67.516647 232.315781,65.920143 
	C230.332809,59.544659 227.898285,53.368107 224.568359,47.568581 
	C223.251602,45.275242 222.135040,42.832153 220.001907,40.984825 
	C215.317932,41.277340 212.952332,49.236271 206.942596,45.065788 
	C205.033829,43.741196 204.008438,41.995449 204.857117,39.207073 
	C207.310867,39.899990 209.464951,40.993687 212.004517,39.451920 
	C215.325073,37.436012 217.841629,36.070938 214.790176,31.552011 
	C212.294907,27.856737 213.794922,25.312296 218.189835,24.408129 
	C221.039642,23.821829 223.963501,23.595343 226.775635,23.218168 
	C226.791031,20.054585 223.186554,20.449635 222.824265,18.098310 
	C228.265884,15.760959 234.536819,19.894852 234.663177,26.726959 
	C230.178146,27.132860 226.223907,26.910902 222.276398,26.997108 
	C220.589798,27.033943 218.743027,27.767771 219.541733,30.072372 
	C220.210022,32.000637 221.301407,33.791855 223.939697,32.468189 
	C227.616486,30.623505 231.311478,28.815132 234.998688,26.991219 
z"/>
<path fill="#000000" opacity="1.000000" stroke="none" 
	d="
M367.033081,31.018429 
	C367.961304,32.699406 369.375061,32.734886 370.626953,33.132156 
	C376.703888,35.060577 379.734406,39.015816 379.910187,45.178371 
	C380.082031,51.205025 376.412933,57.067078 370.651154,58.474979 
	C366.737457,59.431286 363.861206,61.156200 361.233246,64.132805 
	C359.241241,66.389076 356.471863,68.012047 352.617004,68.157211 
	C354.188446,63.842907 358.966766,62.903694 359.893921,58.462292 
	C355.868958,55.622776 353.545044,51.351036 352.450043,45.704025 
	C349.143341,49.398197 348.356476,53.418282 347.423004,57.369221 
	C347.100891,58.732666 347.691345,60.706406 345.642334,60.998707 
	C343.734344,61.270897 342.606689,59.769066 341.836121,58.277027 
	C339.781769,54.299000 339.415985,49.940002 339.948700,45.637047 
	C340.455322,41.545345 340.615906,37.448647 340.637085,32.935081 
	C345.686554,34.090595 345.695557,37.573402 345.049500,41.039059 
	C344.436249,44.329132 344.038086,47.579548 344.341553,52.419109 
	C347.003265,44.451038 353.204132,39.991505 354.369873,32.572819 
	C354.839142,29.586397 357.067261,27.204208 360.492035,26.784336 
	C363.600159,26.403288 365.435120,28.235136 367.033081,31.018429 
M356.171539,42.119473 
	C356.024200,46.849377 356.352783,51.332138 362.147797,53.623741 
	C364.329865,48.043182 363.674683,42.854267 363.473419,37.404301 
	C359.842529,37.909538 357.850128,39.204006 356.171539,42.119473 
M368.348450,41.035641 
	C368.348450,45.382858 368.348450,49.730076 368.348450,54.263248 
	C373.371002,52.927509 375.158112,49.021446 375.271515,44.623577 
	C375.367340,40.906986 373.770691,37.545998 369.373962,36.928318 
	C368.025146,37.864914 368.482727,39.120804 368.348450,41.035641 
M357.785522,32.842705 
	C357.415405,33.823025 357.101990,34.998360 358.686188,34.826115 
	C360.103271,34.672035 361.722107,34.314281 362.328644,32.719955 
	C362.493103,32.287613 362.118439,31.350998 361.700073,31.048391 
	C359.988678,29.810556 359.021606,31.098492 357.785522,32.842705 
z"/>
<path fill="#000000" opacity="1.000000" stroke="none" 
	d="
M807.285339,59.703827 
	C811.246399,59.716537 814.743286,59.744152 818.240051,59.734776 
	C820.609741,59.728420 822.027161,60.659286 822.076782,63.232014 
	C822.129761,65.979080 820.502991,66.526596 818.197449,66.524620 
	C811.715881,66.519058 805.234009,66.569511 798.752869,66.649178 
	C796.030579,66.682632 794.205444,65.802757 794.204346,62.734753 
	C794.199280,48.583122 794.182373,34.431477 794.197754,20.279865 
	C794.200745,17.495659 795.810425,16.650286 798.425659,16.663982 
	C801.250610,16.678780 802.245178,17.990528 802.237122,20.643610 
	C802.202332,32.133343 802.319763,43.624317 802.183472,55.112488 
	C802.142578,58.561165 803.343872,60.119728 807.285339,59.703827 
z"/>
<path fill="#000000" opacity="1.000000" stroke="none" 
	d="
M763.593872,55.164612 
	C763.334229,58.817585 764.867310,59.932594 768.072083,59.754883 
	C771.891663,59.543072 775.733154,59.741856 779.565186,59.734184 
	C781.892639,59.729527 783.325378,60.458885 783.352600,63.170204 
	C783.379761,65.876366 781.886780,66.725098 779.631226,66.740105 
	C772.970398,66.784401 766.308289,66.783821 759.648071,66.697113 
	C757.422852,66.668144 755.797363,65.722496 755.797974,63.117058 
	C755.801270,48.788578 755.799255,34.460075 755.774231,20.131626 
	C755.768921,17.109236 757.641357,16.721510 760.085083,16.673409 
	C762.753662,16.620880 763.403687,17.879950 763.500549,20.336922 
	C763.953491,31.824121 764.183289,43.305805 763.593872,55.164612 
z"/>
<path fill="#000000" opacity="1.000000" stroke="none" 
	d="
M432.901550,60.708977 
	C429.195374,66.353172 424.641052,70.288986 418.315369,72.815742 
	C418.061096,69.717949 420.001892,69.188797 421.086761,68.090630 
	C429.062958,60.016846 434.311005,50.942009 431.617340,39.057640 
	C430.301453,33.252129 426.193115,31.638014 421.137482,34.941078 
	C418.931763,36.382183 416.980347,38.259121 415.081482,40.110489 
	C413.106659,42.035934 410.915558,42.961140 408.299988,41.951763 
	C405.608124,40.912945 404.230469,38.854908 404.122314,35.151070 
	C408.982330,37.925770 412.283630,35.169640 415.794586,33.117401 
	C418.242737,31.686390 420.806519,30.446144 423.630707,29.942915 
	C430.929535,28.642365 436.523590,32.842934 437.267792,40.228580 
	C437.987610,47.372459 436.935852,54.178757 432.901550,60.708977 
z"/>
<path fill="#000000" opacity="1.000000" stroke="none" 
	d="
M398.475861,296.192169 
	C393.332458,293.170074 389.922363,288.791046 386.153076,284.830292 
	C383.924713,282.488739 383.876556,279.493439 386.216919,277.186798 
	C388.757507,274.682770 391.707336,275.059143 394.233551,277.439606 
	C397.264160,280.295441 400.143860,283.310944 403.106232,286.239807 
	C405.049500,288.161102 405.960724,290.451172 404.955170,293.046356 
	C403.914886,295.731171 401.671967,296.648956 398.475861,296.192169 
z"/>
<path fill="#000000" opacity="1.000000" stroke="none" 
	d="
M421.561188,23.998146 
	C420.457245,24.336081 419.718719,24.924782 418.827118,24.279657 
	C417.864655,22.426510 420.821259,21.722445 420.056549,19.610327 
	C417.914795,17.036926 413.001678,16.369844 412.671600,10.383821 
	C417.893707,13.728320 423.230286,14.710670 428.101685,16.942142 
	C429.938019,17.783325 431.711273,19.182207 431.020782,21.548473 
	C430.406372,23.654057 428.356934,22.934582 426.766418,23.080687 
	C425.133331,23.230703 423.519257,23.587572 421.561188,23.998146 
z"/>
</svg>