<svg version="1.1" id="Layer_1" xmlns="http://www.w3.org/2000/svg" xmlns:xlink="http://www.w3.org/1999/xlink" x="0px" y="0px"
	 width="100%" viewBox="0 0 1024 576" enable-background="new 0 0 1024 576" xml:space="preserve">
<path fill="#000000" opacity="1.000000" stroke="none" 
	d="
M285.468658,577.000000 
	C277.831116,566.434326 279.338074,556.032410 284.318787,544.885498 
	C295.931732,518.895325 306.786499,492.567078 318.081299,466.433228 
	C319.530396,463.080261 319.438080,460.302673 317.888153,456.992645 
	C307.016815,433.775299 296.281830,410.493622 285.603088,387.186768 
	C280.402130,375.835419 280.406250,364.439850 285.237854,352.831207 
	C297.713318,322.857117 309.971802,292.792725 322.284241,262.750977 
	C322.766693,261.573883 323.579010,260.392517 323.082520,258.944672 
	C321.553284,257.781952 320.608154,259.100647 319.640594,259.844757 
	C306.965759,269.592010 294.227051,279.259369 281.684479,289.174561 
	C268.774811,299.379944 252.327209,296.682129 244.059845,282.365234 
	C232.318283,262.032013 220.919052,241.501114 209.372589,221.055206 
	C205.907532,214.919434 205.402084,208.413956 207.267548,201.745560 
	C210.026993,191.881668 216.216705,186.836151 226.149704,186.063416 
	C234.944122,185.379242 241.980255,189.946426 246.599121,198.230499 
	C254.120468,211.720291 262.086243,224.962280 269.748077,238.109146 
	C272.934448,238.006729 274.526550,236.124252 276.321716,234.751602 
	C288.761719,225.239487 301.273956,215.815140 313.513245,206.049545 
	C322.538940,198.848053 332.108154,197.729324 342.499817,202.190628 
	C374.326874,215.854416 406.118042,229.601898 437.958405,243.234512 
	C444.506714,246.038223 448.642029,250.937332 451.434631,257.264618 
	C459.100037,274.632507 466.798279,291.985901 474.480621,309.346313 
	C477.210144,315.514435 477.266693,315.470520 483.793884,313.175751 
	C495.730896,308.979034 507.627808,304.644318 519.684082,300.816467 
	C535.963379,295.647736 552.460815,309.168030 550.286987,325.844574 
	C548.993774,335.764893 542.200806,341.142792 533.341370,344.272369 
	C517.173035,349.983673 500.970306,355.597626 484.767181,361.209656 
	C479.580780,363.006012 474.428650,364.988861 469.119598,366.325470 
	C457.661469,369.210236 447.350769,363.887207 442.618378,353.103119 
	C435.057220,335.872925 427.471069,318.653656 419.851593,301.449158 
	C419.194336,299.965057 418.856598,298.240509 417.351959,297.178650 
	C415.312653,297.564789 415.067444,299.428253 414.416168,300.859772 
	C403.178192,325.562927 392.063538,350.322876 380.679230,374.958191 
	C378.641388,379.368011 379.274048,381.882050 383.167053,384.897095 
	C399.890472,397.849152 416.263336,411.252716 432.917236,424.295990 
	C443.428497,432.528381 445.013702,443.115723 443.180939,455.576385 
	C439.481689,480.727173 436.520142,505.986542 433.263855,531.202393 
	C431.858063,542.088257 430.526459,552.984070 429.058807,563.861511 
	C428.450806,568.367798 426.748474,572.519043 424.133850,576.669556 
	C412.312439,577.000000 400.624878,577.000000 388.394592,576.643677 
	C384.289581,570.387756 382.819824,564.044800 383.735229,557.173462 
	C384.173828,553.881409 384.488617,550.572937 384.924957,547.280518 
	C388.786438,518.143433 392.645996,489.006042 396.555023,459.875305 
	C397.059631,456.115112 396.250732,453.306396 392.996887,450.797272 
	C379.680939,440.528992 366.589783,429.969574 353.355927,419.593811 
	C352.084930,418.597351 350.858521,416.661377 348.647278,418.014832 
	C348.154694,420.245667 349.486481,421.926727 350.275940,423.672485 
	C354.527344,433.074036 358.420898,442.683472 363.373077,451.708008 
	C367.601746,459.414124 367.099609,466.650848 363.881836,474.163544 
	C355.363037,494.053009 346.675201,513.870300 338.207367,533.781311 
	C332.089630,548.166443 325.273132,562.258972 320.000000,577.000000 
	C308.645782,577.000000 297.291534,577.000000 285.468658,577.000000 
z"/>
<path fill="#000000" opacity="1.000000" stroke="none" 
	d="
M858.960754,194.787994 
	C873.691711,205.190201 874.057861,222.326721 860.080017,233.147064 
	C844.668884,245.076950 829.240784,256.984955 813.813599,268.894043 
	C803.345215,276.975128 789.710999,276.264130 780.120056,267.037476 
	C770.154236,257.450195 760.277344,247.770599 750.350769,238.142426 
	C749.179321,237.006165 747.940063,235.939774 746.139099,234.301407 
	C745.934875,242.982330 747.706116,250.720245 748.651550,258.496429 
	C750.977417,277.626251 753.732239,296.703979 756.321716,315.801666 
	C756.723450,318.764862 757.015564,321.752930 757.611023,324.678070 
	C759.899536,335.920654 757.197754,346.127563 751.375549,355.717102 
	C738.321777,377.217438 725.289368,398.730865 712.160950,420.185547 
	C710.316223,423.200165 709.934143,426.322845 709.951477,429.724640 
	C710.108154,460.553192 710.163940,491.382263 710.322449,522.210815 
	C710.349854,527.551147 709.070435,532.395142 706.073669,536.824890 
	C700.429688,545.167542 691.405762,548.689270 681.752075,546.242004 
	C672.323730,543.851990 665.439148,536.054260 664.670471,526.378235 
	C662.912903,504.256073 664.028687,482.078674 663.606079,459.929565 
	C663.361450,447.108917 663.259399,434.280731 662.702576,421.472900 
	C662.442444,415.487244 664.157166,410.374237 667.247925,405.462646 
	C672.813965,396.617828 678.298279,387.721588 683.867737,378.764862 
	C681.760437,377.686279 680.540894,378.870422 679.285156,379.478058 
	C662.493591,387.603516 645.812927,395.966125 628.894226,403.816254 
	C623.693970,406.229156 621.711304,409.292877 622.320557,414.948761 
	C623.571045,426.558777 623.042053,438.251617 623.281738,449.909119 
	C623.600159,465.396454 623.989807,480.884247 624.087097,496.373474 
	C624.159058,507.825928 617.062744,517.507751 607.105774,520.226929 
	C592.015442,524.348022 578.454956,513.253845 577.839722,496.172180 
	C577.635925,490.512573 577.778198,484.841248 577.709595,479.175903 
	C577.378845,451.856293 576.989441,424.537323 576.706177,397.217255 
	C576.579102,384.962982 581.431152,376.071533 593.107544,370.615479 
	C615.138611,360.320953 636.765686,349.164032 658.740784,338.745483 
	C663.331909,336.568787 664.393494,333.914612 663.469360,329.419708 
	C659.654297,310.863739 655.928467,292.289368 652.193420,273.717010 
	C650.621704,265.901489 649.153687,258.064850 647.540039,250.258179 
	C647.081482,248.039734 646.851257,245.668320 645.060852,243.555176 
	C639.905762,246.263748 635.815247,250.198563 631.345825,253.558426 
	C622.158447,260.464966 613.229553,267.716949 604.002747,274.568756 
	C596.632568,280.041870 588.321899,280.862061 579.305542,279.502136 
	C561.558289,276.825317 543.738220,274.597443 525.912415,272.486420 
	C512.515808,270.899963 504.494690,256.653717 505.997833,247.213776 
	C508.088593,234.083023 519.272705,225.814209 532.661865,227.499512 
	C547.671814,229.388809 562.691162,231.218048 577.668457,233.340897 
	C581.000854,233.813232 583.083130,232.217072 585.296204,230.521774 
	C597.465271,221.199677 609.811096,212.088501 621.638367,202.348938 
	C627.088196,197.861069 633.052673,195.791473 639.728882,194.792343 
	C673.603271,189.722687 707.500549,184.795181 741.327026,179.422729 
	C749.780151,178.080154 755.852539,181.351715 761.506409,186.708954 
	C772.873535,197.479630 784.304077,208.185715 795.518555,219.113403 
	C798.400940,221.922134 800.571228,221.929092 803.608276,219.532272 
	C813.023926,212.101532 822.583618,204.853043 832.103943,197.555405 
	C840.344543,191.238663 849.104797,189.424393 858.960754,194.787994 
z"/>
<path fill="#000000" opacity="1.000000" stroke="none" 
	d="
M631.331360,100.370331 
	C654.728882,76.220749 691.400391,81.616280 705.838806,111.029205 
	C717.110229,133.990555 706.115784,161.992630 681.934509,171.911697 
	C658.245850,181.628662 630.636658,169.163071 622.719177,145.039352 
	C617.377136,128.762543 620.189209,113.908318 631.331360,100.370331 
z"/>
<path fill="#000000" opacity="1.000000" stroke="none" 
	d="
M419.155273,218.241745 
	C397.036896,212.283356 383.491882,196.708191 383.084167,175.045914 
	C382.641785,151.540298 398.975769,132.705933 421.356903,129.795547 
	C448.933990,126.209465 471.232269,144.346619 472.966736,172.046585 
	C474.333679,193.877762 459.421326,213.784531 436.410889,218.330963 
	C430.765320,219.446426 425.186829,219.462372 419.155273,218.241745 
z"/>
<path fill="#000000" opacity="1.000000" stroke="none" 
	d="
M335.975677,51.925667 
	C337.966125,51.922955 339.470337,52.013577 340.959869,51.904003 
	C351.902649,51.099041 355.486115,57.321049 354.263641,67.727364 
	C353.909882,70.738884 352.009460,72.167442 349.195770,72.180382 
	C335.387360,72.243881 321.576233,72.340317 307.770874,72.121803 
	C303.154816,72.048737 298.869934,67.211922 298.781281,62.338444 
	C298.611877,53.024433 298.731079,43.705135 298.734589,34.388035 
	C298.736206,30.085714 301.025116,27.904697 305.196564,27.828794 
	C308.002014,27.777742 308.794708,26.425312 309.053986,23.825546 
	C310.026428,14.073468 310.425507,13.773141 319.150482,13.950307 
	C326.285767,14.095194 329.746857,17.530193 330.370453,25.060837 
	C330.410004,25.538225 330.589569,26.004021 330.697571,26.448864 
	C331.809265,26.598860 331.773102,25.795666 331.830200,25.202127 
	C332.675385,16.421967 342.765350,10.107445 350.909302,13.453240 
	C354.487946,14.923461 357.029480,17.657261 357.163177,21.741028 
	C357.289337,25.592569 358.332855,30.033443 352.808655,31.524700 
	C351.255188,31.944061 351.165771,33.479671 351.127197,34.827942 
	C351.065308,36.989273 351.133545,39.155231 351.039459,41.314560 
	C350.799774,46.813953 349.281067,48.274242 343.684357,48.314503 
	C337.528595,48.358784 331.371979,48.288849 325.216400,48.343502 
	C323.520416,48.358559 321.537720,47.820728 319.752441,50.857357 
	C325.242310,52.766953 330.468018,51.541512 335.975677,51.925667 
M321.549591,56.323235 
	C311.828949,56.118683 311.801178,58.066994 311.879028,46.584332 
	C311.881287,46.251446 311.912109,45.916286 311.884186,45.586033 
	C311.574921,41.926651 313.246918,40.563133 316.890961,40.651722 
	C324.043976,40.825619 331.205444,40.619545 338.361298,40.720242 
	C341.412689,40.763176 342.983063,39.833267 342.982300,36.469742 
	C342.981537,33.119621 341.445770,32.044418 338.376526,32.232674 
	C336.552643,32.344547 334.715881,32.238945 332.884979,32.246101 
	C323.115112,32.284294 323.002411,32.289330 322.714630,22.754843 
	C322.618195,19.559496 321.481750,18.478277 318.297363,18.269329 
	C313.040436,17.924387 313.055786,21.226604 313.394562,24.700075 
	C313.895660,29.838003 312.886383,33.235794 306.587097,32.342640 
	C303.551697,31.912264 303.102692,34.162144 303.106537,36.547222 
	C303.119110,44.370125 303.198212,52.194080 303.092590,60.015484 
	C303.046539,63.426048 304.411560,64.742172 307.847351,64.702660 
	C319.164520,64.572487 330.484619,64.582458 341.802338,64.682266 
	C344.998779,64.710449 346.756866,63.971043 346.773712,60.273151 
	C346.790375,56.611794 344.835114,56.278191 342.008606,56.313087 
	C335.518066,56.393215 329.025787,56.331409 321.549591,56.323235 
M347.897003,17.531185 
	C343.707123,15.648481 342.886322,21.155159 339.621216,21.304295 
	C337.743011,21.390085 336.425964,22.103315 336.385132,24.228752 
	C336.359375,25.569471 336.241211,27.091280 337.912170,27.465494 
	C339.675415,27.860374 341.647461,28.151720 342.798737,26.205311 
	C343.593597,24.861496 344.356537,23.845011 346.123901,23.685427 
	C350.437531,23.295927 350.350006,20.886850 347.897003,17.531185 
z"/>
<path fill="#000000" opacity="1.000000" stroke="none" 
	d="
M276.221527,72.151657 
	C266.637115,72.156631 257.519287,72.178398 248.401489,72.164345 
	C239.057831,72.149940 235.422409,68.810745 235.726685,59.681614 
	C236.001648,51.431797 234.945770,43.199764 236.607361,34.865833 
	C237.246582,31.659700 235.700867,27.500719 235.609467,23.697327 
	C235.508606,19.499653 237.247375,17.514009 241.528427,17.646542 
	C245.459854,17.768251 248.949142,17.225233 252.742706,15.058159 
	C256.749786,12.769108 262.221405,12.857632 266.514160,15.939234 
	C269.137726,17.822609 270.754517,17.711346 273.420105,15.663713 
	C280.464203,10.252614 291.457581,15.163353 291.743195,24.005436 
	C292.192505,37.914845 291.936218,51.849072 291.861664,65.772163 
	C291.838959,70.010193 289.418427,72.124779 285.181915,72.136154 
	C282.350647,72.143761 279.519379,72.147354 276.221527,72.151657 
M239.564346,41.266739 
	C239.528854,44.425774 239.447266,47.585083 239.465912,50.743801 
	C239.544388,64.043198 239.555603,64.092079 252.530502,64.021423 
	C265.652740,63.949963 263.494049,65.220985 263.661377,52.861782 
	C263.751984,46.167324 264.292328,45.677158 271.184235,45.954060 
	C273.812347,46.059650 275.798859,46.469574 275.567657,49.817757 
	C275.378845,52.551777 277.265228,56.242828 272.147430,56.339771 
	C269.373383,56.392319 269.000549,58.222923 269.025848,60.429371 
	C269.054810,62.951668 270.398407,64.011879 272.796204,64.006508 
	C275.125214,64.001289 277.455902,63.952030 279.782837,64.021797 
	C282.760742,64.111092 283.963287,62.670574 283.929382,59.770058 
	C283.861359,53.947952 283.856140,48.123730 283.934570,42.301861 
	C283.974884,39.308895 282.605103,38.115433 279.689301,38.190010 
	C276.031647,38.283569 272.369537,38.208832 268.709381,38.196774 
	C265.994232,38.187824 263.234589,38.383575 262.928680,34.463066 
	C262.642517,30.795494 264.620148,29.819252 267.768005,29.847328 
	C269.455902,29.862385 270.698242,29.130539 270.822021,27.273792 
	C270.930939,25.640673 271.422241,23.103861 269.766418,22.784662 
	C266.119781,22.081686 263.260162,20.094597 260.095184,18.538122 
	C258.929321,17.964760 256.347412,18.006981 255.826950,18.754301 
	C252.571808,23.428217 247.843216,21.709881 243.607040,21.986601 
	C241.140778,22.147705 239.530365,22.607567 239.613937,25.699806 
	C239.691605,28.573570 240.468872,30.124182 243.594574,29.914059 
	C245.415985,29.791616 247.255844,29.969847 249.082611,29.895365 
	C252.348190,29.762224 254.472626,30.469002 254.374146,34.528030 
	C254.274475,38.636021 251.700928,38.231915 248.975784,38.470459 
	C245.855911,38.743568 242.205505,36.923508 239.564346,41.266739 
M276.428955,20.226095 
	C276.398621,23.197235 276.328491,26.168678 276.351288,29.139410 
	C276.367828,31.294596 277.794250,31.928688 279.666595,31.904295 
	C281.321381,31.882740 283.260895,32.018253 283.639374,29.875128 
	C283.980347,27.944389 283.911682,25.927824 283.896118,23.950115 
	C283.849487,18.021090 282.478455,17.180119 276.428955,20.226095 
z"/>
<path fill="#000000" opacity="1.000000" stroke="none" 
	d="
M418.954712,32.843765 
	C419.144012,44.065891 419.224762,54.876450 419.249695,65.687134 
	C419.259064,69.759499 416.906006,72.006226 413.067535,72.050529 
	C400.092957,72.200249 387.111755,72.269043 374.140839,71.997940 
	C369.097687,71.892525 365.091766,67.184319 364.905548,61.895481 
	C364.718292,56.577656 364.900696,51.247890 364.807434,45.925350 
	C364.727966,41.389084 366.846039,39.311501 371.373932,39.024330 
	C374.293762,38.839149 377.576202,40.116932 380.289764,37.657661 
	C378.925964,35.367771 376.888977,36.234734 375.214355,36.102894 
	C366.675171,35.430573 361.353210,24.729061 366.004272,17.504036 
	C367.044556,15.887985 368.631012,15.604588 370.349152,15.606721 
	C377.835907,15.616016 385.322815,15.610908 392.809357,15.659302 
	C396.884583,15.685646 399.699341,18.442003 400.641754,21.631481 
	C401.815460,25.603659 404.023560,26.019558 407.213043,25.659201 
	C412.789276,25.029188 416.378754,27.732187 418.954712,32.843765 
M405.475189,29.451569 
	C404.644867,29.499063 403.812622,29.524420 402.984558,29.597488 
	C395.022797,30.300043 394.924408,30.317116 393.756042,22.517502 
	C393.352631,19.824457 391.817780,19.365801 389.605865,19.374548 
	C384.280548,19.395607 378.952606,19.474516 373.630615,19.338135 
	C370.354431,19.254181 369.287384,20.688848 369.272797,23.841242 
	C369.258270,26.985168 370.696777,27.945173 373.528137,27.874075 
	C376.021545,27.811460 378.519226,27.927179 381.015167,27.953596 
	C383.191101,27.976631 384.238708,28.910948 384.477295,31.233194 
	C385.184021,38.112015 385.273010,38.074146 392.150513,38.062870 
	C404.523621,38.042587 402.179749,37.778954 402.332245,48.714001 
	C402.437256,56.246166 402.322510,55.943909 394.979279,56.254662 
	C389.679108,56.478958 388.047028,54.231213 388.745087,49.456539 
	C389.443665,44.678501 387.535980,42.738934 382.670471,43.267666 
	C379.709839,43.589401 376.679504,43.449535 373.691956,43.295197 
	C370.521179,43.131382 369.101562,44.333317 369.234039,47.618980 
	C369.394836,51.606464 369.382507,55.609909 369.230011,59.598221 
	C369.106750,62.822525 370.472198,64.076767 373.645752,64.052208 
	C384.628784,63.967243 395.613831,63.920231 406.595886,64.049248 
	C410.555450,64.095764 411.806732,62.403923 411.714386,58.618134 
	C411.523712,50.801003 411.490173,42.971157 411.721283,35.156281 
	C411.841125,31.103184 410.423798,29.167952 405.475189,29.451569 
z"/>
<path fill="#000000" opacity="1.000000" stroke="none" 
	d="
M615.817383,71.985565 
	C612.408203,73.475464 609.200134,73.197983 606.083191,72.884674 
	C601.276306,72.401489 597.691162,68.279625 597.657104,63.356873 
	C597.589172,53.533867 597.735107,43.708885 597.612366,33.886974 
	C597.555725,29.361269 599.653442,27.609104 603.992920,27.648998 
	C613.482727,27.736240 622.974060,27.631178 632.464294,27.688457 
	C637.940491,27.721508 642.373840,31.156868 642.601868,36.569492 
	C643.035767,46.869186 643.113220,57.209644 642.711182,67.508682 
	C642.487183,73.246368 632.434631,75.377136 626.843323,71.083260 
	C624.085876,68.965675 622.289185,66.350601 622.567566,62.575508 
	C622.787354,59.594051 622.790222,56.573261 622.581543,53.591488 
	C622.434998,51.496979 623.820557,47.890392 620.561707,47.855633 
	C616.878174,47.816341 618.355896,51.634151 618.207947,53.815987 
	C617.938049,57.793842 618.121826,61.802761 618.124512,65.798714 
	C618.126038,68.000214 617.979736,70.148041 615.817383,71.985565 
M601.388733,45.523163 
	C601.394897,50.519283 601.486938,55.517330 601.374451,60.510780 
	C601.309021,63.416134 602.358521,64.778824 605.404541,64.829163 
	C608.516357,64.880600 610.099121,63.812714 609.983093,60.524235 
	C609.871643,57.364162 609.944885,54.196812 609.967896,51.032887 
	C610.063965,37.838985 608.970642,40.010128 621.582947,39.632690 
	C625.664856,39.510529 626.870300,41.382713 626.853577,44.956516 
	C626.829468,50.118877 626.994446,55.285286 626.836975,60.442585 
	C626.752258,63.216530 627.198303,64.852470 630.523743,64.844162 
	C633.806824,64.835953 634.922363,63.482323 634.881409,60.338520 
	C634.779602,52.512596 634.742676,44.681259 634.930420,36.858116 
	C635.021179,33.075909 633.376953,31.880402 629.842346,31.985491 
	C624.517700,32.143803 619.184753,32.005821 613.855713,32.042152 
	C599.403503,32.140675 601.642578,30.400690 601.388733,45.523163 
z"/>
<path fill="#000000" opacity="1.000000" stroke="none" 
	d="
M686.454529,27.701094 
	C693.617065,30.387249 696.986694,38.707088 693.889343,44.986748 
	C692.828186,47.138054 690.878540,47.361126 688.801941,47.358040 
	C683.638062,47.350365 678.474182,47.353092 673.310364,47.376301 
	C671.450562,47.384655 669.436462,47.279945 669.373962,49.979885 
	C669.310547,52.721127 671.315918,52.648552 673.191223,52.660694 
	C677.022339,52.685501 680.863647,52.858204 684.682312,52.643009 
	C689.019958,52.398571 691.906250,54.841545 693.426331,58.154381 
	C695.235168,62.096512 695.075806,66.628304 693.482239,70.750389 
	C692.774414,72.581169 690.514099,72.809242 688.669983,72.816872 
	C678.677490,72.858231 668.677307,73.044838 658.694641,72.721466 
	C652.458252,72.519440 648.726135,68.170258 648.687256,61.949871 
	C648.630005,52.788528 648.624207,43.626122 648.698242,34.464989 
	C648.742798,28.951044 649.995789,27.718466 655.528137,27.688421 
	C665.688965,27.633242 675.850342,27.677589 686.454529,27.701094 
M672.485596,64.711044 
	C675.980408,64.701859 679.476257,64.638069 682.969788,64.700600 
	C685.816589,64.751549 686.696777,63.303452 686.694763,60.653915 
	C686.692810,57.999397 685.399109,57.137993 682.989563,57.178371 
	C679.994812,57.228565 676.998596,57.194584 674.002991,57.184849 
	C659.173340,57.136665 661.238220,58.621517 661.541992,43.969604 
	C661.610901,40.647099 663.025085,39.630779 666.095398,39.689831 
	C671.585083,39.795418 677.078918,39.658245 682.570435,39.703339 
	C685.126526,39.724327 686.612000,38.966534 686.708923,36.044731 
	C686.813538,32.889500 685.306702,31.969749 682.485840,31.981098 
	C674.165039,32.014580 665.843384,32.009888 657.523132,31.921726 
	C654.353333,31.888138 653.014771,33.284809 653.041016,36.427681 
	C653.107727,44.415096 653.130859,52.404583 653.015442,60.390987 
	C652.968445,63.645058 654.352234,64.839722 657.513062,64.744995 
	C662.168701,64.605461 666.831726,64.710762 672.485596,64.711044 
z"/>
<path fill="#000000" opacity="1.000000" stroke="none" 
	d="
M726.763550,29.962727 
	C728.535034,27.612312 730.730286,27.669741 732.914429,27.670732 
	C742.245056,27.674971 751.576050,27.629110 760.906250,27.688358 
	C767.078796,27.727556 771.222656,31.792166 771.282776,37.928913 
	C771.367615,46.592243 771.371460,55.257824 771.268250,63.920753 
	C771.232361,66.936813 772.402710,70.834793 768.443176,72.170586 
	C764.144592,73.620773 759.538269,73.991280 755.510986,71.098991 
	C752.386841,68.855347 750.539368,65.895470 750.793091,61.749603 
	C751.026672,57.932549 750.836731,54.088505 750.801819,50.256638 
	C750.788757,48.827663 750.512878,47.513969 748.638428,47.593868 
	C746.920471,47.667107 746.411682,48.801865 746.405151,50.306648 
	C746.381836,55.638145 746.172974,60.977974 746.402893,66.298721 
	C746.610168,71.096313 744.270630,72.659653 739.868225,73.099060 
	C730.829224,74.001251 724.878540,68.626778 725.656799,59.715714 
	C726.508423,49.963955 724.842529,40.101757 726.763550,29.962727 
M751.304077,39.722321 
	C754.369873,39.552925 755.345337,41.202503 755.307007,44.032280 
	C755.230408,49.682320 755.359436,55.335201 755.277893,60.985096 
	C755.237732,63.767246 756.421753,64.865265 759.175171,64.781471 
	C761.814697,64.701149 763.702698,64.213287 763.668579,60.940929 
	C763.582153,52.631256 763.600037,44.319569 763.677917,36.009640 
	C763.703613,33.269897 762.531311,32.044506 759.828857,32.051090 
	C751.352295,32.071735 742.875305,32.093559 734.399231,32.023384 
	C731.435120,31.998844 730.230286,33.286526 730.259583,36.232315 
	C730.340576,44.375839 730.353943,52.521610 730.247925,60.664589 
	C730.209290,63.628334 731.299255,64.890282 734.335632,64.807983 
	C737.130066,64.732231 738.773743,63.894547 738.681091,60.784096 
	C738.587097,57.629166 738.643005,54.468235 738.692078,51.310844 
	C738.898926,38.017494 736.831116,39.863880 751.304077,39.722321 
z"/>
<path fill="#000000" opacity="1.000000" stroke="none" 
	d="
M825.972656,34.475826 
	C827.508057,40.930351 822.534302,45.757336 823.094360,51.818249 
	C823.735535,58.757751 823.289612,65.802666 823.224854,72.800934 
	C823.166504,79.107018 821.874329,80.343979 815.506287,80.360741 
	C806.674500,80.383987 797.842041,80.419319 789.010864,80.338425 
	C784.198364,80.294342 779.272888,76.571655 779.472412,71.987503 
	C779.898682,62.194263 776.166077,52.989014 776.718506,43.082855 
	C777.563904,27.923717 776.933899,27.420765 792.272278,28.032961 
	C800.056274,28.343639 807.174438,25.075783 814.884216,25.581347 
	C821.572083,26.019903 823.997925,27.523197 825.972656,34.475826 
M817.884827,34.326225 
	C817.189819,30.195442 813.878174,28.235781 809.571411,30.511494 
	C805.863770,32.470627 802.239807,32.230179 798.476135,32.289566 
	C794.145996,32.357895 789.812805,32.379787 785.483337,32.294525 
	C782.536133,32.236485 781.249817,33.476780 781.303040,36.467098 
	C781.403748,42.129124 781.451477,47.797916 781.281921,53.456722 
	C781.182007,56.788177 782.616943,57.832962 785.759521,57.752270 
	C791.419678,57.606934 797.086182,57.709484 802.750061,57.716778 
	C805.051147,57.719742 807.149841,57.912155 807.175598,61.054459 
	C807.201416,64.205170 805.134521,64.406166 802.811584,64.416435 
	C797.648376,64.439255 792.485107,64.523491 787.322205,64.503006 
	C784.413757,64.491455 783.209045,65.663132 783.258484,68.720352 
	C783.308105,71.780891 784.532349,72.844368 787.460449,72.810371 
	C795.288818,72.719490 803.120239,72.691887 810.947693,72.814140 
	C814.358093,72.867409 815.730286,71.537079 815.671326,68.094383 
	C815.531494,59.934040 815.719666,51.767818 815.559692,43.608204 
	C815.498962,40.508789 815.953247,37.701527 817.884827,34.326225 
z"/>
<path fill="#000000" opacity="1.000000" stroke="none" 
	d="
M527.055908,16.158745 
	C531.831055,19.153440 534.958374,23.324318 538.621826,26.929691 
	C540.174133,28.457405 540.361450,30.425913 540.355286,32.473522 
	C540.328613,41.292221 540.399536,50.111710 540.305542,58.929535 
	C540.239136,65.168327 533.393188,72.183159 527.209961,72.268616 
	C518.392883,72.390488 509.571594,72.387939 500.754547,72.264618 
	C495.133392,72.186005 490.783081,67.768814 490.737701,62.028526 
	C490.633820,48.884396 490.732941,35.738785 490.695923,22.593927 
	C490.684265,18.449553 492.299774,15.750408 496.737946,15.753666 
	C506.714661,15.760987 516.691284,15.913879 527.055908,16.158745 
M517.379883,64.661255 
	C518.211853,64.660515 519.043823,64.662262 519.875793,64.658638 
	C528.124390,64.622719 532.671997,60.080769 532.687378,51.827286 
	C532.700439,44.838753 532.743713,37.849396 532.657715,30.861832 
	C532.591858,25.507803 527.562439,20.299814 522.270020,20.211689 
	C514.784302,20.087046 507.292816,20.280811 499.808350,20.122261 
	C496.379883,20.049629 495.048065,21.345516 495.080017,24.780979 
	C495.189972,36.593842 495.205536,48.409222 495.076721,60.221676 
	C495.037415,63.827499 496.650970,64.806282 499.939484,64.709045 
	C505.425781,64.546829 510.920227,64.661865 517.379883,64.661255 
z"/>
<path fill="#000000" opacity="1.000000" stroke="none" 
	d="
M592.013672,63.734352 
	C591.536133,71.615639 590.716614,72.397606 583.320679,72.401482 
	C574.487427,72.406105 565.653931,72.435844 556.821106,72.375496 
	C550.494141,72.332268 546.296814,68.652924 546.131165,62.349892 
	C545.878174,52.726486 546.059082,43.090321 546.136719,33.460224 
	C546.169250,29.420261 548.142822,27.479679 552.396179,27.545586 
	C562.060303,27.695328 571.728638,27.547073 581.394897,27.598076 
	C587.874329,27.632259 591.765564,31.439756 591.931335,38.270073 
	C592.133484,46.598557 592.001892,54.935146 592.013672,63.734352 
M573.452637,64.742432 
	C574.783875,64.741890 576.137146,64.584595 577.442383,64.768585 
	C582.461487,65.476112 584.255493,63.482964 583.962402,58.374889 
	C583.562622,51.408585 583.649536,44.394997 583.920471,37.416931 
	C584.079529,33.321739 582.447266,31.588474 578.538269,31.569508 
	C570.718933,31.531567 562.899536,31.492708 555.080444,31.422527 
	C552.327209,31.397814 550.174377,31.713268 550.275940,35.405560 
	C550.371460,38.877361 552.508545,38.969311 554.979675,38.975212 
	C560.470337,38.988323 565.962036,38.966324 571.451111,39.071625 
	C573.352966,39.108105 575.256775,39.545448 575.069031,42.124012 
	C574.893127,44.539448 572.934021,44.338318 571.325989,44.358334 
	C566.001892,44.424625 560.673401,44.511795 555.353027,44.361614 
	C551.826538,44.262070 550.060791,45.422134 550.279114,49.226578 
	C550.488403,52.875454 550.490845,56.555225 550.279602,60.203777 
	C550.073547,63.762817 551.628967,64.884331 554.994568,64.790428 
	C560.814087,64.628044 566.641418,64.744232 573.452637,64.742432 
z"/>
<path fill="#000000" opacity="1.000000" stroke="none" 
	d="
M718.799255,71.706528 
	C712.716187,73.658524 707.104004,74.700546 702.384033,69.476074 
	C700.611816,67.514397 699.616272,65.420334 699.713135,62.740509 
	C700.103333,51.942966 699.095032,41.128880 700.283508,30.326742 
	C700.622131,27.248865 699.795105,24.060110 699.763916,20.919605 
	C699.727966,17.301025 701.595642,15.369049 705.351440,15.479035 
	C707.348206,15.537509 709.348267,15.485926 711.344849,15.546600 
	C716.346863,15.698605 720.222351,19.296446 720.265198,24.328569 
	C720.388000,38.792126 720.317505,53.257336 720.318604,67.721893 
	C720.318726,69.075211 720.165527,70.389091 718.799255,71.706528 
M709.255127,64.823975 
	C711.823914,64.792999 712.678467,63.312847 712.670410,60.950302 
	C712.643188,52.985180 712.597107,45.018955 712.704895,37.055134 
	C712.746216,33.998482 711.360596,32.969894 708.488098,32.963448 
	C705.652161,32.957081 704.139587,33.914986 704.168579,36.980114 
	C704.243835,44.944611 704.263916,52.911007 704.169739,60.875038 
	C704.133545,63.943237 705.534729,65.092255 709.255127,64.823975 
M704.492493,21.137510 
	C704.416199,21.792295 704.283020,22.446390 704.275024,23.102005 
	C704.256531,24.628998 704.278809,26.305426 706.269653,26.511505 
	C708.186890,26.709959 710.332336,27.315109 711.922058,25.694153 
	C713.062927,24.530867 713.092529,22.661392 712.439575,21.477463 
	C710.507751,17.974874 707.610779,19.221186 704.492493,21.137510 
z"/>
<path fill="#000000" opacity="1.000000" stroke="none" 
	d="
M251.906799,56.347916 
	C246.439224,56.541660 247.863312,52.806381 247.677460,50.108814 
	C247.497574,47.498177 249.040024,46.717491 251.380981,46.706100 
	C253.683121,46.694904 255.909729,46.838551 255.901520,49.838169 
	C255.894104,52.546223 257.275543,56.220989 251.906799,56.347916 
z"/>
<path fill="#000000" opacity="1.000000" stroke="none" 
	d="
M378.961121,49.813499 
	C381.818665,49.976341 382.402008,51.485645 382.158081,53.578438 
	C381.935669,55.486355 380.573151,55.936749 378.964783,55.928551 
	C377.353607,55.920334 376.004822,55.445328 375.812592,53.534737 
	C375.607819,51.499645 375.988708,49.868458 378.961121,49.813499 
z"/>
<path fill="#000000" opacity="1.000000" stroke="none" 
	d="
M802.699097,49.911919 
	C799.767517,49.912865 797.291138,49.850174 794.816162,49.884537 
	C791.338135,49.932823 789.408142,48.991268 789.558594,44.786541 
	C789.714417,40.435482 792.256897,40.616924 795.165955,40.646542 
	C797.641663,40.671749 800.117981,40.655994 802.593933,40.642727 
	C805.049316,40.629574 807.250427,40.742222 807.277527,44.165154 
	C807.301697,47.208179 807.274109,49.948700 802.699097,49.911919 
z"/>
<path fill="#000000" opacity="1.000000" stroke="none" 
	d="
M503.702728,38.044521 
	C503.750763,27.799389 502.930817,28.629066 512.575806,28.649969 
	C525.016296,28.676929 523.146729,27.309256 523.320557,39.137531 
	C523.381775,43.300152 523.211609,47.467735 523.337036,51.627327 
	C523.432190,54.783222 522.151489,56.241165 518.957397,56.199879 
	C500.318359,55.958935 504.147522,58.650402 503.709290,42.035126 
	C503.678528,40.870087 503.703949,39.703568 503.702728,38.044521 
M515.313416,36.319427 
	C512.688232,36.208698 511.283752,37.316227 511.352417,40.095005 
	C511.417603,42.732990 511.405121,45.375584 511.331726,48.013504 
	C511.265106,50.406822 512.106018,51.719444 514.731079,51.731735 
	C517.183167,51.743210 518.902466,51.280827 519.054626,48.334568 
	C519.207336,45.377182 519.710876,42.456207 519.455750,39.457264 
	C519.262817,37.190872 518.351013,36.113628 515.313416,36.319427 
z"/>
<path fill="#000000" opacity="1.000000" stroke="none" 
	d="
M572.695068,50.799915 
	C575.645630,51.533306 575.382874,53.507183 575.074829,55.300785 
	C574.740906,57.244930 573.034302,57.239826 571.526978,57.257000 
	C568.696716,57.289257 565.865662,57.254738 563.034912,57.238670 
	C560.786621,57.225914 559.740479,56.141396 559.735413,53.838631 
	C559.729980,51.362938 561.121948,50.708252 563.239807,50.722935 
	C566.236938,50.743713 569.234253,50.738815 572.695068,50.799915 
z"/>
</svg>