<svg version="1.1" id="Layer_1" xmlns="http://www.w3.org/2000/svg" xmlns:xlink="http://www.w3.org/1999/xlink" x="0px" y="0px"
	 width="100%" viewBox="0 0 1024 576" enable-background="new 0 0 1024 576" xml:space="preserve">
<path fill="#000000" opacity="1.000000" stroke="none" 
	d="
M394.468658,577.000000 
	C389.329529,567.679871 390.977661,559.216919 396.640869,550.720032 
	C424.999176,508.172028 453.127838,465.471008 481.418549,422.877808 
	C483.434662,419.842468 483.810059,417.094604 482.894318,413.539032 
	C474.971588,382.776947 467.165588,351.984131 459.497345,321.157501 
	C455.858124,306.527740 462.614197,296.061066 477.295349,293.415436 
	C517.871338,286.103394 558.468811,278.910706 599.055969,271.660400 
	C600.848999,271.340118 602.623596,270.917023 605.878052,270.232269 
	C550.599121,234.283325 496.308105,198.976852 441.483002,163.323029 
	C437.985138,168.439087 434.735901,173.213211 431.463989,177.971741 
	C427.219666,184.144577 422.130554,185.851547 417.182068,182.787079 
	C411.270721,179.126343 409.937683,172.720917 414.004700,166.289093 
	C418.008026,159.957962 422.244232,153.773956 426.384888,147.529800 
	C430.104492,141.920502 430.112335,141.917130 435.895996,145.684753 
	C451.247894,155.685364 466.613251,165.665482 481.942566,175.700607 
	C528.349976,206.080551 574.743103,236.482346 621.140381,266.877777 
	C622.951843,268.064484 624.720764,269.318207 626.557617,270.463654 
	C632.549255,274.199890 635.301575,279.517578 634.095703,286.532043 
	C632.965393,293.106720 627.526123,297.951111 620.276062,299.204071 
	C610.280396,300.931549 600.275696,302.607361 590.285522,304.365753 
	C573.581726,307.305817 556.908691,310.431122 540.171082,313.161682 
	C536.152161,313.817322 535.720947,315.466858 536.574768,318.859619 
	C546.679993,359.011780 556.546631,399.225128 566.909729,439.310272 
	C569.088257,447.737152 568.144714,455.777039 567.048584,463.996216 
	C563.137573,493.323120 559.293945,522.659973 555.153320,551.954651 
	C553.997314,560.132996 554.035828,568.618103 550.109802,576.640503 
	C538.645752,577.000000 527.291565,577.000000 515.287659,576.679932 
	C511.954254,571.699768 511.182159,566.730286 511.995270,561.423096 
	C512.976013,555.021729 513.818970,548.598999 514.695190,542.181885 
	C518.268616,516.010681 521.676575,489.815460 525.482910,463.678253 
	C526.823486,454.472809 527.182190,445.627319 522.672852,437.108032 
	C520.179565,437.791504 519.590881,439.923828 518.536499,441.509003 
	C505.898254,460.508179 493.315979,479.544617 480.741180,498.585938 
	C463.484192,524.717346 446.246155,550.861389 429.000000,577.000000 
	C417.645782,577.000000 406.291534,577.000000 394.468658,577.000000 
z"/>
<path fill="#000000" opacity="1.000000" stroke="none" 
	d="
M435.449921,259.327026 
	C428.052643,242.352890 432.639130,224.294373 446.593872,214.423233 
	C460.628174,204.495850 480.113007,205.631561 492.157104,217.349030 
	C503.288727,228.178741 506.290863,241.360474 501.216064,255.829407 
	C496.369873,269.646484 485.898590,277.696533 471.449249,279.097839 
	C455.535553,280.641205 443.313843,273.983673 435.449921,259.327026 
z"/>
<path fill="#000000" opacity="1.000000" stroke="none" 
	d="
M605.880127,54.749893 
	C603.177368,44.771675 603.215149,35.248466 606.855042,25.929443 
	C609.660034,18.748083 614.692444,15.127490 621.560791,15.181012 
	C628.864502,15.237927 633.919678,18.808548 636.526978,25.571379 
	C640.581360,36.087723 640.519531,46.750740 636.817383,57.322971 
	C634.435242,64.125450 629.455383,68.022339 622.165527,68.159256 
	C614.892334,68.295868 609.883484,64.632362 607.108521,57.919682 
	C606.726807,56.996250 606.364502,56.064774 605.880127,54.749893 
M630.691467,31.955938 
	C630.347656,30.844616 630.116699,29.681997 629.639282,28.631382 
	C628.066772,25.170969 625.916016,21.815161 621.815979,21.774998 
	C617.408325,21.731821 615.100159,25.189095 613.860657,29.002066 
	C611.160828,37.307350 611.306641,45.758816 613.762878,54.054550 
	C614.868469,57.788795 617.120972,61.356445 621.590149,61.476727 
	C626.089539,61.597816 628.300354,58.156933 629.673523,54.411934 
	C632.264160,47.346214 632.302979,40.083431 630.691467,31.955938 
z"/>
<path fill="#000000" opacity="1.000000" stroke="none" 
	d="
M568.864136,52.780426 
	C566.534485,44.669590 566.603882,36.962631 569.228210,29.371555 
	C573.006653,18.441822 582.967957,13.151818 594.232971,15.846292 
	C598.515442,16.870605 600.063232,19.213146 598.461670,23.461857 
	C595.859924,24.515858 593.912720,22.639210 591.777832,22.089132 
	C586.520874,20.734600 582.586365,22.542244 579.582031,26.637671 
	C573.955200,34.307961 573.773865,48.128777 579.125793,55.953121 
	C580.046875,57.299793 581.218567,58.587353 582.543823,59.519211 
	C584.576782,60.948738 586.963074,62.493034 589.457520,61.225147 
	C591.813965,60.027390 590.918030,57.328888 590.835815,55.309063 
	C590.706970,52.145145 592.436096,48.205109 587.311279,46.738949 
	C585.635132,46.259407 585.705627,43.517288 586.891602,42.380970 
	C589.608215,39.778225 593.177612,40.974861 596.387939,41.239223 
	C599.026062,41.456467 599.104919,43.793880 599.113953,45.830376 
	C599.138306,51.321739 599.049866,56.813911 599.108154,62.304684 
	C599.139404,65.256203 597.951660,66.745880 594.939819,67.450142 
	C582.884338,70.269119 573.615295,65.267471 568.864136,52.780426 
z"/>
<path fill="#000000" opacity="1.000000" stroke="none" 
	d="
M407.266937,29.242210 
	C404.359955,32.867611 401.659821,36.204018 397.937500,40.803471 
	C402.087219,40.032570 404.708618,39.467884 407.354980,39.068428 
	C415.533020,37.833992 422.809204,41.750584 424.223694,48.083412 
	C426.037292,56.202717 421.839508,63.255177 413.597565,65.917305 
	C409.213287,67.333427 404.803436,67.637802 400.328461,66.288857 
	C397.362061,65.394661 394.539429,64.262932 393.751099,60.887543 
	C393.244141,58.716766 393.418579,56.454124 395.509735,55.033920 
	C398.539917,52.975986 401.847076,53.245327 405.061035,54.474251 
	C407.328827,55.341381 408.837372,57.204041 409.860535,59.361492 
	C411.086639,61.946774 412.793762,61.746201 414.661041,60.274120 
	C418.166748,57.510368 420.174347,53.991844 419.144714,49.415665 
	C418.069580,44.637352 414.509735,42.460342 409.989777,42.402889 
	C400.521759,42.282543 393.791351,47.548599 388.006348,54.393303 
	C386.517181,56.155235 385.317078,60.013855 382.549744,57.752762 
	C379.879822,55.571278 382.109680,52.677517 384.193817,50.522057 
	C391.742157,42.715477 398.499420,34.269669 404.432587,25.172411 
	C404.954712,24.371851 405.756866,23.601395 405.255646,22.207506 
	C402.178864,21.708418 399.652344,23.448921 396.944611,24.538065 
	C391.951630,26.546402 388.741699,24.000845 389.189636,17.911016 
	C394.795807,21.537893 400.077667,18.537525 405.448364,17.396406 
	C407.427155,16.975975 409.371674,16.243715 411.198944,17.595312 
	C413.781006,19.505219 414.581421,21.596020 411.818237,24.146326 
	C410.237671,25.605143 408.913452,27.341705 407.266937,29.242210 
M399.075226,57.611137 
	C397.854065,58.197361 397.060883,59.195324 398.158356,60.282551 
	C400.028351,62.135033 402.252136,63.342819 405.505859,62.052017 
	C404.060364,59.464550 402.262695,58.043385 399.075226,57.611137 
z"/>
<path fill="#000000" opacity="1.000000" stroke="none" 
	d="
M454.011841,57.025398 
	C451.969849,57.569633 450.638336,59.092953 449.241821,60.514133 
	C447.512329,62.274197 445.919647,64.774048 443.024353,62.662155 
	C440.349976,60.711411 440.090149,57.986931 441.480255,55.090492 
	C441.752960,54.522240 442.250519,54.061886 442.947357,53.159340 
	C445.271332,56.525074 447.370483,54.659317 449.643768,53.223068 
	C454.231079,50.324795 458.906708,47.566338 463.528748,44.760624 
	C457.592773,34.804047 457.721527,33.608887 465.304840,27.067442 
	C464.172211,23.759022 459.523712,21.974937 460.618988,16.465939 
	C465.059082,20.625753 469.909088,23.004726 474.415161,25.942204 
	C475.377014,26.569235 476.070465,27.719337 475.715179,28.981127 
	C475.247681,30.641510 473.765991,30.528114 472.434662,30.531849 
	C471.603699,30.534182 470.742157,30.312010 469.946716,30.464241 
	C466.672882,31.090818 462.987244,31.558880 462.650513,35.820278 
	C462.427826,38.638596 468.269562,42.798912 471.476196,42.321690 
	C478.102325,41.335548 484.005249,43.077560 489.375000,46.835201 
	C492.497833,49.020496 494.527954,52.080231 495.126251,55.863190 
	C495.702850,59.508636 493.879669,61.113529 490.258362,60.395954 
	C487.415009,59.832523 484.582916,59.212296 481.867676,58.642853 
	C481.656311,56.794525 482.926971,56.831207 483.737915,56.398430 
	C485.277069,55.577030 487.817871,55.878860 488.067963,53.605709 
	C488.336243,51.167366 486.240509,49.808601 484.493011,48.578987 
	C481.042969,46.151379 477.299011,44.735233 472.832245,45.591679 
	C473.028198,48.776093 475.203308,50.721611 475.546600,53.436871 
	C476.061249,57.507561 474.918671,60.664650 471.621826,63.007908 
	C468.594299,65.159752 465.640472,65.301903 462.459900,62.965309 
	C459.839661,61.040363 456.122437,60.748764 454.520203,57.273598 
	C458.675751,57.570011 462.395721,59.404991 466.514587,58.660538 
	C468.511963,58.299526 470.075592,57.300098 470.403625,55.318031 
	C470.813324,52.842495 469.466736,50.781979 467.830109,49.090736 
	C466.262421,47.470753 464.672028,48.727268 463.371368,49.660835 
	C460.146637,51.975494 456.441895,53.698616 454.011841,57.025398 
z"/>
<path fill="#000000" opacity="1.000000" stroke="none" 
	d="
M685.716187,20.201065 
	C685.789429,16.875668 687.792786,16.687466 689.902893,16.683805 
	C696.561096,16.672255 703.219360,16.678009 709.877563,16.670471 
	C712.058655,16.668001 713.944458,17.020914 713.918091,19.832233 
	C713.893250,22.475546 712.235535,23.203417 709.961975,23.210163 
	C705.967102,23.222017 701.969788,23.323988 697.978210,23.214302 
	C694.926147,23.130430 693.499756,24.159277 693.329468,27.476536 
	C692.799438,37.799652 692.684265,37.791420 702.742126,37.794941 
	C704.572937,37.795582 706.403870,37.819786 708.234619,37.840229 
	C710.586182,37.866489 712.067261,38.821133 711.997498,41.404408 
	C711.929993,43.904785 710.249390,44.314323 708.236633,44.314426 
	C704.741028,44.314602 701.241272,44.438477 697.751038,44.305656 
	C694.487061,44.181450 693.276733,45.680485 693.353760,48.805748 
	C693.464417,53.297516 693.365051,57.794052 693.417969,62.287811 
	C693.445984,64.665184 693.191772,66.598404 690.062561,66.610832 
	C686.928162,66.623276 685.630981,65.355705 685.654724,62.130207 
	C685.756409,48.314846 685.696777,34.498306 685.716187,20.201065 
z"/>
<path fill="#000000" opacity="1.000000" stroke="none" 
	d="
M669.458313,66.740921 
	C662.873169,66.686707 656.727417,66.560631 650.581055,66.512016 
	C648.077271,66.492203 646.927612,65.278191 646.927856,62.847660 
	C646.929382,48.713566 646.936340,34.579468 646.934387,20.445374 
	C646.934021,17.708326 648.317383,16.693405 650.999146,16.665718 
	C654.062378,16.634098 655.125671,18.098755 655.116333,20.932886 
	C655.080261,31.907843 655.265503,42.886818 655.014404,53.856194 
	C654.910583,58.391403 656.350830,60.284096 660.995605,59.770042 
	C663.788269,59.460972 666.643921,59.674885 669.469849,59.727493 
	C671.741638,59.769791 674.405273,59.276672 674.769714,62.701210 
	C675.169373,66.456535 672.428528,66.470131 669.458313,66.740921 
z"/>
<path fill="#000000" opacity="1.000000" stroke="none" 
	d="
M338.081970,58.728050 
	C343.740601,58.882832 348.767731,57.826275 353.735931,56.442799 
	C355.517181,55.946774 357.272461,55.413181 359.093201,56.095947 
	C360.391846,56.582943 361.485962,57.336910 361.434906,58.946682 
	C361.390625,60.343922 360.448578,61.034939 359.239716,61.287785 
	C348.276306,63.580883 337.216614,65.283226 326.407837,61.038010 
	C319.061798,58.152790 317.022339,50.435780 322.039612,44.889874 
	C322.793549,48.927773 323.015411,52.970825 326.360046,55.624565 
	C329.682251,58.260498 333.553802,58.848675 338.081970,58.728050 
z"/>
<path fill="#000000" opacity="1.000000" stroke="none" 
	d="
M337.384338,28.104809 
	C338.922119,26.685467 338.091736,26.494080 336.880798,26.185814 
	C333.989471,25.449760 331.064758,24.750671 328.289459,23.683178 
	C326.133362,22.853846 324.267120,21.436890 324.758545,17.883030 
	C332.494232,21.642166 340.405212,21.827850 348.362427,21.721567 
	C350.078918,21.698641 351.722504,22.267136 352.964722,23.402391 
	C354.746704,25.030968 354.503296,27.456324 352.291016,27.565100 
	C345.572510,27.895443 339.753479,31.169615 333.310760,33.278004 
	C333.460785,30.060102 335.906952,29.702053 337.384338,28.104809 
z"/>
<path fill="#000000" opacity="1.000000" stroke="none" 
	d="
M355.968689,17.068901 
	C359.522675,18.111000 362.828369,18.974703 364.042969,22.627789 
	C364.447113,23.843225 364.707977,25.360077 363.286682,26.194050 
	C362.046295,26.921858 361.136597,25.996811 360.275238,25.179672 
	C357.786163,22.818365 355.279968,20.475075 352.813049,18.155296 
	C353.246460,16.311300 354.528198,16.895916 355.968689,17.068901 
z"/>
<path fill="#000000" opacity="1.000000" stroke="none" 
	d="
M369.129028,16.913979 
	C371.456116,18.891737 371.948242,20.866518 370.079590,23.996431 
	C366.422058,21.029053 363.001190,18.253668 358.996063,15.004265 
	C363.245392,13.442350 366.006683,15.176141 369.129028,16.913979 
z"/>
</svg>