<svg version="1.1" id="Layer_1" xmlns="http://www.w3.org/2000/svg" xmlns:xlink="http://www.w3.org/1999/xlink" x="0px" y="0px"
	 width="100%" viewBox="0 0 1024 576" enable-background="new 0 0 1024 576" xml:space="preserve">
<path fill="#000000" opacity="1.000000" stroke="none" 
	d="
M505.466858,577.000000 
	C498.947632,570.081055 491.341217,564.909424 484.514862,558.862122 
	C442.606018,521.736145 403.224670,482.320801 372.834412,434.869965 
	C358.476196,412.451233 347.094727,388.749634 342.394958,362.123444 
	C337.214752,332.775177 345.942169,307.872406 365.238434,286.160370 
	C378.080811,271.710236 393.903168,261.717102 413.031464,257.952087 
	C436.251587,253.381699 456.903076,259.707306 475.161163,274.304504 
	C489.700714,285.928772 500.530884,300.618896 509.463104,316.807892 
	C510.422150,318.546082 511.466583,320.237152 512.584167,322.142303 
	C514.829163,321.163879 515.235229,319.049438 516.143738,317.432892 
	C526.787476,298.493866 539.493896,281.338867 557.922363,269.163544 
	C585.139709,251.181625 618.204041,252.398254 645.736572,272.694672 
	C665.825256,287.503601 678.962646,307.056061 683.799500,331.725006 
	C687.193909,349.036957 683.959167,365.839172 678.653015,382.295807 
	C668.745544,413.022675 651.539001,439.688751 631.918152,464.924072 
	C600.888794,504.832611 564.661011,539.624512 525.990112,571.988342 
	C524.341614,573.367981 522.838562,574.921509 521.133911,576.697021 
	C515.977905,577.000000 510.955811,577.000000 505.466858,577.000000 
z"/>
<path fill="#000000" opacity="1.000000" stroke="none" 
	d="
M677.130737,61.879868 
	C677.798767,63.219044 678.277405,64.255081 678.755920,65.290916 
	C673.346985,67.793037 671.041016,67.209831 668.219238,62.744404 
	C665.284607,58.100342 662.338440,53.463284 659.447815,48.791939 
	C658.271484,46.890949 656.720825,45.870541 654.462524,46.377373 
	C652.080872,46.911892 652.746521,48.985336 652.688904,50.485252 
	C652.529541,54.631256 652.573242,58.785667 652.568787,62.936794 
	C652.565735,65.772842 651.030579,66.621155 648.406799,66.519089 
	C645.914856,66.422150 644.792847,65.333221 644.795837,62.841183 
	C644.812927,48.687084 644.792236,34.532936 644.778076,20.378811 
	C644.776001,18.275511 645.463684,16.742241 647.869934,16.760052 
	C653.359619,16.800682 658.875793,16.581238 664.330505,17.053434 
	C669.080566,17.464640 672.843445,19.847797 674.322449,24.814045 
	C676.077026,30.705359 674.389954,36.149063 670.144104,39.859417 
	C666.205383,43.301323 666.743225,45.699303 669.285461,49.286694 
	C672.071228,53.217667 674.408569,57.466438 677.130737,61.879868 
M654.977600,23.465651 
	C653.095886,25.685823 652.069275,36.290146 653.508545,38.396458 
	C654.266235,39.505249 655.402771,39.558033 656.570190,39.665634 
	C661.780090,40.145813 667.121643,35.494835 667.365845,30.237322 
	C667.558411,26.091505 664.187744,23.508463 658.284851,23.298416 
	C657.459290,23.269041 656.630981,23.318731 654.977600,23.465651 
z"/>
<path fill="#000000" opacity="1.000000" stroke="none" 
	d="
M591.669312,28.890430 
	C591.674316,25.914007 591.764038,23.411268 591.662109,20.916361 
	C591.544434,18.036949 592.575012,16.626190 595.688477,16.667213 
	C598.631226,16.705986 599.347351,18.163486 599.338318,20.740179 
	C599.289856,34.569427 599.294373,48.398952 599.323792,62.228291 
	C599.329102,64.719612 598.768982,66.364082 595.760803,66.417168 
	C592.686523,66.471420 591.614624,65.114014 591.671631,62.210957 
	C591.759888,57.714207 591.560913,53.210346 591.706238,48.716694 
	C591.805603,45.643085 590.867310,44.079983 587.505493,44.097927 
	C572.376343,44.178684 575.644714,42.766304 575.290222,55.643509 
	C575.230652,57.808109 575.149414,59.982998 575.288086,62.139637 
	C575.499390,65.425041 573.983215,66.520950 570.832825,66.503021 
	C567.602722,66.484634 567.531067,64.566788 567.535583,62.210884 
	C567.562012,48.381710 567.570984,34.552250 567.496521,20.723362 
	C567.482727,18.151110 568.034912,16.639978 571.047913,16.642717 
	C573.940430,16.645346 575.392090,17.560030 575.311768,20.650457 
	C575.199280,24.979305 575.360657,29.314695 575.290344,33.645428 
	C575.246765,36.332146 576.292114,37.725956 579.105347,37.595928 
	C580.601257,37.526791 582.103760,37.600506 583.603333,37.609886 
	C591.648254,37.660225 591.648254,37.660240 591.669312,28.890430 
z"/>
<path fill="#000000" opacity="1.000000" stroke="none" 
	d="
M630.072449,31.063026 
	C633.643921,42.680557 637.087830,53.922035 640.512390,65.100128 
	C634.374146,67.625061 632.781067,67.165909 631.289612,61.594524 
	C630.112244,57.196587 627.766785,55.565941 623.426514,56.145931 
	C621.954834,56.342587 620.409546,56.344753 618.940491,56.136196 
	C614.880066,55.559769 612.673279,57.241837 611.949890,61.245510 
	C611.088867,66.011032 608.391663,67.709236 603.490540,65.739967 
	C603.114380,62.694057 604.704529,60.030636 605.539124,57.250103 
	C609.171997,45.146244 612.986267,33.096558 616.578247,20.980846 
	C617.461548,18.001554 618.848755,16.591625 622.151245,16.597353 
	C625.515808,16.603189 626.333557,18.625748 627.064148,21.141136 
	C627.991089,24.332758 628.981689,27.505884 630.072449,31.063026 
M622.853210,35.116478 
	C622.410400,34.313057 622.530640,33.159462 621.296204,32.719555 
	C619.066895,36.818218 618.257935,41.391533 616.834778,45.748219 
	C616.417725,47.025162 615.873718,48.685303 617.460815,49.197590 
	C620.124512,50.057419 623.036255,50.194706 625.679199,49.155533 
	C627.185608,48.563259 626.625244,46.904869 626.231018,45.635685 
	C625.205200,42.332813 624.154236,39.037743 622.853210,35.116478 
z"/>
<path fill="#000000" opacity="1.000000" stroke="none" 
	d="
M701.392212,65.912186 
	C695.048279,66.930153 694.715332,66.679688 694.694885,60.705845 
	C694.658386,50.042248 694.525513,39.375305 694.747437,28.716314 
	C694.834839,24.518948 693.302368,22.946375 689.224670,23.342228 
	C687.246338,23.534279 685.230042,23.319824 683.230957,23.320311 
	C681.192444,23.320807 680.150146,22.312588 680.089417,20.291533 
	C680.024536,18.130150 680.879211,16.731750 683.235901,16.730572 
	C693.565308,16.725405 703.894836,16.721636 714.224121,16.758144 
	C716.293030,16.765455 717.140625,18.012766 717.139404,19.999653 
	C717.138306,21.964073 716.343140,23.182138 714.263855,23.301825 
	C713.598816,23.340111 712.932007,23.359507 712.265869,23.362885 
	C701.159973,23.419214 702.550842,22.154535 702.313782,33.774971 
	C702.096985,44.406754 703.112793,55.061153 701.392212,65.912186 
z"/>
<path fill="#000000" opacity="1.000000" stroke="none" 
	d="
M356.066345,52.541775 
	C358.273895,55.022366 361.293457,55.413853 363.565094,57.083546 
	C365.368927,58.409393 367.242981,60.096786 365.798035,62.450497 
	C364.275940,64.929848 362.304840,63.109951 360.629120,62.185135 
	C358.917969,61.240784 357.264526,60.191803 355.373444,59.061691 
	C350.899109,65.380554 345.275970,66.890350 338.580933,64.003464 
	C335.860687,62.830490 333.509369,61.005657 333.919098,57.659073 
	C334.365601,54.012100 337.024506,52.349407 340.431854,51.784004 
	C341.409698,51.621750 342.423035,51.632900 343.420044,51.633347 
	C350.592682,51.636543 350.889954,52.868221 350.714142,43.830627 
	C350.701172,43.165123 350.638580,42.493698 350.701172,41.834721 
	C351.145935,37.152683 350.738983,33.815037 344.307281,34.588814 
	C340.832916,35.006802 336.669403,34.318684 334.299347,29.937187 
	C337.089478,28.751856 339.322449,30.439381 341.617462,30.452240 
	C344.627258,30.469107 348.660400,31.972277 350.056824,28.276672 
	C351.386353,24.757921 351.206238,20.682714 347.535126,17.906528 
	C347.179779,17.637823 347.015869,17.115976 346.722382,16.646538 
	C348.822968,14.157584 351.122742,14.744640 353.438110,15.998216 
	C355.490723,17.109547 355.972137,18.884132 355.522095,21.095470 
	C355.291931,22.226274 355.351013,23.414246 355.254639,24.574329 
	C355.015228,27.456535 355.721588,29.212818 359.167969,28.177107 
	C360.256561,27.849960 361.469604,27.784870 362.614838,27.837215 
	C364.005402,27.900772 365.342529,28.435146 365.541718,30.020025 
	C365.761169,31.765644 364.181793,31.938549 363.044403,32.595257 
	C360.603455,34.004631 356.357361,31.726196 355.452728,35.826317 
	C354.857361,38.524700 355.235077,41.455940 355.312134,44.279224 
	C355.384338,46.924381 354.969238,49.613213 356.066345,52.541775 
M347.664642,59.530807 
	C349.123505,58.340988 350.379089,56.869507 347.698883,55.962826 
	C344.378510,54.839573 340.985077,54.626091 338.418121,58.166092 
	C340.999420,61.285027 343.913086,61.092606 347.664642,59.530807 
z"/>
<path fill="#000000" opacity="1.000000" stroke="none" 
	d="
M449.735474,55.788773 
	C449.695496,49.020592 453.640991,44.965069 458.071655,41.297470 
	C460.190735,39.543362 461.381989,38.046143 460.144928,35.007423 
	C459.314880,32.968372 459.913849,30.391554 459.575287,28.099394 
	C458.844025,23.148266 460.137939,17.663229 455.046478,13.834934 
	C462.046600,11.829232 465.807800,14.961934 464.680267,20.948658 
	C463.962341,24.760344 463.986877,28.579597 464.416199,32.391617 
	C464.676270,34.701214 465.760132,36.303402 468.432007,34.976723 
	C472.379547,33.016586 477.091797,32.342651 479.602722,28.216934 
	C482.460999,28.673048 484.166077,30.082663 484.174927,32.837646 
	C484.184601,35.842670 481.655853,35.875244 479.579163,36.373066 
	C471.532196,38.302082 464.068604,41.499355 457.841064,47.055103 
	C455.086761,49.512226 452.291229,52.517448 453.844482,56.542484 
	C455.306488,60.331257 459.189606,60.589329 462.750122,60.819298 
	C467.751587,61.142334 472.723083,61.067482 477.668945,60.067612 
	C479.282288,59.741455 480.976654,59.741543 482.634766,59.732029 
	C484.356659,59.722141 486.287506,59.995926 486.538391,62.025974 
	C486.842560,64.487366 484.662842,64.923615 482.876068,65.186226 
	C474.574554,66.406326 466.290344,66.234444 458.083252,64.417770 
	C453.638794,63.433964 450.648956,60.850403 449.735474,55.788773 
z"/>
<path fill="#000000" opacity="1.000000" stroke="none" 
	d="
M325.402130,54.261971 
	C324.853180,57.454006 324.142029,60.191498 324.427917,63.071980 
	C324.558594,64.388451 324.461884,65.845825 322.660065,66.140717 
	C321.096008,66.396683 320.124176,65.474434 319.457977,64.254700 
	C317.587524,60.830139 316.940979,57.085670 316.669769,53.239559 
	C316.125671,45.523087 317.419098,37.973503 318.993591,30.500338 
	C319.839264,26.486397 320.232086,22.691019 318.148590,18.835285 
	C320.695740,17.051950 322.368896,18.540920 323.921692,19.970448 
	C325.952545,21.840086 326.319031,24.005804 325.403412,26.748693 
	C320.951385,40.085678 320.553558,43.258278 321.741943,52.254601 
	C323.171661,48.600506 324.466187,45.292011 325.760681,41.983513 
	C328.147827,46.236523 325.810333,49.973499 325.402130,54.261971 
z"/>
<path fill="#000000" opacity="1.000000" stroke="none" 
	d="
M384.280273,45.163887 
	C379.813232,43.237057 378.689117,40.122349 379.834442,34.968082 
	C385.473083,41.643650 392.403778,39.523952 398.801666,39.440773 
	C406.110260,39.345757 413.409821,38.599537 420.715485,38.174152 
	C421.531769,38.126621 422.382935,38.238609 423.182220,38.427639 
	C425.057861,38.871231 427.762909,38.829411 427.500763,41.526085 
	C427.260376,43.998734 424.709198,43.372147 422.995728,43.385273 
	C415.501617,43.442715 408.005615,43.473759 400.512573,43.361031 
	C395.143463,43.280254 389.892609,43.964836 384.280273,45.163887 
z"/>
</svg>