<svg version="1.1" id="Layer_1" xmlns="http://www.w3.org/2000/svg" xmlns:xlink="http://www.w3.org/1999/xlink" x="0px" y="0px"
	 width="100%" viewBox="0 0 1024 576" enable-background="new 0 0 1024 576" xml:space="preserve">
<path fill="#000000" opacity="1.000000" stroke="none" 
	d="
M475.468658,577.000000 
	C468.644257,570.733398 466.315674,563.482666 467.501312,554.371521 
	C470.223938,533.449524 472.211578,512.431152 474.436279,491.445343 
	C476.573883,471.281250 478.616699,451.107147 480.738098,430.941315 
	C481.503296,423.667419 482.333221,416.399567 483.227081,409.140472 
	C483.468475,407.180023 484.001892,405.267334 482.008209,402.256195 
	C476.253082,423.879395 473.079712,444.979828 467.830292,466.177643 
	C461.547943,464.755219 455.732208,463.538605 449.973755,462.093506 
	C446.975769,461.341156 447.640717,458.897858 448.067810,456.761047 
	C451.715515,438.510162 456.336945,420.387726 458.741486,401.975403 
	C460.679779,387.133362 469.247772,376.414307 477.007416,364.941742 
	C487.647125,349.210999 498.500885,333.625000 509.275116,317.985382 
	C510.289551,316.512878 511.011047,314.733185 513.255798,314.004791 
	C516.859497,316.789459 519.471375,320.675903 522.492493,324.130219 
	C527.066467,329.359985 526.948364,329.479462 532.087341,325.031952 
	C557.281799,303.227356 582.470032,281.415588 607.663940,259.610321 
	C620.009033,248.925674 632.369446,238.258728 644.708252,227.566727 
	C654.102783,219.426041 667.080688,219.838913 674.782349,228.553299 
	C682.534302,237.324615 681.983459,249.880142 672.779236,258.049805 
	C653.721680,274.965210 634.382324,291.563782 615.119995,308.247772 
	C586.919189,332.673889 558.682800,357.058960 530.467529,381.468414 
	C528.950928,382.780396 527.575684,384.119019 527.345520,386.363403 
	C525.361389,405.715149 523.360718,425.065521 521.264709,444.405426 
	C519.097046,464.407013 516.777344,484.392120 514.599060,504.392578 
	C512.780273,521.092590 510.915649,537.790222 509.377655,554.517090 
	C508.631927,562.627197 507.483093,570.393799 501.120453,576.683960 
	C492.645782,577.000000 484.291534,577.000000 475.468658,577.000000 
z"/>
<path fill="#000000" opacity="1.000000" stroke="none" 
	d="
M507.866455,204.790131 
	C525.215942,196.956894 542.541565,190.049606 559.921326,183.285736 
	C571.604980,178.738678 583.467224,183.614441 587.765930,194.439468 
	C592.210510,205.631775 587.002014,217.159851 575.004456,221.960434 
	C552.431641,230.992477 529.833374,239.962326 508.006439,250.715607 
	C498.181641,255.555862 488.397736,260.513367 479.587463,266.772156 
	C479.489990,269.232086 480.925171,270.550964 481.963257,271.980530 
	C487.835144,280.066986 493.485016,288.343964 499.829254,296.046387 
	C503.252625,300.202576 503.031891,303.044220 500.044708,307.270386 
	C488.221252,323.998108 476.804688,341.012939 465.158600,357.866943 
	C463.391205,360.424683 462.533203,362.722321 463.041809,366.092621 
	C464.762421,377.493805 455.822906,388.070099 443.995850,389.272430 
	C427.948090,390.903870 411.901611,392.547882 395.852234,394.163208 
	C380.417236,395.716705 370.193207,385.306274 371.573090,369.583954 
	C373.071686,352.508728 375.947906,335.679504 379.434174,318.892059 
	C383.154236,300.978912 391.692169,285.971313 404.269379,273.011902 
	C427.517090,249.057861 455.023773,231.069199 484.538269,215.940765 
	C492.093384,212.068176 499.851532,208.591690 507.866455,204.790131 
M424.694611,332.868164 
	C423.370178,331.570618 422.919525,329.213684 420.157135,329.244781 
	C418.044189,334.857422 417.472229,340.799988 416.390472,346.615479 
	C416.084320,348.261353 416.715973,349.692535 418.714752,349.665009 
	C424.119720,349.590668 429.456360,348.980286 435.625610,347.681671 
	C431.758270,342.437286 428.434540,337.930115 424.694611,332.868164 
z"/>
<path fill="#000000" opacity="1.000000" stroke="none" 
	d="
M351.694183,205.076492 
	C355.785492,186.726059 366.877838,175.297867 384.796722,172.152725 
	C401.261292,169.262863 415.350739,174.792786 425.477264,188.696014 
	C435.175659,202.011444 435.358276,220.968109 426.011322,235.146973 
	C416.875153,249.006088 399.049194,256.027588 382.741241,252.190704 
	C366.237396,248.307709 353.837250,234.695648 351.518005,218.369812 
	C350.898071,214.006088 350.870483,209.785049 351.694183,205.076492 
z"/>
<path fill="#000000" opacity="1.000000" stroke="none" 
	d="
M594.418457,16.778412 
	C596.446594,16.792372 598.147827,16.344824 599.692261,17.466423 
	C600.133240,19.774466 598.337158,21.064014 597.211853,22.598351 
	C593.765808,27.297115 590.390686,32.064156 586.666504,36.536922 
	C584.319092,39.356171 584.283386,41.357517 586.725403,44.234402 
	C591.676331,50.066975 596.188843,56.271828 600.875244,62.328495 
	C601.580811,63.240341 602.441956,64.089127 602.316833,65.749161 
	C597.967896,67.462708 594.301819,67.049828 591.199890,62.876133 
	C586.748108,56.886292 582.034119,51.091362 576.878784,44.506504 
	C575.769409,50.747414 576.402039,56.155636 576.276062,61.517281 
	C576.212036,64.240578 576.050171,66.446289 572.353882,66.414398 
	C568.567017,66.381714 568.628052,63.999649 568.631897,61.378689 
	C568.651550,48.055988 568.653381,34.733253 568.649658,21.410534 
	C568.648987,18.964487 568.618713,16.758444 572.139343,16.682257 
	C575.672607,16.605793 576.306885,18.476496 576.260254,21.382544 
	C576.178833,26.459843 576.237549,31.539391 576.237549,37.766499 
	C583.451782,30.671200 587.033020,22.285194 594.418457,16.778412 
z"/>
<path fill="#000000" opacity="1.000000" stroke="none" 
	d="
M708.431030,52.592430 
	C711.614197,57.010220 715.416931,60.554543 717.912903,65.617165 
	C712.962280,67.048309 709.194641,66.981125 706.005188,62.413361 
	C701.834167,56.439865 697.080261,50.873409 691.289429,45.262390 
	C691.289429,50.719276 691.337646,56.176823 691.263000,61.632687 
	C691.237183,63.518921 691.771790,65.874153 688.809326,66.262650 
	C685.798706,66.657463 683.605164,66.252205 683.634644,62.325069 
	C683.738342,48.521931 683.709717,34.717377 683.646606,20.913752 
	C683.633484,18.043234 684.568848,16.621901 687.677063,16.684462 
	C690.592346,16.743139 691.362793,18.194502 691.330078,20.771982 
	C691.260742,26.246347 691.308838,31.722204 691.308838,38.747299 
	C696.391907,32.080666 700.816528,26.642797 704.813538,20.907015 
	C707.476746,17.085260 710.593018,15.752762 714.930725,17.181345 
	C715.805542,19.038639 714.428467,20.040968 713.575256,21.181417 
	C709.591431,26.506767 705.700745,31.909567 701.516785,37.074032 
	C699.564575,39.483772 699.592468,41.345097 701.500793,43.632854 
	C703.841736,46.439331 705.985046,49.410652 708.431030,52.592430 
z"/>
<path fill="#000000" opacity="1.000000" stroke="none" 
	d="
M331.918945,42.267311 
	C327.565887,42.383255 323.874603,42.059357 321.972626,37.102161 
	C328.811890,38.165268 335.168823,38.518501 341.283997,35.177650 
	C339.995148,30.625639 338.742035,27.175659 332.770630,29.098040 
	C329.196259,30.248745 325.288147,29.590048 322.381287,25.681189 
	C325.412964,24.299170 328.026337,26.474245 330.443787,25.473837 
	C332.253235,24.725023 335.463013,25.647720 335.445435,22.549358 
	C335.431427,20.088675 334.256256,17.705853 331.643433,16.554268 
	C330.631958,16.108477 329.238770,16.439840 328.439362,14.612163 
	C329.970703,12.159673 332.370026,11.951035 335.116089,12.473802 
	C337.758179,12.976773 339.279053,14.390143 339.298035,17.195877 
	C339.325195,21.212524 340.949432,22.388863 344.562958,20.189301 
	C345.402191,19.678465 346.374084,19.326748 347.331024,19.081831 
	C348.799774,18.705933 350.064209,19.263702 350.620819,20.641073 
	C351.158325,21.971184 350.153717,22.831553 349.107758,23.425167 
	C347.093597,24.568321 345.034058,25.631559 342.796448,26.833714 
	C343.036591,29.423973 344.200409,31.481361 345.967957,33.282917 
	C348.893402,33.195389 350.806549,30.879007 353.407990,30.354605 
	C354.987335,30.036234 356.554199,30.202805 357.179108,31.890453 
	C357.787567,33.533695 356.394775,34.238926 355.199432,34.865334 
	C353.306152,35.857468 351.158722,36.403904 349.422577,38.230957 
	C349.907898,41.287334 352.293945,43.229992 354.153259,45.474926 
	C355.637207,47.266621 357.423431,48.885029 358.082031,51.181580 
	C358.596161,52.974350 358.590118,54.896828 357.139404,56.338959 
	C355.560425,57.908615 354.042725,56.666210 352.608185,55.929543 
	C346.250458,52.664764 339.562317,51.085716 332.410004,51.992657 
	C329.178314,52.402451 326.555115,53.789612 326.313629,57.446373 
	C326.065826,61.198730 328.857269,62.500202 331.787018,63.596596 
	C336.306793,65.288025 341.002167,64.509964 345.632965,64.671097 
	C347.575317,64.738686 350.158417,64.270821 350.472168,66.942963 
	C350.818237,69.890404 347.929901,69.721901 346.180603,69.843025 
	C339.978638,70.272461 333.883209,69.483963 328.159058,66.910126 
	C324.173767,65.118187 321.736847,62.060177 322.135742,57.504318 
	C322.550598,52.765980 325.531464,50.170673 329.977020,48.928043 
	C335.457916,47.396004 340.880249,48.653252 346.323273,49.078789 
	C347.449158,49.166813 348.566528,49.364346 350.175537,49.575371 
	C349.316040,45.848606 346.901398,43.538361 345.195374,40.853741 
	C344.259827,39.381584 342.907471,39.945896 341.604279,40.240200 
	C338.528137,40.934879 335.441284,41.581940 331.918945,42.267311 
z"/>
<path fill="#000000" opacity="1.000000" stroke="none" 
	d="
M614.647705,66.482178 
	C613.368774,66.447823 612.537659,66.426659 611.706482,66.421761 
	C609.470581,66.408577 607.129150,66.467758 607.223389,63.255264 
	C607.315247,60.124325 609.794983,59.847218 611.886597,60.182129 
	C617.039612,61.007221 618.039429,58.664295 617.869080,54.073368 
	C617.554810,45.605995 617.618225,37.115059 617.833496,28.641792 
	C617.935120,24.643303 616.729065,22.726498 612.493408,23.105595 
	C609.954285,23.332851 607.138428,23.302462 607.274658,19.575556 
	C607.407288,15.950167 610.334900,16.733927 612.507935,16.708847 
	C618.990784,16.634026 625.475159,16.692955 631.958984,16.699554 
	C634.267395,16.701904 636.364502,16.869101 636.237610,20.074453 
	C636.124695,22.926645 634.161011,23.399206 632.104370,23.107769 
	C626.317871,22.287800 625.128479,25.072939 625.307251,30.248604 
	C625.644348,40.009605 625.404541,49.790535 625.404541,59.396999 
	C628.307800,60.789558 630.854065,59.784870 633.275696,60.244125 
	C635.174133,60.604149 636.258911,61.403503 636.228088,63.506443 
	C636.195496,65.730530 634.915344,66.414833 633.019348,66.359451 
	C627.042053,66.184845 621.076782,67.391869 614.647705,66.482178 
z"/>
<path fill="#000000" opacity="1.000000" stroke="none" 
	d="
M671.145508,22.850018 
	C662.199524,20.429148 657.121277,22.883099 653.991943,31.195854 
	C651.247192,38.487286 651.313477,45.898315 654.365784,53.094257 
	C657.639160,60.811180 662.859192,63.078133 670.863647,60.599388 
	C672.109741,60.213516 673.356140,59.828617 674.597107,59.444885 
	C676.473022,65.064262 675.934875,66.126900 670.775146,67.351463 
	C659.759399,69.965836 649.886414,64.761497 646.063049,54.144814 
	C642.953369,45.509762 643.155151,36.797092 646.429688,28.269745 
	C650.565125,17.500729 661.994507,12.549108 672.656311,16.420534 
	C675.567566,17.477663 676.050659,19.378376 675.678772,21.835356 
	C675.191833,25.051868 673.112061,23.353350 671.145508,22.850018 
z"/>
<path fill="#000000" opacity="1.000000" stroke="none" 
	d="
M467.733551,52.255554 
	C471.197571,55.862629 474.467102,59.170834 477.595245,62.607731 
	C478.942841,64.088341 479.971008,65.858894 479.534210,68.037704 
	C479.296509,69.223526 478.733856,70.263206 477.536804,70.716347 
	C476.179596,71.230110 475.224945,70.444176 474.665161,69.379799 
	C469.933655,60.383785 462.547180,53.623913 455.570190,46.507904 
	C452.778503,43.660603 452.781738,40.634144 455.459991,37.664162 
	C459.466583,33.221176 463.487183,28.790815 467.511353,24.363728 
	C470.318604,21.275434 473.354706,18.267117 470.139252,13.190506 
	C474.100433,12.835673 475.957855,14.526228 477.375793,17.209969 
	C478.773071,19.854620 477.477997,21.501862 475.665161,23.260067 
	C470.654602,28.119486 465.843506,33.186798 460.776001,37.984428 
	C457.752930,40.846516 457.951233,43.273766 460.909027,45.899700 
	C463.145264,47.885040 465.294067,49.968857 467.733551,52.255554 
z"/>
<path fill="#000000" opacity="1.000000" stroke="none" 
	d="
M393.896667,39.715706 
	C399.814972,36.614994 405.711487,35.201721 412.039703,35.725910 
	C422.543518,36.595970 427.722687,46.549885 422.155060,55.202969 
	C417.642883,62.215691 401.467346,66.967041 393.148315,63.548500 
	C394.631134,61.741848 396.679108,62.003719 398.535004,61.672295 
	C404.267853,60.648525 410.089813,59.788197 414.828430,55.977913 
	C418.419342,53.090500 420.948608,49.514042 419.051331,44.737415 
	C417.204590,40.088043 413.170166,38.717941 408.430511,39.062649 
	C401.096649,39.596027 395.325836,43.495510 389.669128,47.695148 
	C388.154358,48.819756 386.683899,50.817093 384.431427,49.268528 
	C382.252106,47.770290 380.810638,45.830677 382.224945,42.606148 
	C386.798279,45.040836 389.939728,41.591862 393.896667,39.715706 
z"/>
</svg>