<svg version="1.1" id="Layer_1" xmlns="http://www.w3.org/2000/svg" xmlns:xlink="http://www.w3.org/1999/xlink" x="0px" y="0px"
	 width="100%" viewBox="0 0 1024 576" enable-background="new 0 0 1024 576" xml:space="preserve">
<path fill="#000000" opacity="1.000000" stroke="none" 
	d="
M387.468658,577.000000 
	C384.334045,575.004578 381.019592,575.110657 378.001984,574.317078 
	C347.414978,566.273376 320.665222,551.290527 297.392822,529.976746 
	C296.194550,528.879333 294.760193,527.917542 294.283844,526.061279 
	C379.242645,531.197754 446.594116,500.760376 485.110229,423.073853 
	C523.580322,345.480103 508.310944,273.311157 451.599670,208.680435 
	C455.721954,207.890900 459.511322,209.280228 463.238983,210.032593 
	C536.184998,224.755524 595.021179,284.443665 608.197510,357.611237 
	C618.521851,414.941895 605.536499,466.826599 569.050598,512.206360 
	C542.820557,544.830261 508.496216,565.321472 467.872375,575.293518 
	C466.426910,575.648376 465.017365,576.149719 463.295532,576.791382 
	C437.979095,577.000000 412.958221,577.000000 387.468658,577.000000 
z"/>
<path fill="#000000" opacity="1.000000" stroke="none" 
	d="
M654.483704,208.516235 
	C657.801697,211.821854 660.994690,214.763626 663.905212,217.962418 
	C667.452026,221.860413 671.162842,222.553726 675.908508,220.019699 
	C682.364929,216.572250 689.086487,213.625153 695.629944,210.335358 
	C699.377563,208.451126 703.045227,207.886154 706.245789,211.020279 
	C709.399048,214.108215 709.013733,218.053238 707.583069,221.748291 
	C704.819580,228.885742 701.955078,235.994995 698.807373,242.969223 
	C696.436340,248.222794 697.181763,252.391373 701.302734,256.489502 
	C706.729187,261.885803 711.723206,267.714417 716.974976,273.289520 
	C720.005981,276.507172 721.291748,280.030090 719.166626,284.177490 
	C717.106201,288.198669 713.558167,289.032776 709.408875,288.372925 
	C702.023193,287.198395 694.619812,286.128448 687.250061,284.862701 
	C678.963440,283.439636 677.528137,284.040710 673.604736,291.159271 
	C669.908447,297.866028 666.185181,304.557922 662.489014,311.264771 
	C660.453369,314.958557 657.976746,318.157227 653.152832,317.118561 
	C648.849915,316.192108 647.115417,313.029419 646.504456,308.806091 
	C645.387085,301.082764 643.775879,293.429474 642.719421,285.699280 
	C641.996521,280.409454 639.324036,277.307587 634.254944,275.863464 
	C626.577332,273.676300 618.965271,271.260437 611.302551,269.019684 
	C606.960571,267.749969 603.639465,265.455139 603.288574,260.609192 
	C602.945679,255.873718 606.101074,253.519180 609.963440,251.693176 
	C615.983459,248.847061 621.933899,245.852997 627.898987,242.891647 
	C634.652771,239.538773 635.395630,238.396347 634.628296,230.786285 
	C634.011902,224.673752 633.024780,218.599014 632.233337,212.503464 
	C631.998413,210.693604 631.743958,208.871811 631.717834,207.052322 
	C631.663391,203.252701 633.122437,200.223297 636.710815,198.562698 
	C640.166931,196.963287 643.345398,198.025543 645.997986,200.262939 
	C648.916748,202.724915 651.502625,205.581604 654.483704,208.516235 
z"/>
<path fill="#000000" opacity="1.000000" stroke="none" 
	d="
M712.109131,440.865326 
	C714.313110,444.028656 716.333679,446.878723 718.307373,449.760925 
	C720.071960,452.337769 721.487122,455.104736 719.170898,457.983429 
	C716.952881,460.740021 714.038452,460.498169 710.993958,459.307404 
	C707.278931,457.854462 703.436218,456.715637 699.765320,455.165009 
	C695.245239,453.255707 691.870789,454.102997 689.001038,458.233063 
	C686.637085,461.635071 683.768127,464.688324 681.094421,467.872131 
	C679.230591,470.091553 676.886414,471.298370 674.030212,470.211304 
	C671.289246,469.168121 670.759949,466.660034 670.744690,464.043335 
	C670.717529,459.384613 670.598633,454.720184 670.782593,450.068604 
	C670.912109,446.793365 669.560791,444.765320 666.716675,443.341858 
	C662.552795,441.257935 658.498779,438.955414 654.352478,436.834961 
	C651.773376,435.515930 649.930298,433.757416 650.344849,430.631775 
	C650.764771,427.464874 653.146423,426.353882 655.907227,425.738983 
	C659.634705,424.908722 663.356079,424.050659 667.081177,423.209564 
	C670.779907,422.374481 672.803162,420.340210 672.850281,416.276611 
	C672.902222,411.799896 673.432007,407.330048 673.703003,402.854126 
	C673.876343,399.991547 674.758240,397.572479 677.736511,396.624420 
	C680.723816,395.673431 682.936829,397.065369 684.587097,399.423401 
	C687.352905,403.375671 690.025513,407.393250 692.730347,411.388092 
	C694.506958,414.011993 696.674683,415.141388 699.967163,414.052673 
	C703.588379,412.855316 707.336243,412.025604 711.053589,411.139252 
	C714.024170,410.430908 717.087524,409.873322 719.148499,412.996826 
	C721.043152,415.868286 719.669983,418.389313 718.025635,420.818787 
	C715.974548,423.849213 714.123413,427.039825 711.835571,429.878906 
	C708.843140,433.592407 708.674377,437.023102 712.109131,440.865326 
z"/>
<path fill="#000000" opacity="1.000000" stroke="none" 
	d="
M394.403687,38.418087 
	C390.659851,37.055962 394.042908,34.423668 391.430542,32.108353 
	C402.721344,33.233917 412.384308,32.306004 422.138824,31.650457 
	C422.594269,26.812075 420.775848,25.061914 416.440430,25.360498 
	C409.490540,25.839144 402.522552,26.054859 395.688751,26.375759 
	C394.407227,24.283363 394.995636,22.496368 395.213043,19.961311 
	C400.770569,19.961311 406.360291,19.992125 411.949524,19.953981 
	C420.025604,19.898867 420.025452,19.877541 419.385315,11.999043 
	C421.500885,11.849257 423.616577,11.699465 425.687408,11.552850 
	C425.941132,11.886817 426.292267,12.133483 426.300415,12.390967 
	C426.545532,20.162971 426.687561,20.284746 434.752472,19.458117 
	C437.699738,19.156031 440.648285,18.866531 443.601227,18.570786 
	C444.347961,20.872721 444.483368,22.776514 443.831818,25.246475 
	C439.906219,25.246475 435.939789,25.200565 431.975342,25.268692 
	C430.351898,25.296593 428.277618,25.141788 428.540863,27.693193 
	C428.752075,29.740631 429.441528,31.681702 432.105499,31.675379 
	C436.553040,31.664825 441.018463,32.042030 445.638275,30.410954 
	C445.763733,32.981750 445.083435,34.908287 446.416382,37.315727 
	C441.452972,37.315727 437.352051,37.315727 432.939392,37.315727 
	C433.294586,42.109318 436.267700,44.882576 438.795868,48.130123 
	C435.593903,51.347870 432.663940,52.531078 428.072998,50.256897 
	C422.518585,47.505459 416.303162,46.843189 410.049286,48.295643 
	C406.896759,49.027809 404.322235,50.260647 404.123383,53.977440 
	C403.934113,57.514931 405.940826,59.467148 409.014740,60.690113 
	C414.790497,62.988037 427.790344,62.981625 436.940094,60.514462 
	C437.365143,62.515324 437.788879,64.510063 438.304840,66.938751 
	C427.852783,67.834183 417.529480,69.471306 407.287262,66.316772 
	C400.600983,64.257446 396.871246,59.439671 397.160767,53.691498 
	C397.434082,48.264828 401.640106,44.384197 408.519745,42.824615 
	C414.663330,41.431904 420.718933,42.670475 427.076294,43.316326 
	C426.635376,38.766731 424.748932,37.227695 420.231384,37.572708 
	C411.772552,38.218731 403.258881,38.145836 394.403687,38.418087 
z"/>
<path fill="#000000" opacity="1.000000" stroke="none" 
	d="
M532.716919,28.351986 
	C535.538635,33.426483 537.674438,38.479759 541.484741,43.420734 
	C546.489014,34.210636 551.223877,25.496363 556.121887,16.481741 
	C558.224915,16.450562 560.663330,16.923313 563.067749,15.712342 
	C562.762146,32.583191 561.834900,48.790916 563.021362,65.415215 
	C561.016296,66.234871 558.520630,64.362633 555.777832,66.321892 
	C555.777832,54.254074 555.777832,43.076561 555.777832,30.432814 
	C551.120667,38.014614 547.399048,44.405067 544.346985,51.483353 
	C540.631226,52.134136 537.947754,51.636581 536.097107,47.302040 
	C533.731812,41.762211 530.314758,36.671425 526.567993,31.684486 
	C526.567993,42.904957 526.567993,54.125427 526.567993,65.563873 
	C524.242126,65.647598 521.945251,64.975609 519.456177,66.030685 
	C519.456177,49.296539 519.456177,33.061104 519.456177,16.526329 
	C521.686340,16.526329 524.057251,16.526329 526.407227,16.526329 
	C528.480835,20.427973 530.502563,24.231916 532.716919,28.351986 
z"/>
<path fill="#000000" opacity="1.000000" stroke="none" 
	d="
M676.692993,28.379635 
	C681.181763,35.948574 685.473816,43.207916 689.765930,50.467258 
	C690.059692,50.383244 690.353516,50.299225 690.647278,50.215210 
	C690.647278,39.033638 690.647278,27.852070 690.647278,16.408560 
	C693.346313,16.408560 695.731262,16.408560 698.311035,16.408560 
	C698.311035,32.762249 698.311035,49.154079 698.311035,65.530045 
	C693.499817,66.284340 690.697693,64.659180 688.313782,60.106186 
	C683.079102,50.108719 676.948181,40.580521 670.487549,29.687859 
	C670.487549,42.512531 670.487549,54.067451 670.487549,65.774956 
	C667.745728,65.776077 665.475403,64.797707 662.981812,66.028152 
	C664.160889,49.180401 663.519653,32.873405 663.004333,16.545568 
	C668.729248,14.890099 671.536987,18.035667 673.476440,22.905622 
	C674.205994,24.737442 675.473877,26.354879 676.692993,28.379635 
z"/>
<path fill="#000000" opacity="1.000000" stroke="none" 
	d="
M601.388123,62.665241 
	C583.651794,71.187340 568.385315,60.137260 569.411316,39.880432 
	C569.561523,36.914719 569.733276,33.937511 570.605835,31.007698 
	C573.367676,21.734749 579.880249,16.551479 589.561646,16.193415 
	C598.929810,15.846934 605.883423,20.466156 609.291016,29.299603 
	C613.878662,41.191891 610.557434,55.723339 601.388123,62.665241 
M603.099548,50.408089 
	C605.003540,44.905930 605.043640,39.365643 603.728271,33.711094 
	C602.011963,26.332754 597.660461,22.385595 590.741028,22.237423 
	C583.385254,22.079908 578.729614,25.693689 576.859253,33.230232 
	C575.639465,38.145390 575.726562,43.176704 576.690796,48.089603 
	C578.001465,54.768261 582.447266,59.034386 588.142517,59.666283 
	C595.179199,60.447021 599.236511,58.080818 603.099548,50.408089 
z"/>
<path fill="#000000" opacity="1.000000" stroke="none" 
	d="
M634.280396,16.358330 
	C652.720886,16.044003 658.256653,30.558075 655.934204,47.275620 
	C654.299927,59.039753 647.134766,65.218773 636.356689,65.368324 
	C624.406189,65.534126 617.906433,60.160656 615.334473,47.837173 
	C614.054565,41.704636 614.297852,35.618687 616.383545,29.652882 
	C619.283630,21.357742 625.148071,17.004539 634.280396,16.358330 
M630.724731,59.061096 
	C639.137512,60.809471 644.866943,58.696861 647.578491,52.350475 
	C650.717102,45.004349 650.827942,37.385300 647.769165,30.009127 
	C644.319519,21.690229 633.122131,19.554499 626.383179,25.411432 
	C619.066406,31.770502 618.995850,55.414249 630.724731,59.061096 
z"/>
<path fill="#000000" opacity="1.000000" stroke="none" 
	d="
M340.083801,21.825634 
	C348.699951,20.356735 356.861359,18.594986 365.244171,20.418579 
	C375.683746,22.689592 380.114471,27.050047 381.894409,37.001366 
	C383.482208,45.878571 379.663971,54.344803 371.768250,59.208912 
	C365.676605,62.961670 358.847229,64.438972 351.858887,65.196999 
	C347.780853,65.639343 343.663452,65.718491 339.325378,65.975143 
	C339.325378,63.752312 339.325378,61.547546 339.325378,59.268181 
	C348.502960,59.747108 357.379272,58.975613 365.725372,55.247414 
	C372.587830,52.181931 376.208832,45.836182 375.197327,39.314816 
	C373.865723,30.729889 369.449097,26.806438 360.249725,26.331430 
	C349.485474,25.775618 339.198975,28.314734 328.581238,31.788441 
	C329.096375,28.992083 327.669952,26.834921 327.318390,24.511431 
	C331.588959,23.608101 335.625488,22.754269 340.083801,21.825634 
z"/>
</svg>