<svg version="1.1" id="Layer_1" xmlns="http://www.w3.org/2000/svg" xmlns:xlink="http://www.w3.org/1999/xlink" x="0px" y="0px"
	 width="100%" viewBox="0 0 1024 576" enable-background="new 0 0 1024 576" xml:space="preserve">
<path fill="#000000" opacity="1.000000" stroke="none" 
	d="
M361.468658,577.000000 
	C349.830627,571.079529 342.931976,562.109619 341.053894,549.427185 
	C339.708679,540.343079 344.913422,532.267944 353.402771,530.586853 
	C362.237518,528.837341 370.408783,534.220154 372.398865,543.291138 
	C373.019135,546.118408 374.035217,548.187134 377.069641,549.062439 
	C410.558838,558.722595 437.027802,544.151367 444.558441,508.042084 
	C444.651337,507.596771 444.427917,507.085480 444.303101,506.294342 
	C441.750580,506.013214 439.457184,507.114532 437.150391,507.773224 
	C390.569702,521.074585 341.720581,487.981171 336.532410,439.881104 
	C334.319336,419.363281 339.093292,400.947357 351.009369,384.259979 
	C356.839172,376.095917 366.623108,374.039185 374.118103,379.330566 
	C381.332794,384.424103 382.188751,394.265594 376.264374,402.403564 
	C364.887360,418.031586 363.835999,434.846741 371.982666,451.935638 
	C382.521240,474.042023 410.103119,480.058136 430.856750,465.320770 
	C453.474945,449.259308 455.989044,420.126007 436.583069,400.253296 
	C420.146698,383.421570 408.378448,363.943146 404.669189,340.404755 
	C400.428680,313.495422 408.402710,290.268738 427.746124,271.258789 
	C447.522827,251.823013 472.135864,243.196518 499.291138,240.650696 
	C524.074341,238.327255 547.871826,242.059998 570.192261,253.010773 
	C595.035889,265.199463 612.669006,283.883911 618.743896,311.690948 
	C623.329773,332.681793 618.737244,352.308258 608.765686,370.949768 
	C602.748230,382.199158 595.008911,392.166046 586.332642,401.460175 
	C564.070007,425.308105 575.626953,464.252533 607.276855,472.093384 
	C631.899963,478.193390 656.032532,460.279602 657.758362,434.794128 
	C658.566711,422.857544 655.854370,412.150757 648.804321,402.321198 
	C641.048523,391.507721 645.529602,378.877289 657.831604,376.175690 
	C664.992554,374.603119 670.540466,377.684296 674.700806,383.362946 
	C686.389221,399.317505 691.697144,417.299225 690.026978,436.924133 
	C686.933655,473.270752 661.098022,501.643066 625.312195,508.769684 
	C613.325928,511.156677 601.465759,510.458008 589.732178,507.194275 
	C587.338135,506.528351 584.987000,505.727417 582.477417,505.880005 
	C582.286133,506.243378 581.990417,506.537598 582.004883,506.815674 
	C582.969727,525.352417 598.916992,545.738831 616.328552,549.888672 
	C626.640564,552.346497 637.108032,551.936646 647.418457,549.055847 
	C651.007751,548.053040 652.875671,546.010681 653.766846,542.286438 
	C655.802917,533.778076 663.491821,528.503174 671.101379,529.904053 
	C679.372437,531.426697 684.907837,538.619446 684.241333,547.364136 
	C683.217712,560.795776 676.357117,570.389648 664.260254,576.786377 
	C639.979126,577.000000 615.958191,577.000000 591.257812,576.728027 
	C590.018250,576.111511 589.496704,575.664917 588.892639,575.437012 
	C561.085876,564.947937 540.293274,546.501221 526.485901,520.228699 
	C523.286133,514.140259 518.894714,510.194427 511.719849,510.244629 
	C504.707245,510.293732 500.575378,514.307739 497.515625,520.239441 
	C489.466644,535.843445 478.414917,548.932434 464.341217,559.530334 
	C454.415131,567.005066 443.347443,572.228333 432.000000,577.000000 
	C408.645782,577.000000 385.291534,577.000000 361.468658,577.000000 
M542.155457,398.627258 
	C543.415100,398.236389 544.744202,397.991486 545.922546,397.429962 
	C551.591553,394.728394 554.081604,388.728180 552.053040,382.869690 
	C549.974915,376.868011 544.315735,373.868744 537.707642,375.266937 
	C532.259460,376.419739 528.704163,381.452972 529.068970,387.496918 
	C529.451904,393.841187 533.971008,397.940308 542.155457,398.627258 
M481.372559,375.434052 
	C480.341309,375.960022 479.230072,376.372131 478.291962,377.030731 
	C472.968079,380.768341 471.782501,387.888947 475.520111,393.339478 
	C479.181793,398.679230 485.834167,400.106812 491.280579,396.721619 
	C496.306763,393.597534 498.293945,388.037170 496.394928,382.411285 
	C494.584503,377.047974 489.580444,374.539062 481.372559,375.434052 
z"/>
<path fill="#000000" opacity="1.000000" stroke="none" 
	d="
M489.253906,15.844078 
	C500.238800,14.308458 506.148651,17.822048 509.377594,27.945511 
	C512.392639,37.398281 512.258057,46.975483 509.146545,56.383228 
	C506.655609,63.914639 501.266785,67.950470 494.121155,68.192551 
	C487.291870,68.423897 481.804688,64.810944 478.929871,57.401237 
	C474.723999,46.560696 475.034454,35.602989 479.326721,24.817396 
	C481.076324,20.421041 484.303070,17.409298 489.253906,15.844078 
M486.464783,55.852943 
	C488.220581,59.033813 490.361450,61.948700 494.456848,61.511456 
	C498.402557,61.090191 500.473724,58.025623 501.635803,54.644207 
	C504.584198,46.065144 504.679321,37.347748 501.652039,28.774895 
	C500.337433,25.052036 497.900238,21.641562 493.522369,21.761885 
	C489.420410,21.874624 487.122589,25.117086 485.954895,28.777000 
	C483.153320,37.557903 483.229126,46.379406 486.464783,55.852943 
z"/>
<path fill="#000000" opacity="1.000000" stroke="none" 
	d="
M625.091187,29.340410 
	C626.960571,38.659515 627.363647,47.554001 624.307617,56.284397 
	C621.514587,64.263237 616.244995,68.253136 608.927673,68.200920 
	C601.821838,68.150215 596.463867,64.263420 593.820312,56.583725 
	C590.418213,46.700382 590.498230,36.642544 593.806824,26.757332 
	C596.377258,19.077435 601.717224,15.247200 608.910034,15.240784 
	C616.243408,15.234242 621.192078,18.902067 624.183716,26.578058 
	C624.485046,27.351103 624.717529,28.150990 625.091187,29.340410 
M603.304138,24.865705 
	C597.330688,34.981148 598.115112,45.502235 601.763855,56.031475 
	C602.821472,59.083168 605.306274,61.406261 608.855530,61.542446 
	C612.008240,61.663414 614.343201,59.748363 615.564819,57.098885 
	C620.267883,46.899548 620.426697,36.438679 615.583191,26.351440 
	C612.962219,20.893032 608.802063,20.560120 603.304138,24.865705 
z"/>
<path fill="#000000" opacity="1.000000" stroke="none" 
	d="
M698.371460,62.205124 
	C692.889465,68.702202 686.221008,69.312790 679.048401,67.007843 
	C672.312073,64.843094 670.090698,59.242977 669.905884,52.915344 
	C669.589783,42.091049 669.790222,31.252422 669.688293,20.420618 
	C669.661377,17.560436 671.026184,16.710930 673.678406,16.652168 
	C676.516846,16.589277 677.482849,17.732986 677.448975,20.502377 
	C677.342896,29.167618 677.339172,37.835915 677.450806,46.501030 
	C677.489319,49.483967 677.847412,52.482147 678.304138,55.435516 
	C678.895508,59.258659 681.484009,61.268223 685.157349,61.573914 
	C689.043945,61.897358 692.004578,60.132816 693.378357,56.402332 
	C694.356262,53.746864 694.707336,50.939537 694.683228,48.059341 
	C694.606506,38.893505 694.681824,29.726498 694.651489,20.560099 
	C694.643799,18.234850 695.276794,16.780172 697.985352,16.688095 
	C700.812439,16.591990 701.990845,17.883661 701.948669,20.526686 
	C701.773499,31.514736 702.582764,42.514614 701.491577,53.493465 
	C701.187622,56.551601 700.289185,59.347534 698.371460,62.205124 
z"/>
<path fill="#000000" opacity="1.000000" stroke="none" 
	d="
M640.964722,59.813843 
	C640.772400,63.129551 641.696655,66.601723 636.814880,66.489876 
	C634.096252,66.427597 632.828979,65.433929 632.833801,62.682224 
	C632.858276,48.705532 632.837097,34.728764 632.836914,20.752020 
	C632.836853,18.536299 633.391113,16.726776 636.108459,16.753826 
	C641.261780,16.805124 646.462524,16.473854 651.556458,17.059570 
	C658.892944,17.903147 663.282471,22.237539 664.186157,28.502949 
	C665.260925,35.954697 661.611633,43.218849 655.190308,46.493210 
	C652.623474,47.802082 649.869385,48.560047 647.047791,48.620644 
	C642.101929,48.726852 640.231567,51.094223 640.932312,55.863018 
	C641.099976,57.003483 640.961487,58.188915 640.964722,59.813843 
M649.015625,41.722706 
	C653.321289,40.385559 655.331787,37.104027 656.345581,33.009834 
	C657.108154,29.930035 656.055664,27.318586 653.693542,25.454227 
	C650.459595,22.901701 646.443848,22.522573 642.775696,23.684631 
	C639.740479,24.646173 641.228699,27.995872 640.999390,30.321131 
	C640.804565,32.297436 640.961182,34.309498 640.979919,36.305573 
	C641.042969,43.035229 641.512695,43.395355 649.015625,41.722706 
z"/>
<path fill="#000000" opacity="1.000000" stroke="none" 
	d="
M736.759155,18.411102 
	C737.335632,22.463541 736.009155,23.612839 732.288208,22.627655 
	C729.306152,21.838104 726.228943,20.751181 722.995300,22.008886 
	C720.335632,23.043343 718.298279,24.673710 717.618958,27.450844 
	C716.922180,30.299240 718.769897,32.262760 720.810547,33.731388 
	C723.638306,35.766445 726.683533,37.503696 729.666809,39.317070 
	C732.524353,41.054028 735.288391,42.894787 737.347534,45.594692 
	C743.309692,53.411999 739.566589,64.352119 729.971252,67.160301 
	C724.537903,68.750435 719.141052,68.370201 713.718689,66.986801 
	C709.352905,65.872986 708.048218,63.418087 709.848694,59.198780 
	C712.905273,58.466415 715.315552,60.457321 718.023132,60.961441 
	C720.834961,61.484982 723.586182,62.071060 726.388000,61.212353 
	C729.054443,60.395142 731.268799,59.002789 731.841919,55.988873 
	C732.387878,53.118065 731.584778,50.562340 729.220581,48.904949 
	C725.824219,46.524048 722.234497,44.414318 718.687195,42.254768 
	C715.050781,40.040932 711.989563,37.362724 710.481567,33.210003 
	C708.195007,26.913361 710.651184,19.524534 716.695129,17.160305 
	C723.269287,14.588654 730.155457,13.888228 736.759155,18.411102 
z"/>
<path fill="#000000" opacity="1.000000" stroke="none" 
	d="
M526.984009,29.108755 
	C523.306335,36.741089 523.223450,44.280243 525.795715,51.778023 
	C528.815125,60.579212 534.516785,63.234543 543.377563,60.428909 
	C544.455444,60.087631 545.451538,59.295231 546.686157,59.773945 
	C548.507080,64.655502 547.825989,66.109673 543.184387,67.280388 
	C531.607422,70.200386 521.354553,64.429955 517.749329,53.066116 
	C515.356995,45.525265 515.416809,38.020821 517.661377,30.477873 
	C521.126953,18.831661 531.601318,12.906426 543.381104,15.951247 
	C547.905090,17.120598 548.587585,18.648333 546.616211,24.074619 
	C539.053711,20.796049 531.759399,19.685352 526.984009,29.108755 
z"/>
<path fill="#000000" opacity="1.000000" stroke="none" 
	d="
M566.690186,54.977127 
	C566.685608,45.822010 566.531067,37.160187 566.745178,28.507486 
	C566.840820,24.640350 565.627136,22.908361 561.625366,23.335663 
	C559.651367,23.546438 557.633118,23.313099 555.636047,23.345650 
	C553.447510,23.381323 552.136292,22.533594 552.124146,20.176975 
	C552.112793,17.969963 553.077209,16.727943 555.392151,16.729698 
	C565.548035,16.737396 575.703979,16.730511 585.859863,16.748413 
	C588.142273,16.752436 589.149597,17.995247 589.097290,20.230619 
	C589.049561,22.273720 588.010620,23.269669 585.998596,23.315212 
	C585.665710,23.322748 585.332581,23.331150 585.000427,23.353266 
	C574.351074,24.062458 574.348450,24.062719 574.340332,34.996105 
	C574.333618,43.987202 574.297241,52.978542 574.354065,61.969269 
	C574.371094,64.656502 573.834412,66.441826 570.555786,66.422951 
	C567.331543,66.404388 566.617493,64.673744 566.693970,61.967247 
	C566.755188,59.804642 566.696045,57.638630 566.690186,54.977127 
z"/>
<path fill="#000000" opacity="1.000000" stroke="none" 
	d="
M772.699890,35.600765 
	C768.554443,40.672173 762.810791,44.139393 762.040894,51.204754 
	C761.827881,53.159908 759.482971,52.969364 757.838745,52.801762 
	C755.808533,52.594822 755.032654,51.304962 755.208740,49.325504 
	C755.512939,45.905918 756.778015,42.934010 759.062439,40.346081 
	C761.697449,37.360847 764.284058,34.329510 766.798157,31.242043 
	C768.424011,29.245310 769.754944,26.918341 768.188171,24.416233 
	C766.636169,21.937805 763.907227,21.155979 761.180481,21.639355 
	C757.479553,22.295422 753.861816,23.421101 750.003601,24.397161 
	C748.171326,20.597773 748.826111,18.009790 752.964478,16.676643 
	C758.149109,15.006443 763.441589,14.774568 768.671082,16.076574 
	C775.556824,17.790960 781.292969,26.007856 772.699890,35.600765 
z"/>
<path fill="#000000" opacity="1.000000" stroke="none" 
	d="
M389.986755,38.021152 
	C392.309448,35.170921 394.610138,32.726738 396.417236,29.960155 
	C399.036285,25.950508 397.681885,23.141626 393.002045,21.873579 
	C389.730133,20.987022 386.788391,22.186665 383.760925,23.010199 
	C382.068298,23.470625 380.559509,24.895903 378.446869,24.057568 
	C376.877472,20.196592 378.000244,17.821888 382.102875,16.618990 
	C386.997070,15.184016 391.937592,14.842558 396.859283,15.972136 
	C405.441498,17.941832 408.460632,26.192720 403.192993,33.322258 
	C401.030670,36.248875 398.426270,38.859913 395.922516,41.519966 
	C393.606537,43.980526 391.532928,46.501663 391.282532,50.078453 
	C391.082581,52.935421 388.998108,52.952633 386.912994,52.761730 
	C384.305084,52.522961 383.670258,50.885807 384.033417,48.543144 
	C384.673981,44.410820 386.811096,41.129890 389.986755,38.021152 
z"/>
<path fill="#000000" opacity="1.000000" stroke="none" 
	d="
M279.802917,27.904060 
	C271.291779,29.638243 267.613037,35.165398 265.337830,42.732929 
	C263.336243,49.390392 260.213806,55.722305 257.407257,62.119404 
	C256.553894,64.064529 255.747116,67.371262 252.660522,65.588783 
	C250.169693,64.150330 251.168732,61.513973 252.563507,59.428043 
	C257.782471,51.622974 260.464264,42.721676 264.089264,34.009727 
	C259.671387,32.121601 253.828812,35.577168 250.700638,28.988747 
	C256.137268,29.502670 261.063324,30.392145 265.449707,28.076632 
	C268.520447,26.455627 268.751740,19.369600 266.056366,15.420856 
	C268.393280,13.109138 270.691223,14.433805 272.583282,15.814715 
	C276.307373,18.532726 273.813232,21.743105 272.603516,24.812342 
	C274.881866,25.554132 276.206909,23.844355 277.874969,23.406300 
	C279.274292,23.038824 280.625580,22.908327 281.514618,24.137394 
	C282.766602,25.868273 281.454559,26.845476 279.802917,27.904060 
z"/>
<path fill="#000000" opacity="1.000000" stroke="none" 
	d="
M320.221497,55.096962 
	C319.154785,47.844841 319.251648,47.329636 321.997559,44.335556 
	C322.233582,44.528549 322.669464,44.728020 322.667969,44.924149 
	C322.599823,53.867439 326.361816,58.076309 335.304871,58.627357 
	C341.276733,58.995327 347.252899,58.915775 353.104462,57.287987 
	C354.364410,56.937504 355.710449,56.780415 357.020905,56.756393 
	C358.768768,56.724350 360.528107,57.217449 360.905396,59.149120 
	C361.330719,61.326469 359.494720,62.084236 357.863281,62.315422 
	C347.480347,63.786736 337.080963,64.668266 326.867218,61.296764 
	C323.937164,60.329567 321.625549,58.451145 320.221497,55.096962 
z"/>
<path fill="#000000" opacity="1.000000" stroke="none" 
	d="
M355.021088,26.143906 
	C354.778900,26.826498 354.621063,27.304604 354.398682,27.336813 
	C347.317535,28.362356 340.421631,30.115421 333.218964,33.558983 
	C334.055115,29.168755 337.897156,29.334999 339.430328,26.712576 
	C334.684448,24.017200 327.179504,25.613651 325.195892,18.126560 
	C325.835144,17.900898 326.411926,17.487869 326.674744,17.635143 
	C333.135681,21.255508 340.143005,21.928160 347.365875,21.710943 
	C350.600525,21.613668 353.728424,22.052776 355.021088,26.143906 
z"/>
<path fill="#000000" opacity="1.000000" stroke="none" 
	d="
M277.207947,57.802910 
	C281.666626,62.493824 287.117188,61.683990 292.401703,61.492062 
	C293.720703,61.444160 295.021149,60.979858 296.342773,60.886971 
	C298.454865,60.738514 300.741638,61.083984 300.981964,63.549782 
	C301.269257,66.497650 298.633087,66.131287 296.717712,66.372162 
	C291.039490,67.086258 285.395905,66.894608 279.930725,65.152702 
	C273.842865,63.212337 271.779510,58.281384 274.604065,52.874149 
	C276.774292,53.709763 275.863068,56.149525 277.207947,57.802910 
z"/>
<path fill="#000000" opacity="1.000000" stroke="none" 
	d="
M297.283142,38.430210 
	C293.844574,38.924828 291.313110,41.230473 288.012665,41.265995 
	C287.320129,38.321598 290.896301,38.113388 290.993378,35.712540 
	C289.075897,32.973557 285.658508,35.407276 283.355896,33.801247 
	C286.945312,29.810036 296.773438,29.639013 300.177063,33.478909 
	C302.429474,36.020023 301.664734,37.508968 297.283142,38.430210 
z"/>
<path fill="#000000" opacity="1.000000" stroke="none" 
	d="
M383.917023,65.896622 
	C382.024170,62.544567 382.748016,60.076836 385.672791,58.457413 
	C388.203491,57.056202 390.531250,57.799126 392.192352,60.085110 
	C393.786011,62.278320 393.400970,64.562317 391.559113,66.365692 
	C389.152435,68.722054 386.572357,68.568726 383.917023,65.896622 
z"/>
<path fill="#000000" opacity="1.000000" stroke="none" 
	d="
M763.625610,62.758286 
	C762.092834,63.633816 760.743103,64.281906 759.323242,64.678185 
	C757.821838,65.097191 756.116028,66.339172 754.809204,64.412109 
	C753.864624,63.019089 754.154053,61.512821 755.123535,60.210247 
	C756.404541,58.489128 758.073914,57.399094 760.292419,58.093487 
	C762.341675,58.734898 763.748901,60.066429 763.625610,62.758286 
z"/>
</svg>