<svg version="1.1" id="Layer_1" xmlns="http://www.w3.org/2000/svg" xmlns:xlink="http://www.w3.org/1999/xlink" x="0px" y="0px"
	 width="100%" viewBox="0 0 1024 576" enable-background="new 0 0 1024 576" xml:space="preserve">
<path fill="#000000" opacity="1.000000" stroke="none" 
	d="
M469.468658,577.000000 
	C466.560974,571.345154 466.618256,565.386597 466.635132,559.375916 
	C466.709900,532.714905 466.649750,506.053497 466.667084,479.392212 
	C466.673004,470.300690 469.135193,462.272461 477.011688,456.792023 
	C478.971344,455.428528 479.100494,453.802338 477.910583,452.083801 
	C468.541534,438.552277 459.113342,425.061676 449.314301,411.000214 
	C443.746918,415.783813 441.850922,421.495422 442.497223,427.458221 
	C443.847260,439.913971 448.652710,450.536499 461.162781,455.723358 
	C461.640625,457.186096 460.899567,458.259674 459.966919,458.855621 
	C455.427948,461.755981 455.541138,465.739288 456.254639,470.520233 
	C459.422577,491.747742 450.030090,507.592560 433.974030,520.257690 
	C429.471466,523.809387 424.670654,527.051758 418.106110,529.045837 
	C420.480469,518.031372 424.733643,508.089264 423.009583,496.897644 
	C418.383484,498.560699 414.731079,501.199585 410.267853,500.800140 
	C409.203308,498.701355 410.758362,497.492432 411.522919,496.154907 
	C416.848602,486.838013 417.545044,477.765991 411.079559,468.516937 
	C406.599487,462.107971 402.968964,455.105682 398.496887,448.690521 
	C383.968964,427.850464 390.457184,403.269104 407.499115,388.527313 
	C418.600189,378.924561 431.264832,371.385223 443.166534,362.834869 
	C445.676971,361.031311 447.540497,359.026917 448.867798,356.163239 
	C454.051636,344.979218 461.806458,336.086304 472.823334,330.207916 
	C482.523132,325.032379 492.171722,319.760345 501.814087,314.478333 
	C503.667633,313.463013 505.873230,312.846771 506.916443,310.716675 
	C501.752747,304.767975 496.095245,304.142914 490.268829,308.817505 
	C482.160919,315.322571 473.598938,320.999695 463.361053,323.658478 
	C460.097076,324.506104 456.819244,324.800507 453.469086,324.401398 
	C446.313995,323.548920 442.096649,319.044189 441.614960,311.889771 
	C441.416321,308.938965 442.183105,305.920197 441.120178,302.982117 
	C438.594391,302.046783 436.951721,303.898315 435.132172,304.802582 
	C423.617126,310.525055 411.607025,313.255585 398.856567,310.385040 
	C383.058960,306.828430 375.356781,294.709991 378.346313,278.665619 
	C378.618958,277.202393 379.014954,275.737671 378.113281,273.977112 
	C374.211609,273.276093 370.483154,275.035583 366.697754,275.776917 
	C337.647430,281.465912 320.410095,273.587311 306.057037,247.686188 
	C299.610291,236.052582 295.711029,223.560150 294.062653,210.367996 
	C293.985321,209.749039 294.194458,209.094299 294.337006,207.892990 
	C299.739746,209.703934 304.509491,212.412094 309.799896,213.667542 
	C325.859131,217.478500 341.524597,214.740356 357.162231,211.085938 
	C375.908691,206.704987 393.680359,199.692459 411.010315,191.416962 
	C419.729431,187.253372 428.555481,183.236542 438.434204,182.694046 
	C458.462463,181.594177 474.353119,189.826004 486.967743,204.824234 
	C497.586426,217.449448 505.774292,231.925476 516.677368,244.362976 
	C520.689148,248.939301 525.545410,251.706848 531.517151,252.875732 
	C534.602783,253.479691 537.050720,252.845306 539.365173,250.877090 
	C546.358948,244.929581 550.658020,237.408432 552.492737,228.461807 
	C553.099365,225.503693 552.860657,223.165390 548.776672,223.276581 
	C544.751160,223.386185 541.495117,221.224228 538.347534,218.965729 
	C535.505310,216.926361 535.025330,215.075211 538.357361,212.938385 
	C542.442383,210.318665 545.930786,206.945587 549.279175,203.454483 
	C552.413940,200.186142 554.015747,196.385773 553.723633,191.696228 
	C553.543884,188.811386 552.914124,186.502167 550.314758,184.958527 
	C549.467041,184.455078 548.742615,183.726685 548.010376,183.048645 
	C542.255676,177.719833 542.350159,177.295456 548.027588,172.021378 
	C555.716675,164.878510 563.182617,157.518951 570.076111,149.569489 
	C579.291077,138.942886 590.290771,131.790482 605.160645,132.664627 
	C609.882690,132.942200 614.095215,135.067139 618.960510,136.159744 
	C620.927185,129.463058 623.967468,123.733650 630.716553,120.877419 
	C636.854614,118.279739 639.815979,119.718864 638.939941,126.149109 
	C637.672607,135.451599 641.480957,140.986893 648.737000,146.396866 
	C669.274109,161.708939 685.359192,181.757187 703.304016,199.819855 
	C710.464355,207.027206 709.471924,218.409744 702.294128,226.092621 
	C695.269165,233.611938 684.864990,234.721176 676.505493,228.800491 
	C674.882385,227.650879 673.470215,226.191467 671.240540,226.271759 
	C662.157043,226.598923 653.300232,225.775726 645.140930,220.309372 
	C643.274719,225.384933 644.923767,229.693390 645.929321,233.899826 
	C649.775696,249.990219 657.073486,264.549988 666.625183,277.940155 
	C673.738159,287.911560 678.692993,298.595093 679.769775,310.902466 
	C679.842285,311.731415 680.020691,312.554962 680.042480,313.383881 
	C680.241272,320.918091 680.238281,320.941071 687.921021,319.586975 
	C693.980957,318.518799 700.032715,317.403748 706.082092,316.277100 
	C716.604126,314.317535 725.244507,321.115692 725.301331,331.711456 
	C725.409424,351.873413 725.389771,372.036682 725.301453,392.198883 
	C725.267029,400.067383 719.436707,406.550354 712.080322,407.321808 
	C703.646423,408.206329 696.773193,403.583588 694.707214,395.665131 
	C693.898315,392.564606 693.873230,389.410278 693.880127,386.237915 
	C693.905396,374.618805 693.890137,362.999603 693.890137,350.530060 
	C683.708740,352.982635 673.848755,351.749420 666.070496,360.454407 
	C642.520752,386.809906 611.348572,398.489227 577.427246,404.270294 
	C574.313843,404.800903 571.224426,405.481995 568.136841,406.152740 
	C559.480957,408.033020 554.318298,414.175385 554.191467,423.115540 
	C554.044861,433.444824 554.090332,443.777557 554.124756,454.108551 
	C554.152283,462.383026 551.274780,469.270233 545.204651,475.025330 
	C539.043701,480.866516 533.050842,486.907867 527.296814,493.149597 
	C519.583191,501.516998 511.132538,507.247040 499.329224,502.643829 
	C497.635651,505.027466 498.169006,507.255554 498.163422,509.338928 
	C498.114624,527.501770 498.104828,545.664917 498.164856,563.827698 
	C498.179443,568.247131 497.466248,572.434448 495.164124,576.666382 
	C486.645782,577.000000 478.291534,577.000000 469.468658,577.000000 
z"/>
<path fill="#000000" opacity="1.000000" stroke="none" 
	d="
M680.482178,28.621632 
	C684.316895,41.152576 688.039673,53.299553 691.792725,65.545113 
	C686.399414,67.381233 683.228699,66.420403 682.328674,61.161022 
	C681.637207,57.120625 679.230103,55.584656 675.251587,56.130245 
	C674.109436,56.286869 672.904480,56.294468 671.766663,56.119987 
	C666.677307,55.339539 663.527893,57.004814 662.732056,62.483444 
	C662.040161,67.247330 658.703308,66.936089 655.253845,65.984200 
	C654.256409,64.628922 654.819031,63.379902 655.210144,62.112171 
	C659.420471,48.463249 663.650574,34.820282 667.800903,21.153095 
	C668.647522,18.365194 669.741150,16.558617 673.219788,16.592276 
	C676.606018,16.625040 677.375244,18.639793 678.127869,21.107681 
	C678.854614,23.490662 679.621155,25.861494 680.482178,28.621632 
M671.937073,33.304344 
	C670.323730,38.448593 668.067078,43.428192 667.545288,49.105087 
	C671.257080,49.853241 674.565491,50.177917 678.465515,48.744541 
	C676.589294,43.028385 674.794861,37.560055 672.969604,32.102016 
	C672.966309,32.092159 672.482910,32.196045 672.269165,32.323174 
	C672.163086,32.386269 672.160400,32.623203 671.937073,33.304344 
z"/>
<path fill="#000000" opacity="1.000000" stroke="none" 
	d="
M646.146301,67.377121 
	C632.594421,70.053780 622.932983,64.181114 619.692139,51.298721 
	C617.835693,43.919353 617.899963,36.475525 620.559021,29.207153 
	C624.555054,18.283869 634.405701,13.166846 645.697083,15.972143 
	C650.206787,17.092533 651.190002,19.576410 649.462341,23.615688 
	C646.820068,24.085016 644.806091,22.575804 642.603821,22.020462 
	C637.534668,20.742170 633.755798,22.516920 630.866638,26.476681 
	C625.009399,34.504459 624.877502,47.978634 630.437683,56.240646 
	C630.623474,56.516754 630.807190,56.796093 631.015564,57.054844 
	C633.333679,59.933159 636.275024,61.616432 640.034241,61.586166 
	C641.676086,61.572945 642.568481,60.416340 642.446289,58.972660 
	C642.104492,54.935322 644.346985,50.087864 639.524780,47.333328 
	C637.572449,46.218086 637.639221,44.779030 637.850403,43.151520 
	C638.107849,41.167351 639.797180,41.188961 641.285339,41.017727 
	C649.343994,40.090481 650.246338,40.874252 650.262085,48.888092 
	C650.270935,53.383331 650.182007,57.879993 650.270630,62.373383 
	C650.323914,65.072456 649.514038,66.933701 646.146301,67.377121 
z"/>
<path fill="#000000" opacity="1.000000" stroke="none" 
	d="
M765.993225,37.990143 
	C766.030273,43.985687 766.130310,49.485123 765.296143,54.947372 
	C764.088989,62.851959 758.200439,68.030479 750.189575,68.210236 
	C741.334778,68.408913 735.484985,64.163467 734.371643,55.627018 
	C732.817017,43.707272 733.929321,31.670105 733.775940,19.685064 
	C733.739441,16.832987 735.838501,16.762335 737.963379,16.717625 
	C740.640076,16.661303 741.379211,18.138321 741.371216,20.502150 
	C741.342285,29.000801 741.294495,37.500721 741.415588,45.997856 
	C741.460449,49.147968 741.839355,52.307205 742.268799,55.434425 
	C742.803040,59.324493 745.484009,61.229950 749.106506,61.566368 
	C752.973572,61.925507 755.975586,60.204323 757.374634,56.472652 
	C758.368286,53.822163 758.710266,51.014507 758.684692,48.133759 
	C758.604919,39.135746 758.668640,30.136509 758.664062,21.137753 
	C758.662903,18.850685 758.723755,16.823631 761.919067,16.694147 
	C765.149353,16.563248 765.960388,18.288239 765.961792,20.995205 
	C765.964722,26.494286 765.980652,31.993362 765.993225,37.990143 
z"/>
<path fill="#000000" opacity="1.000000" stroke="none" 
	d="
M574.220276,27.125053 
	C575.516418,39.498203 570.195618,46.501629 558.315369,48.542435 
	C551.284973,49.750122 551.290466,49.750118 551.281067,56.743698 
	C551.278381,58.741333 551.188721,60.739586 551.218872,62.736351 
	C551.262451,65.619072 549.658142,66.369095 547.073242,66.371971 
	C544.403809,66.374939 543.631470,65.044044 543.633362,62.645908 
	C543.644165,48.493996 543.620117,34.341991 543.566162,20.190176 
	C543.557922,18.038475 544.126404,16.653805 546.618469,16.709589 
	C551.609192,16.821301 556.628906,16.546284 561.586731,16.989244 
	C567.682983,17.533915 572.260986,20.524658 574.220276,27.125053 
M552.322693,23.792538 
	C550.072571,29.222843 551.709351,34.878723 551.386475,40.420895 
	C551.323608,41.500729 552.028931,42.385349 553.150085,42.491161 
	C557.122253,42.866051 560.765381,42.008812 563.662781,39.095955 
	C566.612122,36.130913 567.550964,32.458092 566.316956,28.544968 
	C565.098572,24.681709 561.737061,23.554657 558.050171,23.346302 
	C556.401855,23.253157 554.739502,23.410633 552.322693,23.792538 
z"/>
<path fill="#000000" opacity="1.000000" stroke="none" 
	d="
M804.125732,55.628368 
	C801.431763,64.515892 796.908447,67.799614 787.483765,68.237343 
	C784.103699,68.394325 780.874573,67.673508 777.636536,66.928383 
	C773.211548,65.910149 772.056091,63.312862 773.932129,59.067780 
	C777.137878,58.603115 779.703491,60.586926 782.589478,61.090508 
	C785.418762,61.584221 788.162109,62.025593 790.933289,61.014469 
	C796.551697,58.964470 797.886719,53.229286 793.478088,49.196583 
	C791.421204,47.315079 788.839417,46.003540 786.479492,44.458271 
	C783.979248,42.821194 781.258606,41.452274 778.991394,39.542343 
	C774.417053,35.688972 772.571289,30.697241 774.248352,24.797409 
	C775.813904,19.289804 780.107300,16.237589 786.528748,15.545583 
	C790.040527,15.167139 793.511719,15.498056 796.960449,15.953561 
	C799.813171,16.330349 801.605774,17.954906 800.836060,21.105883 
	C800.077271,24.212273 797.844238,22.752642 795.990417,22.480413 
	C792.910339,22.028122 789.916321,20.798038 786.687256,22.106934 
	C780.799377,24.493515 779.697693,29.729300 784.694824,33.587254 
	C788.229675,36.316254 792.283875,38.363823 796.040283,40.816658 
	C801.216125,44.196331 804.643555,48.622505 804.125732,55.628368 
z"/>
<path fill="#000000" opacity="1.000000" stroke="none" 
	d="
M698.168701,34.393257 
	C694.937073,23.689831 699.697754,16.567665 710.319946,15.517729 
	C714.002075,15.153764 717.625977,15.444282 721.209717,16.248777 
	C723.901917,16.853144 724.558228,18.840649 724.019165,21.222445 
	C723.388123,24.010330 721.387573,22.872892 719.618530,22.611715 
	C716.694031,22.179968 713.850708,20.825436 710.778564,21.819817 
	C708.113525,22.682381 705.812378,23.959345 705.211914,26.946712 
	C704.622986,29.876993 705.822266,32.230701 708.220032,33.842915 
	C711.811035,36.257473 715.539124,38.467049 719.157715,40.841850 
	C725.756165,45.172329 728.413574,50.545177 727.090088,56.693409 
	C725.775269,62.801353 721.008301,66.711426 713.406250,67.955505 
	C709.377258,68.614861 705.450073,68.017906 701.526611,67.138527 
	C696.954468,66.113754 695.439819,63.580936 697.394531,59.122005 
	C700.420227,58.801270 702.894409,60.519127 705.637329,61.057495 
	C707.956116,61.512627 710.249390,61.937153 712.560425,61.463650 
	C715.864807,60.786617 718.566772,59.085091 719.349060,55.612877 
	C720.059143,52.461285 718.208984,50.117168 715.832764,48.424721 
	C712.991760,46.401188 709.938660,44.670490 706.943054,42.870224 
	C703.476746,40.787148 700.275696,38.445316 698.168701,34.393257 
z"/>
<path fill="#000000" opacity="1.000000" stroke="none" 
	d="
M582.677368,39.000000 
	C582.678711,32.838261 582.841492,27.170296 582.624512,21.516905 
	C582.480835,17.770893 583.991760,16.521376 587.604126,16.639675 
	C593.426147,16.830345 599.259033,16.676575 605.087280,16.697502 
	C607.265747,16.705326 609.682983,16.490286 609.720032,19.733549 
	C609.759338,23.169441 607.283875,23.154856 604.857910,23.169867 
	C601.194824,23.192533 597.531677,23.257444 593.868774,23.240826 
	C591.354492,23.229418 590.303589,24.396975 590.319336,26.910463 
	C590.400513,39.878658 589.172363,37.659077 600.098145,37.829075 
	C601.596069,37.852383 603.094727,37.865208 604.591553,37.921638 
	C606.873718,38.007679 607.875671,39.331596 607.809326,41.494835 
	C607.744080,43.622406 606.374207,44.289925 604.454712,44.288631 
	C600.957947,44.286278 597.460876,44.355946 593.964600,44.323574 
	C591.516663,44.300911 590.491821,45.308487 590.282227,47.871635 
	C589.313538,59.717354 589.243103,59.704891 601.123657,59.729305 
	C603.286438,59.733746 605.454407,59.740513 607.610413,59.887257 
	C609.763794,60.033825 610.252563,61.547913 610.210510,63.414204 
	C610.170227,65.204155 609.333191,66.291283 607.510803,66.301361 
	C600.186157,66.341888 592.860718,66.376900 585.536621,66.304123 
	C582.654541,66.275482 582.706177,64.006989 582.698792,61.980457 
	C582.671631,54.487034 582.681519,46.993481 582.677368,39.000000 
z"/>
<path fill="#000000" opacity="1.000000" stroke="none" 
	d="
M370.658722,15.456097 
	C372.908142,14.585321 374.564606,15.101414 376.442291,16.600538 
	C373.581940,19.463045 375.161804,21.672962 377.640594,23.722589 
	C379.242249,25.046936 380.369598,27.031849 383.157410,25.802929 
	C385.853363,24.614492 386.935883,22.974146 385.683258,19.765032 
	C388.054321,19.765032 389.869629,19.766611 391.684937,19.764542 
	C393.193207,19.762823 394.843872,19.607916 395.371460,21.503395 
	C395.855164,23.241385 394.696472,24.407663 393.461273,25.251902 
	C391.010986,26.926666 388.438782,28.423048 385.644348,30.162884 
	C388.217194,34.570343 392.421326,37.486794 395.270874,41.504318 
	C396.421478,43.126549 397.675903,44.695915 398.637146,46.425983 
	C399.649414,48.247925 398.954498,50.072651 397.760742,51.536118 
	C396.423096,53.175983 394.745514,52.441544 393.209930,51.701992 
	C387.858673,49.124706 382.269531,47.645092 376.295410,48.286922 
	C374.334869,48.497559 372.349060,48.940128 370.501923,49.621304 
	C368.215912,50.464321 366.511749,52.053284 366.230743,54.689510 
	C365.926270,57.545635 367.425568,59.533501 369.670685,60.878922 
	C373.669312,63.275154 378.173248,63.486008 382.688385,63.408203 
	C385.599731,63.358036 389.905090,62.460468 389.700928,66.475075 
	C389.522552,69.983208 385.237762,68.775642 382.559143,68.650909 
	C378.228149,68.449211 373.910309,67.944023 369.861023,66.261688 
	C365.139038,64.299889 362.348297,61.092651 362.593658,55.555294 
	C362.829315,50.237274 365.768127,47.428310 370.391785,45.762039 
	C376.245697,43.652405 382.207916,44.366188 388.175323,44.994019 
	C389.130096,45.094471 390.115906,45.601780 391.407471,44.641003 
	C389.077545,40.056328 385.668121,36.315868 381.786621,32.973774 
	C380.351593,31.738161 378.648590,32.259663 377.018158,32.711731 
	C373.157623,33.782124 369.274078,34.713512 365.213837,34.377258 
	C362.083038,34.117981 359.490265,33.108639 358.014709,28.851822 
	C364.177338,30.648420 369.642426,30.990412 374.853943,28.339443 
	C373.885223,23.758215 363.824280,22.658688 370.658722,15.456097 
z"/>
<path fill="#000000" opacity="1.000000" stroke="none" 
	d="
M443.537415,32.375057 
	C442.788544,30.065672 441.269623,30.418022 439.756317,30.674179 
	C434.182098,31.617737 428.645020,32.643703 423.314819,34.663685 
	C418.085999,36.645245 414.923462,34.043583 415.232269,28.216124 
	C424.185638,31.499601 432.719055,27.481930 441.413513,26.574648 
	C443.946747,26.310297 444.308746,21.386995 442.161163,17.954332 
	C441.394104,16.728260 440.241699,15.743289 439.143311,14.511661 
	C441.098297,11.920493 443.294800,12.714304 445.384766,13.761851 
	C451.016113,16.584410 446.714233,21.559591 447.924316,25.741289 
	C452.195312,25.741289 456.592743,25.737400 460.990143,25.743279 
	C462.653625,25.745502 464.340607,25.601749 465.974335,25.829613 
	C467.802643,26.084625 470.058960,26.742863 469.784058,28.945381 
	C469.463409,31.514803 467.132385,30.593857 465.351013,30.511856 
	C460.701263,30.297817 456.044312,30.246471 451.391846,30.083588 
	C448.457672,29.980858 447.205841,31.242903 447.272583,34.261665 
	C447.335724,37.119373 447.739288,39.839207 448.534210,42.589272 
	C451.818909,53.953289 444.717163,67.439560 433.524567,71.269783 
	C432.944977,71.468117 432.271210,71.391121 431.179962,71.001007 
	C435.661377,66.338211 441.292786,62.565228 442.632141,55.720394 
	C436.131714,54.061611 432.627411,50.547443 432.106659,45.315418 
	C431.639801,40.625458 434.845062,36.420616 439.597137,35.751373 
	C441.595215,35.469978 443.828705,35.839203 443.537415,32.375057 
M435.760132,44.461109 
	C435.998901,46.346127 436.816010,47.948826 438.238495,49.193001 
	C439.485962,50.284077 440.970032,50.762009 442.184387,49.329540 
	C443.827484,47.391380 443.840027,45.134617 442.978943,42.773045 
	C442.352875,41.056053 441.299133,39.666248 439.500214,39.702129 
	C437.083405,39.750343 436.390747,41.821987 435.760132,44.461109 
z"/>
<path fill="#000000" opacity="1.000000" stroke="none" 
	d="
M287.207001,35.630966 
	C286.795105,34.156208 286.448242,33.010895 287.461609,32.035995 
	C293.037201,34.367741 302.950836,32.877556 305.310211,29.360895 
	C308.511108,24.589939 308.092163,20.841291 303.903259,16.772104 
	C306.355042,14.661698 308.567657,14.516733 311.547455,16.553677 
	C317.828583,20.847406 310.159912,24.717974 311.109253,28.869335 
	C321.306671,31.455973 321.477875,31.743830 321.359772,42.651810 
	C321.286346,49.432587 319.770203,55.844284 316.737518,61.885239 
	C315.524597,64.301239 313.849701,66.352844 311.285736,67.524246 
	C309.757812,68.222298 308.362549,68.374329 307.393066,66.712646 
	C305.575531,63.597260 303.810760,60.451092 302.038727,57.343529 
	C303.229034,56.273003 304.007904,57.180706 304.825348,57.632706 
	C311.412231,61.274796 311.909027,61.091484 314.441437,53.793194 
	C316.206085,48.707489 317.010834,43.476471 316.726898,38.084038 
	C316.603760,35.745686 316.062561,33.699387 313.321960,33.337608 
	C310.651825,32.985138 308.458893,33.503574 307.260803,36.421265 
	C303.846802,44.735451 300.644012,53.150150 296.295593,61.048836 
	C295.574615,62.358479 294.804260,63.648926 293.952087,64.875565 
	C293.361298,65.725960 292.467804,66.324165 291.380981,65.978302 
	C290.071655,65.561623 289.820679,64.417252 289.736603,63.181374 
	C289.600098,61.174843 290.792694,59.738186 291.751160,58.190205 
	C295.870422,51.537525 299.413940,44.608707 302.313293,36.808128 
	C297.043671,36.273762 291.534149,44.358490 287.207001,35.630966 
z"/>
<path fill="#000000" opacity="1.000000" stroke="none" 
	d="
M221.294556,43.462490 
	C220.989014,42.204159 221.149033,41.077122 222.075180,41.132328 
	C227.888412,41.478825 230.993942,37.214870 234.633026,33.917568 
	C241.909515,27.324514 243.870056,27.315054 251.531067,33.814590 
	C259.278076,40.387074 266.875092,47.181908 276.315094,51.386730 
	C277.356445,51.850571 278.344696,52.584385 279.146027,53.400677 
	C280.325012,54.601654 281.471893,56.081902 280.398193,57.822384 
	C279.197693,59.768463 277.417633,58.874931 275.965729,58.126690 
	C270.610748,55.367016 265.736176,51.863888 261.135010,48.002602 
	C256.540649,44.147007 251.893936,40.326550 247.591873,36.158619 
	C244.312805,32.981804 241.568298,33.324261 238.620575,36.287342 
	C236.035538,38.885845 233.387039,41.424999 230.882782,44.099201 
	C226.854050,48.401314 225.273895,48.395462 221.294556,43.462490 
z"/>
<path fill="#000000" opacity="1.000000" stroke="none" 
	d="
M336.602234,33.367386 
	C339.957703,36.545242 342.384705,39.906994 342.752197,44.274300 
	C342.994263,47.150723 341.850037,49.004566 338.610352,47.528580 
	C335.530212,46.125282 331.838135,46.577629 328.824799,44.602448 
	C329.259918,44.008831 329.396149,43.603825 329.644440,43.516136 
	C336.848450,40.971699 337.014008,39.750404 331.197510,34.324467 
	C329.209381,32.469860 326.353973,31.422802 325.099823,28.158424 
	C330.045197,27.799438 332.991150,30.921890 336.602234,33.367386 
z"/>
<path fill="#000000" opacity="1.000000" stroke="none" 
	d="
M273.827820,26.618210 
	C270.660431,32.791477 264.998352,34.036457 261.524597,29.622303 
	C259.614471,27.195129 259.154419,24.450209 260.827332,21.728178 
	C262.557587,18.912874 265.167389,17.600212 268.467743,18.452761 
	C272.418121,19.473215 274.142944,22.213488 273.827820,26.618210 
M269.172821,23.362213 
	C266.978455,21.516554 265.128418,21.972458 264.051666,24.483631 
	C263.228363,26.403708 264.402954,27.944483 266.252472,28.093801 
	C268.997528,28.315418 270.109680,26.664709 269.172821,23.362213 
z"/>
<path fill="#000000" opacity="1.000000" stroke="none" 
	d="
M342.168610,17.508854 
	C344.044922,18.486328 345.349121,19.545780 345.633820,21.330099 
	C345.984406,23.527523 344.975708,24.799673 342.844147,23.677820 
	C339.259613,21.791254 335.873657,19.527399 332.101593,17.238684 
	C335.668396,14.715405 338.734436,16.721821 342.168610,17.508854 
z"/>
<path fill="#000000" opacity="1.000000" stroke="none" 
	d="
M328.624329,20.977776 
	C332.444061,21.371010 335.826599,22.042990 338.397156,24.674086 
	C339.487305,25.789917 340.266571,27.202593 339.034790,28.597954 
	C337.912628,29.869101 336.670563,29.029520 335.522369,28.307339 
	C333.164001,26.823914 330.770844,25.395901 328.406586,23.921638 
	C326.983826,23.034466 325.624512,22.101479 328.624329,20.977776 
z"/>
</svg>