<svg version="1.1" id="Layer_1" xmlns="http://www.w3.org/2000/svg" xmlns:xlink="http://www.w3.org/1999/xlink" x="0px" y="0px"
	 width="100%" viewBox="0 0 1920 1080" enable-background="new 0 0 1920 1080" xml:space="preserve">
<path fill="#FFFFFF" opacity="1.000000" stroke="none" 
	d="
M819.000000,1081.000000 
	C546.352478,1081.000000 273.704956,1081.000000 1.028718,1081.000000 
	C1.028718,721.044434 1.028718,361.088837 1.028718,1.066633 
	C640.910645,1.066633 1280.821289,1.066633 1920.865967,1.066633 
	C1920.865967,360.885345 1920.865967,720.770752 1920.865967,1081.000000 
	C1648.634033,1081.000000 1376.267944,1081.000000 1103.419678,1080.532227 
	C1102.935913,1067.066040 1103.052368,1054.065552 1102.813599,1041.071533 
	C1102.774780,1038.965820 1101.702637,1036.301514 1100.182129,1034.899292 
	C1093.000977,1028.276489 1085.484619,1022.017883 1078.112183,1015.601379 
	C1057.355591,997.535889 1036.798828,979.232971 1015.741333,961.525574 
	C1009.797180,956.527100 1007.996887,951.308105 1008.033264,943.748901 
	C1008.337524,880.587952 1008.206177,817.424927 1008.206177,754.262512 
	C1008.206177,752.566101 1008.206116,750.869629 1008.206116,749.040527 
	C1099.858887,794.806519 1190.815674,840.224976 1282.646851,886.080078 
	C1282.646851,857.375000 1282.704346,830.388733 1282.510132,803.404297 
	C1282.497925,801.707153 1280.902954,799.485107 1279.398438,798.416687 
	C1261.013062,785.359985 1242.465576,772.531921 1224.039917,759.531555 
	C1177.521973,726.710266 1131.035034,693.844604 1084.554565,660.970093 
	C1060.207397,643.750000 1035.951294,626.400391 1011.504150,609.323608 
	C1008.703613,607.367371 1008.159973,605.357544 1008.163147,602.351135 
	C1008.221741,546.188293 1008.401733,490.024231 1008.059998,433.863434 
	C1007.980835,420.855103 1007.134705,407.657654 1004.742493,394.903381 
	C1001.320068,376.656311 994.567139,359.529877 980.676697,346.200958 
	C968.033386,334.068665 950.904846,335.136505 938.892273,347.955566 
	C928.301147,359.257751 922.541504,373.394440 918.261841,387.964905 
	C914.244568,401.641754 913.677368,415.833771 913.721130,430.094452 
	C913.896973,487.423401 913.806885,544.753174 913.730835,602.082581 
	C913.728516,603.807617 913.353516,606.268372 912.205872,607.139465 
	C902.862732,614.231567 893.383789,621.154480 883.774963,627.884521 
	C864.066040,641.688782 844.153503,655.203430 824.501526,669.087524 
	C793.075623,691.290039 761.860901,713.791565 730.430359,735.987488 
	C702.985474,755.368835 675.320618,774.438721 647.870178,793.812378 
	C643.483459,796.908386 638.813171,799.321960 639.082520,806.843201 
	C639.851379,828.314148 639.352844,849.830627 639.352844,871.329163 
	C639.352844,875.879272 639.352844,880.429321 639.352844,885.563904 
	C731.094910,839.742859 822.199219,794.240356 913.793701,748.493042 
	C913.793701,816.799133 913.804260,884.121826 913.719360,951.444519 
	C913.717590,952.827393 912.959534,954.589417 911.951904,955.527466 
	C906.586487,960.522217 901.083374,965.373779 895.525574,970.156128 
	C886.157776,978.216675 876.657837,986.124207 867.320862,994.219910 
	C861.416077,999.339600 855.800659,1004.793396 849.887085,1009.902466 
	C840.661194,1017.873413 831.177551,1025.550537 822.086853,1033.669800 
	C820.395142,1035.180908 819.248535,1038.171143 819.198242,1040.507568 
	C818.908081,1054.000244 819.022522,1067.501587 819.000000,1081.000000 
M1394.933105,81.127594 
	C1405.167847,81.127594 1415.402466,81.127594 1425.562378,81.127594 
	C1426.190063,71.439964 1426.190063,71.439957 1417.335693,71.439949 
	C1409.378174,71.439941 1401.420776,71.439949 1393.320068,71.439949 
	C1393.320068,61.221844 1393.320068,51.335968 1393.320068,41.006477 
	C1405.333374,41.006477 1417.060059,41.006477 1428.768066,41.006477 
	C1428.768066,37.634628 1428.768066,34.716408 1428.768066,31.789883 
	C1412.664551,31.789883 1396.807739,31.789883 1380.980225,31.789883 
	C1380.980225,62.364063 1380.980225,92.553246 1380.980225,122.666176 
	C1397.529297,122.666176 1413.737183,122.666176 1429.683838,122.666176 
	C1429.683838,119.062286 1429.683838,115.807121 1429.683838,112.064507 
	C1417.569824,112.064507 1405.781494,112.064507 1393.839478,111.622757 
	C1393.665771,111.355354 1393.439209,111.144821 1393.035889,110.062256 
	C1393.097046,100.711723 1393.158203,91.361198 1393.589111,81.900063 
	C1393.834839,81.765739 1393.974487,81.559517 1394.933105,81.127594 
M1275.235229,103.546074 
	C1275.430298,103.772179 1275.672241,103.922974 1276.099121,104.782524 
	C1277.774902,109.876808 1279.337524,115.013351 1281.209717,120.034363 
	C1281.653687,121.224892 1283.062134,122.762680 1284.155884,122.874054 
	C1287.706177,123.235558 1291.316406,123.009216 1295.084839,123.009216 
	C1294.927490,121.604309 1294.964844,120.748413 1294.726196,119.978058 
	C1286.415771,93.162231 1278.105957,66.346138 1269.731812,39.550186 
	C1266.942627,30.625187 1266.430420,30.375198 1256.963135,31.405405 
	C1256.633301,31.441299 1256.166992,31.304205 1255.989502,31.477894 
	C1255.031128,32.415901 1253.663940,33.277676 1253.305054,34.434784 
	C1248.926025,48.552372 1244.763184,62.736851 1240.414429,76.864067 
	C1235.708374,92.152428 1230.865845,107.398773 1226.034790,122.817001 
	C1230.353394,122.817001 1234.474976,122.817001 1238.512817,122.817001 
	C1240.350708,117.022758 1241.979126,111.376389 1244.010986,105.879135 
	C1244.462769,104.656631 1246.320801,103.170807 1247.557617,103.146461 
	C1256.703613,102.966446 1265.856201,103.125679 1275.235229,103.546074 
M1342.658081,108.919373 
	C1344.282837,112.269775 1345.700928,115.744995 1347.617920,118.918907 
	C1348.608276,120.558601 1350.318726,122.496185 1351.996216,122.829948 
	C1355.135742,123.454689 1358.488037,123.009651 1361.662842,123.009651 
	C1361.662842,92.157532 1361.662842,61.945858 1361.662842,31.768402 
	C1357.773315,31.768402 1354.212036,31.768402 1350.347778,31.768402 
	C1350.347778,33.783871 1350.347900,35.429203 1350.347900,37.074532 
	C1350.347900,54.062782 1350.373657,71.051132 1350.306641,88.039108 
	C1350.300171,89.693481 1349.720947,91.345604 1349.407593,92.998772 
	C1348.888916,92.996231 1348.370239,92.993690 1347.851562,92.991142 
	C1337.557373,73.271584 1327.278320,53.544044 1316.922729,33.856762 
	C1316.423462,32.907631 1315.295776,31.728481 1314.382935,31.657625 
	C1311.003662,31.395330 1307.592041,31.553225 1304.386597,31.553225 
	C1304.386597,62.416412 1304.386597,92.641014 1304.386597,122.834908 
	C1308.210938,122.834908 1311.672852,122.834908 1315.609131,122.834908 
	C1315.609131,101.415451 1315.609131,80.171494 1315.609131,58.927540 
	C1315.864502,58.878334 1316.119751,58.829128 1316.375122,58.779922 
	C1324.987915,75.283829 1333.600708,91.787743 1342.658081,108.919373 
M1126.480103,87.044762 
	C1140.421021,82.923683 1147.760742,69.990868 1147.724121,56.969501 
	C1147.690674,45.116894 1140.174072,34.542698 1129.932495,33.248405 
	C1117.194092,31.638586 1104.264771,31.539841 1091.363770,30.785358 
	C1091.363770,62.230007 1091.363770,92.558022 1091.363770,122.752945 
	C1095.511353,122.752945 1099.286743,122.752945 1103.491699,122.752945 
	C1103.491699,111.759155 1103.491699,101.011703 1103.491699,90.825371 
	C1111.266724,89.649796 1118.524170,88.552490 1126.480103,87.044762 
M899.045288,38.164032 
	C898.687866,35.215511 898.623230,32.188862 897.864929,29.347338 
	C897.398682,27.600075 896.229797,25.554327 894.757507,24.648354 
	C889.333923,21.310959 882.736511,22.775846 878.756714,27.374491 
	C882.369995,29.005640 887.075989,29.835968 889.631470,32.631866 
	C892.429321,35.692989 893.240906,40.569561 895.479004,46.020966 
	C886.102234,46.816517 877.287170,47.564407 868.765015,48.287449 
	C871.404236,51.137146 875.170471,53.896564 880.088867,53.608261 
	C884.394897,53.355854 888.712341,52.415657 892.898682,51.304382 
	C895.855774,50.519432 897.871765,50.844627 899.233398,53.714577 
	C901.239380,57.942364 903.297913,62.145218 905.425781,66.548653 
	C892.245911,70.208481 879.742859,75.244736 866.350037,68.886635 
	C870.181396,75.166740 875.344055,78.803497 882.262390,77.733109 
	C890.430176,76.469398 898.443604,74.225990 906.555359,72.560394 
	C907.604065,72.345062 909.406555,72.657112 909.901855,73.380623 
	C914.428284,79.993340 918.742554,86.751221 923.447998,93.972046 
	C921.610901,93.888138 920.344727,93.878609 919.087830,93.765266 
	C908.904297,92.846947 898.738037,91.551712 888.534485,91.109398 
	C882.264954,90.837608 875.335754,92.055862 871.641296,97.370705 
	C865.155212,106.701584 866.424683,119.630486 879.996582,124.695290 
	C891.322998,128.922104 902.924683,129.537430 914.702576,128.669571 
	C916.552734,128.533264 918.248779,126.307022 920.016113,125.047112 
	C918.231323,123.701912 916.570374,121.471184 914.635315,121.200523 
	C910.898926,120.677917 906.998840,121.137466 903.182617,121.412193 
	C895.013000,122.000336 887.118286,121.076431 879.714111,117.391312 
	C875.186584,115.137871 872.606018,111.503540 873.068176,106.302383 
	C873.503235,101.406822 877.727783,96.644661 882.863770,96.077553 
	C887.775391,95.535217 892.799194,95.941605 897.771790,96.031937 
	C908.174194,96.220909 917.803528,98.914070 926.574768,104.689316 
	C930.469238,107.253510 932.879517,106.010162 933.898376,101.444824 
	C935.086426,96.121407 932.449097,92.371910 929.160339,88.588303 
	C924.014648,82.668404 919.234192,76.431099 914.215759,70.225418 
	C920.727417,65.784439 928.642761,65.585953 933.650085,59.226028 
	C923.975708,52.840870 918.357117,62.269756 910.537415,63.850372 
	C908.002808,58.938705 905.397949,53.890755 902.808960,48.873596 
	C907.973022,46.496010 912.910217,44.390305 917.654541,41.915020 
	C918.771851,41.332047 919.239258,39.503151 920.005676,38.247433 
	C918.747192,37.490692 917.441040,36.042473 916.240479,36.125320 
	C913.945496,36.283680 911.636902,37.134254 909.468750,38.025391 
	C906.494934,39.247665 903.646484,40.775024 900.614014,42.234352 
	C900.141296,41.023712 899.738098,39.990932 899.045288,38.164032 
M563.058411,94.614967 
	C563.874817,84.285744 564.834229,73.964798 565.432922,63.622963 
	C565.652832,59.824650 565.019531,55.976948 564.775452,52.151779 
	C566.535278,53.668831 567.309875,55.394619 568.229370,57.039463 
	C572.996277,65.566566 577.529663,74.333755 586.248413,79.641975 
	C587.654297,80.497902 589.792603,80.150764 591.592346,80.359726 
	C591.752502,78.388542 592.770874,75.832741 591.904419,74.560913 
	C589.715027,71.347084 586.997681,68.294113 583.915039,65.928284 
	C577.153931,60.739372 572.373169,54.157719 569.195312,46.427937 
	C567.394043,42.046814 566.659180,37.216389 564.743591,32.899094 
	C564.075256,31.392765 561.306946,30.818199 559.497681,29.818119 
	C558.843018,31.439259 557.848755,33.017895 557.638916,34.694702 
	C557.464661,36.087322 558.253906,37.587360 558.547119,39.053646 
	C562.023132,56.435505 562.812927,73.786865 556.947815,90.826942 
	C553.531677,100.751816 548.613281,109.791489 538.380859,114.417000 
	C525.473145,120.251900 512.979126,114.337837 510.907379,100.411301 
	C509.838135,93.223747 510.428589,85.319138 512.278015,78.265236 
	C516.155884,63.475037 522.345459,49.680672 536.348999,41.238136 
	C539.481384,39.349613 538.973633,37.103027 536.431885,35.414799 
	C532.951782,33.103302 529.524170,33.766487 525.654175,35.529526 
	C517.064148,39.442860 508.374329,46.052006 498.765442,36.840809 
	C498.475342,38.346600 497.989258,39.346699 498.161682,40.216194 
	C499.514221,47.036274 505.619263,50.249329 512.179504,47.712265 
	C515.001648,46.620880 517.839966,45.571529 520.670959,44.503078 
	C517.012024,53.420025 512.866028,61.070587 508.912567,68.819412 
	C503.510834,79.406914 500.194641,90.992981 503.466797,102.355667 
	C508.954712,121.412598 525.276855,125.920967 542.608704,119.859985 
	C553.808411,115.943459 560.056458,106.798050 563.058411,94.614967 
M1166.869995,31.480122 
	C1166.429810,33.107964 1165.610840,34.734707 1165.606079,36.363808 
	C1165.526978,63.690975 1165.546021,91.018433 1165.559326,118.345833 
	C1165.560059,119.786118 1165.704346,121.226334 1165.784668,122.720123 
	C1182.353638,122.720123 1198.583008,122.720123 1214.740845,122.720123 
	C1214.740845,119.172104 1214.740845,115.917282 1214.740845,112.218140 
	C1202.420898,112.218140 1190.359375,112.218140 1177.783203,112.218140 
	C1177.783203,85.057327 1177.783203,58.350296 1177.783203,31.423216 
	C1174.111694,31.423216 1170.961426,31.423216 1166.869995,31.480122 
M775.049316,129.728638 
	C773.686218,130.992294 772.323059,132.255936 770.959900,133.519592 
	C771.541809,134.185440 772.123718,134.851288 772.705566,135.517136 
	C779.121155,130.266327 786.081970,125.548172 791.839172,119.654312 
	C803.992004,107.213058 807.898499,91.689232 805.950867,74.717392 
	C804.563843,62.630676 797.181335,55.416367 784.871704,55.985424 
	C775.965515,56.397144 768.705505,60.969376 761.348572,65.204521 
	C756.482544,68.005745 751.877808,71.184891 746.614624,66.084557 
	C746.401978,65.878479 745.733704,66.142517 744.381653,66.275948 
	C746.220886,70.654427 747.267334,74.999374 751.905701,76.946159 
	C756.244324,78.767174 760.028625,78.087463 763.728638,74.766403 
	C769.093811,69.950668 774.519287,64.979187 780.659668,61.315681 
	C786.265503,57.971123 794.049744,61.652954 795.972778,67.927513 
	C798.907288,77.502403 799.187195,87.277763 796.481140,97.021805 
	C792.891968,109.945793 784.820496,119.967415 775.049316,129.728638 
M643.744507,115.756355 
	C645.470581,116.140396 647.194824,116.846931 648.922974,116.856384 
	C660.565247,116.920021 672.211914,116.987869 683.849243,116.715912 
	C687.848633,116.622452 691.933960,115.921982 695.761841,114.772293 
	C697.408630,114.277695 698.500183,111.934395 699.843994,110.431000 
	C698.396973,109.267265 697.112122,107.631691 695.460266,107.063629 
	C693.553528,106.407913 691.158081,106.118523 689.259766,106.663208 
	C676.351990,110.366974 663.215637,110.994705 649.948547,109.965584 
	C640.638794,109.243431 632.198853,106.215302 628.595825,96.860573 
	C626.782349,92.152069 627.216064,86.578056 626.624878,81.318031 
	C622.092773,85.924805 622.985291,91.984978 623.207703,97.880981 
	C623.442627,104.111000 626.593811,108.586426 631.948364,111.374153 
	C635.433777,113.188728 639.226196,114.413506 643.744507,115.756355 
M654.705444,39.994526 
	C647.631897,37.739559 640.558350,35.484592 633.662598,33.286297 
	C633.311768,37.110649 635.970276,40.918182 642.022583,42.872089 
	C648.797302,45.059204 655.755676,46.677288 663.031555,48.650780 
	C657.739014,52.236889 652.760620,55.610126 647.782166,58.983360 
	C647.978821,59.376118 648.175415,59.768871 648.372009,60.161625 
	C649.717285,59.807709 651.141602,59.630943 652.395447,59.071880 
	C662.574219,54.533073 672.701782,49.930523 684.319580,50.845798 
	C685.483215,50.937469 687.786194,49.639992 687.775269,49.018532 
	C687.747009,47.409134 687.159302,44.989323 686.008118,44.380161 
	C683.054138,42.817177 679.737000,41.455116 676.449585,41.108593 
	C669.536255,40.379879 662.548889,40.353485 654.705444,39.994526 
M777.358215,37.749622 
	C775.338928,40.039104 773.319580,42.328587 771.987305,43.839142 
	C779.243530,42.591759 787.022644,41.254501 794.888733,39.902279 
	C794.963257,35.491230 792.522034,32.302929 786.085815,30.270014 
	C777.650696,27.605724 768.927185,25.748821 761.741272,20.108810 
	C761.464233,19.891359 760.824463,20.136032 760.227722,20.173229 
	C762.655945,26.964977 768.112793,30.523344 773.736511,33.959900 
	C775.175842,34.839432 776.412720,36.050179 777.358215,37.749622 
z"/>
<path fill="#010101" opacity="1.000000" stroke="none" 
	d="
M819.468628,1081.000000 
	C819.022522,1067.501587 818.908081,1054.000244 819.198242,1040.507568 
	C819.248535,1038.171143 820.395142,1035.180908 822.086853,1033.669800 
	C831.177551,1025.550537 840.661194,1017.873413 849.887085,1009.902466 
	C855.800659,1004.793396 861.416077,999.339600 867.320862,994.219910 
	C876.657837,986.124207 886.157776,978.216675 895.525574,970.156128 
	C901.083374,965.373779 906.586487,960.522217 911.951904,955.527466 
	C912.959534,954.589417 913.717590,952.827393 913.719360,951.444519 
	C913.804260,884.121826 913.793701,816.799133 913.793701,748.493042 
	C822.199219,794.240356 731.094910,839.742859 639.352844,885.563904 
	C639.352844,880.429321 639.352844,875.879272 639.352844,871.329163 
	C639.352844,849.830627 639.851379,828.314148 639.082520,806.843201 
	C638.813171,799.321960 643.483459,796.908386 647.870178,793.812378 
	C675.320618,774.438721 702.985474,755.368835 730.430359,735.987488 
	C761.860901,713.791565 793.075623,691.290039 824.501526,669.087524 
	C844.153503,655.203430 864.066040,641.688782 883.774963,627.884521 
	C893.383789,621.154480 902.862732,614.231567 912.205872,607.139465 
	C913.353516,606.268372 913.728516,603.807617 913.730835,602.082581 
	C913.806885,544.753174 913.896973,487.423401 913.721130,430.094452 
	C913.677368,415.833771 914.244568,401.641754 918.261841,387.964905 
	C922.541504,373.394440 928.301147,359.257751 938.892273,347.955566 
	C950.904846,335.136505 968.033386,334.068665 980.676697,346.200958 
	C994.567139,359.529877 1001.320068,376.656311 1004.742493,394.903381 
	C1007.134705,407.657654 1007.980835,420.855103 1008.059998,433.863434 
	C1008.401733,490.024231 1008.221741,546.188293 1008.163147,602.351135 
	C1008.159973,605.357544 1008.703613,607.367371 1011.504150,609.323608 
	C1035.951294,626.400391 1060.207397,643.750000 1084.554565,660.970093 
	C1131.035034,693.844604 1177.521973,726.710266 1224.039917,759.531555 
	C1242.465576,772.531921 1261.013062,785.359985 1279.398438,798.416687 
	C1280.902954,799.485107 1282.497925,801.707153 1282.510132,803.404297 
	C1282.704346,830.388733 1282.646851,857.375000 1282.646851,886.080078 
	C1190.815674,840.224976 1099.858887,794.806519 1008.206116,749.040527 
	C1008.206116,750.869629 1008.206177,752.566101 1008.206177,754.262512 
	C1008.206177,817.424927 1008.337524,880.587952 1008.033264,943.748901 
	C1007.996887,951.308105 1009.797180,956.527100 1015.741333,961.525574 
	C1036.798828,979.232971 1057.355591,997.535889 1078.112183,1015.601379 
	C1085.484619,1022.017883 1093.000977,1028.276489 1100.182129,1034.899292 
	C1101.702637,1036.301514 1102.774780,1038.965820 1102.813599,1041.071533 
	C1103.052368,1054.065552 1102.935913,1067.066040 1102.968750,1080.532227 
	C1092.645752,1081.000000 1082.291504,1081.000000 1071.217407,1080.749023 
	C1035.376099,1066.445190 1000.278137,1052.332764 965.082397,1038.468628 
	C962.655640,1037.512573 959.205322,1037.631592 956.731262,1038.569702 
	C941.840881,1044.217041 927.080261,1050.208862 912.307556,1056.163330 
	C891.857178,1064.406128 871.434509,1072.717773 851.000000,1081.000000 
	C840.645752,1081.000000 830.291565,1081.000000 819.468628,1081.000000 
z"/>
<path fill="#FEFEFE" opacity="1.000000" stroke="none" 
	d="
M851.468628,1081.000000 
	C871.434509,1072.717773 891.857178,1064.406128 912.307556,1056.163330 
	C927.080261,1050.208862 941.840881,1044.217041 956.731262,1038.569702 
	C959.205322,1037.631592 962.655640,1037.512573 965.082397,1038.468628 
	C1000.278137,1052.332764 1035.376099,1066.445190 1070.748779,1080.749023 
	C997.979126,1081.000000 924.958191,1081.000000 851.468628,1081.000000 
z"/>
<path fill="#090909" opacity="1.000000" stroke="none" 
	d="
M1342.435791,108.605515 
	C1333.600708,91.787743 1324.987915,75.283829 1316.375122,58.779922 
	C1316.119751,58.829128 1315.864502,58.878334 1315.609131,58.927540 
	C1315.609131,80.171494 1315.609131,101.415451 1315.609131,122.834908 
	C1311.672852,122.834908 1308.210938,122.834908 1304.386597,122.834908 
	C1304.386597,92.641014 1304.386597,62.416412 1304.386597,31.553225 
	C1307.592041,31.553225 1311.003662,31.395330 1314.382935,31.657625 
	C1315.295776,31.728481 1316.423462,32.907631 1316.922729,33.856762 
	C1327.278320,53.544044 1337.557373,73.271584 1347.851562,92.991142 
	C1348.370239,92.993690 1348.888916,92.996231 1349.407593,92.998772 
	C1349.720947,91.345604 1350.300171,89.693481 1350.306641,88.039108 
	C1350.373657,71.051132 1350.347900,54.062782 1350.347900,37.074532 
	C1350.347900,35.429203 1350.347778,33.783871 1350.347778,31.768402 
	C1354.212036,31.768402 1357.773315,31.768402 1361.662842,31.768402 
	C1361.662842,61.945858 1361.662842,92.157532 1361.662842,123.009651 
	C1358.488037,123.009651 1355.135742,123.454689 1351.996216,122.829948 
	C1350.318726,122.496185 1348.608276,120.558601 1347.617920,118.918907 
	C1345.700928,115.744995 1344.282837,112.269775 1342.435791,108.605515 
z"/>
<path fill="#070707" opacity="1.000000" stroke="none" 
	d="
M1275.006714,103.178238 
	C1265.856201,103.125679 1256.703613,102.966446 1247.557617,103.146461 
	C1246.320801,103.170807 1244.462769,104.656631 1244.010986,105.879135 
	C1241.979126,111.376389 1240.350708,117.022758 1238.512817,122.817001 
	C1234.474976,122.817001 1230.353394,122.817001 1226.034790,122.817001 
	C1230.865845,107.398773 1235.708374,92.152428 1240.414429,76.864067 
	C1244.763184,62.736851 1248.926025,48.552372 1253.305054,34.434784 
	C1253.663940,33.277676 1255.031128,32.415901 1255.989502,31.477894 
	C1256.166992,31.304205 1256.633301,31.441299 1256.963135,31.405405 
	C1266.430420,30.375198 1266.942627,30.625187 1269.731812,39.550186 
	C1278.105957,66.346138 1286.415771,93.162231 1294.726196,119.978058 
	C1294.964844,120.748413 1294.927490,121.604309 1295.084839,123.009216 
	C1291.316406,123.009216 1287.706177,123.235558 1284.155884,122.874054 
	C1283.062134,122.762680 1281.653687,121.224892 1281.209717,120.034363 
	C1279.337524,115.013351 1277.774902,109.876808 1276.075439,104.103195 
	C1275.703491,103.341995 1275.355103,103.260117 1275.006714,103.178238 
M1257.010254,63.535709 
	C1253.995605,73.285103 1250.980957,83.034492 1247.880493,93.061096 
	C1256.528931,93.061096 1264.633057,93.061096 1273.168823,93.061096 
	C1268.894897,79.455734 1264.713379,66.144302 1260.348633,52.249432 
	C1259.184326,56.119648 1258.186523,59.436237 1257.010254,63.535709 
z"/>
<path fill="#040404" opacity="1.000000" stroke="none" 
	d="
M1126.130859,87.249977 
	C1118.524170,88.552490 1111.266724,89.649796 1103.491699,90.825371 
	C1103.491699,101.011703 1103.491699,111.759155 1103.491699,122.752945 
	C1099.286743,122.752945 1095.511353,122.752945 1091.363770,122.752945 
	C1091.363770,92.558022 1091.363770,62.230007 1091.363770,30.785358 
	C1104.264771,31.539841 1117.194092,31.638586 1129.932495,33.248405 
	C1140.174072,34.542698 1147.690674,45.116894 1147.724121,56.969501 
	C1147.760742,69.990868 1140.421021,82.923683 1126.130859,87.249977 
M1103.393921,66.487244 
	C1103.393921,70.931656 1103.393921,75.376068 1103.393921,79.778442 
	C1107.796265,79.778442 1111.632446,80.049095 1115.416504,79.719803 
	C1122.419678,79.110382 1128.073486,75.976646 1131.895142,69.877136 
	C1139.036011,58.479729 1135.040771,45.419098 1123.090210,42.686214 
	C1116.901733,41.271023 1110.380493,41.311947 1104.339600,40.726994 
	C1103.787354,41.932743 1103.534912,42.228672 1103.532471,42.526630 
	C1103.470459,50.181633 1103.434570,57.836849 1103.393921,66.487244 
z"/>
<path fill="#060606" opacity="1.000000" stroke="none" 
	d="
M1393.219238,82.010666 
	C1393.158203,91.361198 1393.097046,100.711723 1393.044434,110.831261 
	C1393.366333,111.755013 1393.679688,111.909760 1393.993042,112.064507 
	C1405.781494,112.064507 1417.569824,112.064507 1429.683838,112.064507 
	C1429.683838,115.807121 1429.683838,119.062286 1429.683838,122.666176 
	C1413.737183,122.666176 1397.529297,122.666176 1380.980225,122.666176 
	C1380.980225,92.553246 1380.980225,62.364063 1380.980225,31.789883 
	C1396.807739,31.789883 1412.664551,31.789883 1428.768066,31.789883 
	C1428.768066,34.716408 1428.768066,37.634628 1428.768066,41.006477 
	C1417.060059,41.006477 1405.333374,41.006477 1393.320068,41.006477 
	C1393.320068,51.335968 1393.320068,61.221844 1393.320068,71.439949 
	C1401.420776,71.439949 1409.378174,71.439941 1417.335693,71.439949 
	C1426.190063,71.439957 1426.190063,71.439964 1425.562378,81.127594 
	C1415.402466,81.127594 1405.167847,81.127594 1394.220093,81.129372 
	C1393.411255,81.424324 1393.315308,81.717499 1393.219238,82.010666 
z"/>
<path fill="#0C0C0C" opacity="1.000000" stroke="none" 
	d="
M899.190063,38.561092 
	C899.738098,39.990932 900.141296,41.023712 900.614014,42.234352 
	C903.646484,40.775024 906.494934,39.247665 909.468750,38.025391 
	C911.636902,37.134254 913.945496,36.283680 916.240479,36.125320 
	C917.441040,36.042473 918.747192,37.490692 920.005676,38.247425 
	C919.239258,39.503151 918.771851,41.332047 917.654541,41.915020 
	C912.910217,44.390305 907.973022,46.496010 902.808960,48.873596 
	C905.397949,53.890755 908.002808,58.938705 910.537415,63.850372 
	C918.357117,62.269756 923.975708,52.840870 933.650085,59.226028 
	C928.642761,65.585953 920.727417,65.784439 914.215759,70.225418 
	C919.234192,76.431099 924.014648,82.668404 929.160339,88.588303 
	C932.449097,92.371910 935.086426,96.121407 933.898376,101.444824 
	C932.879517,106.010162 930.469238,107.253510 926.574768,104.689316 
	C917.803528,98.914070 908.174194,96.220909 897.771790,96.031937 
	C892.799194,95.941605 887.775391,95.535217 882.863770,96.077553 
	C877.727783,96.644661 873.503235,101.406822 873.068176,106.302383 
	C872.606018,111.503540 875.186584,115.137871 879.714111,117.391312 
	C887.118286,121.076431 895.013000,122.000336 903.182617,121.412193 
	C906.998840,121.137466 910.898926,120.677917 914.635315,121.200523 
	C916.570374,121.471184 918.231323,123.701912 920.016113,125.047119 
	C918.248779,126.307022 916.552734,128.533264 914.702576,128.669571 
	C902.924683,129.537430 891.322998,128.922104 879.996582,124.695290 
	C866.424683,119.630486 865.155212,106.701584 871.641296,97.370705 
	C875.335754,92.055862 882.264954,90.837608 888.534485,91.109398 
	C898.738037,91.551712 908.904297,92.846947 919.087830,93.765266 
	C920.344727,93.878609 921.610901,93.888138 923.447998,93.972046 
	C918.742554,86.751221 914.428284,79.993340 909.901855,73.380623 
	C909.406555,72.657112 907.604065,72.345062 906.555359,72.560394 
	C898.443604,74.225990 890.430176,76.469398 882.262390,77.733109 
	C875.344055,78.803497 870.181396,75.166740 866.350037,68.886635 
	C879.742859,75.244736 892.245911,70.208481 905.425781,66.548653 
	C903.297913,62.145218 901.239380,57.942364 899.233398,53.714577 
	C897.871765,50.844627 895.855774,50.519432 892.898682,51.304382 
	C888.712341,52.415657 884.394897,53.355854 880.088867,53.608261 
	C875.170471,53.896564 871.404236,51.137146 868.765015,48.287449 
	C877.287170,47.564407 886.102234,46.816517 895.479004,46.020966 
	C893.240906,40.569561 892.429321,35.692989 889.631470,32.631866 
	C887.075989,29.835968 882.369995,29.005640 878.756714,27.374491 
	C882.736511,22.775846 889.333923,21.310959 894.757507,24.648354 
	C896.229797,25.554327 897.398682,27.600075 897.864929,29.347338 
	C898.623230,32.188862 898.687866,35.215511 899.190063,38.561092 
z"/>
<path fill="#0C0C0C" opacity="1.000000" stroke="none" 
	d="
M563.040894,95.028152 
	C560.056458,106.798050 553.808411,115.943459 542.608704,119.859985 
	C525.276855,125.920967 508.954712,121.412598 503.466797,102.355667 
	C500.194641,90.992981 503.510834,79.406914 508.912567,68.819412 
	C512.866028,61.070587 517.012024,53.420025 520.670959,44.503078 
	C517.839966,45.571529 515.001648,46.620880 512.179504,47.712265 
	C505.619263,50.249329 499.514221,47.036274 498.161682,40.216194 
	C497.989258,39.346699 498.475342,38.346600 498.765442,36.840809 
	C508.374329,46.052006 517.064148,39.442860 525.654175,35.529526 
	C529.524170,33.766487 532.951782,33.103302 536.431885,35.414799 
	C538.973633,37.103027 539.481384,39.349613 536.348999,41.238136 
	C522.345459,49.680672 516.155884,63.475037 512.278015,78.265236 
	C510.428589,85.319138 509.838135,93.223747 510.907379,100.411301 
	C512.979126,114.337837 525.473145,120.251900 538.380859,114.417000 
	C548.613281,109.791489 553.531677,100.751816 556.947815,90.826942 
	C562.812927,73.786865 562.023132,56.435505 558.547119,39.053646 
	C558.253906,37.587360 557.464661,36.087322 557.638916,34.694702 
	C557.848755,33.017895 558.843018,31.439259 559.497681,29.818113 
	C561.306946,30.818199 564.075256,31.392765 564.743591,32.899094 
	C566.659180,37.216389 567.394043,42.046814 569.195312,46.427937 
	C572.373169,54.157719 577.153931,60.739372 583.915039,65.928284 
	C586.997681,68.294113 589.715027,71.347084 591.904419,74.560913 
	C592.770874,75.832741 591.752502,78.388542 591.592346,80.359726 
	C589.792603,80.150764 587.654297,80.497902 586.248413,79.641975 
	C577.529663,74.333755 572.996277,65.566566 568.229370,57.039463 
	C567.309875,55.394619 566.535278,53.668831 564.775452,52.151779 
	C565.019531,55.976948 565.652832,59.824650 565.432922,63.622963 
	C564.834229,73.964798 563.874817,84.285744 563.040894,95.028152 
z"/>
<path fill="#040404" opacity="1.000000" stroke="none" 
	d="
M1167.340576,31.451668 
	C1170.961426,31.423216 1174.111694,31.423216 1177.783203,31.423216 
	C1177.783203,58.350296 1177.783203,85.057327 1177.783203,112.218140 
	C1190.359375,112.218140 1202.420898,112.218140 1214.740845,112.218140 
	C1214.740845,115.917282 1214.740845,119.172104 1214.740845,122.720123 
	C1198.583008,122.720123 1182.353638,122.720123 1165.784668,122.720123 
	C1165.704346,121.226334 1165.560059,119.786118 1165.559326,118.345833 
	C1165.546021,91.018433 1165.526978,63.690975 1165.606079,36.363808 
	C1165.610840,34.734707 1166.429810,33.107964 1167.340576,31.451668 
z"/>
<path fill="#0C0C0C" opacity="1.000000" stroke="none" 
	d="
M775.311584,129.475433 
	C784.820496,119.967415 792.891968,109.945793 796.481140,97.021805 
	C799.187195,87.277763 798.907288,77.502403 795.972778,67.927513 
	C794.049744,61.652954 786.265503,57.971123 780.659668,61.315681 
	C774.519287,64.979187 769.093811,69.950668 763.728638,74.766403 
	C760.028625,78.087463 756.244324,78.767174 751.905701,76.946159 
	C747.267334,74.999374 746.220886,70.654427 744.381653,66.275948 
	C745.733704,66.142517 746.401978,65.878479 746.614624,66.084557 
	C751.877808,71.184891 756.482544,68.005745 761.348572,65.204521 
	C768.705505,60.969376 775.965515,56.397144 784.871704,55.985424 
	C797.181335,55.416367 804.563843,62.630676 805.950867,74.717392 
	C807.898499,91.689232 803.992004,107.213058 791.839172,119.654312 
	C786.081970,125.548172 779.121155,130.266327 772.705566,135.517136 
	C772.123718,134.851288 771.541809,134.185440 770.959900,133.519592 
	C772.323059,132.255936 773.686218,130.992294 775.311584,129.475433 
z"/>
<path fill="#0C0C0C" opacity="1.000000" stroke="none" 
	d="
M643.312805,115.829430 
	C639.226196,114.413506 635.433777,113.188728 631.948364,111.374153 
	C626.593811,108.586426 623.442627,104.111000 623.207703,97.880981 
	C622.985291,91.984978 622.092773,85.924805 626.624878,81.318031 
	C627.216064,86.578056 626.782349,92.152069 628.595825,96.860573 
	C632.198853,106.215302 640.638794,109.243431 649.948547,109.965584 
	C663.215637,110.994705 676.351990,110.366974 689.259766,106.663208 
	C691.158081,106.118523 693.553528,106.407913 695.460266,107.063629 
	C697.112122,107.631691 698.396973,109.267265 699.843994,110.431000 
	C698.500183,111.934395 697.408630,114.277695 695.761841,114.772293 
	C691.933960,115.921982 687.848633,116.622452 683.849243,116.715912 
	C672.211914,116.987869 660.565247,116.920021 648.922974,116.856384 
	C647.194824,116.846931 645.470581,116.140396 643.312805,115.829430 
z"/>
<path fill="#090909" opacity="1.000000" stroke="none" 
	d="
M655.148682,40.016674 
	C662.548889,40.353485 669.536255,40.379879 676.449585,41.108593 
	C679.737000,41.455116 683.054138,42.817177 686.008118,44.380161 
	C687.159302,44.989323 687.747009,47.409134 687.775269,49.018532 
	C687.786194,49.639992 685.483215,50.937469 684.319580,50.845798 
	C672.701782,49.930523 662.574219,54.533073 652.395447,59.071880 
	C651.141602,59.630943 649.717285,59.807709 648.372009,60.161625 
	C648.175415,59.768871 647.978821,59.376118 647.782166,58.983360 
	C652.760620,55.610126 657.739014,52.236889 663.031555,48.650780 
	C655.755676,46.677288 648.797302,45.059204 642.022583,42.872089 
	C635.970276,40.918182 633.311768,37.110649 633.662598,33.286297 
	C640.558350,35.484592 647.631897,37.739559 655.148682,40.016674 
z"/>
<path fill="#090909" opacity="1.000000" stroke="none" 
	d="
M777.550415,37.429188 
	C776.412720,36.050179 775.175842,34.839432 773.736511,33.959900 
	C768.112793,30.523344 762.655945,26.964977 760.227722,20.173229 
	C760.824463,20.136032 761.464233,19.891359 761.741272,20.108810 
	C768.927185,25.748821 777.650696,27.605724 786.085815,30.270014 
	C792.522034,32.302929 794.963257,35.491230 794.888733,39.902279 
	C787.022644,41.254501 779.243530,42.591759 771.987305,43.839142 
	C773.319580,42.328587 775.338928,40.039104 777.550415,37.429188 
z"/>
<path fill="#E6E6E6" opacity="1.000000" stroke="none" 
	d="
M1393.916260,111.843628 
	C1393.679688,111.909760 1393.366333,111.755013 1393.106445,111.295715 
	C1393.439209,111.144821 1393.665771,111.355354 1393.916260,111.843628 
z"/>
<path fill="#FAFAFA" opacity="1.000000" stroke="none" 
	d="
M1275.120972,103.362152 
	C1275.355103,103.260117 1275.703491,103.341995 1276.006592,103.711166 
	C1275.672241,103.922974 1275.430298,103.772179 1275.120972,103.362152 
z"/>
<path fill="#E6E6E6" opacity="1.000000" stroke="none" 
	d="
M1393.404297,81.955368 
	C1393.315308,81.717499 1393.411255,81.424324 1393.757568,81.206276 
	C1393.974487,81.559517 1393.834839,81.765739 1393.404297,81.955368 
z"/>
<path fill="#FAFAFA" opacity="1.000000" stroke="none" 
	d="
M1257.099487,63.144268 
	C1258.186523,59.436237 1259.184326,56.119648 1260.348633,52.249432 
	C1264.713379,66.144302 1268.894897,79.455734 1273.168823,93.061096 
	C1264.633057,93.061096 1256.528931,93.061096 1247.880493,93.061096 
	C1250.980957,83.034492 1253.995605,73.285103 1257.099487,63.144268 
z"/>
<path fill="#F8F8F8" opacity="1.000000" stroke="none" 
	d="
M1103.394043,65.989639 
	C1103.434570,57.836849 1103.470459,50.181633 1103.532471,42.526630 
	C1103.534912,42.228672 1103.787354,41.932743 1104.339600,40.726994 
	C1110.380493,41.311947 1116.901733,41.271023 1123.090210,42.686214 
	C1135.040771,45.419098 1139.036011,58.479729 1131.895142,69.877136 
	C1128.073486,75.976646 1122.419678,79.110382 1115.416504,79.719803 
	C1111.632446,80.049095 1107.796265,79.778442 1103.393921,79.778442 
	C1103.393921,75.376068 1103.393921,70.931656 1103.394043,65.989639 
z"/>
</svg>