<svg version="1.1" id="Layer_1" xmlns="http://www.w3.org/2000/svg" xmlns:xlink="http://www.w3.org/1999/xlink" x="0px" y="0px"
	 width="100%" viewBox="0 0 1024 576" enable-background="new 0 0 1024 576" xml:space="preserve">
<path fill="#000000" opacity="1.000000" stroke="none" 
	d="
M462.468658,577.000000 
	C461.954590,566.002930 461.872589,555.005798 461.869659,544.008728 
	C461.848145,463.352295 461.853241,382.695862 461.779480,302.039490 
	C461.777283,299.631256 462.927216,296.627869 459.688538,294.928650 
	C457.516296,296.437225 457.156219,298.865082 456.351257,300.946564 
	C453.228149,309.022675 450.003021,317.073608 447.291412,325.290863 
	C444.235840,334.550415 433.976044,341.729004 422.899475,339.618591 
	C403.304352,335.885193 383.514069,333.184784 363.893005,329.575928 
	C351.444336,327.286285 343.961090,316.906464 346.013336,306.032776 
	C348.346161,293.672729 358.418274,286.837128 371.589905,288.923676 
	C383.908539,290.875092 396.224731,292.882660 408.466553,295.254913 
	C412.467621,296.030273 414.296143,294.823151 415.608398,291.258575 
	C420.555145,277.821045 426.254883,264.627960 430.537140,250.986877 
	C435.705566,234.522964 447.084259,225.852890 463.018555,221.798737 
	C471.119476,219.737640 479.367981,218.627014 487.692261,218.332031 
	C512.654785,217.447449 537.656128,216.246078 562.322998,221.692871 
	C569.849609,223.354858 576.954956,226.126221 583.099060,231.049057 
	C587.772034,234.793167 591.270691,239.318710 593.376892,244.911865 
	C599.244202,260.493164 605.192932,276.045135 610.878113,291.692749 
	C612.104431,295.068085 613.706604,295.944183 617.174622,295.306000 
	C629.602295,293.018951 642.071899,290.952393 654.545837,288.926300 
	C667.315491,286.852173 677.805542,293.768982 680.037842,305.580292 
	C682.169250,316.858246 674.694092,327.459503 662.211304,329.723450 
	C641.752930,333.433899 621.223267,336.769196 600.681458,339.993500 
	C592.174622,341.328827 583.330078,335.621368 579.797668,326.831238 
	C576.321533,318.181152 573.216919,309.382233 569.901978,300.666626 
	C569.142883,298.670746 568.189514,296.748688 567.300049,294.735046 
	C563.731445,295.096802 564.245850,297.587006 564.239319,299.603668 
	C564.188782,315.268127 564.184204,330.932770 564.178223,346.597351 
	C564.148926,423.087097 564.123779,499.576843 564.048584,576.533325 
	C550.645752,577.000000 537.291565,577.000000 523.361938,576.541382 
	C522.742249,573.252075 522.659485,570.421448 522.659119,567.590759 
	C522.653137,515.452148 522.697083,463.313446 522.624573,411.174927 
	C522.610291,400.883972 525.080017,400.257324 511.843475,400.386017 
	C503.358551,400.468506 503.343781,400.440186 503.343109,409.123840 
	C503.338898,463.094818 503.345367,517.065796 503.327728,571.036804 
	C503.327087,573.024597 503.114044,575.012268 503.000000,577.000000 
	C489.645782,577.000000 476.291534,577.000000 462.468658,577.000000 
z"/>
<path fill="#000000" opacity="1.000000" stroke="none" 
	d="
M484.041290,196.957672 
	C472.126221,183.802200 468.648529,168.992096 475.065643,152.784134 
	C481.433899,136.699570 494.189026,127.902992 511.232300,127.108772 
	C532.320984,126.126030 549.795959,140.340439 553.265686,160.813263 
	C556.306702,178.756134 547.841431,195.901245 532.338989,204.096771 
	C516.325867,212.562286 498.256866,209.972504 484.041290,196.957672 
z"/>
<path fill="#000000" opacity="1.000000" stroke="none" 
	d="
M523.720337,41.458336 
	C521.358032,44.079262 519.252258,46.429214 517.066162,48.701927 
	C514.622803,51.242016 512.296326,53.791664 511.989929,57.575161 
	C511.758911,60.427471 509.828979,61.005772 507.369324,60.729691 
	C504.498077,60.407406 504.565979,58.327271 504.787292,56.283405 
	C505.179993,52.657421 507.135193,49.801693 509.455750,47.116734 
	C512.060303,44.103088 514.772949,41.150948 517.066895,37.909019 
	C519.760620,34.102119 518.627563,31.561874 514.176758,30.028193 
	C510.751190,28.847773 507.636536,30.012379 504.459686,30.940783 
	C502.898254,31.397091 501.543915,32.573139 499.479919,32.351345 
	C497.849213,28.533232 498.350555,25.891874 502.861877,24.572979 
	C507.784485,23.133839 512.777954,23.004702 517.640503,24.092037 
	C525.926392,25.944864 528.325500,32.836761 523.720337,41.458336 
z"/>
<path fill="#000000" opacity="1.000000" stroke="none" 
	d="
M510.380249,75.488968 
	C506.864014,76.568268 504.725983,75.310066 503.886230,72.312874 
	C503.133270,69.625366 504.075195,67.333199 506.806213,66.212067 
	C509.130463,65.257927 511.225861,66.066460 512.429749,68.083900 
	C514.080505,70.849976 513.769348,73.482567 510.380249,75.488968 
z"/>
</svg>