<svg version="1.1" id="Layer_1" xmlns="http://www.w3.org/2000/svg" xmlns:xlink="http://www.w3.org/1999/xlink" x="0px" y="0px"
	 width="100%" viewBox="0 0 1024 576" enable-background="new 0 0 1024 576" xml:space="preserve">
<path fill="#000000" opacity="1.000000" stroke="none" 
	d="
M346.468658,577.000000 
	C344.865692,573.716125 343.001801,570.699219 342.692444,567.112000 
	C341.769104,556.405945 346.069000,548.851501 355.864441,544.215515 
	C382.502777,531.608215 409.098480,518.908875 435.830688,506.503815 
	C440.237152,504.459045 441.913757,502.014465 441.868683,497.096466 
	C441.630463,471.112549 441.860718,445.124786 441.727844,419.139343 
	C441.614960,397.069031 451.469604,381.477325 471.152435,371.594391 
	C498.025391,358.101349 525.584167,346.644287 555.168823,340.443024 
	C586.457214,333.884674 617.466187,334.111267 648.571106,341.994751 
	C662.321533,345.479797 672.968262,352.170349 679.841492,364.637543 
	C683.558289,371.379333 685.001526,378.731201 685.012451,386.274323 
	C685.097839,445.076050 685.038818,503.877960 685.080261,562.679810 
	C685.083618,567.464355 683.612061,571.834167 682.039795,576.616577 
	C669.979126,577.000000 657.958191,577.000000 645.356445,576.642700 
	C642.274780,571.429138 641.611328,566.280884 641.625244,560.834106 
	C641.731506,519.176270 641.685486,477.518036 641.675110,435.859955 
	C641.673462,429.275391 641.646362,429.229767 634.952209,429.224335 
	C606.458130,429.201111 577.963989,429.197388 549.469910,429.229370 
	C547.894592,429.231140 546.099976,428.681030 544.720032,430.386047 
	C545.063965,432.641907 547.119080,433.386627 548.665649,434.492249 
	C558.829529,441.758331 569.084351,448.897858 579.213684,456.211426 
	C590.906982,464.654266 593.280029,474.868591 586.592163,487.552002 
	C572.685425,513.925964 558.712280,540.265076 544.845825,566.660217 
	C543.079773,570.021973 540.711243,573.132812 540.000000,577.000000 
	C528.312439,577.000000 516.624878,577.000000 504.277405,576.697327 
	C498.508148,568.664795 498.672546,560.772888 502.879364,552.749573 
	C514.250183,531.062866 525.607239,509.369049 536.991394,487.689392 
	C540.180298,481.616486 540.238403,481.601746 534.543274,477.472809 
	C519.976196,466.911713 505.395782,456.368927 490.788940,445.863037 
	C489.398224,444.862793 488.143799,443.231445 486.007446,443.918060 
	C484.791565,445.993774 485.240417,448.207092 485.237793,450.323120 
	C485.211823,471.319458 485.107941,492.317047 485.301636,513.311768 
	C485.408508,524.899597 480.654388,532.925720 469.988831,537.830139 
	C451.528290,546.318970 433.221436,555.143250 414.881653,563.893005 
	C405.884613,568.185486 396.958313,572.626282 388.000000,577.000000 
	C374.312439,577.000000 360.624878,577.000000 346.468658,577.000000 
z"/>
<path fill="#000000" opacity="1.000000" stroke="none" 
	d="
M771.085205,360.972656 
	C759.465210,375.908112 744.549255,382.177917 726.430603,377.913422 
	C708.061279,373.589966 697.447937,361.127350 694.008118,342.663483 
	C690.016846,321.239319 706.283264,298.589081 728.205261,294.836121 
	C751.500610,290.848053 772.770264,304.740173 777.673767,327.763763 
	C780.152893,339.403931 778.163147,350.623138 771.085205,360.972656 
z"/>
<path fill="#000000" opacity="1.000000" stroke="none" 
	d="
M674.525879,25.781708 
	C675.587219,31.893053 673.827454,37.003876 669.557861,40.518173 
	C666.160400,43.314590 666.655396,45.249874 668.687744,48.326588 
	C672.321655,53.827988 675.607361,59.559410 679.080261,65.263107 
	C673.077087,67.747238 670.997192,67.173630 668.123901,62.623421 
	C665.193420,57.982655 662.251526,53.348766 659.371094,48.677010 
	C658.175842,46.738346 656.538879,45.833107 654.340637,46.406853 
	C652.050964,47.004478 652.733826,49.094746 652.667908,50.601284 
	C652.493652,54.584991 652.493652,58.579395 652.535156,62.568386 
	C652.562500,65.199280 651.643616,66.544228 648.765076,66.499313 
	C646.093628,66.457626 644.766846,65.552063 644.776733,62.730766 
	C644.826355,48.589645 644.805420,34.448269 644.803833,20.306984 
	C644.803589,18.166765 645.617126,16.728537 647.973999,16.757896 
	C653.782227,16.830246 659.617737,16.135710 665.390381,17.255693 
	C670.012573,18.152466 673.304932,20.586538 674.525879,25.781708 
M660.811157,23.398279 
	C660.147766,23.361898 659.478027,23.248560 658.822205,23.303251 
	C656.667236,23.482986 653.424988,22.304701 653.211792,25.680014 
	C652.928528,30.164730 651.559143,34.892208 654.313660,39.157372 
	C654.517883,39.473576 655.216858,39.496223 655.697388,39.603951 
	C660.288818,40.633236 665.149048,37.511429 666.796204,32.485229 
	C668.249512,28.050571 666.996826,25.882710 660.811157,23.398279 
z"/>
<path fill="#000000" opacity="1.000000" stroke="none" 
	d="
M771.608765,66.729431 
	C760.589661,67.114395 760.639221,67.114014 760.557495,56.598885 
	C760.469421,45.273178 760.373657,33.945759 760.079895,22.624311 
	C759.964600,18.181004 761.484070,16.078243 766.157776,16.648129 
	C768.292114,16.908369 770.484863,16.673689 772.650818,16.693731 
	C784.933411,16.807383 791.068359,22.394758 792.279663,34.663597 
	C792.670715,38.624409 792.962036,42.544079 792.492493,46.591507 
	C790.860779,60.655201 786.239563,65.368050 771.608765,66.729431 
M775.658142,59.490780 
	C780.379028,58.349152 783.098633,55.191780 784.019287,50.605457 
	C785.302612,44.212376 785.475281,37.730259 783.834778,31.384680 
	C782.355713,25.663122 778.813782,23.378971 772.903320,23.214760 
	C769.485901,23.119816 768.136230,24.324884 768.196594,27.805021 
	C768.343384,36.267681 768.224182,44.734787 768.231689,53.200085 
	C768.237488,59.745823 768.250671,59.745811 775.658142,59.490780 
z"/>
<path fill="#000000" opacity="1.000000" stroke="none" 
	d="
M723.635864,47.766842 
	C726.458679,38.477497 729.208435,29.583450 731.892456,20.669594 
	C732.626526,18.231722 733.664124,16.652433 736.661621,16.611065 
	C739.707031,16.569031 741.140442,17.749847 741.993591,20.564045 
	C746.285522,34.721371 750.711243,48.838120 755.058533,62.978790 
	C755.293701,63.743755 755.244446,64.596146 755.323547,65.367744 
	C749.405884,67.427101 748.055664,67.016609 746.520386,61.465580 
	C745.385559,57.362206 743.287537,55.572937 739.067810,56.132561 
	C737.595947,56.327751 736.053345,56.324760 734.582031,56.125198 
	C730.162659,55.525791 727.706787,57.218285 727.026978,61.752052 
	C726.301819,66.588661 723.333435,67.558578 718.596680,65.694817 
	C719.394043,59.607410 721.818726,53.969765 723.635864,47.766842 
M738.855652,49.676342 
	C740.965271,49.717808 742.559937,49.308075 741.700867,46.588787 
	C740.139587,41.646477 738.602661,36.696472 736.742432,30.748402 
	C734.675537,37.484074 732.291748,42.893185 731.500732,48.662594 
	C733.787231,50.270401 735.996887,49.459137 738.855652,49.676342 
z"/>
<path fill="#000000" opacity="1.000000" stroke="none" 
	d="
M690.446411,66.815186 
	C686.301697,66.855263 684.720764,65.268372 684.771423,61.366024 
	C684.942017,48.231613 684.910950,35.092686 684.774231,21.957392 
	C684.735107,18.200357 685.894653,16.465937 689.912842,16.626534 
	C695.723450,16.858767 701.550598,16.655230 707.370300,16.693743 
	C709.688904,16.709085 712.304260,16.425726 712.171631,20.046333 
	C712.041138,23.608364 709.389893,23.169289 707.112976,23.213655 
	C703.788452,23.278444 700.459351,23.325560 697.137024,23.223185 
	C694.137634,23.130766 692.858704,24.514208 693.002136,27.422724 
	C693.034851,28.085800 692.991638,28.752571 692.984863,29.417656 
	C692.899963,37.780899 692.900024,37.779808 701.422180,37.796787 
	C702.918701,37.799770 704.415466,37.804825 705.911743,37.829021 
	C708.237915,37.866627 710.297791,38.174301 710.210876,41.296711 
	C710.130554,44.185692 708.173279,44.308720 706.065002,44.312817 
	C703.238159,44.318314 700.403931,44.455303 697.586243,44.297482 
	C694.087280,44.101494 692.935486,45.704517 692.941589,49.051369 
	C692.965027,62.019886 692.562439,59.455376 703.116333,59.712765 
	C705.110657,59.761410 707.107178,59.761608 709.102112,59.739204 
	C711.301697,59.714508 712.530151,60.556686 712.483215,62.964947 
	C712.440979,65.128242 711.706421,66.455406 709.340088,66.493408 
	C703.193909,66.592102 697.048279,66.722237 690.446411,66.815186 
z"/>
<path fill="#000000" opacity="1.000000" stroke="none" 
	d="
M276.445801,39.626480 
	C276.380219,37.100628 277.911285,35.082176 276.883514,32.641785 
	C272.979706,31.614861 267.690186,33.710697 265.072205,27.993813 
	C269.481934,26.783730 274.843353,29.895802 277.901611,26.169800 
	C280.753113,22.695673 280.787018,18.085472 276.955811,14.338434 
	C279.388062,11.595706 281.666077,13.145452 283.688141,14.338163 
	C288.484161,17.167095 283.893005,20.933153 284.494934,24.537756 
	C286.941101,25.281357 288.808136,23.546127 290.872864,22.851509 
	C292.608704,22.267534 294.271790,21.421562 296.181122,21.756042 
	C297.373779,21.964975 298.521057,22.391769 298.773193,23.726091 
	C299.042999,25.153862 297.997559,25.863663 296.860107,26.255470 
	C293.714691,27.338942 290.595612,28.601147 287.359222,29.291111 
	C283.732330,30.064314 281.954376,32.056976 281.458313,35.624481 
	C280.984039,39.035648 280.277252,42.414486 279.571686,46.374409 
	C285.069519,44.718407 289.447266,41.882881 294.643829,41.235992 
	C302.209961,40.294140 309.433838,43.701572 311.063416,49.503956 
	C313.005524,56.419132 309.498962,63.432682 302.231995,66.520767 
	C296.100861,69.126190 289.719879,69.981110 283.150085,68.203888 
	C285.522705,65.998528 288.578857,66.466110 291.281677,65.714066 
	C297.052856,64.108261 302.340851,61.867332 305.312164,56.216122 
	C308.206818,50.710728 305.537903,45.681923 299.293213,45.128826 
	C292.168884,44.497818 286.308838,47.338161 281.357849,52.297115 
	C279.768127,53.889431 278.456360,56.441956 275.631073,54.545589 
	C273.259216,52.953583 273.659698,50.651443 274.369202,48.254951 
	C275.168427,45.555164 275.702820,42.776974 276.445801,39.626480 
z"/>
<path fill="#000000" opacity="1.000000" stroke="none" 
	d="
M809.782043,54.018959 
	C810.747314,46.405945 808.439209,40.233612 804.751465,34.228310 
	C801.498535,28.930952 798.135254,23.605316 795.870178,17.497082 
	C800.978699,15.859159 804.354431,16.525534 806.678589,21.264139 
	C808.698730,25.382877 810.679260,29.624533 814.024048,33.396946 
	C817.661072,29.755371 819.684631,25.367178 821.703064,21.112389 
	C823.892334,16.497528 827.036438,15.872359 831.601624,17.396587 
	C830.665588,21.552444 828.581787,25.032566 826.361328,28.179859 
	C819.439697,37.991089 816.450195,48.644722 817.898804,60.579384 
	C818.073669,62.020130 817.908997,63.631390 817.422729,64.992554 
	C816.707153,66.995575 814.783325,66.598373 813.138245,66.504761 
	C811.233704,66.396378 809.951111,65.554390 809.901855,63.486130 
	C809.830627,60.493362 809.818787,57.499184 809.782043,54.018959 
z"/>
<path fill="#000000" opacity="1.000000" stroke="none" 
	d="
M553.361206,65.930862 
	C549.864746,64.643707 546.708191,63.534679 544.053223,61.433399 
	C536.312744,55.307201 534.741455,45.068665 540.059143,35.793743 
	C542.114929,32.208160 545.051819,29.339964 548.606506,25.831579 
	C541.141968,27.461506 534.826111,29.478041 528.669006,31.997223 
	C526.328125,32.955002 524.003723,34.206669 521.706116,32.075745 
	C519.683105,30.199463 519.196228,27.889236 520.300476,24.780258 
	C525.852905,28.682165 531.299866,26.057472 536.824219,24.815512 
	C545.423584,22.882244 554.054138,21.088564 562.663757,19.200138 
	C564.333557,18.833878 565.948608,18.687223 567.547180,19.432631 
	C568.975098,20.098492 570.259583,20.974607 570.071594,22.747438 
	C569.874878,24.603437 568.390259,25.086655 566.798157,25.153095 
	C563.972351,25.271019 561.078674,24.951529 558.327271,25.447239 
	C549.330994,27.068090 540.729553,38.426060 541.339294,47.592823 
	C541.672913,52.609016 544.625977,55.910606 548.883484,57.974316 
	C551.549438,59.266548 554.535767,59.886997 557.351746,60.884022 
	C559.233948,61.550419 561.564087,62.214115 561.021729,64.801506 
	C560.462769,67.468651 558.208008,67.097183 556.167664,66.615387 
	C555.357178,66.424004 554.543152,66.248116 553.361206,65.930862 
z"/>
<path fill="#000000" opacity="1.000000" stroke="none" 
	d="
M413.668335,56.644100 
	C420.229706,55.092522 426.431030,53.680077 431.727448,49.980656 
	C436.469147,46.668682 438.664093,40.203915 436.841003,35.513424 
	C434.776947,30.203146 429.353241,27.316847 423.067230,28.014896 
	C417.310211,28.654209 412.138947,30.877584 407.248535,33.774151 
	C404.396179,35.463593 401.748138,37.504921 399.051697,39.448357 
	C397.080383,40.869156 395.064362,42.147144 392.703583,40.474045 
	C390.227478,38.719234 388.879547,36.449448 390.289917,32.813210 
	C394.542572,35.749546 397.882294,33.277657 401.295898,31.338793 
	C409.534485,26.659391 418.072388,23.260933 427.852692,24.635101 
	C436.062897,25.788662 441.308380,30.372267 442.779388,37.840050 
	C444.067200,44.378017 440.360962,51.346359 433.364288,54.980106 
	C424.702179,59.478809 415.287140,60.330368 405.721527,60.203297 
	C405.261169,60.197182 404.762451,59.975494 404.362732,59.724823 
	C404.141174,59.585873 404.088043,59.178421 403.823212,58.590702 
	C406.785187,56.956097 410.261505,57.852848 413.668335,56.644100 
z"/>
<path fill="#000000" opacity="1.000000" stroke="none" 
	d="
M334.395630,51.743080 
	C334.605255,52.712551 334.786133,53.338535 335.104675,54.441093 
	C338.709259,50.498188 338.027893,44.604961 342.194031,41.009712 
	C343.614990,43.614609 342.145508,45.545265 341.768738,47.515030 
	C340.713715,53.031075 338.460419,58.337650 339.080444,64.142563 
	C339.240326,65.639420 339.073639,67.353249 337.139099,67.641777 
	C335.458832,67.892387 334.341980,66.700897 333.615601,65.337227 
	C330.219818,58.961979 329.409607,52.107357 330.224457,45.046669 
	C330.927277,38.956905 331.882111,32.896496 332.696350,26.819197 
	C333.091980,23.866318 332.355652,20.994802 331.604553,18.092112 
	C337.237457,18.227165 339.759888,21.733177 338.206757,26.934013 
	C335.821594,34.921043 333.994629,42.984802 334.395630,51.743080 
z"/>
<path fill="#000000" opacity="1.000000" stroke="none" 
	d="
M206.306824,38.877483 
	C206.847305,44.181923 206.872940,49.243526 211.463699,53.067455 
	C216.481354,48.326271 218.440369,41.546471 223.763138,37.215366 
	C225.210037,39.934093 223.284515,41.407772 222.682968,43.155312 
	C220.811569,48.591854 216.699814,53.189274 216.925766,59.448452 
	C216.998154,61.453659 215.218704,62.117462 213.282623,61.717106 
	C210.335480,61.107666 208.217834,59.345875 206.564423,56.904289 
	C203.372299,52.190495 202.163040,46.807377 201.868530,41.305027 
	C201.548096,35.318504 201.486298,29.351316 198.868729,23.739542 
	C203.907440,22.962786 207.462906,26.527622 206.973190,31.500893 
	C206.745651,33.811840 206.526535,36.123619 206.306824,38.877483 
z"/>
<path fill="#000000" opacity="1.000000" stroke="none" 
	d="
M478.489441,43.526882 
	C476.490753,49.084354 472.271851,53.416553 472.836639,59.609192 
	C473.019196,61.610607 470.986298,62.048260 469.096863,61.633495 
	C466.316010,61.023048 464.406128,59.280159 462.786255,57.056900 
	C459.731873,52.864700 458.536652,47.998184 458.054230,43.013615 
	C457.419525,36.455574 457.830078,29.774117 454.825897,23.460167 
	C460.555908,23.512875 463.672577,26.851488 462.823303,31.896248 
	C461.976990,36.923477 462.077301,41.856865 463.408844,46.732319 
	C464.089447,49.224304 464.757507,51.898495 467.819489,53.143314 
	C472.338654,48.333473 474.463989,41.741573 479.733704,37.307659 
	C481.172028,39.993908 479.117462,41.415737 478.489441,43.526882 
z"/>
<path fill="#000000" opacity="1.000000" stroke="none" 
	d="
M244.304993,43.237843 
	C244.829422,35.696098 239.124619,32.536247 234.363129,28.528290 
	C236.688110,26.107697 239.059067,27.273148 240.759293,28.402515 
	C247.226440,32.698269 250.667801,39.029396 251.218277,46.676296 
	C251.533356,51.053417 249.616837,51.891529 245.720764,49.806683 
	C243.436630,48.584408 241.025620,47.599247 238.618027,46.482536 
	C239.645721,43.632389 242.780014,45.340504 244.304993,43.237843 
z"/>
<path fill="#000000" opacity="1.000000" stroke="none" 
	d="
M504.312378,51.016479 
	C501.042328,49.117832 497.920654,47.731956 494.616821,46.800262 
	C494.966736,45.929272 495.019684,45.429653 495.214172,45.366631 
	C501.993958,43.169361 502.504211,41.413940 497.951233,35.310989 
	C496.968262,33.993404 495.772736,32.805912 494.539093,31.711908 
	C493.325592,30.635767 491.939178,29.754610 490.383514,28.607124 
	C492.746216,26.168304 495.043762,27.334517 496.766510,28.475897 
	C503.274658,32.787720 506.408569,39.213009 507.252350,46.814743 
	C507.462128,48.704556 506.978943,50.499233 504.312378,51.016479 
z"/>
<path fill="#000000" opacity="1.000000" stroke="none" 
	d="
M371.806763,62.330765 
	C366.825897,62.664906 362.383728,61.916313 357.995880,61.095257 
	C351.182312,59.820305 348.131592,55.506828 349.931152,49.090073 
	C354.381622,58.089973 362.145325,57.263916 369.789978,56.790852 
	C370.452545,56.749847 371.117981,56.702374 371.780334,56.720581 
	C374.274261,56.789135 377.629913,56.645805 377.748077,59.688236 
	C377.870026,62.827671 374.472382,62.101894 371.806763,62.330765 
z"/>
<path fill="#000000" opacity="1.000000" stroke="none" 
	d="
M373.342041,27.513020 
	C368.264465,28.862993 363.739899,30.672087 359.015320,32.963799 
	C358.564423,29.509937 362.006409,29.370941 362.278442,26.982401 
	C358.512390,25.556204 355.167786,29.268940 351.319733,28.068718 
	C356.109344,22.203955 367.061249,19.821215 373.045013,23.201071 
	C374.888275,24.242222 375.999115,25.560408 373.342041,27.513020 
z"/>
</svg>