<svg version="1.1" id="Layer_1" xmlns="http://www.w3.org/2000/svg" xmlns:xlink="http://www.w3.org/1999/xlink" x="0px" y="0px"
	 width="100%" viewBox="0 0 1920 1080" enable-background="new 0 0 1920 1080" xml:space="preserve">
<path fill="#FFFFFF" opacity="1.000000" stroke="none" 
	d="
M794.000000,1081.000000 
	C529.685425,1081.000000 265.370789,1081.000000 1.056200,1081.000000 
	C1.037467,1080.852051 1.002309,1080.704224 1.002308,1080.556274 
	C1.000008,720.748413 1.000000,360.940582 1.000000,1.066370 
	C640.910400,1.066370 1280.820801,1.066370 1920.865601,1.066370 
	C1920.865601,360.884857 1920.865601,720.769775 1920.865601,1081.000000 
	C1656.967407,1081.000000 1392.934570,1081.000000 1128.584473,1080.655762 
	C1136.544922,1076.887939 1145.061523,1073.943848 1153.058105,1069.956421 
	C1183.672119,1054.691040 1208.144409,1033.018677 1223.278076,1001.690979 
	C1235.389893,976.618774 1233.858521,952.024292 1219.127075,929.025024 
	C1211.403931,916.967468 1201.239258,906.334778 1191.342529,895.846130 
	C1180.837402,884.712646 1169.178345,874.677795 1158.322144,863.863037 
	C1143.536133,849.133545 1132.969971,831.742188 1127.913452,811.417542 
	C1124.467041,797.564514 1121.246826,783.589294 1119.111084,769.489136 
	C1113.753540,734.118652 1109.542236,698.572021 1104.008423,663.231201 
	C1094.867920,604.855286 1078.535767,548.465149 1055.002197,494.233307 
	C1044.583740,470.224426 1032.300171,447.382019 1015.236267,427.149536 
	C987.654297,394.445953 934.402222,394.383942 906.940857,426.979370 
	C894.503113,441.742432 884.290039,457.784821 875.934082,475.051361 
	C840.049622,549.202820 821.210083,628.079163 810.922241,709.369202 
	C807.413635,737.092285 803.366577,764.760742 798.883789,792.343384 
	C793.811646,823.552795 779.956421,850.289062 756.182373,871.575256 
	C750.598450,876.574707 745.101624,881.688477 739.812378,886.996399 
	C730.413086,896.428894 720.541138,905.497925 712.037415,915.695129 
	C685.996643,946.921997 684.006775,979.723389 705.446899,1014.192871 
	C721.303955,1039.686401 743.705933,1057.803223 770.460266,1070.782104 
	C778.149597,1074.512207 786.144958,1077.611450 794.000000,1081.000000 
M1079.744019,88.571785 
	C1086.236328,99.017387 1092.677124,109.495827 1099.284546,119.868019 
	C1100.132812,121.199654 1101.772827,122.731186 1103.176025,122.871681 
	C1107.211426,123.275764 1111.313599,123.014229 1116.206787,123.014229 
	C1107.145752,108.337273 1098.555298,94.422279 1089.818848,80.271049 
	C1098.387939,75.621346 1104.084595,69.018410 1106.573242,59.818691 
	C1109.853516,47.691917 1104.740112,35.258915 1093.752808,33.440590 
	C1080.626953,31.268335 1067.103271,31.500616 1053.699951,30.688208 
	C1053.699951,62.336136 1053.699951,92.557381 1053.699951,122.642227 
	C1057.954468,122.642227 1061.854736,122.642227 1066.151367,122.642227 
	C1066.151367,109.695831 1066.151367,97.118118 1066.151367,83.976166 
	C1070.819824,85.585739 1076.457520,81.458839 1079.744019,88.571785 
M1179.556152,46.923767 
	C1179.258911,46.329762 1178.953247,45.739731 1178.665527,45.141159 
	C1173.474487,34.342484 1165.029419,28.800310 1152.908325,28.817749 
	C1140.763306,28.835222 1131.963257,34.336002 1127.322754,45.324497 
	C1118.066895,67.242180 1118.030151,89.368080 1128.243652,111.006256 
	C1133.011475,121.107368 1141.812500,125.773758 1152.937378,125.771767 
	C1164.257690,125.769737 1173.034546,120.993782 1177.914673,110.660515 
	C1187.669678,90.005936 1187.231201,68.870636 1179.556152,46.923767 
M1301.489502,102.033180 
	C1306.295410,108.203781 1311.073364,114.396561 1315.935791,120.522202 
	C1316.708496,121.495567 1317.826294,122.812843 1318.843994,122.867744 
	C1323.507080,123.119263 1328.191406,122.978348 1333.704102,122.978348 
	C1321.864746,107.775536 1310.858887,93.368736 1299.495850,79.249489 
	C1296.736328,75.820740 1296.959351,73.741890 1299.578491,70.441818 
	C1307.438354,60.538876 1314.899292,50.319214 1322.515869,40.223186 
	C1324.482666,37.616272 1326.449707,35.009491 1328.887207,31.778811 
	C1321.292358,31.165327 1315.310547,30.260756 1310.519287,37.661686 
	C1303.485107,48.527767 1295.036499,58.478477 1287.184570,68.814568 
	C1285.945312,70.445755 1284.673950,72.052498 1283.417480,73.670578 
	C1283.055176,73.538574 1282.692993,73.406570 1282.330688,73.274574 
	C1282.330688,59.423279 1282.330688,45.571983 1282.330688,31.632393 
	C1277.942139,31.632393 1274.171631,31.632393 1270.297852,31.632393 
	C1270.297852,62.196564 1270.297852,92.542244 1270.297852,122.762367 
	C1274.427124,122.762367 1278.193848,122.762367 1282.480469,122.762367 
	C1282.480469,108.030632 1282.480469,93.536819 1282.480469,77.640839 
	C1289.255737,86.345406 1295.146729,93.913879 1301.489502,102.033180 
M1344.638550,51.500328 
	C1344.638550,75.263969 1344.638550,99.027603 1344.638550,122.707474 
	C1361.502075,122.707474 1377.734741,122.707474 1393.961914,122.707474 
	C1393.961914,119.117859 1393.961914,115.838516 1393.961914,112.210007 
	C1381.605103,112.210007 1369.509766,112.210007 1357.404907,112.210007 
	C1357.404907,101.646088 1357.404907,91.440804 1357.404907,80.810699 
	C1368.365601,80.810699 1378.950439,80.810699 1389.654175,80.810699 
	C1389.654175,77.594345 1389.654175,74.812279 1389.654175,71.466469 
	C1378.775391,71.466469 1368.053223,71.466469 1357.419434,71.466469 
	C1357.419434,61.016983 1357.419434,51.136471 1357.419434,40.861862 
	C1369.548218,40.861862 1381.286011,40.861862 1392.987061,40.861862 
	C1392.987061,37.519352 1392.987061,34.594658 1392.987061,31.743603 
	C1376.773438,31.743603 1360.873169,31.743603 1344.638672,31.743603 
	C1344.638672,38.217766 1344.638672,44.359295 1344.638550,51.500328 
M1206.554565,112.906555 
	C1219.124268,126.212578 1236.934937,129.546600 1252.885010,121.559875 
	C1252.885010,118.106873 1252.885010,114.640816 1252.885010,110.785980 
	C1249.590820,112.090515 1246.605957,113.474098 1243.496460,114.467674 
	C1232.479370,117.987770 1223.886475,115.421700 1217.327271,106.821457 
	C1205.528931,91.351700 1205.698364,62.489468 1217.703491,47.241989 
	C1222.699463,40.896900 1229.140991,37.454594 1237.287598,38.912125 
	C1242.551270,39.853867 1247.649902,41.718037 1252.810059,43.165359 
	C1252.810059,39.646111 1252.810059,36.021049 1252.810059,32.399567 
	C1250.390503,31.635632 1248.203491,30.831280 1245.958008,30.253969 
	C1226.176147,25.167910 1208.604126,32.700844 1201.031006,51.016651 
	C1192.347046,72.018646 1193.097412,92.843430 1206.554565,112.906555 
M1447.129517,77.500046 
	C1447.129517,65.745186 1447.129517,53.990334 1447.129517,41.851810 
	C1456.599365,41.851810 1465.353149,41.851810 1474.170532,41.851810 
	C1474.170532,38.210403 1474.170532,34.973846 1474.170532,31.655113 
	C1451.896118,31.655113 1429.968750,31.655113 1407.774414,31.655113 
	C1407.774414,35.142994 1407.774414,38.392002 1407.774414,42.195755 
	C1416.823486,42.195755 1425.708862,42.195755 1435.087891,42.195755 
	C1435.087891,69.463364 1435.087891,96.181656 1435.087891,122.720291 
	C1439.365967,122.720291 1443.127563,122.720291 1447.129517,122.720291 
	C1447.129517,107.788857 1447.129517,93.144463 1447.129517,77.500046 
M480.954376,75.430557 
	C476.199585,80.322609 471.275696,85.065422 466.766998,90.174644 
	C464.754211,92.455566 463.155670,95.332932 462.195618,98.214920 
	C461.712738,99.664513 463.077789,101.729675 463.607208,103.516472 
	C465.339508,102.884293 467.308838,102.575500 468.737091,101.528549 
	C470.151733,100.491562 470.986023,98.682236 472.134277,97.259613 
	C483.941864,82.631058 499.340210,75.057327 518.049927,75.070152 
	C531.552002,75.079407 539.615662,86.161812 535.688477,98.323509 
	C533.851379,104.012482 530.002319,108.492043 524.698303,110.653397 
	C515.076477,114.574203 505.081940,117.581085 495.236908,120.951683 
	C494.187653,121.310905 493.098022,121.552139 492.027130,121.848114 
	C506.086090,123.712265 519.325134,121.433258 531.478821,114.662056 
	C534.990173,112.705818 538.161621,109.571335 540.568115,106.299721 
	C550.374512,92.967972 544.557007,76.364616 528.602478,71.998337 
	C515.965393,68.539940 503.903168,71.044792 492.272461,76.458374 
	C490.730377,77.176132 489.164703,77.843185 487.509247,78.578461 
	C487.293274,77.713249 487.170654,77.486511 487.229431,77.419952 
	C496.970306,66.386467 506.598602,55.248238 516.591370,44.447250 
	C518.430481,42.459419 520.444824,41.276405 518.809204,38.403477 
	C516.793701,34.863087 511.920349,33.299843 508.040741,34.540123 
	C502.195221,36.408886 496.314301,38.191364 490.380615,39.752762 
	C484.705444,41.246132 478.826141,42.924385 475.130341,34.914265 
	C472.720276,40.964401 474.938660,44.446884 478.172333,47.547028 
	C481.372498,50.615097 484.388947,49.606541 488.052795,47.722378 
	C493.331116,45.007938 499.116425,43.279400 504.685394,41.130116 
	C505.164276,41.831570 505.643158,42.533024 506.122040,43.234478 
	C497.888672,53.788952 489.655304,64.343430 480.954376,75.430557 
M870.901855,63.463947 
	C867.058105,65.271210 863.214294,67.078468 859.176880,68.976761 
	C855.325806,58.332523 854.968933,47.804268 857.522949,37.243252 
	C858.544373,33.019363 858.090820,29.755703 854.532043,27.124943 
	C850.633240,24.242847 846.536682,22.747313 840.863770,25.251366 
	C848.693481,29.290632 848.994934,35.962704 849.473450,42.999203 
	C850.139343,52.791130 847.940674,63.089417 854.132446,72.073357 
	C852.324036,73.325516 850.804810,74.317070 849.349731,75.395226 
	C842.176208,80.710358 835.737000,86.676941 832.637512,95.372345 
	C828.947632,105.724068 833.357971,115.239738 843.970886,118.143509 
	C860.602417,122.694016 877.578369,122.208031 894.486938,119.757851 
	C896.193054,119.510605 897.581482,117.070610 899.117371,115.648232 
	C897.332825,114.443329 895.567139,112.259956 893.760071,112.225159 
	C889.159241,112.136604 884.510864,112.820717 879.933899,113.532509 
	C868.314819,115.339470 856.710815,115.934601 845.236755,112.889847 
	C836.746887,110.636963 833.133118,103.530739 837.550415,95.979416 
	C840.635437,90.705597 845.213440,85.859772 850.146667,82.200760 
	C862.177124,73.277702 875.948364,67.835915 890.715027,65.272057 
	C894.215759,64.664253 894.692871,63.130356 894.232117,60.220249 
	C893.419189,55.084995 889.843811,53.220291 884.937256,52.194984 
	C886.388916,56.977119 883.463196,58.542347 879.897400,59.785500 
	C877.079346,60.768005 874.347168,61.996971 870.901855,63.463947 
M637.990173,63.180756 
	C640.548462,62.946667 643.106750,62.712574 645.549561,62.489052 
	C645.549561,71.349403 646.308411,79.912605 645.337463,88.274948 
	C644.353882,96.745644 642.942505,105.627068 639.344299,113.200623 
	C635.937866,120.370705 629.451050,126.077316 624.054138,132.755188 
	C641.972290,124.628792 652.098816,111.395088 652.901306,91.859001 
	C653.316589,81.749985 652.974365,71.609840 652.974365,61.127327 
	C658.862610,60.139244 665.431091,59.154781 671.936035,57.852711 
	C673.350281,57.569626 674.536743,56.148670 675.828125,55.251801 
	C674.684265,53.960701 673.744019,51.937363 672.349060,51.549637 
	C670.242065,50.964005 667.766968,51.240101 665.539551,51.648220 
	C661.088501,52.463776 656.699341,53.617393 652.024353,54.691204 
	C652.024353,48.140263 651.734619,42.306053 652.117920,36.516403 
	C652.413330,32.054836 650.947266,29.228951 646.864441,27.480654 
	C641.504700,25.185514 638.624939,25.408686 634.801880,28.829605 
	C648.381958,33.743813 643.514160,45.957439 646.078125,56.162689 
	C640.425964,56.813816 635.366089,57.622734 630.276367,57.918987 
	C625.265259,58.210663 620.223938,57.982620 614.982849,57.982620 
	C621.295593,63.863365 629.097351,63.888420 637.990173,63.180756 
M712.680359,91.360062 
	C719.951355,86.418793 726.970032,81.039680 734.565979,76.662422 
	C741.808594,72.488785 749.813354,70.042473 758.440613,70.933449 
	C771.873291,72.320671 778.875000,84.847122 772.765747,96.813583 
	C769.524719,103.161919 764.274475,107.848122 757.587708,109.775757 
	C747.416626,112.707840 736.945190,114.597313 726.604614,116.944000 
	C725.666931,117.156792 724.753052,117.474380 723.616516,117.804810 
	C724.182373,118.583107 724.360413,119.056465 724.555237,119.063515 
	C740.358948,119.634544 755.925781,118.696671 769.788696,109.953728 
	C779.888123,103.584351 784.024536,93.280815 781.174011,82.976418 
	C778.549194,73.488129 769.647949,67.568336 757.780029,66.918709 
	C742.378479,66.075653 729.254578,72.281998 716.588013,79.866127 
	C712.122131,82.540077 708.145203,83.918381 704.501343,78.711937 
	C701.719360,85.070732 705.186584,90.720047 712.680359,91.360062 
M584.177856,32.498024 
	C584.724121,37.821007 585.980774,43.188747 585.648926,48.456421 
	C585.159546,56.223392 583.389038,63.900642 582.434814,71.649429 
	C580.967773,83.562241 579.867920,95.535065 583.102173,107.327568 
	C583.858887,110.086548 585.534058,112.771019 587.396851,114.973694 
	C588.315735,116.060226 590.935669,116.719582 592.213623,116.190323 
	C593.361389,115.715004 594.076538,113.413063 594.371277,111.804848 
	C595.293335,106.774834 595.625244,101.624382 596.741211,96.645058 
	C598.445557,89.040886 600.642578,81.547920 602.547913,73.986961 
	C602.773254,73.092789 602.481384,72.068268 602.429260,71.104172 
	C602.049988,71.037758 601.670654,70.971344 601.291321,70.904930 
	C597.274780,80.686798 593.258179,90.468666 589.241577,100.250534 
	C588.651001,100.174721 588.060425,100.098907 587.469849,100.023102 
	C587.120789,95.172432 585.863220,90.178772 586.599854,85.498978 
	C588.503662,73.402802 591.158203,61.416969 593.765381,49.442036 
	C595.522156,41.373352 592.557068,35.365124 584.177856,32.498024 
z"/>
<path fill="#000000" opacity="1.000000" stroke="none" 
	d="
M794.466858,1081.000000 
	C786.144958,1077.611450 778.149597,1074.512207 770.460266,1070.782104 
	C743.705933,1057.803223 721.303955,1039.686401 705.446899,1014.192871 
	C684.006775,979.723389 685.996643,946.921997 712.037415,915.695129 
	C720.541138,905.497925 730.413086,896.428894 739.812378,886.996399 
	C745.101624,881.688477 750.598450,876.574707 756.182373,871.575256 
	C779.956421,850.289062 793.811646,823.552795 798.883789,792.343384 
	C803.366577,764.760742 807.413635,737.092285 810.922241,709.369202 
	C821.210083,628.079163 840.049622,549.202820 875.934082,475.051361 
	C884.290039,457.784821 894.503113,441.742432 906.940857,426.979370 
	C934.402222,394.383942 987.654297,394.445953 1015.236267,427.149536 
	C1032.300171,447.382019 1044.583740,470.224426 1055.002197,494.233307 
	C1078.535767,548.465149 1094.867920,604.855286 1104.008423,663.231201 
	C1109.542236,698.572021 1113.753540,734.118652 1119.111084,769.489136 
	C1121.246826,783.589294 1124.467041,797.564514 1127.913452,811.417542 
	C1132.969971,831.742188 1143.536133,849.133545 1158.322144,863.863037 
	C1169.178345,874.677795 1180.837402,884.712646 1191.342529,895.846130 
	C1201.239258,906.334778 1211.403931,916.967468 1219.127075,929.025024 
	C1233.858521,952.024292 1235.389893,976.618774 1223.278076,1001.690979 
	C1208.144409,1033.018677 1183.672119,1054.691040 1153.058105,1069.956421 
	C1145.061523,1073.943848 1136.544922,1076.887939 1128.133545,1080.655762 
	C1122.977905,1081.000000 1117.955811,1081.000000 1112.149414,1080.728516 
	C1119.223022,1066.514893 1125.962769,1052.069092 1129.993408,1036.534668 
	C1135.271606,1016.192871 1123.205688,995.761902 1102.996948,990.339905 
	C1083.213257,985.031860 1062.682495,996.902710 1056.946167,1016.900513 
	C1055.573608,1021.685852 1054.243164,1026.512695 1052.423950,1031.135620 
	C1043.868896,1052.876587 1028.787231,1069.004272 1009.000000,1081.000000 
	C977.312439,1081.000000 945.624878,1081.000000 913.257446,1080.733887 
	C888.249146,1066.274292 872.634155,1045.529419 865.354919,1018.314026 
	C859.608154,996.827881 838.900208,984.682495 818.564270,990.525757 
	C797.316467,996.631042 785.760376,1017.757141 792.981995,1039.241943 
	C797.293274,1052.068237 803.417786,1064.284058 808.688782,1076.790405 
	C809.256897,1078.138306 809.569092,1079.594238 810.000000,1081.000000 
	C804.977905,1081.000000 799.955811,1081.000000 794.466858,1081.000000 
z"/>
<path fill="#FEFEFE" opacity="1.000000" stroke="none" 
	d="
M1009.468628,1081.000000 
	C1028.787231,1069.004272 1043.868896,1052.876587 1052.423950,1031.135620 
	C1054.243164,1026.512695 1055.573608,1021.685852 1056.946167,1016.900513 
	C1062.682495,996.902710 1083.213257,985.031860 1102.996948,990.339905 
	C1123.205688,995.761902 1135.271606,1016.192871 1129.993408,1036.534668 
	C1125.962769,1052.069092 1119.223022,1066.514893 1111.682617,1080.728516 
	C1077.979126,1081.000000 1043.958252,1081.000000 1009.468628,1081.000000 
z"/>
<path fill="#FEFEFE" opacity="1.000000" stroke="none" 
	d="
M810.468628,1081.000000 
	C809.569092,1079.594238 809.256897,1078.138306 808.688782,1076.790405 
	C803.417786,1064.284058 797.293274,1052.068237 792.981995,1039.241943 
	C785.760376,1017.757141 797.316467,996.631042 818.564270,990.525757 
	C838.900208,984.682495 859.608154,996.827881 865.354919,1018.314026 
	C872.634155,1045.529419 888.249146,1066.274292 912.788818,1080.733887 
	C878.979126,1081.000000 844.958191,1081.000000 810.468628,1081.000000 
z"/>
<path fill="#080808" opacity="1.000000" stroke="none" 
	d="
M1079.502441,88.258438 
	C1076.457520,81.458839 1070.819824,85.585739 1066.151367,83.976166 
	C1066.151367,97.118118 1066.151367,109.695831 1066.151367,122.642227 
	C1061.854736,122.642227 1057.954468,122.642227 1053.699951,122.642227 
	C1053.699951,92.557381 1053.699951,62.336136 1053.699951,30.688208 
	C1067.103271,31.500616 1080.626953,31.268335 1093.752808,33.440590 
	C1104.740112,35.258915 1109.853516,47.691917 1106.573242,59.818691 
	C1104.084595,69.018410 1098.387939,75.621346 1089.818848,80.271049 
	C1098.555298,94.422279 1107.145752,108.337273 1116.206787,123.014229 
	C1111.313599,123.014229 1107.211426,123.275764 1103.176025,122.871681 
	C1101.772827,122.731186 1100.132812,121.199654 1099.284546,119.868019 
	C1092.677124,109.495827 1086.236328,99.017387 1079.502441,88.258438 
M1092.282104,46.262676 
	C1084.508667,39.618778 1075.222290,41.613358 1066.232666,41.084267 
	C1066.232666,52.592190 1066.232666,63.474678 1066.232666,74.718216 
	C1070.152588,74.718216 1073.781738,74.649612 1077.407471,74.732384 
	C1085.138672,74.908852 1089.533691,69.993912 1092.939331,64.124275 
	C1096.196777,58.509895 1097.062256,52.554119 1092.282104,46.262676 
z"/>
<path fill="#060606" opacity="1.000000" stroke="none" 
	d="
M1179.736084,47.258812 
	C1187.231201,68.870636 1187.669678,90.005936 1177.914673,110.660515 
	C1173.034546,120.993782 1164.257690,125.769737 1152.937378,125.771767 
	C1141.812500,125.773758 1133.011475,121.107368 1128.243652,111.006256 
	C1118.030151,89.368080 1118.066895,67.242180 1127.322754,45.324497 
	C1131.963257,34.336002 1140.763306,28.835222 1152.908325,28.817749 
	C1165.029419,28.800310 1173.474487,34.342484 1178.665527,45.141159 
	C1178.953247,45.739731 1179.258911,46.329762 1179.736084,47.258812 
M1139.431274,106.919777 
	C1147.575073,120.092506 1161.152588,118.422180 1167.898438,104.269226 
	C1167.969482,104.119865 1167.999756,103.951576 1168.061035,103.796913 
	C1174.058105,88.673378 1173.729004,73.147820 1170.329956,57.643612 
	C1169.332153,53.092236 1167.063965,48.483021 1164.264282,44.731594 
	C1158.023804,36.369701 1147.921021,36.634556 1141.422363,44.844551 
	C1140.093750,46.522949 1138.780396,48.371902 1138.075073,50.360386 
	C1131.429321,69.100319 1131.158447,87.772469 1139.431274,106.919777 
z"/>
<path fill="#040404" opacity="1.000000" stroke="none" 
	d="
M1301.263672,101.757767 
	C1295.146729,93.913879 1289.255737,86.345406 1282.480469,77.640839 
	C1282.480469,93.536819 1282.480469,108.030632 1282.480469,122.762367 
	C1278.193848,122.762367 1274.427124,122.762367 1270.297852,122.762367 
	C1270.297852,92.542244 1270.297852,62.196564 1270.297852,31.632393 
	C1274.171631,31.632393 1277.942139,31.632393 1282.330688,31.632393 
	C1282.330688,45.571983 1282.330688,59.423279 1282.330688,73.274574 
	C1282.692993,73.406570 1283.055176,73.538574 1283.417480,73.670578 
	C1284.673950,72.052498 1285.945312,70.445755 1287.184570,68.814568 
	C1295.036499,58.478477 1303.485107,48.527767 1310.519287,37.661686 
	C1315.310547,30.260756 1321.292358,31.165327 1328.887207,31.778811 
	C1326.449707,35.009491 1324.482666,37.616272 1322.515869,40.223186 
	C1314.899292,50.319214 1307.438354,60.538876 1299.578491,70.441818 
	C1296.959351,73.741890 1296.736328,75.820740 1299.495850,79.249489 
	C1310.858887,93.368736 1321.864746,107.775536 1333.704102,122.978348 
	C1328.191406,122.978348 1323.507080,123.119263 1318.843994,122.867744 
	C1317.826294,122.812843 1316.708496,121.495567 1315.935791,120.522202 
	C1311.073364,114.396561 1306.295410,108.203781 1301.263672,101.757767 
z"/>
<path fill="#060606" opacity="1.000000" stroke="none" 
	d="
M1344.638672,51.000576 
	C1344.638672,44.359295 1344.638672,38.217766 1344.638672,31.743603 
	C1360.873169,31.743603 1376.773438,31.743603 1392.987061,31.743603 
	C1392.987061,34.594658 1392.987061,37.519352 1392.987061,40.861862 
	C1381.286011,40.861862 1369.548218,40.861862 1357.419434,40.861862 
	C1357.419434,51.136471 1357.419434,61.016983 1357.419434,71.466469 
	C1368.053223,71.466469 1378.775391,71.466469 1389.654175,71.466469 
	C1389.654175,74.812279 1389.654175,77.594345 1389.654175,80.810699 
	C1378.950439,80.810699 1368.365601,80.810699 1357.404907,80.810699 
	C1357.404907,91.440804 1357.404907,101.646088 1357.404907,112.210007 
	C1369.509766,112.210007 1381.605103,112.210007 1393.961914,112.210007 
	C1393.961914,115.838516 1393.961914,119.117859 1393.961914,122.707474 
	C1377.734741,122.707474 1361.502075,122.707474 1344.638550,122.707474 
	C1344.638550,99.027603 1344.638550,75.263969 1344.638672,51.000576 
z"/>
<path fill="#060606" opacity="1.000000" stroke="none" 
	d="
M1206.331543,112.627441 
	C1193.097412,92.843430 1192.347046,72.018646 1201.031006,51.016651 
	C1208.604126,32.700844 1226.176147,25.167910 1245.958008,30.253969 
	C1248.203491,30.831280 1250.390503,31.635632 1252.810059,32.399567 
	C1252.810059,36.021049 1252.810059,39.646111 1252.810059,43.165359 
	C1247.649902,41.718037 1242.551270,39.853867 1237.287598,38.912125 
	C1229.140991,37.454594 1222.699463,40.896900 1217.703491,47.241989 
	C1205.698364,62.489468 1205.528931,91.351700 1217.327271,106.821457 
	C1223.886475,115.421700 1232.479370,117.987770 1243.496460,114.467674 
	C1246.605957,113.474098 1249.590820,112.090515 1252.885010,110.785980 
	C1252.885010,114.640816 1252.885010,118.106873 1252.885010,121.559875 
	C1236.934937,129.546600 1219.124268,126.212578 1206.331543,112.627441 
z"/>
<path fill="#050505" opacity="1.000000" stroke="none" 
	d="
M1447.129517,78.000053 
	C1447.129517,93.144463 1447.129517,107.788857 1447.129517,122.720291 
	C1443.127563,122.720291 1439.365967,122.720291 1435.087891,122.720291 
	C1435.087891,96.181656 1435.087891,69.463364 1435.087891,42.195755 
	C1425.708862,42.195755 1416.823486,42.195755 1407.774414,42.195755 
	C1407.774414,38.392002 1407.774414,35.142994 1407.774414,31.655113 
	C1429.968750,31.655113 1451.896118,31.655113 1474.170532,31.655113 
	C1474.170532,34.973846 1474.170532,38.210403 1474.170532,41.851810 
	C1465.353149,41.851810 1456.599365,41.851810 1447.129517,41.851810 
	C1447.129517,53.990334 1447.129517,65.745186 1447.129517,78.000053 
z"/>
<path fill="#090909" opacity="1.000000" stroke="none" 
	d="
M481.188171,75.164230 
	C489.655304,64.343430 497.888672,53.788952 506.122040,43.234478 
	C505.643158,42.533024 505.164276,41.831570 504.685394,41.130116 
	C499.116425,43.279400 493.331116,45.007938 488.052795,47.722378 
	C484.388947,49.606541 481.372498,50.615097 478.172333,47.547028 
	C474.938660,44.446884 472.720276,40.964401 475.130341,34.914265 
	C478.826141,42.924385 484.705444,41.246132 490.380615,39.752762 
	C496.314301,38.191364 502.195221,36.408886 508.040741,34.540123 
	C511.920349,33.299843 516.793701,34.863087 518.809204,38.403477 
	C520.444824,41.276405 518.430481,42.459419 516.591370,44.447250 
	C506.598602,55.248238 496.970306,66.386467 487.229431,77.419952 
	C487.170654,77.486511 487.293274,77.713249 487.509247,78.578461 
	C489.164703,77.843185 490.730377,77.176132 492.272461,76.458374 
	C503.903168,71.044792 515.965393,68.539940 528.602478,71.998337 
	C544.557007,76.364616 550.374512,92.967972 540.568115,106.299721 
	C538.161621,109.571335 534.990173,112.705818 531.478821,114.662056 
	C519.325134,121.433258 506.086090,123.712265 492.027130,121.848114 
	C493.098022,121.552139 494.187653,121.310905 495.236908,120.951683 
	C505.081940,117.581085 515.076477,114.574203 524.698303,110.653397 
	C530.002319,108.492043 533.851379,104.012482 535.688477,98.323509 
	C539.615662,86.161812 531.552002,75.079407 518.049927,75.070152 
	C499.340210,75.057327 483.941864,82.631058 472.134277,97.259613 
	C470.986023,98.682236 470.151733,100.491562 468.737091,101.528549 
	C467.308838,102.575500 465.339508,102.884293 463.607208,103.516464 
	C463.077789,101.729675 461.712738,99.664513 462.195618,98.214920 
	C463.155670,95.332932 464.754211,92.455566 466.766998,90.174644 
	C471.275696,85.065422 476.199585,80.322609 481.188171,75.164230 
M486.500000,78.999992 
	C486.633331,78.799988 486.766663,78.599991 486.899994,78.400002 
	C486.600006,78.433334 486.299988,78.466667 486.500000,78.999992 
z"/>
<path fill="#090909" opacity="1.000000" stroke="none" 
	d="
M871.239380,63.290215 
	C874.347168,61.996971 877.079346,60.768005 879.897400,59.785500 
	C883.463196,58.542347 886.388916,56.977119 884.937256,52.194984 
	C889.843811,53.220291 893.419189,55.084995 894.232117,60.220249 
	C894.692871,63.130356 894.215759,64.664253 890.715027,65.272057 
	C875.948364,67.835915 862.177124,73.277702 850.146667,82.200760 
	C845.213440,85.859772 840.635437,90.705597 837.550415,95.979416 
	C833.133118,103.530739 836.746887,110.636963 845.236755,112.889847 
	C856.710815,115.934601 868.314819,115.339470 879.933899,113.532509 
	C884.510864,112.820717 889.159241,112.136604 893.760071,112.225159 
	C895.567139,112.259956 897.332825,114.443329 899.117371,115.648224 
	C897.581482,117.070610 896.193054,119.510605 894.486938,119.757851 
	C877.578369,122.208031 860.602417,122.694016 843.970886,118.143509 
	C833.357971,115.239738 828.947632,105.724068 832.637512,95.372345 
	C835.737000,86.676941 842.176208,80.710358 849.349731,75.395226 
	C850.804810,74.317070 852.324036,73.325516 854.132446,72.073357 
	C847.940674,63.089417 850.139343,52.791130 849.473450,42.999203 
	C848.994934,35.962704 848.693481,29.290632 840.863770,25.251366 
	C846.536682,22.747313 850.633240,24.242847 854.532043,27.124943 
	C858.090820,29.755703 858.544373,33.019363 857.522949,37.243252 
	C854.968933,47.804268 855.325806,58.332523 859.176880,68.976761 
	C863.214294,67.078468 867.058105,65.271210 871.239380,63.290215 
z"/>
<path fill="#090909" opacity="1.000000" stroke="none" 
	d="
M637.528076,63.232727 
	C629.097351,63.888420 621.295593,63.863365 614.982849,57.982620 
	C620.223938,57.982620 625.265259,58.210663 630.276367,57.918987 
	C635.366089,57.622734 640.425964,56.813816 646.078125,56.162689 
	C643.514160,45.957439 648.381958,33.743813 634.801880,28.829605 
	C638.624939,25.408686 641.504700,25.185514 646.864441,27.480654 
	C650.947266,29.228951 652.413330,32.054836 652.117920,36.516403 
	C651.734619,42.306053 652.024353,48.140263 652.024353,54.691204 
	C656.699341,53.617393 661.088501,52.463776 665.539551,51.648220 
	C667.766968,51.240101 670.242065,50.964005 672.349060,51.549637 
	C673.744019,51.937363 674.684265,53.960701 675.828125,55.251797 
	C674.536743,56.148670 673.350281,57.569626 671.936035,57.852711 
	C665.431091,59.154781 658.862610,60.139244 652.974365,61.127327 
	C652.974365,71.609840 653.316589,81.749985 652.901306,91.859001 
	C652.098816,111.395088 641.972290,124.628792 624.054138,132.755188 
	C629.451050,126.077316 635.937866,120.370705 639.344299,113.200623 
	C642.942505,105.627068 644.353882,96.745644 645.337463,88.274948 
	C646.308411,79.912605 645.549561,71.349403 645.549561,62.489052 
	C643.106750,62.712574 640.548462,62.946667 637.528076,63.232727 
z"/>
<path fill="#0B0B0B" opacity="1.000000" stroke="none" 
	d="
M712.367432,91.558746 
	C705.186584,90.720047 701.719360,85.070732 704.501343,78.711937 
	C708.145203,83.918381 712.122131,82.540077 716.588013,79.866127 
	C729.254578,72.281998 742.378479,66.075653 757.780029,66.918709 
	C769.647949,67.568336 778.549194,73.488129 781.174011,82.976418 
	C784.024536,93.280815 779.888123,103.584351 769.788696,109.953728 
	C755.925781,118.696671 740.358948,119.634544 724.555237,119.063515 
	C724.360413,119.056465 724.182373,118.583107 723.616516,117.804810 
	C724.753052,117.474380 725.666931,117.156792 726.604614,116.944000 
	C736.945190,114.597313 747.416626,112.707840 757.587708,109.775757 
	C764.274475,107.848122 769.524719,103.161919 772.765747,96.813583 
	C778.875000,84.847122 771.873291,72.320671 758.440613,70.933449 
	C749.813354,70.042473 741.808594,72.488785 734.565979,76.662422 
	C726.970032,81.039680 719.951355,86.418793 712.367432,91.558746 
z"/>
<path fill="#0A0A0A" opacity="1.000000" stroke="none" 
	d="
M584.504883,32.448936 
	C592.557068,35.365124 595.522156,41.373352 593.765381,49.442036 
	C591.158203,61.416969 588.503662,73.402802 586.599854,85.498978 
	C585.863220,90.178772 587.120789,95.172432 587.469849,100.023102 
	C588.060425,100.098907 588.651001,100.174721 589.241577,100.250534 
	C593.258179,90.468666 597.274780,80.686798 601.291321,70.904930 
	C601.670654,70.971344 602.049988,71.037758 602.429260,71.104172 
	C602.481384,72.068268 602.773254,73.092789 602.547913,73.986961 
	C600.642578,81.547920 598.445557,89.040886 596.741211,96.645058 
	C595.625244,101.624382 595.293335,106.774834 594.371277,111.804848 
	C594.076538,113.413063 593.361389,115.715004 592.213623,116.190323 
	C590.935669,116.719582 588.315735,116.060226 587.396851,114.973694 
	C585.534058,112.771019 583.858887,110.086548 583.102173,107.327568 
	C579.867920,95.535065 580.967773,83.562241 582.434814,71.649429 
	C583.389038,63.900642 585.159546,56.223392 585.648926,48.456421 
	C585.980774,43.188747 584.724121,37.821007 584.504883,32.448936 
z"/>
<path fill="#FAFAFA" opacity="1.000000" stroke="none" 
	d="
M1092.538574,46.544800 
	C1097.062256,52.554119 1096.196777,58.509895 1092.939331,64.124275 
	C1089.533691,69.993912 1085.138672,74.908852 1077.407471,74.732384 
	C1073.781738,74.649612 1070.152588,74.718216 1066.232666,74.718216 
	C1066.232666,63.474678 1066.232666,52.592190 1066.232666,41.084267 
	C1075.222290,41.613358 1084.508667,39.618778 1092.538574,46.544800 
z"/>
<path fill="#FCFCFC" opacity="1.000000" stroke="none" 
	d="
M1139.240723,106.599762 
	C1131.158447,87.772469 1131.429321,69.100319 1138.075073,50.360386 
	C1138.780396,48.371902 1140.093750,46.522949 1141.422363,44.844551 
	C1147.921021,36.634556 1158.023804,36.369701 1164.264282,44.731594 
	C1167.063965,48.483021 1169.332153,53.092236 1170.329956,57.643612 
	C1173.729004,73.147820 1174.058105,88.673378 1168.061035,103.796913 
	C1167.999756,103.951576 1167.969482,104.119865 1167.898438,104.269226 
	C1161.152588,118.422180 1147.575073,120.092506 1139.240723,106.599762 
z"/>
<path fill="#FFFFFF" opacity="1.000000" stroke="none" 
	d="
M486.250000,78.750000 
	C486.299988,78.466667 486.600006,78.433334 486.899994,78.399994 
	C486.766663,78.599991 486.633331,78.799988 486.250000,78.750000 
z"/>
</svg>