<svg version="1.1" id="Layer_1" xmlns="http://www.w3.org/2000/svg" xmlns:xlink="http://www.w3.org/1999/xlink" x="0px" y="0px"
	 width="100%" viewBox="0 0 1024 576" enable-background="new 0 0 1024 576" xml:space="preserve">
<path fill="#000000" opacity="1.000000" stroke="none" 
	d="
M552.468628,577.000000 
	C545.650574,570.924377 543.879028,563.739929 544.422180,554.868286 
	C546.019104,528.786255 546.696167,502.647919 547.731689,476.531555 
	C547.777832,475.366150 547.566589,474.130615 547.880432,473.044922 
	C551.044434,462.099701 546.343567,454.811981 538.120911,447.764008 
	C523.332397,435.088135 509.421722,421.388489 495.132599,408.129089 
	C494.176727,407.242126 493.352722,406.097351 491.776794,406.026581 
	C489.953094,406.800507 489.401855,408.665344 488.553253,410.220673 
	C478.420746,428.791229 468.088379,447.258942 458.329071,466.024353 
	C453.186340,475.912933 445.623901,480.251648 434.647461,480.178833 
	C404.821106,479.980865 374.992584,480.141388 345.165131,480.069183 
	C333.699982,480.041412 325.682068,474.610748 322.744110,465.217834 
	C318.653870,452.140686 328.074738,438.797241 341.794647,438.701202 
	C366.955353,438.525024 392.121735,438.374878 417.277161,438.766449 
	C423.760895,438.867401 426.979248,436.589630 429.933441,431.029785 
	C456.742828,380.574463 483.849762,330.277252 510.858582,279.927826 
	C511.794830,278.182495 512.993469,276.532623 513.223389,273.939484 
	C509.091492,272.658417 504.710175,274.010803 500.607300,273.235443 
	C489.526184,271.141296 483.475891,275.895355 478.959534,285.944672 
	C473.308563,298.518524 466.072296,310.390930 459.329010,322.459229 
	C454.433136,331.221222 446.018494,335.054840 436.617065,333.226837 
	C427.727020,331.498260 421.437836,324.440216 420.214783,314.739868 
	C419.719727,310.813660 420.606720,307.089508 422.457794,303.662506 
	C433.540985,283.144012 444.624390,262.625153 455.837860,242.177780 
	C459.605988,235.306732 465.892487,231.854614 473.524506,231.803436 
	C502.184357,231.611313 530.846252,231.715576 559.507385,231.723465 
	C564.351257,231.724792 568.521240,233.662262 572.540283,236.195084 
	C595.934509,250.938034 619.361450,265.629028 642.783936,280.327087 
	C644.166321,281.194550 645.376099,282.480103 647.890686,282.314545 
	C651.638062,275.320801 655.545105,268.019592 659.461548,260.723480 
	C661.509399,256.908447 663.362366,252.968506 665.672302,249.318390 
	C671.652283,239.868866 683.856018,236.806870 693.298340,242.185425 
	C702.987915,247.704819 706.599426,259.292969 701.424744,269.389526 
	C692.611877,286.584839 683.615540,303.686676 674.615662,320.785370 
	C667.318787,334.648560 655.541504,337.878143 642.066223,329.555603 
	C625.341675,319.226379 608.739746,308.698578 592.098389,298.235016 
	C585.830017,294.293701 585.847717,294.266602 582.478271,300.548431 
	C567.440247,328.584320 552.449097,356.645569 537.299072,384.620789 
	C535.575867,387.802826 535.754761,389.659576 538.539062,392.191925 
	C553.205322,405.530975 567.556091,419.216736 582.219055,432.559479 
	C588.089539,437.901459 590.719604,444.112518 590.311523,452.028442 
	C588.580444,485.610352 586.838379,519.194092 585.531311,552.793945 
	C585.184082,561.719910 584.632935,570.115295 577.184326,576.720703 
	C568.979065,577.000000 560.958191,577.000000 552.468628,577.000000 
z"/>
<path fill="#000000" opacity="1.000000" stroke="none" 
	d="
M630.756470,206.560547 
	C619.719299,224.596649 601.369934,231.857285 582.160767,226.036774 
	C564.919250,220.812469 553.168396,203.941956 553.731140,185.220703 
	C554.371887,163.898911 573.147766,145.873276 594.607422,145.977524 
	C616.875427,146.085678 634.899292,163.653824 635.449219,185.520645 
	C635.633972,192.865036 634.324707,199.740356 630.756470,206.560547 
z"/>
<path fill="#000000" opacity="1.000000" stroke="none" 
	d="
M677.709106,30.353685 
	C680.941345,36.500336 683.992310,42.324329 687.043335,48.148327 
	C687.336182,48.059982 687.629028,47.971638 687.921875,47.883293 
	C687.921875,39.272942 687.911377,30.662571 687.927979,22.052254 
	C687.933350,19.289957 687.900696,16.596468 691.968140,16.708267 
	C695.980652,16.818556 695.299438,19.658772 695.307983,22.032879 
	C695.354065,34.849110 695.390686,47.666138 695.271606,60.481415 
	C695.252502,62.534607 696.496948,65.444878 693.047913,66.247772 
	C689.555359,67.060791 687.535217,65.425171 685.985168,62.317818 
	C682.124084,54.577198 678.014648,46.960201 673.982544,39.305325 
	C673.226257,37.869484 672.366760,36.487965 670.994019,34.109566 
	C669.955750,41.381302 670.553650,47.632092 670.480469,53.851665 
	C670.445251,56.843880 670.438293,59.836643 670.446899,62.829079 
	C670.452881,64.912880 669.902039,66.349403 667.389221,66.376740 
	C664.935303,66.403427 663.655457,65.528275 663.660828,62.933460 
	C663.690735,48.619396 663.671875,34.305233 663.687134,19.991127 
	C663.688843,18.388773 664.043091,16.996538 666.048279,16.810736 
	C668.297607,16.602310 670.356445,16.649061 671.603271,19.048433 
	C673.520996,22.739002 675.547485,26.373026 677.709106,30.353685 
z"/>
<path fill="#000000" opacity="1.000000" stroke="none" 
	d="
M587.117920,58.828659 
	C587.106201,46.380005 587.179688,34.408459 587.035339,22.439533 
	C586.985535,18.308720 588.261902,16.218769 592.767944,16.628778 
	C596.066223,16.928892 599.415894,16.609240 602.737427,16.720465 
	C608.413940,16.910551 613.844238,17.797815 616.301941,23.944212 
	C618.761719,30.095873 617.009033,35.869667 612.486572,39.886234 
	C608.580444,43.355442 609.287354,45.602722 611.623657,49.288143 
	C614.945923,54.528603 618.804382,59.544712 621.191162,65.573013 
	C615.865967,67.361649 612.356384,66.388611 609.857727,61.696838 
	C607.518921,57.305180 604.638184,53.203960 602.046814,48.944019 
	C600.910095,47.075340 599.477051,45.820694 597.168701,46.402020 
	C594.616821,47.044662 595.345215,49.251945 595.289124,50.946819 
	C595.179077,54.268459 595.271179,57.596291 595.238403,60.921150 
	C595.212097,63.592148 595.558411,66.327499 591.416138,66.431107 
	C587.047729,66.540382 587.183472,63.712730 587.123230,60.803020 
	C587.112915,60.304451 587.119080,59.805546 587.117920,58.828659 
M601.001221,39.657322 
	C604.128418,39.497749 606.251160,37.656387 607.807190,35.219574 
	C609.549133,32.491669 610.735229,29.524708 608.627075,26.407997 
	C606.824646,23.743189 600.388550,22.014570 597.176086,23.462923 
	C593.838196,24.967861 595.684692,28.118910 595.304016,30.536247 
	C595.074707,31.992144 595.411682,33.530571 595.249451,35.004990 
	C594.829285,38.823502 596.625122,40.151646 601.001221,39.657322 
z"/>
<path fill="#000000" opacity="1.000000" stroke="none" 
	d="
M641.813538,61.635986 
	C647.696350,59.765991 649.543518,57.284275 649.632446,50.781075 
	C649.764587,41.116489 649.685852,31.448961 649.687073,21.782686 
	C649.687439,19.198208 649.526672,16.676035 653.360107,16.698776 
	C657.054382,16.720697 657.265198,19.084160 657.181274,21.749765 
	C656.835815,32.727180 658.184326,43.776806 656.376404,54.677692 
	C654.390564,66.651451 641.920349,71.984062 631.478516,65.715050 
	C625.935425,62.387154 625.230530,56.784630 625.020142,51.349297 
	C624.627197,41.198055 624.895874,31.021896 624.842773,20.856348 
	C624.827698,17.960443 626.024109,16.655485 629.044250,16.667772 
	C632.231079,16.680738 633.016357,18.385527 633.021179,21.100893 
	C633.039795,31.599840 632.980347,42.101059 633.187561,52.596741 
	C633.312012,58.900005 635.131592,60.668396 641.813538,61.635986 
z"/>
<path fill="#000000" opacity="1.000000" stroke="none" 
	d="
M476.743317,59.802780 
	C476.634369,56.173985 478.414886,54.387966 481.368164,53.864281 
	C485.556000,53.121677 489.310425,53.937637 492.056702,57.573280 
	C495.507690,62.141876 497.819336,61.991199 500.822479,57.051117 
	C505.146057,49.938961 501.092804,42.341446 492.758911,42.381870 
	C483.934875,42.424671 477.449005,47.231251 471.933044,53.605663 
	C470.957397,54.733173 470.212036,56.058434 469.251831,57.201206 
	C468.298126,58.336319 466.988373,58.718571 465.679810,57.942730 
	C464.496002,57.240856 464.697021,55.921276 464.815338,54.772900 
	C465.020111,52.784374 466.532410,51.616573 467.779144,50.294571 
	C474.527649,43.138927 480.659760,35.484550 486.207733,27.367558 
	C487.310181,25.754568 488.696320,24.230591 488.883423,21.742958 
	C485.746155,21.891010 483.131348,23.220476 480.441986,24.360846 
	C475.229889,26.570959 471.931793,24.104507 472.214661,17.750010 
	C477.938202,21.655598 483.353241,18.551579 488.824219,17.318020 
	C491.222778,16.777206 493.394531,16.380871 495.294434,18.366665 
	C497.033356,20.184124 497.581116,21.915710 495.366302,23.879990 
	C489.853271,28.769367 486.176880,35.198750 480.579590,41.316723 
	C484.419800,40.426315 487.320801,39.596493 490.277679,39.097744 
	C498.890137,37.645061 505.811310,41.602394 507.505280,48.805214 
	C509.285431,56.374237 504.959778,63.210270 496.659088,65.915375 
	C491.759094,67.512215 486.869019,67.713943 482.017334,65.706787 
	C479.462463,64.649834 477.286774,63.223679 476.743317,59.802780 
M484.587311,58.033279 
	C483.337189,57.410610 482.079895,57.038952 481.055817,58.375374 
	C480.437439,59.182377 480.807343,60.041611 481.445496,60.567371 
	C483.360779,62.145412 485.442688,63.247772 488.050659,62.306889 
	C488.091858,59.976849 486.482086,59.284279 484.587311,58.033279 
z"/>
<path fill="#000000" opacity="1.000000" stroke="none" 
	d="
M384.398071,31.534401 
	C383.660950,32.021069 383.156555,32.140968 382.747406,32.407242 
	C380.199127,34.065655 375.282471,31.606071 374.635803,35.657436 
	C373.756958,41.163189 373.593384,46.947277 375.389130,52.458855 
	C375.900665,54.028889 377.550507,54.414680 378.903503,55.028973 
	C380.875580,55.924355 382.891174,56.764641 384.308777,58.504307 
	C385.438538,59.890743 386.095520,61.498478 384.784088,63.013130 
	C383.494812,64.502151 382.041870,63.520050 380.749573,62.748363 
	C378.769470,61.565975 377.046326,59.907825 374.288513,59.378742 
	C370.545807,65.453842 364.958588,66.664513 358.443604,64.330292 
	C355.284912,63.198586 352.724152,61.129208 353.230347,57.357780 
	C353.724884,53.673355 356.581909,52.258896 359.957092,51.729973 
	C360.120728,51.704334 360.294281,51.731621 360.454498,51.695538 
	C363.426270,51.026367 367.798553,53.349613 369.216705,50.231899 
	C371.112762,46.063606 369.796051,41.061478 369.538513,36.434986 
	C369.406097,34.056206 367.342072,34.572395 365.664154,34.600517 
	C358.621979,34.718536 356.021637,33.649090 353.594574,29.583912 
	C356.724976,28.802582 359.418976,30.819702 362.287140,30.603937 
	C364.815674,30.413723 368.340759,31.593306 369.261536,28.377546 
	C370.182587,25.160807 370.541565,21.403028 367.587067,18.554523 
	C367.017365,18.005260 366.395752,17.509876 365.625793,16.839655 
	C367.794800,14.354736 370.073853,14.566635 372.444061,15.750761 
	C374.952972,17.004158 375.179932,18.968714 374.689270,21.621588 
	C373.503113,28.034882 373.861176,28.226814 380.112671,27.861074 
	C382.398132,27.727360 385.031403,27.585436 384.398071,31.534401 
M361.308380,55.547546 
	C359.924744,56.224087 357.882690,56.087666 357.780914,58.359135 
	C362.496582,62.138763 366.386261,61.537926 368.683807,56.675907 
	C366.681976,55.133747 364.356812,55.300983 361.308380,55.547546 
z"/>
<path fill="#000000" opacity="1.000000" stroke="none" 
	d="
M416.042908,27.910986 
	C414.498322,38.074730 413.910980,47.862335 414.368652,57.689144 
	C414.603912,62.739796 417.114777,64.673141 422.326660,64.119331 
	C429.793427,63.325920 436.330597,60.123257 442.608124,56.227390 
	C444.371979,55.132732 445.873718,53.472889 448.561401,52.995903 
	C448.494965,56.140255 446.645111,57.942291 444.931549,59.494198 
	C437.840729,65.916008 429.597961,69.343567 419.846710,68.340660 
	C414.090607,67.748650 411.684387,65.300987 410.651245,59.651173 
	C408.705231,49.009724 411.304413,38.412430 410.794769,27.778299 
	C410.600098,23.716623 410.829193,19.788731 406.647980,17.027321 
	C409.127991,14.501811 411.425812,15.222257 413.595428,16.430002 
	C415.724457,17.615171 417.275177,19.340410 416.930267,22.057089 
	C416.700165,23.869287 416.386719,25.670897 416.042908,27.910986 
z"/>
<path fill="#000000" opacity="1.000000" stroke="none" 
	d="
M340.677856,40.745949 
	C340.582794,44.741230 340.582794,48.310322 340.582794,52.176804 
	C342.862213,48.950546 342.717896,44.742832 345.840790,41.896194 
	C347.420258,43.966576 346.357269,45.733082 346.041718,47.348427 
	C345.088470,52.228458 343.772858,57.039867 343.988800,62.088295 
	C344.059723,63.746086 344.097076,65.639320 341.930206,66.056335 
	C339.905731,66.445938 338.899109,64.882683 338.224152,63.357986 
	C335.451233,57.093922 335.159180,50.475773 336.001770,43.823196 
	C336.645844,38.737896 337.643707,33.691402 338.642700,28.659111 
	C339.336426,25.164368 338.703705,21.864403 337.376434,18.605789 
	C343.031921,17.868683 346.282867,21.465641 344.601257,26.427895 
	C343.054199,30.993170 341.535522,35.546844 340.677856,40.745949 
z"/>
</svg>