<svg version="1.1" id="Layer_1" xmlns="http://www.w3.org/2000/svg" xmlns:xlink="http://www.w3.org/1999/xlink" x="0px" y="0px"
	 width="100%" viewBox="0 0 1024 576" enable-background="new 0 0 1024 576" xml:space="preserve">
<path fill="#000000" opacity="1.000000" stroke="none" 
	d="
M537.468628,577.000000 
	C538.334106,572.592346 537.713928,568.059021 537.567932,563.614258 
	C537.424988,559.258301 538.930298,557.798096 543.299011,557.838196 
	C562.432678,558.014099 581.568848,557.916931 600.704163,557.907043 
	C611.852539,557.901245 623.000854,557.855835 634.149231,557.862976 
	C639.366333,557.866272 640.416199,559.185364 638.978271,564.143738 
	C637.431580,569.477173 634.114075,573.533081 629.242981,576.773865 
	C598.645752,577.000000 568.291565,577.000000 537.468628,577.000000 
z"/>
<path fill="#000000" opacity="1.000000" stroke="none" 
	d="
M521.656006,405.418152 
	C520.277283,404.251251 519.451904,402.865143 516.919678,401.861816 
	C512.507812,406.603149 508.240448,411.489288 503.660706,416.062531 
	C472.063873,447.614471 440.391663,479.090912 408.770508,510.618530 
	C403.238434,516.134155 397.165863,520.110168 388.850311,518.657593 
	C380.570648,517.211304 374.799713,512.656860 372.225616,504.621277 
	C369.653412,496.591675 371.723480,489.447174 377.555084,483.511810 
	C389.231354,471.627686 401.020050,459.853912 412.777313,448.049530 
	C438.406708,422.317383 464.028137,396.577240 489.708252,370.895813 
	C492.181366,368.422607 493.424377,366.217438 492.929626,362.269592 
	C491.236603,348.760040 495.395386,336.975494 505.117920,327.272034 
	C518.207458,314.208221 531.256287,301.103424 544.385132,288.079315 
	C545.907166,286.569427 547.827271,285.460876 550.476135,283.485077 
	C545.685730,282.178619 542.610474,282.263611 539.546753,282.263214 
	C515.886719,282.260101 492.226593,282.299103 468.566711,282.240204 
	C460.262939,282.219543 453.707794,278.761139 449.578125,271.431610 
	C445.542999,264.269867 445.884674,257.052429 450.227966,250.125183 
	C454.055023,244.021225 459.791229,240.760666 466.910034,240.745819 
	C514.896301,240.645660 562.886169,240.380951 610.867798,240.864075 
	C627.509521,241.031631 639.737549,249.995590 646.086426,265.356812 
	C652.801453,281.603973 650.142456,297.095093 637.827393,309.742188 
	C614.349304,333.853485 590.318054,357.426178 566.520508,381.226532 
	C561.376526,386.371094 561.375916,386.387390 566.688354,391.703888 
	C578.583313,403.607941 590.395447,415.597015 602.434265,427.354065 
	C607.151733,431.961151 609.414673,437.155334 609.382263,443.773651 
	C609.254883,469.765656 609.383057,495.758789 609.361023,521.751465 
	C609.349731,535.091248 600.728088,544.311707 588.485229,544.227112 
	C576.781555,544.146240 567.837219,534.608948 567.781799,521.839111 
	C567.687805,500.178955 567.679260,478.517548 567.820923,456.857910 
	C567.845642,453.071808 566.772888,450.317017 564.041260,447.635162 
	C549.893982,433.745300 535.928406,419.670288 521.656006,405.418152 
z"/>
<path fill="#000000" opacity="1.000000" stroke="none" 
	d="
M637.390259,198.621643 
	C646.507019,181.147934 662.797791,172.878693 681.847168,175.800949 
	C698.185547,178.307327 711.241882,191.551178 714.718079,209.144150 
	C718.958740,230.605515 703.511353,252.720871 681.770996,256.255859 
	C665.986267,258.822479 652.640869,254.098007 642.681274,241.680038 
	C632.323914,228.766052 630.867310,214.248367 637.390259,198.621643 
z"/>
<path fill="#000000" opacity="1.000000" stroke="none" 
	d="
M398.300781,559.507568 
	C400.721771,562.487000 398.333527,563.663330 396.651398,564.840393 
	C389.051544,570.158264 378.223938,569.697815 371.281525,562.919128 
	C352.460480,544.542053 333.973145,525.823547 315.300262,507.294067 
	C313.220612,505.230438 313.589752,503.711578 315.521698,501.895721 
	C318.432159,499.160126 321.368408,496.422760 324.001587,493.429199 
	C326.778656,490.272125 328.902191,490.616150 331.765289,493.480255 
	C347.419006,509.139435 363.231598,524.639771 378.971863,540.212524 
	C385.363190,546.535889 391.709869,552.904419 398.300781,559.507568 
z"/>
<path fill="#000000" opacity="1.000000" stroke="none" 
	d="
M621.176575,66.020439 
	C619.355652,64.514473 619.682617,62.759861 619.678833,61.138096 
	C619.648254,47.974617 619.676880,34.811016 619.657898,21.647491 
	C619.654114,18.988930 619.673706,16.682240 623.439209,16.661673 
	C627.122742,16.641548 627.377014,18.770849 627.341797,21.529741 
	C627.278015,26.514404 627.323730,31.500465 627.323730,37.349033 
	C630.517273,35.404427 631.804321,32.675198 633.597351,30.522335 
	C636.153320,27.453491 638.642090,24.292713 640.805908,20.942747 
	C643.344482,17.012480 646.578735,15.750536 650.957642,17.183990 
	C651.928955,19.012907 650.500488,19.983345 649.647827,21.117397 
	C645.543640,26.576067 641.441956,32.036953 637.289062,37.458519 
	C636.097839,39.013676 635.190674,40.455067 636.659180,42.350746 
	C642.248230,49.565567 647.803162,56.806858 654.152771,65.053970 
	C657.553406,54.149818 660.604370,44.390873 663.638733,34.626732 
	C665.070923,30.017975 666.541626,25.419271 667.858826,20.777414 
	C668.632385,18.051287 669.933960,16.588816 673.082275,16.610035 
	C676.021729,16.629847 677.181641,17.989271 677.949768,20.502218 
	C682.278931,34.664928 686.692444,48.801815 691.045044,62.957413 
	C691.280457,63.722919 691.224976,64.577866 691.300964,65.351051 
	C685.352051,67.410583 684.049194,67.024513 682.517639,61.430542 
	C681.382263,57.283566 679.220337,55.616310 675.032227,56.121475 
	C673.225830,56.339359 671.349609,56.332344 669.542480,56.115681 
	C665.844482,55.672318 663.859253,57.315342 663.333069,60.850437 
	C662.626038,65.600235 659.877380,66.142563 655.358704,66.612816 
	C647.365417,67.444664 642.599548,64.290260 638.548401,58.028870 
	C635.588013,53.453304 631.862549,49.372711 627.297729,45.242237 
	C627.297729,50.433403 627.093994,55.635048 627.360352,60.812508 
	C627.585083,65.181274 626.092651,67.129112 621.176575,66.020439 
M670.892395,49.681499 
	C673.155029,49.525208 675.496948,50.157890 678.134521,48.838314 
	C676.860474,43.031048 674.977905,37.384342 672.580444,30.939587 
	C670.863647,36.531437 669.439636,41.250919 667.959595,45.952763 
	C667.305847,48.029461 667.375793,49.588036 670.892395,49.681499 
z"/>
<path fill="#000000" opacity="1.000000" stroke="none" 
	d="
M753.951538,16.678013 
	C754.776611,16.677565 755.134033,16.596621 755.438049,16.689812 
	C758.155212,17.522804 763.220825,14.457900 763.037659,20.038033 
	C762.866028,25.265505 758.004150,22.641073 755.164368,23.139519 
	C753.065918,23.507849 750.847961,23.313745 748.691589,23.205378 
	C745.624451,23.051235 744.257385,24.153145 744.112610,27.470676 
	C743.662109,37.797562 743.539307,37.791195 754.055542,37.830566 
	C755.219604,37.834927 756.383545,37.861828 757.547546,37.873245 
	C759.886841,37.896187 761.338745,38.753407 761.256897,41.410534 
	C761.177002,44.002438 759.473511,44.266930 757.512878,44.295357 
	C756.348877,44.312233 755.184570,44.319321 754.020447,44.321323 
	C744.217041,44.338169 741.927246,47.411087 744.219421,57.158100 
	C744.727844,59.320248 746.043945,59.690239 747.831665,59.697514 
	C751.656860,59.713078 755.482117,59.735661 759.307312,59.730606 
	C761.645447,59.727516 763.710938,60.048889 763.844482,63.045696 
	C763.984802,66.194244 761.877075,66.408867 759.534851,66.402779 
	C753.214844,66.386353 746.892822,66.312347 740.575439,66.444351 
	C737.388916,66.510933 736.026855,65.190224 736.034790,62.047016 
	C736.069275,48.409279 736.075684,34.771240 736.015625,21.133652 
	C736.000183,17.629858 737.688599,16.516386 740.987000,16.653162 
	C745.137573,16.825281 749.301147,16.684206 753.951538,16.678013 
z"/>
<path fill="#000000" opacity="1.000000" stroke="none" 
	d="
M582.998779,34.512062 
	C579.463074,23.958405 584.314270,16.516640 594.897278,15.525654 
	C598.409363,15.196788 601.882080,15.480533 605.322937,16.024639 
	C608.004578,16.448687 609.475403,18.107315 608.871155,20.980335 
	C608.208069,24.133478 606.058105,22.852110 604.152222,22.527185 
	C600.918335,21.975855 597.740173,20.746389 594.370361,22.233040 
	C588.741333,24.716331 587.716309,29.751764 592.572998,33.484467 
	C596.643250,36.612633 601.379028,38.863811 605.530212,41.899742 
	C613.890625,48.014065 614.535339,58.491554 607.142944,64.520401 
	C603.879761,67.181656 599.894226,67.688339 595.924133,68.159256 
	C592.387085,68.578812 588.976685,67.703392 585.578125,66.899582 
	C581.131775,65.847954 580.101990,63.212254 581.959656,59.111557 
	C585.073792,58.671318 587.510803,60.483345 590.228455,61.017746 
	C592.878296,61.538811 595.484863,62.030766 598.110413,61.294155 
	C600.760315,60.550735 603.093750,59.266521 603.787170,56.280495 
	C604.498779,53.216019 603.578308,50.564671 601.063538,48.775845 
	C598.089783,46.660587 594.917908,44.818520 591.790649,42.926102 
	C588.345642,40.841343 585.007935,38.668533 582.998779,34.512062 
z"/>
<path fill="#000000" opacity="1.000000" stroke="none" 
	d="
M294.419983,20.405783 
	C294.373474,22.284891 294.373474,23.769545 294.373474,25.594345 
	C298.771271,26.501684 303.047882,25.611694 307.287109,25.726017 
	C309.280334,25.779770 311.298309,25.654301 313.259583,25.931559 
	C314.996399,26.177086 316.628845,27.184015 316.242676,29.217745 
	C315.887817,31.086769 314.180023,31.043278 312.604340,30.765343 
	C307.821075,29.921638 302.998901,30.051092 298.169464,30.121990 
	C295.251587,30.164825 294.124115,31.421188 293.935669,34.351036 
	C293.671814,38.453415 295.167786,42.210045 295.681091,46.149399 
	C297.011108,56.356750 289.666687,68.297813 279.974823,71.340034 
	C279.207428,71.580910 278.371887,71.881874 277.496155,70.686554 
	C281.353271,66.149330 287.425140,63.044590 288.618500,56.001408 
	C283.178406,54.400379 279.107178,51.604588 278.683105,45.553757 
	C278.291687,39.969685 280.764862,36.766720 286.238617,35.689175 
	C289.463074,35.054420 289.463074,35.054417 289.007874,30.780552 
	C282.165924,30.807137 275.726471,32.696621 269.308411,34.887680 
	C264.205139,36.629890 261.056976,33.808701 261.385193,27.880243 
	C270.160034,31.788460 278.541321,27.382124 287.083984,26.617807 
	C289.967957,26.359776 290.658356,21.150188 288.420349,17.832588 
	C287.611511,16.633558 286.437073,15.681148 285.290161,14.468967 
	C287.472748,11.796914 289.766937,12.755939 292.036896,13.805601 
	C294.807709,15.086867 295.421600,17.251541 294.419983,20.405783 
M289.676392,45.449959 
	C289.707520,42.799294 289.170349,40.193501 286.124786,39.866325 
	C283.861633,39.623199 282.689056,41.679199 282.414185,43.733387 
	C282.047150,46.476864 283.299774,48.744713 285.915527,49.544361 
	C288.442749,50.316925 289.368225,48.412720 289.676392,45.449959 
z"/>
<path fill="#000000" opacity="1.000000" stroke="none" 
	d="
M710.001526,16.668434 
	C715.658569,16.681520 720.816223,16.716400 725.973511,16.690912 
	C728.312195,16.679358 729.852051,17.428942 729.830139,20.079403 
	C729.807861,22.768005 728.163269,23.228346 725.881409,23.376604 
	C715.320557,24.062794 715.322571,24.109108 715.311707,34.546658 
	C715.302368,43.530750 715.272156,52.514915 715.301880,61.498886 
	C715.310852,64.219620 715.118042,66.411255 711.428345,66.414520 
	C707.660461,66.417862 707.646973,64.097633 707.650513,61.448162 
	C707.665344,50.467625 707.512878,39.484650 707.710693,28.507776 
	C707.780457,24.639919 706.602722,22.912420 702.608032,23.330753 
	C700.634155,23.537455 698.619141,23.357275 696.622864,23.343729 
	C694.601562,23.330013 692.990967,22.849440 692.921631,20.356218 
	C692.851624,17.838270 694.043030,16.702177 696.525574,16.710241 
	C700.850952,16.724291 705.176514,16.683435 710.001526,16.668434 
z"/>
<path fill="#000000" opacity="1.000000" stroke="none" 
	d="
M497.998657,60.174583 
	C500.932831,63.461563 498.546021,64.671005 496.152252,65.074547 
	C487.201477,66.583473 478.217712,66.332413 469.432556,64.049690 
	C463.535675,62.517460 461.087646,56.467667 463.396851,50.355473 
	C464.298920,47.967842 465.575989,45.508526 467.630951,44.293167 
	C473.351532,40.909931 473.676575,36.045677 472.601196,30.352476 
	C472.048248,27.425243 471.786194,24.386456 471.869019,21.411341 
	C471.955597,18.303345 469.896301,16.310072 468.308014,14.021173 
	C474.170044,11.612520 478.111969,14.577087 477.521576,20.374849 
	C477.004089,25.456608 476.331390,30.565435 478.090790,35.557774 
	C483.442993,34.723186 489.152313,31.770664 492.453491,28.187483 
	C495.199280,28.684490 497.111816,30.226898 497.044617,33.123322 
	C496.975525,36.102551 494.225342,35.845024 492.215790,36.382748 
	C483.926819,38.600719 476.083618,41.731365 469.826843,47.872471 
	C467.519592,50.137081 465.424255,52.804279 466.615784,56.257473 
	C467.901276,59.982990 471.392700,60.304913 474.784332,60.819309 
	C482.476562,61.985970 489.987946,59.176640 497.998657,60.174583 
z"/>
<path fill="#000000" opacity="1.000000" stroke="none" 
	d="
M366.406281,15.710044 
	C369.752167,19.536699 366.699646,24.197243 368.873779,28.009678 
	C371.431183,28.834110 373.712006,27.200842 376.147003,27.181681 
	C377.877625,27.168062 379.751526,27.465784 379.974548,29.522900 
	C380.180389,31.421595 378.366119,31.764704 376.923065,32.168270 
	C368.284088,34.584244 368.026917,34.592918 368.412506,43.807911 
	C368.857483,54.443153 366.694244,63.688606 356.904022,69.630386 
	C355.559875,70.446167 354.290863,71.833961 352.467255,70.979561 
	C351.976379,70.202255 352.269135,69.577820 352.797852,69.182770 
	C363.601929,61.110092 363.780151,49.405495 363.629883,37.587311 
	C363.588257,34.314419 361.618591,34.469284 359.166412,34.857273 
	C354.839233,35.541931 350.809235,34.861164 347.718842,30.697060 
	C350.443726,30.697060 353.171265,30.771208 355.892731,30.674942 
	C358.320862,30.589056 361.534088,31.235603 362.468597,28.410013 
	C363.556641,25.120176 363.436218,21.500351 360.935699,18.504028 
	C360.112946,17.518135 358.520905,17.237160 358.269775,15.321359 
	C360.834473,12.567698 363.459106,13.988263 366.406281,15.710044 
z"/>
<path fill="#000000" opacity="1.000000" stroke="none" 
	d="
M340.669006,38.550621 
	C341.962402,40.460907 341.057129,42.173519 340.720947,43.932541 
	C339.697144,49.289791 337.206543,54.324413 337.242950,59.917858 
	C337.252106,61.327335 336.791840,62.627155 335.214966,62.937309 
	C333.526184,63.269485 332.333649,62.286324 331.492004,60.976009 
	C329.337341,57.621532 329.081543,53.730892 328.975769,49.954773 
	C328.869568,46.163719 329.377563,42.349934 329.702911,38.553528 
	C330.288086,31.724733 332.963745,25.061037 330.549103,17.937208 
	C336.121399,18.810259 338.146698,22.078875 336.775177,27.337593 
	C334.891815,34.558826 332.596680,41.695873 333.281250,49.317253 
	C333.338379,49.953178 333.431030,50.585911 333.622742,52.182343 
	C336.441986,47.242958 337.229034,42.236042 340.669006,38.550621 
z"/>
<path fill="#000000" opacity="1.000000" stroke="none" 
	d="
M439.048889,43.066650 
	C429.510223,43.269791 420.359985,43.396687 411.210419,43.359280 
	C407.518250,43.344185 403.907501,43.804600 400.316101,44.513733 
	C394.238251,45.713840 391.130249,42.354733 392.737732,35.626892 
	C398.991058,41.845043 406.599579,39.451477 413.822937,39.246506 
	C420.632355,39.053284 427.436981,38.201370 434.232819,38.311241 
	C436.326111,38.345081 441.497528,37.212574 439.048889,43.066650 
z"/>
</svg>