<svg version="1.1" id="Layer_1" xmlns="http://www.w3.org/2000/svg" xmlns:xlink="http://www.w3.org/1999/xlink" x="0px" y="0px"
	 width="100%" viewBox="0 0 1024 576" enable-background="new 0 0 1024 576" xml:space="preserve">
<path fill="#000000" opacity="1.000000" stroke="none" 
	d="
M327.468658,577.000000 
	C327.837616,574.222534 327.683380,571.430786 327.288055,568.593384 
	C326.429596,562.431519 327.092102,561.699463 333.418091,561.696106 
	C390.391327,561.665955 447.364777,561.741943 504.337738,561.603088 
	C571.294189,561.439941 638.250122,561.064209 705.206482,560.867126 
	C712.774597,560.844849 718.132202,557.207214 722.481201,551.542725 
	C723.586548,550.103088 724.379150,548.419495 725.281799,546.828796 
	C728.445801,541.253052 734.039307,538.948853 739.135315,541.139099 
	C744.325928,543.369934 746.515381,549.381165 744.497192,555.563721 
	C741.496704,564.755432 734.796448,570.888977 727.202454,576.736694 
	C593.979126,577.000000 460.958221,577.000000 327.468658,577.000000 
z"/>
<path fill="#000000" opacity="1.000000" stroke="none" 
	d="
M433.378174,550.805969 
	C421.006378,551.918152 411.637146,546.569031 406.691467,535.908447 
	C401.941986,525.670776 404.075714,514.596130 412.672485,506.209930 
	C429.844543,489.458466 447.095398,472.787628 464.346558,456.117462 
	C466.367004,454.165039 468.593933,452.426331 470.729034,450.585175 
	C468.071320,446.280457 465.023468,443.700287 462.263702,440.892883 
	C443.810760,422.121521 425.191315,403.511841 406.886566,384.597412 
	C389.494629,366.626221 394.090118,337.770203 415.799744,327.010712 
	C421.746826,324.063263 428.142792,323.021149 434.689667,323.004517 
	C474.678680,322.902863 514.667847,322.814941 554.656982,322.832245 
	C572.174072,322.839813 584.032837,330.907318 590.737366,346.964355 
	C600.743225,370.927826 610.856873,394.847107 620.685852,418.882874 
	C622.361877,422.981384 624.663391,424.223755 628.920532,424.153748 
	C644.912109,423.890686 660.910156,423.867126 676.904175,423.984070 
	C684.385620,424.038757 691.632202,425.301483 696.473145,431.951508 
	C701.573853,438.958405 701.585815,446.594360 698.338318,454.237610 
	C694.869385,462.402008 687.790100,465.971405 679.520569,466.006317 
	C655.038757,466.109619 630.538025,466.687042 606.075684,465.284515 
	C598.081665,464.826172 593.067139,459.712860 590.064758,452.700195 
	C583.185059,436.630737 576.557312,420.453522 569.703979,404.372559 
	C564.443481,392.029144 566.416138,394.539276 555.099304,394.436249 
	C536.771973,394.269440 518.442383,394.340057 500.113770,394.313538 
	C498.780975,394.311615 497.447418,394.312561 496.115448,394.352356 
	C494.749298,394.393158 493.341248,394.578583 492.717194,395.979065 
	C492.036041,397.507690 493.258148,398.495544 494.157745,399.409607 
	C500.233704,405.583649 506.355377,411.712616 512.461426,417.857025 
	C516.688843,422.110992 521.077759,426.218140 525.109985,430.649780 
	C535.713562,442.303528 535.336243,457.557281 524.098022,468.649017 
	C499.082397,493.338531 473.947754,517.907471 448.907867,542.572388 
	C444.629730,546.786499 439.829803,549.843018 433.378174,550.805969 
z"/>
<path fill="#000000" opacity="1.000000" stroke="none" 
	d="
M602.653809,341.136017 
	C603.687134,320.667664 620.243347,304.038879 640.409058,302.748779 
	C661.194153,301.419006 680.004456,315.986420 683.343628,335.998901 
	C687.214722,359.198547 673.015686,379.868011 650.373840,383.993011 
	C628.455872,387.986145 607.672668,373.556183 603.168152,351.050873 
	C602.555725,347.991058 602.800781,344.759583 602.653809,341.136017 
z"/>
<path fill="#000000" opacity="1.000000" stroke="none" 
	d="
M643.307983,42.702347 
	C649.170349,50.342552 654.842041,57.683369 660.934326,65.568581 
	C655.858887,67.187088 652.141174,67.394966 648.973816,63.081699 
	C644.555420,57.064846 639.794861,51.299221 633.971619,45.634289 
	C633.971619,50.833447 633.965698,56.032608 633.974060,61.231750 
	C633.978516,64.037407 633.965454,66.600334 629.920715,66.543839 
	C625.994568,66.488998 625.822388,64.067871 625.825989,61.192986 
	C625.842468,48.039185 625.828247,34.885319 625.805786,21.731506 
	C625.801270,19.071917 625.890869,16.782360 629.593384,16.657078 
	C633.461243,16.526201 633.967957,18.739365 633.948853,21.721375 
	C633.917419,26.629297 633.940308,31.537567 633.940308,36.445690 
	C634.364380,36.555302 634.788513,36.664913 635.212585,36.774521 
	C639.395813,31.262724 643.575378,25.748133 647.763428,20.240017 
	C650.817444,16.223337 651.991821,15.910676 658.317261,17.850348 
	C653.621399,24.108763 649.063477,30.140886 644.558899,36.212631 
	C643.206360,38.035908 641.276001,39.802147 643.307983,42.702347 
z"/>
<path fill="#000000" opacity="1.000000" stroke="none" 
	d="
M411.564209,29.397614 
	C409.088348,28.817602 407.122803,28.105522 405.819214,25.349342 
	C410.467621,25.465008 414.757477,26.147808 418.626160,23.978760 
	C418.121185,18.344400 417.576172,17.657587 411.525024,15.238146 
	C412.359192,12.410553 414.600372,12.130107 416.947449,12.234672 
	C419.699158,12.357265 420.175659,13.045715 423.845398,21.071093 
	C425.665405,21.759075 426.954773,20.385265 428.420990,19.772724 
	C430.346588,18.968269 432.498108,18.058298 433.667603,20.415504 
	C434.853394,22.805552 432.359467,23.405375 430.886261,24.276651 
	C429.332214,25.195763 427.676392,25.942715 426.065826,26.764454 
	C426.197693,29.690632 427.621277,31.606174 429.637634,33.493031 
	C431.904541,32.446247 434.089691,31.295019 436.382690,30.429432 
	C437.860718,29.871475 439.540619,30.131397 440.335754,31.642843 
	C441.346039,33.563267 439.555084,34.239021 438.328308,34.987278 
	C436.515076,36.093243 434.252472,36.419407 432.567291,38.318531 
	C433.433014,41.406567 435.833557,43.539528 437.698242,46.014706 
	C438.893280,47.600990 440.256256,49.131485 441.088074,50.901260 
	C441.961945,52.760532 441.928436,54.920292 440.277557,56.460766 
	C438.660522,57.969681 437.187378,56.493587 435.757202,55.796993 
	C429.343628,52.673161 422.635925,51.157326 415.492981,52.099525 
	C412.222961,52.530865 409.668640,54.039421 409.448883,57.633869 
	C409.235413,61.125557 411.943024,62.442719 414.672394,63.457363 
	C419.326691,65.187607 424.196838,64.595581 429.006195,64.659210 
	C430.971619,64.685219 433.566406,64.399483 433.681366,67.109047 
	C433.799286,69.888283 430.989990,69.744370 429.182709,69.871902 
	C423.142242,70.298157 417.224091,69.440742 411.607452,67.109612 
	C407.292450,65.318726 405.267120,62.097351 405.584534,57.274635 
	C405.902893,52.437572 408.980164,50.314053 413.003235,48.986412 
	C418.263153,47.250629 423.556763,48.494133 428.827789,49.014118 
	C430.120911,49.141682 431.365356,49.875675 432.704529,49.251198 
	C431.304779,41.965954 428.120087,39.787842 421.208557,41.247181 
	C417.310760,42.070179 413.349518,43.153076 409.414307,41.703197 
	C407.471375,40.987366 405.342133,40.098530 405.094025,36.819839 
	C411.772919,38.440296 418.156464,38.341663 424.414978,35.275394 
	C423.216858,30.467209 421.665649,26.978462 415.900787,29.240683 
	C414.733978,29.698557 413.269440,29.397593 411.564209,29.397614 
z"/>
<path fill="#000000" opacity="1.000000" stroke="none" 
	d="
M605.029175,21.530735 
	C603.344666,21.784237 601.989746,21.908274 600.770447,22.381584 
	C595.381653,24.473375 594.387024,29.621683 598.961243,33.248962 
	C602.586609,36.123829 606.732117,38.342339 610.643677,40.856953 
	C616.943420,44.906902 619.413208,50.139053 618.200195,56.852352 
	C617.163025,62.592617 612.791870,66.284180 605.477112,67.788193 
	C601.295349,68.648010 597.236084,68.058449 593.124573,67.300133 
	C588.363586,66.422020 586.578430,63.932262 588.178284,59.245377 
	C589.945251,58.112274 591.390381,59.321026 592.896545,59.812634 
	C595.742432,60.741585 598.563904,61.781246 601.623291,61.645973 
	C605.550171,61.472343 609.040588,60.141541 610.315247,56.187176 
	C611.527527,52.426441 608.941711,49.840000 606.153381,47.887177 
	C603.030457,45.699997 599.636597,43.903065 596.396118,41.879547 
	C589.487366,37.565411 586.794250,31.759926 588.602722,25.196356 
	C590.398010,18.680283 595.140198,15.405230 603.493042,15.303222 
	C606.453430,15.267069 609.445374,15.742215 612.379395,16.240227 
	C615.156311,16.711569 615.595764,18.858364 615.130920,21.198690 
	C614.560974,24.068342 612.532166,22.979750 610.802002,22.622536 
	C609.011719,22.252920 607.215027,21.914248 605.029175,21.530735 
z"/>
<path fill="#000000" opacity="1.000000" stroke="none" 
	d="
M359.058533,25.929874 
	C360.549469,21.247437 359.829102,17.457060 355.683685,14.860939 
	C359.639862,11.464110 364.856720,13.228280 365.262512,17.811562 
	C365.479858,20.266657 364.205475,22.704538 365.176697,25.408913 
	C369.377380,26.638586 373.689240,25.544170 377.946289,25.712965 
	C379.608368,25.778870 381.287750,25.624516 382.934631,25.800793 
	C384.840637,26.004805 386.946930,26.786716 386.682861,28.968636 
	C386.378815,31.480976 384.107208,30.881392 382.283142,30.630455 
	C377.483948,29.970232 372.665497,29.976154 367.831848,30.182550 
	C365.318970,30.289848 364.329407,31.441504 364.246857,33.907093 
	C364.145081,36.947945 364.703796,39.817307 365.493286,42.736652 
	C368.633972,54.350178 361.629364,67.459610 350.324890,71.320961 
	C349.753265,71.516220 349.085266,71.429184 347.939270,70.977608 
	C351.995850,66.228539 358.041962,62.940727 359.046570,55.727352 
	C353.893738,54.907196 350.487091,52.164333 349.184387,47.117027 
	C347.729645,41.480659 350.641968,36.704948 356.407013,35.740952 
	C358.427185,35.403145 360.176819,35.163120 359.809387,32.610481 
	C359.438202,30.031809 357.471222,30.866190 355.891571,31.030090 
	C350.403564,31.599506 345.128845,32.983780 339.947845,34.894123 
	C334.668427,36.840755 331.213104,33.790306 331.756348,27.861000 
	C341.026917,31.582932 349.813690,27.392870 359.058533,25.929874 
M355.844391,40.197048 
	C354.192505,40.498451 353.215302,41.635628 352.791229,43.102837 
	C351.973785,45.930843 353.586090,47.867161 355.696136,49.286480 
	C357.089813,50.223915 358.932739,49.907192 359.341003,48.188465 
	C360.076965,45.090149 361.243073,41.532856 355.844391,40.197048 
z"/>
<path fill="#000000" opacity="1.000000" stroke="none" 
	d="
M673.416260,23.354521 
	C671.170288,23.213911 669.336792,23.216221 667.517151,23.058437 
	C665.432495,22.877666 664.767212,21.497643 664.846741,19.576876 
	C664.922119,17.755205 665.904663,16.791338 667.664307,16.780878 
	C675.481262,16.734419 683.298645,16.719799 691.115662,16.751089 
	C692.884888,16.758171 693.852295,17.792173 693.907532,19.586006 
	C693.966492,21.501144 693.156006,22.630497 691.181458,23.130257 
	C688.623779,23.777651 684.942810,21.623106 683.659363,25.131285 
	C682.794800,27.494469 683.336792,30.388384 683.327393,33.045143 
	C683.302124,40.198112 683.495422,47.357327 683.249146,54.501896 
	C683.111450,58.495876 684.304810,60.522907 688.545288,60.104328 
	C689.520935,60.008026 690.539673,60.165894 691.518799,60.327076 
	C693.292847,60.619114 694.002441,61.809185 693.998535,63.521828 
	C693.994568,65.288155 693.156006,66.421318 691.375000,66.542259 
	C683.407166,67.083305 675.434509,67.184402 667.467407,66.520599 
	C665.693420,66.372795 664.863708,65.316490 664.824585,63.526825 
	C664.779297,61.454552 665.898071,60.633240 667.781677,60.225361 
	C670.161011,59.710114 673.247131,61.137424 674.846008,58.875179 
	C676.630066,56.350937 675.568481,53.055336 675.612122,50.105892 
	C675.720642,42.788147 675.671814,35.467403 675.616638,28.148390 
	C675.603516,26.405033 676.115356,24.359049 673.416260,23.354521 
z"/>
<path fill="#000000" opacity="1.000000" stroke="none" 
	d="
M510.613708,42.097679 
	C508.501282,43.963799 506.269592,43.294926 504.158447,43.357937 
	C492.397034,43.708996 480.580383,42.292309 468.884094,44.894241 
	C464.565186,45.855022 462.012939,41.508713 463.526031,35.675617 
	C469.193787,42.056957 476.507355,39.365612 483.218262,39.400078 
	C490.176880,39.435829 497.136322,38.458340 504.102386,38.342209 
	C506.613342,38.300346 510.077911,37.679470 510.613708,42.097679 
z"/>
</svg>