<svg version="1.1" id="Layer_1" xmlns="http://www.w3.org/2000/svg" xmlns:xlink="http://www.w3.org/1999/xlink" x="0px" y="0px"
	 width="100%" viewBox="0 0 1920 1080" enable-background="new 0 0 1920 1080" xml:space="preserve">
<path fill="#FFFFFF" opacity="1.000000" stroke="none" 
	d="
M867.000000,1081.000000 
	C578.353271,1081.000000 289.706543,1081.000000 1.029912,1081.000000 
	C1.029912,721.044800 1.029912,361.089630 1.029912,1.067217 
	C640.910950,1.067217 1280.821899,1.067217 1920.866455,1.067217 
	C1920.866455,360.886078 1920.866455,720.772217 1920.866455,1081.000000 
	C1632.634033,1081.000000 1344.267944,1081.000000 1055.266357,1080.563232 
	C1054.615234,1079.626343 1054.585815,1079.126221 1054.585815,1078.626099 
	C1054.583008,907.977173 1054.582031,737.328308 1054.581055,566.679382 
	C1054.581055,565.234863 1054.581055,563.790344 1054.581055,562.345886 
	C1056.009399,564.044739 1056.541016,565.877930 1056.988770,567.731445 
	C1069.244751,618.460327 1081.354248,669.225281 1093.808838,719.905334 
	C1098.774536,740.111755 1118.851562,752.383667 1138.020874,747.652222 
	C1158.247437,742.659790 1169.864746,723.851868 1165.035400,703.072449 
	C1147.726929,628.599731 1130.282227,554.158569 1112.772095,479.733002 
	C1110.725464,471.034332 1106.928467,463.052643 1099.824219,457.185211 
	C1077.039062,438.366364 1051.199951,424.640411 1022.793762,417.551666 
	C990.865906,409.584106 958.195496,406.808289 925.225342,412.958191 
	C888.667419,419.777283 854.945862,432.586792 825.637451,456.099640 
	C816.865051,463.137360 811.543884,471.829559 809.027710,482.527832 
	C791.789185,555.824829 774.576172,629.127808 757.303894,702.416870 
	C755.689880,709.265564 754.447388,715.942505 756.559021,723.015808 
	C761.455994,739.418579 776.066284,750.668457 792.850464,750.502991 
	C809.606262,750.337769 824.424988,738.034119 828.695679,720.408630 
	C838.872192,678.409851 848.922241,636.380432 859.033081,594.365784 
	C861.459778,584.282104 863.924072,574.207397 866.371033,564.128601 
	C866.720337,564.177795 867.069580,564.226929 867.418884,564.276123 
	C867.418884,566.060425 867.418945,567.844727 867.418945,569.629028 
	C867.418884,738.278137 867.420227,906.927185 867.401550,1075.576294 
	C867.401367,1077.384155 867.139648,1079.192139 867.000000,1081.000000 
M650.048767,64.085373 
	C649.880920,63.914654 649.713074,63.743938 649.725342,62.879055 
	C650.776489,60.625992 651.607178,58.233177 652.927246,56.150505 
	C655.287781,52.426201 656.296936,48.808430 652.828186,45.315857 
	C649.260315,41.723499 645.004883,40.984600 638.887878,43.023224 
	C647.772766,46.393326 646.376465,52.236595 644.472412,58.236671 
	C643.920227,59.977024 643.313477,61.719978 642.989136,63.508415 
	C642.385925,66.835037 640.750916,68.790756 637.165527,68.997467 
	C628.881775,69.475037 620.605469,70.080315 612.460876,70.624794 
	C619.333435,79.721535 629.407776,74.863731 640.192993,74.712936 
	C631.858276,92.273415 623.875610,108.977844 616.028381,125.745682 
	C614.816711,128.334747 613.864136,131.172226 613.533813,133.982056 
	C613.407043,135.060013 615.206421,137.134552 616.403503,137.373169 
	C617.516357,137.595001 619.197815,136.177490 620.251526,135.109299 
	C621.133972,134.214691 621.539917,132.810425 622.039856,131.584152 
	C629.367981,113.611893 636.816711,95.686432 643.876221,77.609055 
	C645.368469,73.787849 647.318787,71.911690 651.279785,70.815987 
	C656.676880,69.323036 661.852051,66.930870 666.964111,64.580078 
	C668.082031,64.065987 669.467957,61.479790 669.102112,60.928635 
	C668.255127,59.652504 666.418152,58.342258 664.970947,58.329166 
	C663.126221,58.312477 661.225159,59.463322 659.428894,60.286674 
	C656.418030,61.666836 653.470886,63.185986 650.048767,64.085373 
M989.648315,385.167603 
	C1024.626099,370.302856 1043.038818,332.960266 1033.258179,296.722504 
	C1023.356934,260.037201 989.020386,237.153564 950.935608,241.858337 
	C908.845215,247.057907 878.877136,288.737122 887.502869,330.079620 
	C897.295532,377.015259 943.907715,402.479980 989.648315,385.167603 
M1239.979004,71.500000 
	C1239.979004,63.251736 1239.979004,55.003468 1239.979004,46.788757 
	C1235.763062,46.788757 1232.206177,46.788757 1228.151611,46.788757 
	C1228.151611,68.455940 1228.151611,89.739288 1228.151611,111.967583 
	C1216.848145,90.705605 1206.077515,70.385811 1195.204834,50.120747 
	C1194.431030,48.678333 1193.054810,46.814262 1191.706421,46.576305 
	C1188.681030,46.042408 1185.496704,46.409054 1182.267212,46.409054 
	C1182.267212,77.197350 1182.267212,107.418686 1182.267212,137.769012 
	C1186.080933,137.769012 1189.651611,137.769012 1193.782715,137.769012 
	C1193.782715,116.112091 1193.782715,94.694000 1193.782715,72.611214 
	C1194.576904,73.469986 1194.834595,73.653214 1194.964844,73.902855 
	C1205.571533,94.209244 1216.146240,114.532410 1226.818604,134.804245 
	C1227.488403,136.076721 1228.816284,137.704163 1230.011719,137.863327 
	C1233.217163,138.290161 1236.516846,138.008942 1239.979004,138.008942 
	C1239.979004,115.752258 1239.979004,94.126129 1239.979004,71.500000 
M1313.722290,105.156364 
	C1313.466187,95.047523 1314.105591,84.816765 1312.749756,74.857658 
	C1310.574585,58.880928 1302.058105,49.084538 1288.656128,47.574883 
	C1278.018433,46.376587 1267.137939,47.333492 1256.206299,47.333492 
	C1256.206299,77.182953 1256.206299,107.514717 1256.206299,137.862000 
	C1265.204468,137.862000 1273.854736,138.044846 1282.494263,137.817764 
	C1294.484009,137.502625 1303.662354,132.222107 1308.693115,121.126259 
	C1310.863770,116.338219 1311.940552,111.054199 1313.722290,105.156364 
M1106.872314,130.284256 
	C1106.169434,132.734085 1105.466431,135.183914 1104.719604,137.786453 
	C1109.126831,137.786453 1112.908691,137.786453 1116.643555,137.786453 
	C1118.737671,131.096115 1120.764038,124.622734 1122.831177,118.018509 
	C1132.608765,118.018509 1142.094727,117.907990 1151.571167,118.157639 
	C1152.763184,118.189041 1154.492554,119.902336 1154.967896,121.203590 
	C1156.955688,126.643250 1158.560059,132.223038 1160.276733,137.662201 
	C1164.644043,137.662201 1168.843384,137.662201 1173.328857,137.662201 
	C1172.926147,136.155472 1172.666504,135.037216 1172.328979,133.942932 
	C1163.813721,106.330376 1155.108398,78.774048 1146.917236,51.065754 
	C1145.229248,45.356014 1141.536133,46.784557 1137.810791,46.328659 
	C1133.656372,45.820221 1132.128784,47.502884 1130.970581,51.364704 
	C1123.146606,77.450882 1115.047974,103.454666 1106.872314,130.284256 
M972.107483,55.730045 
	C965.921936,67.934891 968.365112,79.764244 979.261169,88.104370 
	C983.720642,91.517776 988.824585,94.079903 993.564209,97.139503 
	C997.744202,99.837845 1002.047302,102.416656 1005.891663,105.545135 
	C1010.308228,109.139229 1012.283569,114.096596 1010.936707,119.792183 
	C1009.622620,125.349709 1005.501343,128.310379 1000.267578,129.908798 
	C993.061768,132.109482 986.096252,130.532974 979.207825,128.419373 
	C975.535950,127.292709 971.945618,125.900154 968.193298,124.583687 
	C968.193298,128.818726 968.193298,132.417404 968.193298,135.994965 
	C979.129578,140.570984 990.212097,141.890289 1001.629822,139.887329 
	C1017.962280,137.022232 1027.437378,122.770424 1022.938660,107.797607 
	C1020.536743,99.803459 1014.511658,94.950768 1007.704041,90.731712 
	C1000.233704,86.101967 992.546021,81.673370 985.711975,76.208153 
	C978.780518,70.664932 979.772034,60.873730 987.531738,56.540218 
	C991.076965,54.560333 995.752075,53.699932 999.860107,53.847816 
	C1005.711609,54.058464 1011.512756,55.664314 1017.685852,56.734924 
	C1017.685852,54.228832 1017.974243,51.701771 1017.565063,49.293236 
	C1017.358398,48.076656 1015.954895,46.186527 1014.980469,46.114349 
	C1006.271301,45.469223 997.518494,44.624405 988.816040,44.924652 
	C981.847961,45.165062 976.381104,49.203377 972.107483,55.730045 
M1060.829956,106.499336 
	C1060.829956,116.927376 1060.829956,127.355423 1060.829956,137.652740 
	C1065.246338,137.652740 1069.145752,137.652740 1073.306885,137.652740 
	C1073.306885,110.709023 1073.306885,84.120811 1073.306885,56.992569 
	C1082.438599,56.992569 1091.313354,56.992569 1100.160156,56.992569 
	C1100.160156,53.206718 1100.160156,49.977070 1100.160156,46.828728 
	C1077.784912,46.828728 1055.766602,46.828728 1033.723877,46.828728 
	C1033.723877,50.365730 1033.723877,53.484634 1033.723877,57.092705 
	C1042.816406,57.092705 1051.701416,57.092705 1060.469238,57.092705 
	C1060.653687,57.906940 1060.790527,58.230442 1060.791016,58.554111 
	C1060.811279,74.202499 1060.820068,89.850899 1060.829956,106.499336 
M773.574097,69.893303 
	C778.488953,68.380722 783.319519,66.454536 788.334351,65.433006 
	C803.463135,62.351269 817.117737,71.770714 818.630310,86.003632 
	C819.644226,95.544304 813.097717,107.039581 802.728943,111.566216 
	C793.952515,115.397682 784.705017,118.314194 775.445374,120.820518 
	C768.504456,122.699234 761.213074,123.282745 754.077698,124.442917 
	C755.191528,125.333527 756.368896,125.667709 757.536255,125.635551 
	C764.527161,125.442986 771.556885,125.558929 778.495911,124.830666 
	C790.634766,123.556656 802.503601,121.013145 812.857544,113.988266 
	C823.139771,107.012024 828.077087,97.402412 826.099670,84.921005 
	C824.196838,72.910988 816.494080,65.951447 805.219360,62.632030 
	C795.882935,59.883286 786.131165,59.575603 777.144897,62.702026 
	C765.774170,66.658028 754.901917,72.131104 744.023315,77.381943 
	C738.604919,79.997246 733.790894,81.850845 729.571228,75.537445 
	C727.335266,81.189423 729.014221,85.913895 733.817932,89.411919 
	C737.910034,92.391846 740.615173,89.918068 743.997498,87.724991 
	C753.443054,81.600517 763.198181,75.953445 773.574097,69.893303 
M682.619446,137.918747 
	C688.914124,137.696411 695.222229,137.637344 701.493164,137.124619 
	C702.875854,137.011551 704.127136,135.290359 705.438904,134.309677 
	C704.312988,132.826767 703.470520,130.823318 701.979248,130.011322 
	C700.565308,129.241440 698.468811,129.618683 696.677307,129.667252 
	C689.396729,129.864563 682.057739,130.832886 674.851746,130.215546 
	C661.895935,129.105606 659.169678,126.069099 656.970825,113.281021 
	C656.939392,113.098114 656.598877,112.968369 656.396545,112.809067 
	C651.647217,122.113106 654.962646,131.192566 665.119812,134.742172 
	C670.358765,136.573013 676.129517,136.882141 682.619446,137.918747 
M688.733459,88.027672 
	C692.721191,87.018600 696.718933,86.046700 700.692200,84.983452 
	C702.459167,84.510597 704.176880,83.853622 705.916992,83.280235 
	C705.222412,81.490288 704.957275,79.318207 703.761414,77.974312 
	C697.440796,70.871513 678.333740,70.858749 671.422607,77.867477 
	C677.737122,78.205872 684.307617,76.248940 691.023865,80.628441 
	C687.179565,84.245750 683.814331,87.412323 680.449036,90.578888 
	C680.694153,90.941307 680.939209,91.303726 681.184265,91.666145 
	C683.448181,90.529366 685.712036,89.392593 688.733459,88.027672 
z"/>
<path fill="#010101" opacity="1.000000" stroke="none" 
	d="
M867.468628,1081.000000 
	C867.139648,1079.192139 867.401367,1077.384155 867.401550,1075.576294 
	C867.420227,906.927185 867.418884,738.278137 867.418945,569.629028 
	C867.418945,567.844727 867.418884,566.060425 867.418884,564.276123 
	C867.069580,564.226929 866.720337,564.177795 866.371033,564.128601 
	C863.924072,574.207397 861.459778,584.282104 859.033081,594.365784 
	C848.922241,636.380432 838.872192,678.409851 828.695679,720.408630 
	C824.424988,738.034119 809.606262,750.337769 792.850464,750.502991 
	C776.066284,750.668457 761.455994,739.418579 756.559021,723.015808 
	C754.447388,715.942505 755.689880,709.265564 757.303894,702.416870 
	C774.576172,629.127808 791.789185,555.824829 809.027710,482.527832 
	C811.543884,471.829559 816.865051,463.137360 825.637451,456.099640 
	C854.945862,432.586792 888.667419,419.777283 925.225342,412.958191 
	C958.195496,406.808289 990.865906,409.584106 1022.793762,417.551666 
	C1051.199951,424.640411 1077.039062,438.366364 1099.824219,457.185211 
	C1106.928467,463.052643 1110.725464,471.034332 1112.772095,479.733002 
	C1130.282227,554.158569 1147.726929,628.599731 1165.035400,703.072449 
	C1169.864746,723.851868 1158.247437,742.659790 1138.020874,747.652222 
	C1118.851562,752.383667 1098.774536,740.111755 1093.808838,719.905334 
	C1081.354248,669.225281 1069.244751,618.460327 1056.988770,567.731445 
	C1056.541016,565.877930 1056.009399,564.044739 1054.581055,562.345886 
	C1054.581055,563.790344 1054.581055,565.234863 1054.581055,566.679382 
	C1054.582031,737.328308 1054.583008,907.977173 1054.585815,1078.626099 
	C1054.585815,1079.126221 1054.615234,1079.626343 1054.815430,1080.563232 
	C1030.312500,1081.000000 1005.624878,1081.000000 980.379761,1080.538818 
	C979.822266,969.170959 979.822266,858.264465 979.822266,747.107056 
	C967.135193,747.107056 954.903076,747.107056 942.196533,747.107056 
	C942.196533,749.258545 942.196472,751.212769 942.196472,753.166992 
	C942.196411,860.451294 942.197449,967.735596 942.188232,1075.019897 
	C942.188049,1077.013306 942.065491,1079.006592 942.000000,1081.000000 
	C917.312439,1081.000000 892.624878,1081.000000 867.468628,1081.000000 
z"/>
<path fill="#FBFBFB" opacity="1.000000" stroke="none" 
	d="
M942.468628,1081.000000 
	C942.065491,1079.006592 942.188049,1077.013306 942.188232,1075.019897 
	C942.197449,967.735596 942.196411,860.451294 942.196472,753.166992 
	C942.196472,751.212769 942.196533,749.258545 942.196533,747.107056 
	C954.903076,747.107056 967.135193,747.107056 979.822266,747.107056 
	C979.822266,858.264465 979.822266,969.170959 979.911133,1080.538818 
	C967.645752,1081.000000 955.291565,1081.000000 942.468628,1081.000000 
z"/>
<path fill="#010101" opacity="1.000000" stroke="none" 
	d="
M989.301758,385.335938 
	C943.907715,402.479980 897.295532,377.015259 887.502869,330.079620 
	C878.877136,288.737122 908.845215,247.057907 950.935608,241.858337 
	C989.020386,237.153564 1023.356934,260.037201 1033.258179,296.722504 
	C1043.038818,332.960266 1024.626099,370.302856 989.301758,385.335938 
z"/>
<path fill="#080808" opacity="1.000000" stroke="none" 
	d="
M1239.979004,72.000000 
	C1239.979004,94.126129 1239.979004,115.752258 1239.979004,138.008942 
	C1236.516846,138.008942 1233.217163,138.290161 1230.011719,137.863327 
	C1228.816284,137.704163 1227.488403,136.076721 1226.818604,134.804245 
	C1216.146240,114.532410 1205.571533,94.209244 1194.964844,73.902855 
	C1194.834595,73.653214 1194.576904,73.469986 1193.782715,72.611214 
	C1193.782715,94.694000 1193.782715,116.112091 1193.782715,137.769012 
	C1189.651611,137.769012 1186.080933,137.769012 1182.267212,137.769012 
	C1182.267212,107.418686 1182.267212,77.197350 1182.267212,46.409054 
	C1185.496704,46.409054 1188.681030,46.042408 1191.706421,46.576305 
	C1193.054810,46.814262 1194.431030,48.678333 1195.204834,50.120747 
	C1206.077515,70.385811 1216.848145,90.705605 1228.151611,111.967583 
	C1228.151611,89.739288 1228.151611,68.455940 1228.151611,46.788757 
	C1232.206177,46.788757 1235.763062,46.788757 1239.979004,46.788757 
	C1239.979004,55.003468 1239.979004,63.251736 1239.979004,72.000000 
z"/>
<path fill="#040404" opacity="1.000000" stroke="none" 
	d="
M1313.618286,105.575928 
	C1311.940552,111.054199 1310.863770,116.338219 1308.693115,121.126259 
	C1303.662354,132.222107 1294.484009,137.502625 1282.494263,137.817764 
	C1273.854736,138.044846 1265.204468,137.862000 1256.206299,137.862000 
	C1256.206299,107.514717 1256.206299,77.182953 1256.206299,47.333492 
	C1267.137939,47.333492 1278.018433,46.376587 1288.656128,47.574883 
	C1302.058105,49.084538 1310.574585,58.880928 1312.749756,74.857658 
	C1314.105591,84.816765 1313.466187,95.047523 1313.618286,105.575928 
M1302.026978,96.359589 
	C1301.761108,90.218620 1302.018066,84.000969 1301.130859,77.951141 
	C1298.528198,60.205746 1289.276367,53.806946 1268.136963,56.926834 
	C1268.136963,68.533119 1268.136963,80.175903 1268.136963,91.818687 
	C1268.136963,103.563156 1268.136963,115.307625 1268.136963,127.085938 
	C1272.660400,127.085938 1276.486206,127.249458 1280.293579,127.054428 
	C1290.565552,126.528259 1297.112305,121.507339 1299.791382,111.570137 
	C1301.035522,106.955360 1301.296387,102.075432 1302.026978,96.359589 
z"/>
<path fill="#050505" opacity="1.000000" stroke="none" 
	d="
M1106.955322,129.884674 
	C1115.047974,103.454666 1123.146606,77.450882 1130.970581,51.364704 
	C1132.128784,47.502884 1133.656372,45.820221 1137.810791,46.328659 
	C1141.536133,46.784557 1145.229248,45.356014 1146.917236,51.065754 
	C1155.108398,78.774048 1163.813721,106.330376 1172.328979,133.942932 
	C1172.666504,135.037216 1172.926147,136.155472 1173.328857,137.662201 
	C1168.843384,137.662201 1164.644043,137.662201 1160.276733,137.662201 
	C1158.560059,132.223038 1156.955688,126.643250 1154.967896,121.203590 
	C1154.492554,119.902336 1152.763184,118.189041 1151.571167,118.157639 
	C1142.094727,117.907990 1132.608765,118.018509 1122.831177,118.018509 
	C1120.764038,124.622734 1118.737671,131.096115 1116.643555,137.786453 
	C1112.908691,137.786453 1109.126831,137.786453 1104.719604,137.786453 
	C1105.466431,135.183914 1106.169434,132.734085 1106.955322,129.884674 
M1141.108032,76.354614 
	C1140.283691,73.492599 1139.459351,70.630592 1138.457153,67.151428 
	C1134.186890,81.065689 1130.087646,94.422890 1125.968506,107.844772 
	C1134.531372,107.844772 1142.682495,107.844772 1151.171021,107.844772 
	C1147.798584,97.289131 1144.575684,87.201797 1141.108032,76.354614 
z"/>
<path fill="#060606" opacity="1.000000" stroke="none" 
	d="
M972.300415,55.414108 
	C976.381104,49.203377 981.847961,45.165062 988.816040,44.924652 
	C997.518494,44.624405 1006.271301,45.469223 1014.980469,46.114349 
	C1015.954895,46.186527 1017.358398,48.076656 1017.565063,49.293236 
	C1017.974243,51.701771 1017.685852,54.228832 1017.685852,56.734924 
	C1011.512756,55.664314 1005.711609,54.058464 999.860107,53.847816 
	C995.752075,53.699932 991.076965,54.560333 987.531738,56.540218 
	C979.772034,60.873730 978.780518,70.664932 985.711975,76.208153 
	C992.546021,81.673370 1000.233704,86.101967 1007.704041,90.731712 
	C1014.511658,94.950768 1020.536743,99.803459 1022.938660,107.797607 
	C1027.437378,122.770424 1017.962280,137.022232 1001.629822,139.887329 
	C990.212097,141.890289 979.129578,140.570984 968.193298,135.994965 
	C968.193298,132.417404 968.193298,128.818726 968.193298,124.583687 
	C971.945618,125.900154 975.535950,127.292709 979.207825,128.419373 
	C986.096252,130.532974 993.061768,132.109482 1000.267578,129.908798 
	C1005.501343,128.310379 1009.622620,125.349709 1010.936707,119.792183 
	C1012.283569,114.096596 1010.308228,109.139229 1005.891663,105.545135 
	C1002.047302,102.416656 997.744202,99.837845 993.564209,97.139503 
	C988.824585,94.079903 983.720642,91.517776 979.261169,88.104370 
	C968.365112,79.764244 965.921936,67.934891 972.300415,55.414108 
z"/>
<path fill="#050505" opacity="1.000000" stroke="none" 
	d="
M1060.829956,105.999313 
	C1060.820068,89.850899 1060.811279,74.202499 1060.791016,58.554111 
	C1060.790527,58.230442 1060.653687,57.906940 1060.469238,57.092705 
	C1051.701416,57.092705 1042.816406,57.092705 1033.723877,57.092705 
	C1033.723877,53.484634 1033.723877,50.365730 1033.723877,46.828728 
	C1055.766602,46.828728 1077.784912,46.828728 1100.160156,46.828728 
	C1100.160156,49.977070 1100.160156,53.206718 1100.160156,56.992569 
	C1091.313354,56.992569 1082.438599,56.992569 1073.306885,56.992569 
	C1073.306885,84.120811 1073.306885,110.709023 1073.306885,137.652740 
	C1069.145752,137.652740 1065.246338,137.652740 1060.829956,137.652740 
	C1060.829956,127.355423 1060.829956,116.927376 1060.829956,105.999313 
z"/>
<path fill="#0A0A0A" opacity="1.000000" stroke="none" 
	d="
M773.202637,70.005615 
	C763.198181,75.953445 753.443054,81.600517 743.997498,87.724991 
	C740.615173,89.918068 737.910034,92.391846 733.817932,89.411919 
	C729.014221,85.913895 727.335266,81.189423 729.571228,75.537445 
	C733.790894,81.850845 738.604919,79.997246 744.023315,77.381943 
	C754.901917,72.131104 765.774170,66.658028 777.144897,62.702026 
	C786.131165,59.575603 795.882935,59.883286 805.219360,62.632030 
	C816.494080,65.951447 824.196838,72.910988 826.099670,84.921005 
	C828.077087,97.402412 823.139771,107.012024 812.857544,113.988266 
	C802.503601,121.013145 790.634766,123.556656 778.495911,124.830666 
	C771.556885,125.558929 764.527161,125.442986 757.536255,125.635551 
	C756.368896,125.667709 755.191528,125.333527 754.077698,124.442917 
	C761.213074,123.282745 768.504456,122.699234 775.445374,120.820518 
	C784.705017,118.314194 793.952515,115.397682 802.728943,111.566216 
	C813.097717,107.039581 819.644226,95.544304 818.630310,86.003632 
	C817.117737,71.770714 803.463135,62.351269 788.334351,65.433006 
	C783.319519,66.454536 778.488953,68.380722 773.202637,70.005615 
z"/>
<path fill="#0A0A0A" opacity="1.000000" stroke="none" 
	d="
M650.496887,64.646645 
	C653.470886,63.185986 656.418030,61.666836 659.428894,60.286674 
	C661.225159,59.463322 663.126221,58.312477 664.970947,58.329166 
	C666.418152,58.342258 668.255127,59.652504 669.102112,60.928635 
	C669.467957,61.479790 668.082031,64.065987 666.964111,64.580078 
	C661.852051,66.930870 656.676880,69.323036 651.279785,70.815987 
	C647.318787,71.911690 645.368469,73.787849 643.876221,77.609055 
	C636.816711,95.686432 629.367981,113.611893 622.039856,131.584152 
	C621.539917,132.810425 621.133972,134.214691 620.251526,135.109299 
	C619.197815,136.177490 617.516357,137.595001 616.403503,137.373169 
	C615.206421,137.134552 613.407043,135.060013 613.533813,133.982056 
	C613.864136,131.172226 614.816711,128.334747 616.028381,125.745682 
	C623.875610,108.977844 631.858276,92.273415 640.192993,74.712936 
	C629.407776,74.863731 619.333435,79.721535 612.460876,70.624794 
	C620.605469,70.080315 628.881775,69.475037 637.165527,68.997467 
	C640.750916,68.790756 642.385925,66.835037 642.989136,63.508415 
	C643.313477,61.719978 643.920227,59.977024 644.472412,58.236671 
	C646.376465,52.236595 647.772766,46.393326 638.887878,43.023224 
	C645.004883,40.984600 649.260315,41.723499 652.828186,45.315857 
	C656.296936,48.808430 655.287781,52.426201 652.927246,56.150505 
	C651.607178,58.233177 650.776489,60.625992 649.443909,63.437531 
	C649.607300,64.212891 650.052063,64.429771 650.496887,64.646645 
z"/>
<path fill="#0A0A0A" opacity="1.000000" stroke="none" 
	d="
M682.139709,137.898804 
	C676.129517,136.882141 670.358765,136.573013 665.119812,134.742172 
	C654.962646,131.192566 651.647217,122.113106 656.396545,112.809067 
	C656.598877,112.968369 656.939392,113.098114 656.970825,113.281021 
	C659.169678,126.069099 661.895935,129.105606 674.851746,130.215546 
	C682.057739,130.832886 689.396729,129.864563 696.677307,129.667252 
	C698.468811,129.618683 700.565308,129.241440 701.979248,130.011322 
	C703.470520,130.823318 704.312988,132.826767 705.438904,134.309692 
	C704.127136,135.290359 702.875854,137.011551 701.493164,137.124619 
	C695.222229,137.637344 688.914124,137.696411 682.139709,137.898804 
z"/>
<path fill="#0A0A0A" opacity="1.000000" stroke="none" 
	d="
M688.354675,88.141739 
	C685.712036,89.392593 683.448181,90.529366 681.184265,91.666145 
	C680.939209,91.303726 680.694153,90.941307 680.449036,90.578888 
	C683.814331,87.412323 687.179565,84.245750 691.023865,80.628441 
	C684.307617,76.248940 677.737122,78.205872 671.422607,77.867477 
	C678.333740,70.858749 697.440796,70.871513 703.761414,77.974312 
	C704.957275,79.318207 705.222412,81.490288 705.916992,83.280228 
	C704.176880,83.853622 702.459167,84.510597 700.692200,84.983452 
	C696.718933,86.046700 692.721191,87.018600 688.354675,88.141739 
z"/>
<path fill="#FBFBFB" opacity="1.000000" stroke="none" 
	d="
M1302.015015,96.837646 
	C1301.296387,102.075432 1301.035522,106.955360 1299.791382,111.570137 
	C1297.112305,121.507339 1290.565552,126.528259 1280.293579,127.054428 
	C1276.486206,127.249458 1272.660400,127.085938 1268.136963,127.085938 
	C1268.136963,115.307625 1268.136963,103.563156 1268.136963,91.818687 
	C1268.136963,80.175903 1268.136963,68.533119 1268.136963,56.926834 
	C1289.276367,53.806946 1298.528198,60.205746 1301.130859,77.951141 
	C1302.018066,84.000969 1301.761108,90.218620 1302.015015,96.837646 
z"/>
<path fill="#FBFBFB" opacity="1.000000" stroke="none" 
	d="
M1141.230469,76.734543 
	C1144.575684,87.201797 1147.798584,97.289131 1151.171021,107.844772 
	C1142.682495,107.844772 1134.531372,107.844772 1125.968506,107.844772 
	C1130.087646,94.422890 1134.186890,81.065689 1138.457153,67.151428 
	C1139.459351,70.630592 1140.283691,73.492599 1141.230469,76.734543 
z"/>
<path fill="#FFFFFF" opacity="1.000000" stroke="none" 
	d="
M650.272827,64.366013 
	C650.052063,64.429771 649.607300,64.212891 649.353882,63.784615 
	C649.713074,63.743938 649.880920,63.914654 650.272827,64.366013 
z"/>
</svg>