<svg version="1.1" id="Layer_1" xmlns="http://www.w3.org/2000/svg" xmlns:xlink="http://www.w3.org/1999/xlink" x="0px" y="0px"
	 width="100%" viewBox="0 0 1024 576" enable-background="new 0 0 1024 576" xml:space="preserve">
<path fill="#000000" opacity="1.000000" stroke="none" 
	d="
M384.458069,577.000000 
	C386.518890,565.112488 390.633514,553.679443 394.064117,542.055908 
	C404.235931,507.592316 414.573425,473.176880 425.079620,438.813965 
	C426.260620,434.951172 425.495514,432.798279 422.587585,430.282501 
	C387.438934,399.873749 352.385651,369.354736 317.313416,338.857635 
	C315.345276,337.146240 313.428497,335.375793 311.448792,333.597778 
	C313.480957,331.126343 315.803558,332.002167 317.814667,331.999634 
	C363.466919,331.942291 409.119751,331.842896 454.770874,332.071503 
	C460.452026,332.099945 462.862000,330.228119 464.612396,324.911224 
	C479.806702,278.758331 495.289948,232.700546 510.701691,186.619293 
	C511.165863,185.231415 511.787598,183.896225 512.338501,182.529938 
	C514.829163,182.908203 514.726562,184.927231 515.195801,186.332016 
	C530.691345,232.722443 546.209045,279.105865 561.480835,325.570068 
	C563.141113,330.621490 565.698120,332.084503 570.823364,332.064575 
	C616.308350,331.887878 661.794373,331.957001 707.280029,332.003479 
	C709.522217,332.005768 711.931458,331.365967 714.732483,333.425934 
	C709.538147,338.033905 704.570862,342.518097 699.521301,346.907562 
	C667.469360,374.769440 635.417847,402.631866 603.301392,430.419220 
	C600.595581,432.760254 599.766907,434.818329 600.894226,438.531250 
	C614.328674,482.779663 627.540527,527.095642 640.799744,571.397217 
	C641.276306,572.989624 641.639343,574.615967 642.027649,576.613281 
	C638.638733,577.000000 635.277405,577.000000 631.273193,576.722778 
	C629.473022,575.505188 628.373413,574.481201 627.150146,573.636475 
	C590.461487,548.302002 553.734497,523.022705 517.107849,497.598969 
	C513.974548,495.424042 511.829529,495.541199 508.750305,497.685333 
	C479.944702,517.743347 450.985931,537.581238 422.164429,557.616577 
	C413.032806,563.964478 403.417206,569.647339 395.000000,577.000000 
	C391.638702,577.000000 388.277435,577.000000 384.458069,577.000000 
z"/>
<path fill="#000000" opacity="1.000000" stroke="none" 
	d="
M391.394409,62.543922 
	C389.812927,60.844917 388.550049,59.275604 385.872589,58.336082 
	C383.615814,66.632790 377.339294,68.022423 369.903351,67.354172 
	C363.706055,66.797234 359.234375,62.789169 358.797943,57.174255 
	C358.345917,51.358734 361.870361,47.370426 368.610046,46.036758 
	C372.052856,45.355488 375.510803,45.903481 378.753998,46.234360 
	C380.148560,44.214951 379.489197,42.325756 379.679047,40.550152 
	C380.022583,37.337681 378.609589,36.012192 375.376495,36.099983 
	C370.399994,36.235123 365.417084,36.135544 360.200684,36.135544 
	C360.200684,34.141750 360.200684,32.220516 360.200684,30.038176 
	C365.188599,30.038176 370.264191,29.951984 375.335114,30.069532 
	C378.530975,30.143614 379.730011,28.850115 379.754059,25.621485 
	C379.778870,22.297554 378.467896,21.171883 375.289978,21.344564 
	C370.487762,21.605507 365.653412,20.970388 360.409912,22.123825 
	C360.283295,19.821129 360.172150,17.799496 360.048370,15.548416 
	C372.723480,15.548416 385.139343,15.548416 397.727478,15.548416 
	C397.727478,17.608803 397.727478,19.550722 397.727478,21.469288 
	C393.969696,23.495441 385.695892,16.922527 386.413879,26.449888 
	C386.934875,33.363319 393.505219,28.906511 397.603638,30.146479 
	C397.603638,31.881998 397.603638,33.903301 397.603638,36.089191 
	C397.265594,36.176399 396.816376,36.352211 396.353577,36.402077 
	C392.964447,36.767288 388.647430,34.080338 386.426544,38.230991 
	C384.119263,42.543060 386.631927,49.979404 390.611816,53.304695 
	C393.274109,55.529099 395.850006,57.856880 399.062103,60.659813 
	C395.995117,60.823196 395.922394,67.430244 391.394409,62.543922 
M379.524506,56.175491 
	C378.503906,52.152821 374.298859,50.395466 369.461945,51.954567 
	C367.315582,52.646416 365.451904,53.578964 365.338776,56.232113 
	C365.219727,59.024677 366.943207,60.482742 369.238983,61.331604 
	C373.504791,62.908897 376.850006,61.375584 379.524506,56.175491 
z"/>
<path fill="#000000" opacity="1.000000" stroke="none" 
	d="
M652.670959,37.001747 
	C652.359924,29.735323 653.514160,22.900726 651.420776,15.685516 
	C658.610413,16.262915 665.487488,14.928322 672.371033,16.398411 
	C677.952637,17.590471 682.494385,19.975561 683.810608,26.032740 
	C685.098511,31.959240 683.257080,36.839439 678.314087,40.480637 
	C677.669922,40.955158 677.129944,41.571136 676.275391,42.370750 
	C680.397766,49.641350 682.374084,57.733212 687.084412,65.251389 
	C683.882141,65.189392 681.339478,64.261055 678.961975,64.989670 
	C676.716797,59.494923 674.757507,54.217010 672.415405,49.114845 
	C670.414246,44.755405 666.107788,43.156334 661.539062,44.363262 
	C659.311157,44.951797 659.283813,46.541306 659.317017,48.220200 
	C659.424988,53.679379 658.904175,59.154091 659.876343,64.912689 
	C657.331299,65.283028 654.907837,63.833374 652.671387,65.394180 
	C652.671387,55.684505 652.671387,46.592888 652.670959,37.001747 
M659.311768,26.820295 
	C659.315979,29.630629 659.336670,32.441071 659.318542,35.251259 
	C659.306458,37.127556 659.827759,38.475536 662.027039,38.593315 
	C666.051880,38.808861 670.000854,38.476311 673.562988,36.464844 
	C676.380005,34.874130 677.766052,32.231964 677.570435,29.011768 
	C677.368347,25.684052 675.338562,23.603382 672.286072,22.502604 
	C669.611633,21.538151 666.832764,21.359207 663.997131,21.290556 
	C660.652649,21.209585 658.968323,22.448343 659.311768,26.820295 
z"/>
<path fill="#000000" opacity="1.000000" stroke="none" 
	d="
M609.458374,56.503387 
	C614.240051,42.841671 618.899048,29.547268 623.674255,15.921173 
	C625.671387,15.921173 628.102051,15.921173 630.401062,15.921173 
	C636.125305,32.208805 641.825439,48.427769 647.617249,64.907570 
	C645.305359,65.545456 642.706543,63.600925 640.431946,65.579666 
	C636.559509,51.036301 636.553711,50.842911 627.189392,51.123158 
	C617.151306,51.423569 618.568054,47.921970 613.728943,64.896324 
	C611.333618,64.896324 608.944275,64.896324 606.099304,64.896324 
	C607.282043,61.963482 608.308899,59.417091 609.458374,56.503387 
M631.707642,38.600021 
	C630.269775,34.438541 628.831970,30.277058 627.394104,26.115578 
	C624.515686,32.153988 621.840393,37.915176 620.696045,44.471100 
	C625.170410,45.281303 629.018860,45.556145 632.816956,44.392036 
	C633.284668,42.377087 632.320801,40.911274 631.707642,38.600021 
z"/>
<path fill="#000000" opacity="1.000000" stroke="none" 
	d="
M435.418823,67.688560 
	C421.643433,68.828323 416.009247,63.924576 414.522278,50.664295 
	C413.605530,42.489044 414.071625,34.397598 414.544556,26.254496 
	C414.793335,21.970631 415.042786,17.637087 413.848114,12.951832 
	C416.627594,13.085374 419.124542,13.205341 421.544800,13.321625 
	C421.664307,26.085152 419.193298,38.634113 421.189148,51.258030 
	C422.564178,59.954983 428.005646,63.681335 436.490875,61.083881 
	C446.084930,58.147007 450.422577,50.399128 453.515533,41.382156 
	C455.830963,41.227840 457.509949,43.567226 460.907532,42.410637 
	C454.935089,54.451630 450.017487,65.612686 435.418823,67.688560 
z"/>
<path fill="#000000" opacity="1.000000" stroke="none" 
	d="
M560.908264,24.555408 
	C557.208740,25.651670 555.029663,21.697124 551.435547,21.946899 
	C549.649231,22.071043 547.802673,21.322773 546.015686,21.444511 
	C542.999817,21.649973 540.455322,23.046833 539.563538,26.119768 
	C538.678223,29.170515 540.012146,31.671247 542.410583,33.587044 
	C545.464844,36.026684 549.325684,36.824123 552.743713,38.535664 
	C556.778137,40.555882 560.115234,43.120358 561.239075,47.745956 
	C563.440735,56.807938 559.317078,63.198883 550.158203,64.883293 
	C546.672485,65.524345 543.213074,65.314590 539.760010,64.422516 
	C532.687683,62.595428 532.676697,62.637985 533.262817,54.742710 
	C536.918884,56.879135 540.410400,59.206459 544.680359,59.288101 
	C548.819214,59.367229 552.876831,58.994583 554.530518,54.300491 
	C556.074524,49.917660 554.196228,46.305935 549.213867,43.841198 
	C545.934937,42.219158 542.424133,41.019894 539.279785,39.182007 
	C533.804749,35.981716 531.481812,29.901644 533.125793,24.151773 
	C534.586121,19.044252 539.040344,15.946703 545.374084,15.723703 
	C547.202209,15.659340 549.079224,15.559240 550.859924,15.882506 
	C554.111877,16.472868 557.308655,17.366949 560.516541,18.131504 
	C560.920593,20.292206 559.963928,22.326181 560.908264,24.555408 
z"/>
<path fill="#000000" opacity="1.000000" stroke="none" 
	d="
M571.655457,22.296591 
	C565.324646,22.634592 569.071289,18.314379 567.660400,16.019814 
	C579.707397,16.019814 591.130920,16.019814 602.780090,16.019814 
	C603.837036,17.885735 602.969238,19.988174 602.952759,22.255669 
	C600.072632,22.255669 597.279541,22.451250 594.524841,22.209595 
	C590.444580,21.851650 588.926697,23.397690 588.992371,27.569195 
	C589.188171,40.012173 589.062744,52.460213 589.062744,65.128281 
	C586.820801,65.285324 584.445190,64.091034 581.601074,65.728302 
	C583.329346,54.181629 582.385071,43.569077 582.538391,32.976051 
	C582.693787,22.236832 582.568237,22.235016 571.655457,22.296591 
z"/>
<path fill="#000000" opacity="1.000000" stroke="none" 
	d="
M352.843292,66.398499 
	C350.832916,68.123993 348.322296,67.058945 346.416229,68.746254 
	C341.833832,49.940632 341.785522,31.748852 346.233917,13.298226 
	C348.298523,13.542696 350.524231,13.806244 352.880157,14.085212 
	C348.240204,31.530954 347.393463,48.803474 352.843292,66.398499 
z"/>
</svg>