<svg version="1.1" id="Layer_1" xmlns="http://www.w3.org/2000/svg" xmlns:xlink="http://www.w3.org/1999/xlink" x="0px" y="0px"
	 width="100%" viewBox="0 0 1024 576" enable-background="new 0 0 1024 576" xml:space="preserve">
<path fill="#000000" opacity="1.000000" stroke="none" 
	d="
M318.468658,577.000000 
	C310.816589,565.548523 313.198975,555.652893 321.737335,545.679382 
	C342.646332,521.256042 362.991638,496.350708 383.678497,471.735748 
	C385.960968,469.019897 386.912170,466.007538 387.581818,462.740997 
	C397.125214,416.187134 406.711090,369.641876 416.153748,323.067596 
	C417.566742,316.098389 419.584686,309.212646 420.042419,302.060822 
	C412.617493,301.028168 401.085144,307.339050 398.484772,313.636078 
	C392.001587,329.335541 385.600677,345.070770 378.925110,360.688324 
	C375.493744,368.716034 367.497070,373.399597 359.386169,372.779480 
	C349.835785,372.049377 342.698303,366.529419 340.310944,357.746521 
	C339.062439,353.153473 339.170868,348.485931 341.026031,344.027893 
	C349.471375,323.733215 357.950531,303.452606 366.451202,283.181030 
	C368.623138,278.001556 372.436096,274.428345 377.641113,272.369507 
	C402.574280,262.507111 427.406219,252.375870 452.486328,242.902008 
	C472.281708,235.424438 495.026855,246.105240 503.388855,265.781342 
	C511.920593,285.856812 520.773193,305.795807 529.373291,325.842621 
	C530.589050,328.676697 532.288269,330.323883 535.278564,331.281433 
	C548.596741,335.546173 561.877258,339.937378 575.084106,344.533630 
	C577.944763,345.529144 579.691895,344.977386 581.619202,342.899933 
	C587.738037,336.304657 594.140259,329.967529 600.144470,323.271912 
	C606.678284,315.985687 607.989563,306.658356 609.767700,297.465240 
	C611.564331,288.175873 609.592773,278.878235 610.612427,269.591125 
	C614.966187,229.933167 657.472900,209.657562 687.610474,225.045120 
	C706.625427,234.753754 716.351746,256.869019 710.768799,278.441193 
	C704.049072,304.405823 681.962097,321.488220 655.141418,321.339355 
	C645.482239,321.285706 635.844604,321.002258 626.324646,323.252777 
	C618.054688,325.207855 610.617371,328.343231 604.699219,334.840668 
	C600.005066,339.994293 594.701843,344.593231 590.204712,348.922729 
	C590.051941,351.724976 591.566895,352.493073 592.471375,353.605072 
	C598.252319,360.712219 598.973877,369.767639 594.311951,377.330322 
	C589.585632,384.997314 580.389893,389.407684 571.960999,386.751801 
	C550.534302,380.000366 529.249817,372.788879 507.986603,365.532532 
	C502.342377,363.606415 498.835052,359.082153 496.456909,353.682739 
	C494.015778,348.140411 491.497711,342.631958 488.396576,335.737427 
	C485.489594,343.835815 484.806305,350.777374 483.377411,357.513336 
	C480.754730,369.876831 478.655640,382.354431 475.871399,394.679016 
	C474.927429,398.857574 476.110748,401.086426 479.359650,403.419983 
	C493.567261,413.624603 507.576172,424.105530 521.758301,434.346069 
	C527.815369,438.719727 531.555420,444.137512 531.571838,451.857117 
	C531.591675,461.183472 531.879333,470.509277 531.897888,479.835632 
	C531.950439,506.164032 531.897461,532.492615 531.949158,558.820984 
	C531.961487,565.114014 531.057800,571.097656 527.135376,576.672546 
	C516.645752,577.000000 506.291534,577.000000 495.338501,576.670288 
	C490.963837,570.914368 489.945435,564.814819 489.961670,558.328064 
	C490.036774,528.334351 489.933014,498.340027 490.059387,468.346649 
	C490.076447,464.295563 488.901794,461.612061 485.483093,459.205627 
	C470.635071,448.753998 456.002777,437.996246 441.240448,427.421844 
	C439.985413,426.522858 438.926147,424.928070 436.518219,425.378113 
	C433.461700,440.053894 430.443207,454.847961 427.280487,469.611176 
	C425.586975,477.516296 424.893219,485.657837 419.263947,492.362823 
	C402.877716,511.880280 386.693298,531.569275 370.598236,551.328247 
	C363.670502,559.833008 356.062439,567.799683 350.000000,577.000000 
	C339.645782,577.000000 329.291534,577.000000 318.468658,577.000000 
M700.699646,262.883484 
	C698.489380,244.384735 683.987610,231.349548 665.606628,231.339569 
	C643.341309,231.327484 623.523438,249.366058 621.405884,271.571869 
	C619.340881,293.226868 635.281799,310.563416 656.881104,310.895599 
	C677.996887,311.220306 702.784729,291.023041 700.699646,262.883484 
z"/>
<path fill="#000000" opacity="1.000000" stroke="none" 
	d="
M500.392822,154.427521 
	C517.533325,164.377365 525.297729,183.260208 520.056580,201.632339 
	C515.014221,219.307648 498.173096,231.632248 479.593597,231.243652 
	C458.883362,230.810501 441.147827,213.836624 439.751038,193.112198 
	C438.347076,172.281006 453.507172,152.872726 473.937408,149.927292 
	C482.962799,148.626114 491.878052,149.654846 500.392822,154.427521 
z"/>
<path fill="#000000" opacity="1.000000" stroke="none" 
	d="
M637.913940,62.642605 
	C637.741760,65.267799 636.712463,66.324707 634.417847,66.432953 
	C631.719727,66.560226 630.106506,65.446434 628.894104,63.101223 
	C624.309875,54.233570 619.613037,45.424084 614.958191,36.592918 
	C614.654602,36.016918 614.349792,35.441521 613.221436,34.927029 
	C613.221436,43.607845 613.254333,52.288895 613.193787,60.969292 
	C613.181641,62.712467 613.714539,64.739784 611.771118,65.945282 
	C609.164246,67.562401 605.846985,65.885185 605.818604,62.662071 
	C605.694092,48.515800 605.744263,34.367985 605.733765,20.220732 
	C605.732422,18.383728 606.210388,16.958857 608.408264,16.755566 
	C610.890381,16.525991 612.951660,16.853872 614.268433,19.397800 
	C618.168884,26.933105 622.183411,34.409496 626.166321,41.902000 
	C627.010803,43.490692 627.618835,45.249954 629.448975,46.582062 
	C630.682739,44.614471 630.637146,42.512074 630.641174,40.432903 
	C630.652405,34.607449 630.528503,28.778543 630.699158,22.958073 
	C630.772522,20.456772 629.343384,16.790966 634.112793,16.753813 
	C639.075439,16.715157 637.901794,20.527964 637.923340,23.236311 
	C638.026855,36.217617 637.953552,49.200333 637.913940,62.642605 
z"/>
<path fill="#000000" opacity="1.000000" stroke="none" 
	d="
M676.278687,55.950943 
	C676.278687,58.107475 676.381531,59.781704 676.250183,61.437355 
	C676.104309,63.276394 677.019165,65.730545 674.126465,66.314384 
	C671.326050,66.879616 669.030457,66.503937 667.477112,63.477924 
	C662.619873,54.015408 657.534180,44.670128 651.929993,34.138805 
	C650.991760,43.867374 651.467102,52.376331 651.320801,60.863033 
	C651.276184,63.450237 651.934387,66.476219 647.638489,66.377129 
	C643.778931,66.288109 644.099426,63.509132 644.086365,61.076988 
	C644.017456,48.248901 643.986694,35.420013 644.072388,22.592270 
	C644.086731,20.440840 643.379639,17.599731 646.606262,16.843695 
	C649.884888,16.075474 651.851074,17.700653 653.338806,20.577770 
	C657.996826,29.585545 662.817383,38.509243 668.016968,48.297558 
	C669.390869,43.317493 668.603027,39.118267 668.733643,35.001606 
	C668.881531,30.341190 668.829285,25.672308 668.770996,21.008268 
	C668.735901,18.200502 669.662354,16.642374 672.804810,16.696562 
	C675.883972,16.749660 676.284607,18.559628 676.280640,20.973625 
	C676.261780,32.469200 676.275818,43.964832 676.278687,55.950943 
z"/>
<path fill="#000000" opacity="1.000000" stroke="none" 
	d="
M657.589111,408.825928 
	C661.905823,402.310303 667.885803,400.511749 674.780212,401.987579 
	C680.608826,403.235260 684.525940,407.169403 685.933655,412.946136 
	C687.465576,419.232574 685.826599,424.813751 680.720398,429.108734 
	C675.387390,433.594513 667.031677,433.675842 661.274719,429.316895 
	C655.166870,424.692261 653.716125,417.145386 657.589111,408.825928 
z"/>
<path fill="#000000" opacity="1.000000" stroke="none" 
	d="
M590.714600,37.838684 
	C593.732727,37.878258 595.400940,38.841713 595.061096,41.728973 
	C594.721191,44.615917 592.446777,44.271374 590.489990,44.306652 
	C587.495850,44.360634 584.497375,44.407570 581.505737,44.308414 
	C578.512329,44.209202 577.342102,45.582760 577.352722,48.509079 
	C577.402466,62.213364 576.104797,59.415508 587.774780,59.724560 
	C590.101562,59.786182 592.436035,59.732830 594.753967,59.906250 
	C596.927856,60.068890 597.290588,61.671715 597.249023,63.502045 
	C597.207642,65.321053 596.317688,66.305359 594.505981,66.313927 
	C587.352417,66.347755 580.198669,66.356323 573.044983,66.353874 
	C570.731628,66.353081 569.801086,64.994888 569.798401,62.843700 
	C569.780518,48.534508 569.766174,34.225304 569.764221,19.916101 
	C569.763916,17.934481 570.724792,16.771036 572.785583,16.764181 
	C579.773315,16.740932 586.761108,16.733522 593.748901,16.739222 
	C595.984253,16.741045 597.135010,17.843346 597.040955,20.138222 
	C596.956482,22.199621 595.784058,23.123695 593.833374,23.146812 
	C589.674377,23.196104 585.514343,23.249960 581.355713,23.208881 
	C578.693420,23.182585 577.556641,24.292759 577.323669,27.040535 
	C576.408264,37.836357 576.332520,37.829933 590.714600,37.838684 
z"/>
<path fill="#000000" opacity="1.000000" stroke="none" 
	d="
M729.427246,60.576763 
	C732.225830,61.464302 734.684509,61.954327 737.198303,61.600975 
	C740.440735,61.145199 743.516479,60.170372 744.562500,56.595505 
	C745.578735,53.122128 744.139160,50.286945 741.329041,48.344185 
	C737.641541,45.794857 733.705261,43.608650 729.963562,41.133762 
	C725.578003,38.232994 722.660339,34.392082 722.669128,28.830458 
	C722.680237,21.827076 726.976013,16.777098 733.867798,15.707843 
	C737.355957,15.166660 740.852112,15.387599 744.319763,15.761439 
	C749.248169,16.292780 749.966431,17.619678 748.327881,23.155106 
	C745.795776,22.648453 743.240356,21.955511 740.639709,21.658792 
	C736.611328,21.199181 732.744202,21.901230 730.928345,26.012388 
	C729.006775,30.362909 732.109680,32.854950 735.247742,34.946938 
	C738.429871,37.068302 741.794312,38.913750 745.029602,40.958080 
	C750.907349,44.672142 753.922974,50.478672 752.886658,55.926888 
	C751.646790,62.445255 747.721497,65.980347 740.295166,67.659515 
	C735.929138,68.646729 731.694214,68.173622 727.458069,67.165764 
	C724.219849,66.395340 720.742371,65.156830 722.085632,61.010437 
	C723.584961,56.381977 726.658752,60.481022 729.427246,60.576763 
z"/>
<path fill="#000000" opacity="1.000000" stroke="none" 
	d="
M708.761475,16.696053 
	C711.475220,16.686474 713.191650,17.245897 713.135254,20.002190 
	C713.078308,22.785568 711.217834,23.035294 709.059570,23.197903 
	C702.347412,23.703613 702.351990,23.743809 702.351501,30.719032 
	C702.350830,39.033745 702.476746,47.351494 702.282166,55.661705 
	C702.202209,59.078312 703.153320,60.679146 706.781128,60.173725 
	C708.069336,59.994255 709.435181,60.227997 710.747986,60.404377 
	C712.571899,60.649426 713.195007,61.880264 713.135925,63.601780 
	C713.083557,65.124466 712.451843,66.261963 710.859192,66.360474 
	C702.571838,66.873009 694.279785,66.942932 686.003235,66.179947 
	C684.637085,66.054001 684.168030,64.851311 684.098206,63.611401 
	C684.029419,62.388401 684.332031,61.265022 685.608948,60.748955 
	C686.218872,60.502449 686.881104,60.363438 687.532227,60.244152 
	C694.677429,58.935074 694.680908,58.938747 694.682983,51.346962 
	C694.684998,43.863712 694.469055,36.372215 694.760437,28.900389 
	C694.927734,24.611618 693.645691,22.624855 689.164307,23.147757 
	C687.728394,23.315310 686.114319,23.439268 684.894531,22.301943 
	C683.787842,21.270086 683.800354,19.897476 684.183289,18.590511 
	C684.718323,16.764120 686.318848,16.715202 687.837341,16.710407 
	C694.655396,16.688873 701.473389,16.693544 708.761475,16.696053 
z"/>
<path fill="#000000" opacity="1.000000" stroke="none" 
	d="
M422.727570,27.668264 
	C432.458710,27.808889 432.979279,21.904436 426.569550,14.492735 
	C429.431152,12.353809 434.049133,12.995172 435.125275,15.901761 
	C436.282410,19.027159 434.349182,22.478113 435.715485,25.709925 
	C440.248535,25.709925 444.693848,25.692013 449.138824,25.719191 
	C450.798340,25.729336 452.498199,25.642393 454.105072,25.967819 
	C455.780731,26.307180 457.492401,27.253605 456.977234,29.322485 
	C456.515656,31.176088 454.776245,30.955412 453.227966,30.697674 
	C448.773285,29.956148 444.272858,30.177814 439.786194,30.022345 
	C435.280792,29.866230 433.918793,31.917093 434.304657,36.097683 
	C434.492279,38.130489 435.084442,39.990421 435.637024,41.900608 
	C439.074219,53.782242 432.496521,66.941261 420.952911,71.265640 
	C420.201538,71.547104 419.376831,71.917557 418.146515,70.620178 
	C422.514526,66.261482 428.349976,62.798725 429.774963,55.705685 
	C423.684235,54.616123 419.783295,51.422958 419.561493,44.930393 
	C419.373047,39.414211 421.600769,36.591228 427.131744,35.720348 
	C429.158386,35.401237 430.925079,35.112392 430.508942,32.567364 
	C430.092041,30.017679 428.043060,30.938824 426.506592,31.030914 
	C421.148987,31.352032 416.027466,32.734306 411.002319,34.555790 
	C405.257538,36.638119 402.394501,34.606495 402.041290,27.402641 
	C408.934814,31.899099 415.564819,28.034151 422.727570,27.668264 
M429.829346,41.969498 
	C428.672089,40.023109 427.182892,38.755070 425.007965,40.448494 
	C422.866241,42.116100 422.794952,44.460117 423.743134,46.781590 
	C424.473022,48.568604 425.814178,50.029194 427.920380,49.659237 
	C430.788879,49.155380 430.682281,46.761436 430.583221,44.559097 
	C430.554016,43.910854 430.289520,43.273205 429.829346,41.969498 
z"/>
<path fill="#000000" opacity="1.000000" stroke="none" 
	d="
M549.091553,47.998772 
	C549.075439,53.151627 549.058716,57.804882 549.043335,62.458134 
	C549.034851,65.039406 547.985229,66.395088 545.161560,66.437393 
	C542.169495,66.482224 540.912476,65.214294 540.914124,62.313526 
	C540.920227,51.178421 540.705627,40.039303 540.953369,28.910137 
	C541.052246,24.469046 539.518799,22.804287 535.194641,23.332756 
	C533.558899,23.532663 531.875122,23.318596 530.213562,23.331263 
	C528.066101,23.347631 526.770142,22.588243 526.735779,20.169987 
	C526.703491,17.898653 527.598022,16.728230 529.914551,16.727402 
	C539.885742,16.723841 549.857056,16.726368 559.828186,16.695187 
	C562.367676,16.687244 563.358032,17.887739 563.287903,20.390997 
	C563.216125,22.948034 561.647949,23.205622 559.637390,23.367065 
	C549.061890,24.216278 549.066711,24.245907 549.087891,35.034355 
	C549.096069,39.189278 549.090637,43.344231 549.091553,47.998772 
z"/>
<path fill="#000000" opacity="1.000000" stroke="none" 
	d="
M280.368042,26.353958 
	C287.732574,27.674273 293.980408,24.190582 300.631439,23.045271 
	C307.178864,21.917801 313.657501,20.391525 320.168427,19.050398 
	C320.654083,18.950357 321.165955,18.841112 321.649628,18.891062 
	C324.054596,19.139400 326.765686,19.690279 326.867523,22.482803 
	C326.980957,25.593405 324.049164,25.367641 321.998352,25.143988 
	C314.533356,24.329872 308.654205,27.084768 303.972168,32.720287 
	C302.916748,33.990623 301.957184,35.376865 301.168365,36.826653 
	C294.975708,48.208103 298.480408,56.411022 310.912781,60.103905 
	C313.697449,60.931046 318.823273,60.736305 317.686615,64.827423 
	C316.416321,69.399384 311.975433,66.419617 309.188690,65.480614 
	C292.663818,59.912457 288.623993,44.389629 300.122009,31.267998 
	C301.310913,29.911215 302.522186,28.574018 303.247803,26.006824 
	C297.291443,28.022369 291.316650,29.985716 285.387787,32.079098 
	C283.009094,32.918976 280.728149,34.154644 278.426727,32.010403 
	C276.343536,30.069473 276.208466,27.727907 276.799957,25.326649 
	C278.434052,24.328056 279.102142,25.677221 280.368042,26.353958 
z"/>
<path fill="#000000" opacity="1.000000" stroke="none" 
	d="
M351.519348,63.368538 
	C351.777466,65.453659 352.009125,67.352783 349.755768,67.704742 
	C348.044373,67.972054 347.123383,66.455048 346.427490,65.128922 
	C343.150482,58.884171 342.303040,52.164120 343.064240,45.268417 
	C343.700897,39.500652 344.764923,33.781288 345.544922,28.027641 
	C345.987000,24.766510 345.640198,21.509676 344.400665,18.237900 
	C350.411621,18.614874 352.411316,21.677399 350.782166,27.493212 
	C348.620178,35.211300 346.837555,42.960758 347.286194,51.053780 
	C347.348938,52.185364 347.453766,53.314610 347.618347,55.493801 
	C350.800751,50.497055 351.323608,45.235764 355.301819,40.064941 
	C355.515350,48.925503 351.281586,55.627510 351.519348,63.368538 
z"/>
<path fill="#000000" opacity="1.000000" stroke="none" 
	d="
M379.763611,57.223221 
	C382.814850,56.818432 385.458893,56.329254 388.075317,57.121445 
	C389.356476,57.509342 390.712952,58.136230 390.720612,59.710384 
	C390.728424,61.318157 389.430756,62.038303 388.045654,62.132652 
	C380.890442,62.620033 373.714630,62.495510 367.019226,59.690582 
	C363.020355,58.015324 361.115814,54.631062 362.441071,48.229450 
	C366.097626,56.925091 372.652100,57.265568 379.763611,57.223221 
z"/>
<path fill="#000000" opacity="1.000000" stroke="none" 
	d="
M374.939362,31.477016 
	C373.793945,32.125523 372.947479,32.606548 371.884491,32.137150 
	C371.663910,29.231621 374.876251,29.133217 375.714539,26.726145 
	C371.789795,25.636261 368.276154,28.939657 364.248108,28.115551 
	C368.726074,22.286438 379.752625,19.883352 385.589539,23.195726 
	C386.610413,23.775066 387.659821,24.432610 387.555878,25.804518 
	C387.446747,27.244343 386.179108,27.671244 385.094727,27.922623 
	C381.681824,28.713795 378.388824,29.803408 374.939362,31.477016 
z"/>
</svg>