<svg version="1.1" id="Layer_1" xmlns="http://www.w3.org/2000/svg" xmlns:xlink="http://www.w3.org/1999/xlink" x="0px" y="0px"
	 width="100%" viewBox="0 0 1024 576" enable-background="new 0 0 1024 576" xml:space="preserve">
<path fill="#000000" opacity="1.000000" stroke="none" 
	d="
M376.468658,577.000000 
	C368.798004,565.891724 369.144592,558.148254 377.542633,547.921448 
	C397.946838,523.073853 418.209839,498.105133 438.991852,473.576721 
	C444.191498,467.439697 444.896179,460.331696 446.353851,453.334167 
	C456.553711,404.369659 466.509735,355.354340 476.518707,306.350189 
	C476.876282,304.599518 476.972107,302.795380 477.342377,299.770508 
	C470.678284,302.394714 464.711548,304.620239 458.863312,307.122681 
	C457.102173,307.876221 456.819611,310.067627 456.153381,311.753235 
	C449.849518,327.702545 443.679718,343.706116 437.227051,359.594879 
	C433.822021,367.979218 425.628082,372.856964 416.990936,372.244263 
	C407.706207,371.585632 400.657196,365.854706 398.261017,356.844604 
	C396.979919,352.027557 397.445526,347.265900 399.361237,342.669891 
	C407.689026,322.690521 415.989441,302.699554 424.399078,282.754639 
	C426.636597,277.448029 430.664886,273.789978 436.029907,271.671844 
	C460.813110,261.887268 485.514618,251.887238 510.416809,242.415176 
	C530.275757,234.861420 552.162659,244.884552 561.170959,265.281311 
	C570.050720,285.387024 578.758240,305.569794 587.371704,325.791016 
	C588.686584,328.877808 590.608459,330.414825 593.710266,331.411407 
	C608.925293,336.299866 624.090454,341.345795 639.242310,346.428253 
	C651.561707,350.560547 657.584717,361.558563 653.918945,372.977448 
	C650.340332,384.124542 638.523560,389.859161 626.391479,385.941437 
	C606.909058,379.650116 587.519287,373.072296 568.077820,366.653564 
	C561.153870,364.367615 556.401428,359.827606 553.566406,353.164581 
	C551.187012,347.572266 548.759277,342.000519 545.167969,336.602661 
	C543.218140,346.160004 541.239563,355.711578 539.326294,365.276215 
	C537.273438,375.537811 535.384827,385.833649 533.201477,396.066895 
	C532.541199,399.161560 533.455017,400.953857 535.936829,402.741272 
	C550.130859,412.963593 564.094666,423.509613 578.398743,433.573303 
	C586.050415,438.956726 589.456787,445.785767 589.398193,455.128479 
	C589.185059,489.118317 589.220520,523.110840 589.392822,557.101074 
	C589.427429,563.922913 588.721375,570.361938 585.088440,576.645996 
	C574.645752,577.000000 564.291565,577.000000 553.277100,576.710999 
	C548.955383,571.774231 547.608643,566.511414 547.631409,560.592896 
	C547.750183,529.777588 547.618408,498.961273 547.763367,468.146210 
	C547.781799,464.226990 546.595703,461.717010 543.380920,459.446777 
	C528.826538,449.168518 514.442505,438.649139 499.968140,428.257019 
	C498.403992,427.134033 496.994354,425.518799 494.817169,425.782379 
	C493.574371,426.771942 493.501740,428.122223 493.231323,429.430695 
	C489.934601,445.383270 486.524628,461.313019 483.335419,477.286896 
	C482.136230,483.293274 479.902679,488.579956 475.922394,493.358582 
	C457.806671,515.107727 439.787689,536.939087 421.932922,558.902649 
	C417.137207,564.802002 411.255371,569.904419 408.000000,577.000000 
	C397.645782,577.000000 387.291534,577.000000 376.468658,577.000000 
z"/>
<path fill="#000000" opacity="1.000000" stroke="none" 
	d="
M562.601440,157.314575 
	C577.609558,169.639694 582.842102,187.092636 576.805359,203.963272 
	C571.043396,220.065964 555.592590,231.118332 538.649902,231.256897 
	C518.040588,231.425415 499.516754,215.281052 497.691071,195.559296 
	C495.560028,172.539902 509.584961,153.321106 531.507935,149.961517 
	C542.539795,148.270966 553.055847,150.360626 562.601440,157.314575 
z"/>
<path fill="#000000" opacity="1.000000" stroke="none" 
	d="
M572.215820,22.183266 
	C572.962769,29.395164 573.672363,36.163532 574.381958,42.931904 
	C574.629028,42.968540 574.876038,43.005180 575.123047,43.041821 
	C576.296997,36.624157 577.466248,30.205637 578.648376,23.789482 
	C578.919067,22.320097 579.287048,20.867134 579.517090,19.392086 
	C579.894470,16.972391 581.592529,16.711287 583.570557,16.718060 
	C585.686401,16.725304 586.917908,17.482315 587.339783,19.771526 
	C588.873840,28.096519 590.567139,36.392166 592.478943,46.115650 
	C593.662292,36.793495 594.732544,28.881943 595.633606,20.951170 
	C595.907654,18.538839 596.339111,16.655897 599.332031,16.783489 
	C602.691101,16.926685 602.358887,19.309395 602.103271,21.462746 
	C600.496338,34.998001 598.833130,48.526604 597.164429,62.054432 
	C596.856445,64.551292 596.070801,66.448181 592.894836,66.450966 
	C589.867493,66.453629 588.920044,64.958580 588.437134,62.284885 
	C586.829468,53.383465 585.043213,44.514301 582.591003,35.667007 
	C581.140869,44.119560 579.706970,52.574940 578.231018,61.022968 
	C577.779114,63.609539 577.742371,66.395027 573.820557,66.435593 
	C569.879333,66.476349 569.856567,63.970448 569.532471,61.171108 
	C568.061035,48.461365 566.391418,35.774250 564.976807,23.058558 
	C564.734924,20.884258 563.250122,17.774811 566.994385,16.873119 
	C570.982239,15.912764 571.777039,18.697182 572.215820,22.183266 
z"/>
<path fill="#000000" opacity="1.000000" stroke="none" 
	d="
M354.814026,42.320015 
	C351.758545,40.032055 349.887268,40.759434 348.092102,43.641228 
	C346.253296,46.593060 344.040771,49.350185 341.724243,51.954544 
	C339.789703,54.129471 337.804077,56.002430 339.441742,59.276325 
	C339.970642,60.333637 339.749634,61.620705 338.547058,62.345463 
	C337.326233,63.081219 336.156616,62.622089 335.451782,61.631107 
	C333.608002,59.038731 331.834778,60.249706 329.920685,61.461784 
	C328.659210,62.260624 327.330414,62.980236 325.963470,63.579685 
	C323.365875,64.718826 320.622162,66.162560 318.157684,63.483036 
	C315.603821,60.706329 313.653961,57.654816 315.292969,53.575081 
	C317.508820,48.059498 321.457581,44.008095 326.565399,41.337856 
	C330.802612,39.122730 332.177368,36.022984 331.434937,31.319677 
	C326.885010,30.047455 320.666840,33.500561 317.375305,26.776381 
	C320.854950,26.776381 323.897552,26.872690 326.932068,26.757175 
	C334.194550,26.480713 336.657745,21.680401 332.892059,15.299869 
	C332.581360,14.773417 332.419525,14.159115 332.173462,13.548271 
	C339.784241,11.764434 341.688080,14.635093 339.330505,23.991102 
	C343.487549,24.712881 347.835388,18.844608 351.921783,24.145105 
	C351.442841,26.662130 349.359863,26.720638 347.716492,27.205818 
	C345.489258,27.863371 343.204376,28.358667 340.916595,28.769878 
	C338.067291,29.282017 336.450531,30.787472 336.372131,33.763348 
	C336.340302,34.971783 336.360474,36.412605 337.840546,36.492702 
	C340.207153,36.620773 342.993744,37.420441 344.367523,34.410233 
	C345.625793,31.653124 347.495575,32.807983 348.695312,34.028175 
	C350.770813,36.139057 353.303070,37.150490 355.908417,38.265301 
	C366.048523,42.604179 368.757812,53.048439 361.705536,61.539188 
	C356.702271,67.562973 349.996490,70.196381 341.972260,70.184601 
	C342.217194,67.137848 344.383392,67.456322 345.724030,66.855469 
	C350.011108,64.934013 354.229370,62.940742 357.027771,58.954445 
	C361.100098,53.153442 360.410004,47.520206 354.814026,42.320015 
M331.670319,51.553410 
	C331.420746,49.296688 331.331512,46.999920 329.984222,44.663910 
	C324.906464,46.801640 321.740936,50.597107 319.749817,55.431019 
	C318.858002,57.596191 319.452759,59.389111 322.135925,59.746040 
	C325.498688,60.193382 331.048431,55.870991 331.670319,51.553410 
M338.188751,49.046669 
	C340.173920,46.341290 342.626556,43.902649 343.631348,39.853855 
	C340.446808,40.507065 337.374542,39.681713 335.736542,42.816422 
	C334.994263,44.236900 336.188080,47.701694 338.188751,49.046669 
z"/>
<path fill="#000000" opacity="1.000000" stroke="none" 
	d="
M701.168762,43.077347 
	C706.904236,50.551105 712.451172,57.743980 718.411987,65.473473 
	C712.983643,67.032951 709.211792,67.000061 706.016113,62.428036 
	C701.840820,56.454273 697.082947,50.887695 691.294006,45.269444 
	C691.294006,50.724388 691.344543,56.180058 691.266113,61.633873 
	C691.239075,63.512630 691.798828,65.881752 688.820923,66.263138 
	C685.820862,66.647362 683.607971,66.269020 683.637939,62.330135 
	C683.742920,48.523716 683.714661,34.715855 683.651367,20.908934 
	C683.638123,18.038483 684.563904,16.612671 687.678833,16.681343 
	C690.592407,16.745577 691.367493,18.196413 691.333557,20.773743 
	C691.264099,26.050943 691.312744,31.329699 692.459473,37.139603 
	C696.620667,31.712772 700.785400,26.288635 704.941895,20.858213 
	C708.472046,16.246132 708.909912,16.087988 715.081482,17.315044 
	C715.838257,19.085976 714.446960,20.052198 713.586670,21.196688 
	C709.589722,26.514040 705.622131,31.854549 701.544312,37.109352 
	C700.098694,38.972244 699.018494,40.683018 701.168762,43.077347 
z"/>
<path fill="#000000" opacity="1.000000" stroke="none" 
	d="
M618.053711,17.743767 
	C624.915405,15.885378 625.477722,16.247753 627.292603,22.180710 
	C631.133118,34.735401 635.088928,47.254868 638.919128,59.812641 
	C639.479492,61.649940 640.701904,63.458130 639.723267,65.832588 
	C635.713501,67.099907 632.227173,67.096832 631.310181,61.775398 
	C630.485352,56.988567 627.632874,55.515884 623.141602,56.130402 
	C621.834839,56.309200 620.459045,56.315903 619.155518,56.124588 
	C614.902405,55.500374 612.598694,57.281429 611.847900,61.479076 
	C611.015320,66.134033 608.245361,67.427460 602.939636,65.436089 
	C607.905334,49.611187 612.852356,33.845760 618.053711,17.743767 
M617.863647,42.229156 
	C615.681396,49.515442 616.831787,50.833054 624.073486,49.699657 
	C626.261536,49.357201 627.057068,48.310883 626.448914,46.364979 
	C625.004517,41.743561 624.029602,36.936604 621.552673,32.301689 
	C619.650208,35.424232 618.959351,38.481823 617.863647,42.229156 
z"/>
<path fill="#000000" opacity="1.000000" stroke="none" 
	d="
M395.114502,38.122665 
	C399.040649,32.998257 402.906586,28.254971 406.019775,22.315248 
	C402.297516,21.776031 399.738983,23.263838 397.072845,24.410656 
	C392.090790,26.553627 388.957825,24.232088 389.081390,17.963337 
	C394.695862,21.407749 399.987762,18.759731 405.298828,17.425920 
	C408.288513,16.675106 410.974701,16.341379 412.831085,19.272003 
	C414.759766,22.316858 411.923462,23.617807 410.389282,25.460680 
	C406.249939,30.432844 402.227539,35.502369 397.653198,41.158318 
	C403.552368,40.028099 408.506165,38.126122 413.889923,39.323990 
	C419.035370,40.468838 423.047974,42.817150 424.166962,48.175682 
	C425.362091,53.898937 424.235718,59.276352 419.237244,62.935005 
	C413.540009,67.105148 407.117523,68.133797 400.265198,66.251892 
	C395.205048,64.862198 392.811340,61.759918 393.784058,57.791077 
	C394.618195,54.387627 398.521973,52.762360 403.355774,53.855801 
	C406.326996,54.527920 408.410065,56.421402 409.678223,59.082188 
	C411.190613,62.255318 413.175629,61.687859 415.184296,59.883614 
	C418.468048,56.934032 420.359772,53.386986 418.989105,48.800892 
	C417.573700,44.065022 413.957703,42.235306 409.447662,42.346493 
	C400.249756,42.573242 393.632324,47.657738 387.976562,54.377907 
	C386.522888,56.105194 385.460266,59.989048 382.554474,57.635178 
	C380.110901,55.655762 382.091888,52.853218 383.993011,50.749809 
	C387.674500,46.676590 391.260162,42.516750 395.114502,38.122665 
M403.797943,62.678364 
	C404.103851,62.567448 404.664520,62.481701 404.678345,62.341919 
	C405.003143,59.054417 402.291565,58.536072 400.158905,57.622200 
	C399.165253,57.196419 397.911407,57.737389 397.775421,58.801601 
	C397.415558,61.618542 400.097778,61.532574 401.690796,62.441200 
	C402.093079,62.670670 402.659729,62.612003 403.797943,62.678364 
z"/>
<path fill="#000000" opacity="1.000000" stroke="none" 
	d="
M646.888428,38.000206 
	C646.891846,32.341618 646.893616,27.182981 646.900208,22.024349 
	C646.903809,19.239338 646.898376,16.665396 650.933105,16.652939 
	C654.850830,16.640842 655.118896,18.980284 655.108826,21.895107 
	C655.071594,32.711426 655.208435,43.530186 655.012207,54.343170 
	C654.938416,58.412186 656.285889,60.125401 660.466980,59.780495 
	C663.772278,59.507843 667.119080,59.771149 670.446533,59.725918 
	C672.918335,59.692322 674.739624,60.314526 674.718201,63.260517 
	C674.698059,66.023781 672.918945,66.422638 670.689941,66.421013 
	C664.200378,66.416275 657.708862,66.389771 651.222046,66.541374 
	C647.894104,66.619148 646.860352,64.998589 646.884216,61.963371 
	C646.945740,54.142776 646.894897,46.321289 646.888428,38.000206 
z"/>
<path fill="#000000" opacity="1.000000" stroke="none" 
	d="
M471.022491,19.968201 
	C472.633667,17.530384 470.492218,15.608451 470.542847,13.149475 
	C474.112122,12.843673 475.975281,14.537583 477.387238,17.237389 
	C478.784943,19.909988 477.417267,21.546949 475.613922,23.292822 
	C470.945129,27.812889 466.345154,32.405746 461.784821,37.035652 
	C457.244629,41.645046 457.305908,42.409370 462.078735,47.042213 
	C466.740112,51.566906 471.438354,56.055035 476.026123,60.653259 
	C477.543854,62.174400 478.963043,63.879784 479.464996,66.079689 
	C479.917480,68.062927 479.482239,69.883049 477.504669,70.688019 
	C475.665100,71.436829 474.802795,69.820869 474.101715,68.523254 
	C469.751709,60.471985 463.241180,54.247555 456.885223,47.867718 
	C452.384064,43.349651 452.386902,41.198654 456.608368,36.368011 
	C461.321075,30.975277 466.092133,25.633524 471.022491,19.968201 
z"/>
</svg>