<svg version="1.1" id="Layer_1" xmlns="http://www.w3.org/2000/svg" xmlns:xlink="http://www.w3.org/1999/xlink" x="0px" y="0px"
	 width="100%" viewBox="0 0 1024 576" enable-background="new 0 0 1024 576" xml:space="preserve">
<path fill="#000000" opacity="1.000000" stroke="none" 
	d="
M411.468658,577.000000 
	C408.219055,571.891174 408.170288,566.536682 409.392456,560.998108 
	C415.623596,532.760193 421.930267,504.537842 427.908508,476.246246 
	C429.136444,470.435150 429.239075,464.361084 429.579132,458.392181 
	C430.724060,438.296265 431.669373,418.188904 432.827820,398.093811 
	C434.186371,374.527588 434.801025,350.901550 438.209991,327.491608 
	C438.404694,326.154449 438.819672,324.770264 437.554047,323.808319 
	C436.240570,322.810028 435.020416,323.708649 433.858643,324.327728 
	C429.866730,326.455078 427.317688,329.372314 426.320129,334.139557 
	C422.812775,350.900970 418.897461,367.577454 415.094574,384.276489 
	C412.255402,396.743652 401.220703,403.907074 389.274902,401.104156 
	C377.993317,398.457031 371.755280,387.389801 374.582550,375.054657 
	C379.298248,354.480408 384.048645,333.914001 388.697021,313.324554 
	C390.244995,306.468048 393.876984,301.184692 399.684418,297.277222 
	C421.656921,282.493256 443.545258,267.583191 465.585602,252.901276 
	C482.562012,241.592621 500.998413,242.121002 516.255737,253.948257 
	C522.244873,258.590942 525.939697,264.816132 528.879883,271.634827 
	C537.449585,291.509033 546.122742,311.338837 554.620300,331.243683 
	C555.837646,334.095154 557.611084,335.723297 560.462158,336.834808 
	C572.716553,341.612274 584.848999,346.703888 597.120605,351.435364 
	C602.831604,353.637329 607.445068,356.873230 609.906921,362.576599 
	C611.030579,365.179840 612.838257,365.679260 615.427979,365.750916 
	C637.904846,366.372955 652.289368,381.192566 652.296692,403.654510 
	C652.314880,459.630981 652.309509,515.607422 652.306885,571.583923 
	C652.306824,573.082031 652.230164,574.580139 652.094604,576.539124 
	C645.312378,577.000000 638.624695,577.000000 631.408752,576.534363 
	C630.858704,574.236206 630.818115,572.403687 630.817932,570.571167 
	C630.810547,514.411438 630.837463,458.251617 630.774048,402.091919 
	C630.763245,392.506683 624.062622,386.541901 614.657837,387.328674 
	C606.390076,388.020355 600.821411,395.801392 602.364380,404.619324 
	C603.018677,408.358246 605.132751,411.295197 607.680176,414.042450 
	C612.015198,418.717468 612.080139,424.471985 608.046753,428.843719 
	C603.914490,433.322540 597.807190,433.634918 592.858032,429.393097 
	C582.424500,420.450592 577.934082,409.012695 580.118286,395.498413 
	C580.828857,391.102112 579.519470,389.574463 575.893005,388.150665 
	C561.941162,382.672821 548.131104,376.830505 534.143921,371.446930 
	C527.159546,368.758698 522.357300,364.323944 519.525024,357.395935 
	C516.185608,349.227448 512.512390,341.195190 508.964264,333.112457 
	C508.206848,331.387054 507.708038,329.451721 505.606598,328.130951 
	C505.429962,329.191315 505.235565,329.815094 505.235138,330.438995 
	C505.218445,354.102356 505.246368,377.765778 505.180267,401.428986 
	C505.173004,404.027405 506.389435,405.803986 507.997131,407.568115 
	C517.984802,418.528107 527.923035,429.533203 537.928101,440.477234 
	C541.593933,444.487000 544.855469,448.791840 545.195740,454.369843 
	C546.057007,468.488220 546.595459,482.625977 547.336304,496.752136 
	C548.164490,512.542419 548.970459,528.335144 549.979797,544.114380 
	C550.779785,556.621155 551.845581,569.100403 539.000000,577.000000 
	C533.311951,577.000000 527.623962,577.000000 521.234741,576.761719 
	C513.283569,572.464539 509.207672,566.265442 508.777985,558.003845 
	C507.939911,541.891296 507.382935,525.764343 506.649323,509.646149 
	C506.029266,496.023926 505.279358,482.407532 504.696594,468.783844 
	C504.587677,466.237640 503.454315,464.407501 501.844788,462.633545 
	C493.792450,453.758423 485.793304,444.834961 477.730103,435.969727 
	C476.567230,434.691193 475.634186,432.853912 473.347443,433.244781 
	C471.812164,434.959412 472.441376,437.058228 472.280090,438.987213 
	C470.787415,456.839386 471.938019,474.927979 467.318512,492.503571 
	C465.800201,498.280121 464.678253,504.159973 463.324585,509.980865 
	C458.133728,532.301697 453.924774,554.847107 448.000000,577.000000 
	C435.979095,577.000000 423.958221,577.000000 411.468658,577.000000 
z"/>
<path fill="#000000" opacity="1.000000" stroke="none" 
	d="
M481.787964,219.016052 
	C469.208862,194.135941 483.686768,166.346222 508.315338,160.304657 
	C530.381226,154.891724 553.186218,168.964310 558.093689,191.408707 
	C563.022095,213.948959 547.751648,236.611633 525.154846,240.292725 
	C507.172577,243.222076 491.723755,235.735962 481.787964,219.016052 
z"/>
<path fill="#000000" opacity="1.000000" stroke="none" 
	d="
M895.051147,31.338404 
	C895.655884,27.280064 896.273254,23.670897 896.627258,20.036083 
	C896.880127,17.439634 898.225403,16.589445 900.615784,16.794960 
	C903.266418,17.022850 903.274536,18.851732 903.039917,20.789505 
	C901.380981,34.491947 899.739746,48.196720 898.005676,61.889717 
	C897.720032,64.145470 897.525146,66.639427 894.121643,66.643227 
	C891.024719,66.646683 889.789307,65.190689 889.262390,62.255039 
	C887.683289,53.459045 885.873840,44.704426 883.408630,35.881664 
	C881.949158,44.437141 880.449097,52.985977 879.050659,61.551418 
	C878.503296,64.904083 877.367859,67.285423 873.296082,66.422882 
	C872.067444,66.162613 871.005249,65.848167 870.808899,64.425598 
	C868.656616,48.828072 866.689697,33.211308 865.347229,17.519468 
	C869.889526,15.891044 872.278198,16.665310 872.766174,21.294735 
	C873.523438,28.478994 874.500732,35.640053 876.051208,42.862358 
	C877.270874,35.855968 878.504944,28.852022 879.702576,21.841856 
	C880.127380,19.355247 880.218262,16.842314 883.803040,16.683237 
	C887.551514,16.516899 887.987793,18.775524 888.499390,21.675303 
	C889.817078,29.144489 891.437622,36.560242 893.635986,43.956570 
	C894.074341,39.896584 894.512756,35.836594 895.051147,31.338404 
z"/>
<path fill="#000000" opacity="1.000000" stroke="none" 
	d="
M575.104980,42.072815 
	C573.830383,49.183544 572.531128,55.876221 571.470703,62.606518 
	C571.062256,65.198410 570.017029,66.358116 567.298401,66.414291 
	C564.458008,66.472977 563.408020,65.009186 563.131958,62.576038 
	C561.520813,48.377182 559.960266,34.172523 558.313904,19.977804 
	C558.065247,17.833778 558.804443,16.842194 560.927673,16.736710 
	C563.342834,16.616724 565.048584,17.039520 565.375549,20.048254 
	C566.236267,27.968384 567.355164,35.860455 568.449036,44.368721 
	C569.926208,36.321060 571.361755,28.869318 572.631287,21.389408 
	C573.091736,18.676205 573.710388,16.604488 577.141541,16.691578 
	C580.311829,16.772047 580.860229,18.771774 581.310730,21.235365 
	C582.711243,28.895311 584.210632,36.537189 586.440063,44.245838 
	C587.205017,37.649685 587.766724,31.020546 588.829163,24.472651 
	C589.292358,21.617903 587.794250,16.673782 592.922668,16.944006 
	C598.535767,17.239761 595.338745,21.999638 595.121277,24.310646 
	C593.938660,36.878006 592.164246,49.389469 590.611389,61.922386 
	C590.311584,64.342026 590.024536,66.411201 586.656555,66.463974 
	C583.211853,66.517944 582.448669,64.416412 581.951111,61.852154 
	C580.278015,53.230011 578.654297,44.598293 576.398254,36.009487 
	C575.990723,37.896252 575.583191,39.783012 575.104980,42.072815 
z"/>
<path fill="#000000" opacity="1.000000" stroke="none" 
	d="
M351.610779,57.309303 
	C354.075409,49.820076 352.756317,44.968586 347.873352,42.012863 
	C345.486389,40.567982 343.754791,40.589722 342.008698,43.118557 
	C339.461273,46.807873 336.584381,50.270847 333.819489,53.808079 
	C333.094452,54.735691 332.303528,55.586891 332.566162,56.907803 
	C332.937897,58.777367 334.316010,60.978767 331.923553,62.272949 
	C329.533325,63.565945 328.713440,60.515804 326.698975,59.800999 
	C324.211639,61.103062 321.612976,62.546074 318.940857,63.837078 
	C316.630554,64.953300 314.054871,65.872429 312.009918,63.638924 
	C309.806519,61.232384 307.349091,58.778461 308.494019,54.869595 
	C310.356873,48.509766 314.759796,44.193840 320.334717,41.372364 
	C324.974152,39.024345 325.513245,35.541908 325.298096,31.240229 
	C313.092285,30.188511 313.092285,30.188511 311.490326,26.784626 
	C314.621124,26.784626 317.729248,26.875111 320.830292,26.765570 
	C327.064331,26.545359 329.778412,22.008272 327.152527,16.256907 
	C326.759125,15.395347 326.116241,14.647710 325.378326,13.528054 
	C328.684570,11.956814 331.171753,13.021888 333.350494,14.867027 
	C336.875763,17.852524 332.880249,20.603504 332.866089,23.806955 
	C336.944763,25.039145 341.669281,18.668715 345.707245,24.477400 
	C343.063538,27.727341 339.357910,27.690670 336.099548,28.307859 
	C331.609375,29.158381 329.234833,31.213226 330.039215,36.303738 
	C332.917267,36.853374 335.812836,37.347591 337.806183,34.263607 
	C339.299103,31.953831 341.222412,32.702007 342.383423,34.042412 
	C344.488220,36.472420 347.293488,37.263836 350.015320,38.454796 
	C359.929504,42.792786 362.307617,53.894398 354.991241,61.858246 
	C349.835602,67.470108 343.472992,70.302887 335.604187,69.434784 
	C340.960510,65.518677 348.087524,64.107697 351.610779,57.309303 
M323.784485,56.285160 
	C327.681244,52.508526 323.776703,48.726681 324.475494,44.403168 
	C319.290771,46.356735 316.487488,49.725182 314.136536,53.518398 
	C313.059479,55.256222 312.471130,57.349125 314.163513,59.002972 
	C315.744293,60.547771 317.577637,59.549301 319.221863,58.765469 
	C320.561432,58.126892 321.850586,57.382595 323.784485,56.285160 
M329.317535,44.570629 
	C329.399292,46.449512 329.135406,48.455910 331.169006,49.970699 
	C333.639404,46.835823 336.027191,44.014332 337.492493,39.827621 
	C333.997223,40.591026 330.412170,39.515110 329.317535,44.570629 
z"/>
<path fill="#000000" opacity="1.000000" stroke="none" 
	d="
M58.707123,60.201584 
	C55.557373,58.077385 54.142208,55.020325 54.025486,51.932030 
	C53.694786,43.182312 53.909660,34.411976 53.909660,25.406002 
	C58.171528,25.852596 59.403568,28.500603 59.246391,31.650864 
	C59.057262,35.441467 58.244888,39.201656 57.688869,42.973022 
	C57.357792,45.218651 56.856384,47.479740 58.974499,50.494289 
	C61.465866,40.665588 69.979729,34.864956 71.209068,25.039551 
	C71.658066,21.450916 74.226471,18.380915 78.446571,17.700510 
	C82.642731,17.023964 85.000504,19.525717 86.791031,22.705841 
	C87.810387,24.516294 89.286079,25.143631 91.142532,25.612707 
	C98.739067,27.532148 102.310074,32.253113 102.506020,40.422462 
	C102.697830,48.419823 98.558418,55.310143 91.498856,56.910122 
	C86.682106,58.001789 83.164948,60.069920 80.026375,63.808926 
	C77.449486,66.878784 74.055710,69.357857 68.568634,69.300842 
	C72.767052,65.344635 76.798851,62.377251 79.230637,57.049225 
	C72.883133,53.880848 70.704552,47.677864 68.981285,39.887447 
	C64.649002,45.550762 63.507587,51.124592 62.411331,56.675926 
	C62.009766,58.709423 62.094486,60.871258 58.707123,60.201584 
M96.786301,35.866486 
	C95.827438,33.343506 94.640800,30.975580 91.979134,29.841652 
	C90.173378,29.072365 88.545883,29.197586 88.428490,31.610157 
	C88.094933,38.465244 88.773460,45.341835 87.073364,52.312222 
	C94.980148,51.344250 98.670219,44.951496 96.786301,35.866486 
M83.191422,41.018990 
	C83.540970,37.269032 83.403328,33.578678 82.050423,29.620188 
	C77.852547,31.377075 73.073997,32.061043 72.492180,37.334644 
	C71.824120,43.389900 76.073280,49.893314 81.194046,51.334518 
	C83.271225,48.503204 82.625481,45.056004 83.191422,41.018990 
M81.033348,25.636681 
	C82.283279,23.479321 81.233337,21.578302 79.289520,21.613129 
	C75.307915,21.684462 75.006584,25.165581 73.948997,28.837767 
	C76.619904,27.705788 78.555252,26.885553 81.033348,25.636681 
z"/>
<path fill="#000000" opacity="1.000000" stroke="none" 
	d="
M862.953918,49.431793 
	C862.118652,53.278774 861.363464,56.661076 859.677063,59.797192 
	C856.603333,65.513153 851.774475,68.298050 845.442444,68.153862 
	C839.087952,68.009155 834.278931,64.964027 831.679016,59.067505 
	C826.575439,47.492828 826.768555,35.793800 831.643188,24.231617 
	C834.150452,18.284544 839.100037,15.331895 845.447693,15.231517 
	C851.987610,15.128099 856.894531,18.033890 859.841553,24.095703 
	C863.713501,32.059929 863.666748,40.479618 862.953918,49.431793 
M836.174927,38.665897 
	C836.133118,44.818615 835.629578,51.047600 838.931763,56.682129 
	C842.739380,63.179169 848.664856,63.225529 852.588501,56.871456 
	C854.216675,54.234818 854.859131,51.296982 855.245239,48.350555 
	C856.162048,41.353630 856.220703,34.341499 853.222351,27.753130 
	C851.811157,24.652199 849.554688,21.777351 845.846252,21.746000 
	C841.891785,21.712568 839.725708,24.663828 838.215332,28.032736 
	C836.831421,31.119616 836.111755,34.341164 836.174927,38.665897 
z"/>
<path fill="#000000" opacity="1.000000" stroke="none" 
	d="
M693.978271,38.873119 
	C692.613403,41.574905 694.594421,42.899189 695.720032,44.390419 
	C700.130127,50.232559 704.680542,55.968555 709.111572,61.795132 
	C709.968323,62.921692 711.360046,63.870602 711.008118,65.876045 
	C706.352173,67.188957 702.561646,66.637085 699.440430,62.194553 
	C695.348267,56.369980 690.745056,50.904495 685.133057,45.481152 
	C685.133057,50.658928 685.090393,55.837193 685.149109,61.014301 
	C685.184021,64.096916 685.005371,66.635277 680.758545,66.504005 
	C676.576172,66.374741 677.011597,63.592911 677.007385,60.939259 
	C676.986755,47.958351 676.959229,34.977261 677.017639,21.996613 
	C677.026855,19.950916 676.534241,17.331821 679.587891,16.835373 
	C682.734924,16.323736 685.269470,16.798281 685.170227,20.980787 
	C685.048767,26.097980 685.141296,31.220253 686.271118,36.836948 
	C690.456909,31.407665 694.865295,26.131853 698.751160,20.495768 
	C701.394592,16.661587 704.462891,15.911771 709.237854,17.551044 
	C704.832153,25.224815 698.855042,31.465229 693.978271,38.873119 
z"/>
<path fill="#000000" opacity="1.000000" stroke="none" 
	d="
M608.016724,28.181099 
	C609.054565,24.952812 609.967773,22.106052 610.879761,19.258865 
	C611.654358,16.840307 613.592163,16.713438 615.692017,16.689297 
	C617.725830,16.665915 619.317688,17.199228 619.957031,19.303936 
	C624.540222,34.392548 629.111328,49.484844 633.664795,64.582436 
	C633.750061,64.865044 633.573547,65.226585 633.517090,65.550919 
	C627.497986,67.239380 626.401184,66.905075 624.827209,61.270229 
	C623.742981,57.388630 621.820740,55.615822 617.776917,56.106247 
	C616.139038,56.304882 614.435791,56.296490 612.797607,56.095177 
	C608.591125,55.578247 606.454834,57.336411 605.340149,61.451187 
	C603.854614,66.934990 603.366760,66.983452 596.684204,65.480949 
	C600.429810,53.142311 604.160706,40.852379 608.016724,28.181099 
M613.049805,49.680702 
	C615.429565,49.394161 618.003967,50.446198 620.488464,48.560406 
	C619.264832,42.977642 617.426819,37.608894 614.885559,31.229715 
	C613.115784,36.999622 611.686401,41.709869 610.222168,46.409267 
	C609.621643,48.336674 609.741333,49.741665 613.049805,49.680702 
z"/>
<path fill="#000000" opacity="1.000000" stroke="none" 
	d="
M767.324707,22.207607 
	C761.030762,25.883778 760.702759,30.216921 766.303589,34.259357 
	C769.669250,36.688522 773.365540,38.656765 776.888550,40.871296 
	C782.373108,44.318764 785.770081,49.035782 784.817993,55.772888 
	C783.865601,62.511826 779.661072,66.104568 771.915955,67.722603 
	C766.844727,68.782051 762.018860,67.905884 757.183838,66.427437 
	C754.093628,65.482513 753.299744,63.265404 754.104126,60.606361 
	C755.063477,57.434898 757.336487,59.349583 759.025085,59.895325 
	C762.533142,61.029083 766.044678,62.173244 769.768616,61.552998 
	C772.815063,61.045589 775.664001,59.931759 776.592407,56.543957 
	C777.484802,53.287674 776.317322,50.530724 773.678955,48.628704 
	C770.854309,46.592365 767.806885,44.861820 764.833252,43.036053 
	C761.260132,40.842251 757.840088,38.531635 755.929016,34.564758 
	C752.075500,26.566069 756.711121,17.321285 765.432861,15.773982 
	C769.072754,15.128249 772.746704,15.350796 776.382141,15.764925 
	C781.284851,16.323412 782.001770,17.686321 780.362427,22.891016 
	C776.129578,23.141037 772.037109,20.242462 767.324707,22.207607 
z"/>
<path fill="#000000" opacity="1.000000" stroke="none" 
	d="
M409.416931,59.288113 
	C413.063660,55.338055 414.000427,51.149509 411.593872,46.661499 
	C409.586182,42.917393 404.587524,41.406269 399.161133,42.652012 
	C391.489014,44.413311 385.730530,48.991161 381.093750,55.172924 
	C379.830200,56.857418 378.488312,59.527969 376.075745,57.662949 
	C373.658569,55.794357 375.269958,53.317375 376.907043,51.600929 
	C384.623932,43.509762 391.824188,35.017033 397.803925,25.540770 
	C398.405273,24.587782 398.883636,23.557152 399.713470,22.015732 
	C395.962067,21.725052 393.291351,23.376091 390.489899,24.479139 
	C385.536774,26.429403 382.332184,23.932396 382.724670,17.852245 
	C388.131531,21.289448 393.281647,18.783171 398.506256,17.561754 
	C399.794983,17.260485 401.102203,16.871693 402.407288,16.845959 
	C404.425995,16.806154 405.855652,18.009665 406.762238,19.719717 
	C407.865540,21.800747 406.408875,23.005447 405.159180,24.440975 
	C400.839294,29.403107 396.660889,34.488373 391.987396,40.052006 
	C395.491425,40.777245 397.766998,39.535778 400.117798,39.148407 
	C409.242065,37.644917 416.614685,41.746647 418.095917,49.275841 
	C419.614349,56.994183 414.256744,64.162857 405.544373,66.361298 
	C400.842377,67.547783 396.297028,67.374504 391.865082,65.496902 
	C388.718323,64.163780 386.384491,61.971577 387.130585,58.224503 
	C387.900482,54.357956 390.995392,53.716320 394.414612,53.631603 
	C399.791199,53.498390 402.392120,57.050983 404.339661,60.969116 
	C406.619354,61.784973 407.801544,60.403511 409.416931,59.288113 
M394.738739,57.966484 
	C393.124756,57.327351 391.045532,57.611496 391.667725,59.419891 
	C392.745789,62.553219 395.651886,63.121265 398.847961,62.305912 
	C398.591461,59.864273 396.859100,59.151413 394.738739,57.966484 
z"/>
<path fill="#000000" opacity="1.000000" stroke="none" 
	d="
M957.351685,27.658470 
	C958.829956,29.839064 959.336304,32.241741 961.734558,34.121361 
	C964.237488,29.645754 966.872620,25.455572 968.981201,21.015345 
	C971.056580,16.645033 974.162903,15.936197 978.210327,17.159557 
	C979.159668,18.789339 978.139221,19.870924 977.547424,20.996796 
	C976.387268,23.203894 975.344849,25.507376 973.916443,27.533152 
	C966.853577,37.549648 963.478455,48.463966 965.056335,60.802696 
	C965.382385,63.351990 965.507751,66.343994 961.361938,66.423569 
	C958.486938,66.478760 956.904114,65.490891 956.957642,62.471523 
	C956.963562,62.139351 956.885071,61.797970 956.936768,61.475441 
	C959.226074,47.184521 953.561829,35.226364 946.020935,23.764168 
	C944.797180,21.904011 943.139160,20.034410 943.591675,17.272869 
	C948.058533,15.910256 951.673767,16.347660 953.783630,21.242744 
	C954.699646,23.367899 956.042786,25.308987 957.351685,27.658470 
z"/>
<path fill="#000000" opacity="1.000000" stroke="none" 
	d="
M255.689301,45.617638 
	C255.248856,39.149448 256.069794,33.214878 257.032349,27.315771 
	C257.786041,22.696419 259.053131,18.111692 254.517151,14.227956 
	C257.462189,12.366249 259.514801,13.338950 261.361725,14.728243 
	C263.332672,16.210838 263.580383,18.336691 262.862244,20.588188 
	C260.835358,26.942703 259.879150,33.471584 259.663605,40.181812 
	C261.839996,34.836975 263.603577,29.319174 267.457153,24.883204 
	C269.664612,22.342108 271.871429,19.797647 275.811493,20.511738 
	C279.696320,21.215816 281.303986,24.160978 282.205536,27.428703 
	C286.142212,41.697464 283.697571,61.379250 270.062256,69.522171 
	C268.585571,70.404037 267.216858,71.863068 265.273193,70.946472 
	C264.983826,69.735077 265.614014,69.140366 266.223907,68.597343 
	C278.539948,57.631435 280.320953,43.670433 277.620789,28.453852 
	C277.264191,26.444292 276.540436,24.323912 274.360138,23.826752 
	C272.261292,23.348166 271.098022,25.291229 270.089935,26.738932 
	C265.432251,33.428017 262.839783,40.863007 262.265564,49.020859 
	C262.138062,50.831799 263.367798,53.657005 260.648865,54.109959 
	C257.629883,54.612900 257.172180,51.655201 256.498291,49.455555 
	C256.159698,48.350380 255.968933,47.199928 255.689301,45.617638 
z"/>
<path fill="#000000" opacity="1.000000" stroke="none" 
	d="
M821.801147,62.277302 
	C821.995972,64.517776 821.723633,66.249710 819.464966,66.271355 
	C811.356812,66.349075 803.247498,66.301842 795.219360,66.301842 
	C793.688110,61.375126 794.443420,56.891941 794.429260,52.436344 
	C794.397217,42.297134 794.179138,32.158318 794.181519,22.019377 
	C794.182007,20.024893 793.666748,17.377480 796.734924,16.826885 
	C800.363647,16.175711 802.344788,17.264496 802.275574,21.490812 
	C802.095764,32.474167 802.373230,43.465755 802.140686,54.447124 
	C802.051758,58.648834 803.541931,60.122902 807.628296,59.779751 
	C810.768433,59.516052 813.949646,59.705181 817.111755,59.752331 
	C818.924316,59.779358 820.881836,59.605560 821.801147,62.277302 
z"/>
<path fill="#000000" opacity="1.000000" stroke="none" 
	d="
M909.633789,60.796432 
	C909.639526,48.026806 909.573181,35.734447 909.709045,23.444323 
	C909.739685,20.667196 908.167114,16.586155 913.605835,16.713127 
	C919.059509,16.840448 917.190186,21.001066 917.240051,23.686529 
	C917.434021,34.147408 917.418152,44.615292 917.270508,55.077606 
	C917.222412,58.479679 918.320496,59.954681 921.843201,59.758568 
	C925.485840,59.555779 929.149048,59.722866 932.803284,59.728241 
	C935.131042,59.731667 937.131226,60.023056 937.200256,63.113361 
	C937.261658,65.863838 935.588074,66.565323 933.400879,66.591095 
	C926.606018,66.671135 919.809509,66.716805 913.014832,66.648819 
	C909.295593,66.611595 909.626587,63.784637 909.633789,60.796432 
z"/>
<path fill="#000000" opacity="1.000000" stroke="none" 
	d="
M640.686340,39.000053 
	C640.691467,32.679749 640.750244,26.858761 640.679199,21.039358 
	C640.645325,18.262987 641.447021,16.681627 644.616577,16.678244 
	C647.944031,16.674694 648.353088,18.550005 648.342651,21.185328 
	C648.298462,32.326965 648.464294,43.471367 648.260498,54.609398 
	C648.189331,58.502934 649.421875,60.053352 653.383179,59.793037 
	C657.190063,59.542870 661.028320,59.759789 664.852722,59.790340 
	C667.035767,59.807781 668.216797,60.775326 668.233887,63.117550 
	C668.251343,65.502579 667.038025,66.359512 664.848877,66.364471 
	C658.031128,66.379913 651.212219,66.354958 644.396057,66.474739 
	C641.074829,66.533104 640.664246,64.572472 640.681396,61.949837 
	C640.730225,54.466873 640.691162,46.983334 640.686340,39.000053 
z"/>
<path fill="#000000" opacity="1.000000" stroke="none" 
	d="
M214.544174,61.674377 
	C215.488632,63.083191 216.387207,64.130417 216.858963,65.343620 
	C217.634674,67.338402 217.625275,69.506271 215.475830,70.584976 
	C213.203842,71.725166 212.250992,69.755219 211.370987,68.130257 
	C207.264526,60.547565 201.127411,54.679874 195.098602,48.702747 
	C189.520584,43.172543 189.555786,41.300678 194.938187,35.425339 
	C198.308014,31.746880 201.615707,28.011105 205.009720,24.355301 
	C207.856781,21.288652 210.993362,18.363569 207.662949,13.440071 
	C211.507050,12.840074 213.663483,14.194860 215.011810,17.026682 
	C216.299637,19.731390 215.160431,21.667154 213.150650,23.600283 
	C207.998703,28.555763 203.085480,33.759609 197.928268,38.709412 
	C195.445557,41.092285 195.518799,42.886005 197.955231,45.313168 
	C203.370514,50.707813 209.463974,55.414539 214.544174,61.674377 
z"/>
<path fill="#000000" opacity="1.000000" stroke="none" 
	d="
M446.965118,42.008369 
	C448.108032,37.124424 452.038574,34.742886 454.760071,31.449009 
	C456.879883,28.883326 459.220978,26.501764 461.394409,23.978670 
	C463.950989,21.010849 467.810333,18.376966 463.391968,13.622896 
	C467.684448,12.805946 469.758759,14.362089 471.040955,17.188232 
	C472.282410,19.924574 470.957550,21.823011 468.967651,23.727423 
	C464.038147,28.445005 459.389160,33.457371 454.425049,38.136559 
	C451.474884,40.917404 451.349823,43.030228 454.441589,45.867950 
	C459.835114,50.818253 464.960052,56.065907 470.099518,61.285450 
	C471.723724,62.934959 473.205597,64.809906 473.225494,67.351349 
	C473.236725,68.788506 472.726929,70.033028 471.397461,70.654190 
	C469.889984,71.358521 468.703339,70.503059 468.076111,69.266617 
	C463.608826,60.460129 456.423462,53.945435 449.604431,47.112328 
	C448.296234,45.801403 447.291199,44.271748 446.965118,42.008369 
z"/>
<path fill="#000000" opacity="1.000000" stroke="none" 
	d="
M148.637390,39.103966 
	C140.028778,38.852749 133.663635,43.072926 127.414856,47.600994 
	C125.881523,48.712097 124.568787,50.841091 122.248444,49.427879 
	C119.995087,48.055470 118.736275,46.030014 119.078354,42.379925 
	C124.209625,45.120037 127.589775,41.530998 131.400345,39.641735 
	C137.187912,36.772278 143.169968,35.138702 149.678024,35.725475 
	C155.937073,36.289799 159.984924,39.314732 161.557144,44.701954 
	C163.112717,50.032131 161.067169,55.597805 156.097076,59.073986 
	C149.072159,63.987343 140.950180,64.595657 132.750671,64.756599 
	C131.932343,64.772659 131.124176,64.418243 130.692993,63.272675 
	C133.759445,60.970093 137.641449,61.747204 141.050934,60.771011 
	C145.554398,59.481606 150.133591,58.472591 153.533310,54.971581 
	C156.020386,52.410389 158.081665,49.476730 157.007233,45.648121 
	C155.909195,41.735371 153.116486,39.586094 148.637390,39.103966 
z"/>
</svg>