<svg version="1.1" id="Layer_1" xmlns="http://www.w3.org/2000/svg" xmlns:xlink="http://www.w3.org/1999/xlink" x="0px" y="0px"
	 width="100%" viewBox="0 0 1024 576" enable-background="new 0 0 1024 576" xml:space="preserve">
<path fill="#000000" opacity="1.000000" stroke="none" 
	d="
M553.468628,577.000000 
	C547.039856,570.551453 548.554504,562.704956 549.060364,555.130432 
	C550.179504,538.373901 551.480530,521.629456 552.698303,504.879425 
	C552.770691,503.883209 552.567322,502.827759 552.822876,501.889954 
	C556.318176,489.062805 551.468994,479.390289 542.405396,470.398834 
	C534.629761,462.685028 528.097473,453.719025 520.994568,445.324371 
	C520.164734,444.343628 519.559265,443.031921 517.975586,442.881073 
	C516.390076,443.741119 515.952393,445.427094 515.234741,446.879303 
	C506.896179,463.752197 498.553711,480.623291 490.275024,497.525574 
	C484.887970,508.524078 480.188324,510.751221 468.023560,509.715729 
	C450.782257,508.248077 433.485291,507.434448 416.212036,506.342865 
	C410.400574,505.975586 404.572144,505.782013 398.781067,505.209564 
	C389.700928,504.312042 384.002716,497.219940 384.606293,487.911346 
	C385.138306,479.706635 392.097748,473.428040 401.002930,473.828033 
	C413.305206,474.380585 425.585205,475.423431 437.876068,476.236115 
	C445.515839,476.741272 453.162231,477.153503 460.797089,477.722137 
	C463.691589,477.937714 465.417358,476.827667 466.657990,474.201630 
	C470.499420,466.070465 474.487122,458.007690 478.485748,449.951965 
	C479.491791,447.925232 479.641571,445.831421 479.640503,443.646545 
	C479.627289,416.652863 479.644623,389.659149 479.617889,362.665497 
	C479.615997,360.748871 480.076843,358.659088 478.186096,356.742096 
	C473.504913,358.759338 469.978668,362.331146 466.346924,365.630219 
	C450.954773,379.612366 439.619385,396.566864 430.552155,415.142090 
	C429.821442,416.638977 429.143158,418.162476 428.378296,419.641449 
	C424.180359,427.758881 415.704742,431.019409 407.814423,427.572388 
	C399.780457,424.062622 396.150177,415.167175 399.919678,406.587311 
	C407.254272,389.892639 416.577759,374.349518 428.122162,360.176636 
	C446.876160,337.152679 470.376068,320.766235 497.955933,310.036407 
	C505.626740,307.052124 513.532227,305.052490 521.764648,305.020477 
	C525.381287,305.006378 527.561462,303.719299 529.480286,300.757782 
	C546.349304,274.722717 554.856201,246.330948 553.943542,215.227188 
	C553.875183,212.895462 553.740906,210.563522 553.748901,208.232086 
	C553.780945,198.855072 560.125977,191.984909 568.950134,191.717926 
	C577.763611,191.451263 584.724426,197.905029 585.221130,207.233780 
	C586.899536,238.754272 581.241638,268.860931 567.498108,297.365753 
	C563.437988,305.786682 558.747192,313.843140 553.426575,321.521637 
	C551.935181,323.674042 551.259644,325.866913 551.264221,328.492523 
	C551.321899,361.817963 551.333130,395.143585 551.263977,428.468964 
	C551.258057,431.333435 552.130310,433.520325 553.974792,435.671204 
	C562.649841,445.787354 571.082581,456.113098 579.847046,466.149872 
	C584.523010,471.504669 586.260925,477.137115 585.615356,484.410614 
	C583.747620,505.455353 582.666687,526.569763 581.263916,547.655945 
	C580.888367,553.300354 580.497314,558.944153 580.055847,564.583679 
	C579.726501,568.790833 578.546204,572.742920 576.116089,576.657104 
	C568.645752,577.000000 561.291504,577.000000 553.468628,577.000000 
z"/>
<path fill="#000000" opacity="1.000000" stroke="none" 
	d="
M527.289062,271.643585 
	C523.866333,289.208649 511.566254,299.014374 494.343689,298.343781 
	C479.560730,297.768127 467.463531,285.983002 466.018158,269.774139 
	C464.799103,256.103333 473.912476,238.779144 495.233643,236.903976 
	C511.248779,235.495468 526.915283,249.484192 527.323547,265.200104 
	C527.375366,267.195801 527.316650,269.194397 527.289062,271.643585 
z"/>
<path fill="#000000" opacity="1.000000" stroke="none" 
	d="
M562.627502,143.755569 
	C563.839111,140.419052 564.836914,137.422775 565.957397,134.473068 
	C566.581299,132.830704 567.699158,131.635971 569.642151,131.604858 
	C571.567688,131.574036 573.075256,132.601303 573.376038,134.319977 
	C574.980652,143.490479 579.936279,147.371277 589.495239,146.336456 
	C593.399536,145.913803 595.036377,150.669205 591.703491,152.845352 
	C583.392517,158.271744 581.908752,164.849808 586.090820,173.417419 
	C586.755493,174.779037 586.219055,176.399857 584.839111,177.414429 
	C583.282776,178.558701 581.516296,178.516022 580.249634,177.250595 
	C573.108215,170.116272 566.159302,170.213913 559.098328,177.371658 
	C558.008545,178.476425 556.322021,178.540512 554.928772,177.554504 
	C553.422058,176.488190 552.619751,174.875961 553.442688,173.202774 
	C557.657654,164.632950 556.040283,157.825821 547.800903,152.661652 
	C546.384155,151.773697 545.674683,150.056870 546.512451,148.245667 
	C547.399414,146.328171 549.143005,146.020157 551.043091,145.742508 
	C554.848389,145.186462 559.042664,147.292740 562.627502,143.755569 
z"/>
<path fill="#000000" opacity="1.000000" stroke="none" 
	d="
M640.022461,16.668186 
	C644.010803,16.688543 647.507019,16.699188 651.002930,16.735332 
	C652.881836,16.754759 654.215149,17.371054 654.289429,19.578110 
	C654.365601,21.840580 653.370422,23.061596 651.113281,23.107725 
	C647.118896,23.189362 643.122131,23.279566 639.128418,23.220726 
	C636.384094,23.180296 635.258179,24.320599 635.274231,27.094173 
	C635.348450,39.891335 634.231140,37.595173 645.271057,37.834694 
	C646.269653,37.856358 647.269226,37.841995 648.267456,37.871967 
	C650.395203,37.935833 652.289124,38.210964 652.306335,41.065048 
	C652.323242,43.867050 650.601562,44.314556 648.372131,44.304970 
	C645.208923,44.291367 642.044800,44.367413 638.882507,44.316250 
	C636.369934,44.275593 635.460266,45.426323 635.250244,47.921185 
	C634.255859,59.734554 634.193298,59.725716 646.148926,59.728771 
	C648.146240,59.729282 650.145874,59.724743 652.140198,59.815742 
	C654.166565,59.908207 655.069336,61.093719 655.084473,63.079910 
	C655.099609,65.064911 654.254761,66.319000 652.187073,66.330658 
	C645.028870,66.371025 637.870300,66.347237 630.711914,66.347183 
	C628.652039,66.347168 627.676331,65.284714 627.672729,63.256134 
	C627.647034,48.771530 627.638489,34.286842 627.572754,19.802412 
	C627.561523,17.329168 628.887634,16.667858 631.039429,16.693718 
	C633.869202,16.727726 636.699951,16.681061 640.022461,16.668186 
z"/>
<path fill="#000000" opacity="1.000000" stroke="none" 
	d="
M619.994690,18.599026 
	C616.888306,24.707676 614.026123,30.547203 610.654053,36.075672 
	C607.419067,41.379444 605.708801,46.849194 606.302856,53.090599 
	C606.585510,56.059540 606.272217,59.080482 606.361938,62.073887 
	C606.444519,64.829773 605.707642,66.481445 602.478149,66.426575 
	C599.206787,66.371002 598.669739,64.524948 598.702576,61.880341 
	C598.756348,57.553185 598.560547,53.217911 598.756653,48.899078 
	C598.921997,45.256779 597.984863,42.075249 596.179626,38.947468 
	C592.216248,32.080391 588.436279,25.107412 584.546448,18.114695 
	C590.725159,15.595905 592.347656,16.105963 595.173950,21.034744 
	C597.627075,25.312725 600.055237,29.605028 602.917419,34.634369 
	C606.102234,29.120167 608.794189,24.388765 611.556458,19.698805 
	C613.762268,15.953690 616.614868,15.428005 619.994690,18.599026 
z"/>
<path fill="#000000" opacity="1.000000" stroke="none" 
	d="
M675.584290,44.817646 
	C670.901123,35.646149 666.254700,26.893314 661.393799,17.736309 
	C666.231689,16.013569 669.546875,16.086231 671.840210,20.765863 
	C674.023499,25.220945 676.678406,29.444853 679.690247,34.767643 
	C682.543396,29.781324 685.153687,25.653118 687.321655,21.304417 
	C689.362000,17.211761 692.113953,15.566168 696.499023,17.281107 
	C697.467468,18.487553 696.712524,19.507013 696.182373,20.505251 
	C694.855652,23.003532 693.712891,25.640638 692.087585,27.932178 
	C684.979736,37.953983 681.681946,48.903217 683.261047,61.224190 
	C683.626404,64.074890 683.236938,66.520699 679.214050,66.410027 
	C675.291443,66.302116 675.695190,63.700481 675.676025,61.217827 
	C675.634827,55.890831 675.636780,50.563503 675.584290,44.817646 
z"/>
<path fill="#000000" opacity="1.000000" stroke="none" 
	d="
M414.133392,55.134926 
	C417.627289,51.377213 420.874756,47.873333 424.303772,44.173553 
	C419.238739,42.842651 415.834595,50.045315 411.004486,45.672863 
	C409.579651,44.383076 408.934692,42.699280 410.146027,40.411781 
	C415.183899,43.183617 419.777344,40.454826 424.512970,39.372021 
	C425.960388,39.041069 427.324493,38.264500 428.868256,38.619709 
	C430.420258,38.976810 431.601440,39.905701 432.152252,41.398277 
	C432.736145,42.980556 431.533173,43.716232 430.511780,44.639286 
	C427.575989,47.292431 424.754028,50.071556 421.608185,53.066982 
	C424.036560,55.217823 425.711182,57.321194 426.538727,60.121647 
	C427.667908,63.942928 430.438110,65.258324 434.327759,64.183502 
	C436.239990,63.655094 438.166229,63.078323 440.124298,62.848328 
	C441.512299,62.685295 442.775696,63.468739 443.142120,64.942955 
	C443.569763,66.663277 442.245880,67.217384 440.962708,67.734116 
	C433.124268,70.890533 425.289368,67.873611 421.964813,60.142403 
	C420.417725,56.544647 418.423950,57.009258 416.344330,59.184399 
	C413.941254,61.697842 411.939789,64.590462 409.631989,67.201813 
	C408.567566,68.406204 407.173065,69.987839 405.445435,68.382927 
	C403.781433,66.837135 404.392609,65.050674 405.838928,63.565826 
	C408.507385,60.826279 411.202789,58.112999 414.133392,55.134926 
z"/>
<path fill="#000000" opacity="1.000000" stroke="none" 
	d="
M353.908173,49.871326 
	C352.879944,52.527340 351.410889,54.557487 351.252075,57.201015 
	C350.957336,62.106060 348.705414,63.184868 344.569183,60.425289 
	C339.760040,57.216766 338.022003,52.009224 337.050049,46.791245 
	C335.608521,39.052471 336.380524,30.974207 333.197296,23.397213 
	C338.654236,23.289682 341.462341,26.043501 341.247772,31.277884 
	C341.057983,35.907532 340.023193,40.538002 341.437897,45.121769 
	C342.294617,47.897644 342.587372,51.077457 346.112793,52.573696 
	C351.016541,48.341827 352.818359,41.459774 358.920715,36.760414 
	C358.496582,42.306087 355.550964,45.644573 353.908173,49.871326 
z"/>
<path fill="#000000" opacity="1.000000" stroke="none" 
	d="
M475.604736,61.531780 
	C467.644531,58.635532 466.050995,51.822929 464.833954,45.118629 
	C463.542816,38.005886 464.410767,30.551802 461.285339,23.689768 
	C466.631195,22.966547 469.893097,26.299658 469.156067,32.081646 
	C468.603546,36.415966 468.255798,40.630257 469.339142,44.898590 
	C470.116333,47.960648 470.847198,51.023079 473.939270,53.197113 
	C478.727692,48.581287 480.765656,41.727295 486.257172,37.405563 
	C487.584534,39.908554 485.851349,41.258030 485.257935,42.829933 
	C483.176117,48.344776 478.886932,53.015625 479.154907,59.447292 
	C479.233734,61.339478 477.701385,61.851299 475.604736,61.531780 
z"/>
<path fill="#000000" opacity="1.000000" stroke="none" 
	d="
M529.957642,177.476349 
	C531.806091,177.682602 533.307068,177.656326 534.790222,177.805969 
	C536.178772,177.946060 537.320190,179.184402 536.449585,180.149216 
	C533.221924,183.726212 533.909851,187.504852 535.790710,190.781738 
	C534.429260,192.388916 533.399963,192.367706 532.490173,191.894638 
	C529.787964,190.489502 527.565125,190.715927 525.375732,193.064224 
	C523.955505,194.587540 520.985840,194.767090 521.342834,192.401535 
	C522.086487,187.474243 518.781677,185.406540 516.085449,182.990921 
	C517.109436,179.773651 520.314636,180.720184 521.857117,179.044296 
	C523.409058,177.358078 522.288025,174.239197 525.053345,173.132339 
	C527.675720,173.298859 527.845581,176.190964 529.957642,177.476349 
z"/>
<path fill="#000000" opacity="1.000000" stroke="none" 
	d="
M606.314575,168.334671 
	C605.474060,164.889099 606.232727,163.088943 609.634399,164.736710 
	C612.070374,165.916718 614.000916,165.798950 615.989258,164.049622 
	C616.862061,163.281708 617.919739,162.592896 619.125793,163.383987 
	C620.291199,164.148376 620.309692,165.381195 619.873657,166.497253 
	C618.812012,169.214325 619.894958,170.847809 622.236084,172.188644 
	C623.740784,173.050400 625.277100,175.351685 623.014404,175.816544 
	C618.198364,176.806000 616.859985,180.655807 614.488647,185.129227 
	C611.669556,180.204987 608.505737,177.124146 603.417847,178.124008 
	C602.485535,173.855392 608.143250,172.558884 606.314575,168.334671 
z"/>
<path fill="#000000" opacity="1.000000" stroke="none" 
	d="
M375.335175,28.449257 
	C381.504913,32.887455 384.536224,38.766705 385.572601,45.799690 
	C385.850037,47.682236 385.825989,49.588291 384.089203,50.739735 
	C382.555450,51.756550 381.311218,50.405537 380.007385,49.752426 
	C377.812500,48.652962 375.586060,47.616463 373.400391,46.566681 
	C373.499023,46.104427 373.480347,45.585144 373.642151,45.520947 
	C380.341003,42.863686 380.843079,40.994450 375.927521,34.962234 
	C373.974060,32.564983 371.456238,30.627647 369.131653,28.420437 
	C371.119263,26.062981 373.087067,27.717730 375.335175,28.449257 
z"/>
<path fill="#000000" opacity="1.000000" stroke="none" 
	d="
M505.966736,44.236362 
	C508.508606,42.574619 507.142731,40.827312 506.507446,39.237797 
	C504.658539,34.611958 501.079742,31.431723 496.597443,28.573261 
	C500.006683,26.390461 502.486145,27.690380 504.630676,29.422123 
	C510.058716,33.805248 512.893188,39.667381 513.665100,46.546356 
	C513.835632,48.066395 513.609985,49.607677 512.292114,50.603657 
	C510.741333,51.775688 509.535583,50.508656 508.236145,49.846165 
	C505.941437,48.676208 503.607269,47.583591 501.273834,46.450951 
	C502.189941,44.081367 504.259430,45.030193 505.966736,44.236362 
z"/>
<path fill="#000000" opacity="1.000000" stroke="none" 
	d="
M421.631195,25.458378 
	C423.949036,26.791094 426.006104,27.867027 427.974609,29.086029 
	C429.173889,29.828691 429.878510,31.038647 429.523560,32.475410 
	C429.125427,34.086811 427.724457,34.145626 426.344666,34.202763 
	C423.788269,34.308628 421.235291,34.496719 418.785858,34.644241 
	C418.035309,32.627708 420.484161,32.449287 419.996216,29.864960 
	C419.347565,28.209263 415.541290,26.683472 416.594421,22.913851 
	C418.992310,22.356478 419.783234,24.556160 421.631195,25.458378 
z"/>
</svg>